<?xml version="1.0" encoding="utf-8"?>
<!-- Generator: Adobe Illustrator 27.5.0, SVG Export Plug-In . SVG Version: 6.00 Build 0)  -->
<svg version="1.1" xmlns="http://www.w3.org/2000/svg" xmlns:xlink="http://www.w3.org/1999/xlink" x="0px" y="0px"
	 viewBox="0 0 500 500" style="enable-background:new 0 0 500 500;" xml:space="preserve">
<g id="BACKGROUND">
	<rect style="fill:#FFFFFF;" width="500" height="500"/>
</g>
<g id="OBJECTS">
	<g>
		<g>
			<path style="fill:#F0EADD;" d="M329.358,375.556c-10.633,2.63-20.709,6.618-31.111,9.964c-7.991,2.57-16.209,4.71-24.131,7.569
				v42.421c0.04-0.011,0.074-0.02,0.116-0.031c0.972-0.273,1.942-0.553,2.917-0.815c2.729-0.733,5.48-1.386,8.22-2.074
				c5.517-1.385,10.894-3.022,16.25-4.935c10.83-3.868,21.371-8.48,32.047-12.744c10.647-4.253,21.312-8.343,31.902-12.616
				c-0.179-0.017-0.346-0.04-0.481-0.075c-0.146-0.024-0.267-0.073-0.34-0.146c-0.316-0.243-0.583-0.51-0.802-0.802
				c0.17-0.219,0.316-0.486,0.413-0.778c0.218-0.583,0.462-1.215,0.559-1.847c0.049-0.413,0.073-0.827-0.049-1.24
				c0-0.049,0-0.097-0.024-0.146c-0.122-0.486-0.389-0.899-0.632-1.337c-0.122-0.219-0.243-0.462-0.316-0.705
				c-0.049-0.146-0.097-0.292-0.121-0.438c-0.219-1.045,0.097-2.115,0.535-3.136c0.146-0.34,0.291-0.681,0.462-0.997
				c0.073-0.146,0.146-0.316,0.219-0.462c0.632-1.313,1.167-2.747,0.729-4.108c-0.073-0.243-0.194-0.486-0.316-0.705
				c-0.195-0.365-0.413-0.729-0.559-1.094c-0.073-0.17-0.122-0.316-0.146-0.486c-0.219-0.972,0.122-1.92,0.51-2.893
				c0.17-0.462,0.365-0.924,0.486-1.386c0.146-0.583,0.219-1.167,0.073-1.75c0-0.024-0.025-0.073-0.025-0.097
				c-0.097-0.365-0.292-0.705-0.438-1.07c-0.122-0.292-0.219-0.608-0.17-0.948c0.121-0.802,1.07-1.385,1.045-2.212
				c-0.024-0.219-0.219-0.851-0.486-1.385c0.121-0.243,0.267-0.462,0.413-0.681c0.705-0.996,1.701-1.75,3.136-2.115
				c1.098-0.27,1.634-0.94,1.402-1.823C356.849,369.974,342.985,372.186,329.358,375.556z"/>
			<g>
				<g>
					<g>
						<path style="fill:#F0DDB6;" d="M365.744,377.668c-0.097-0.365-0.292-0.705-0.438-1.07c-30.016,8.25-60.663,15.24-91.19,20.778
							v0.884l0.062,0.336c30.676-5.566,61.449-12.567,91.59-20.831C365.768,377.741,365.744,377.693,365.744,377.668z"/>
					</g>
					<g>
						<path style="fill:#F0DDB6;" d="M274.116,403.109v1.248l91.093-23.456c0.17-0.462,0.365-0.924,0.486-1.386L274.116,403.109z"/>
					</g>
					<g>
						<path style="fill:#F0DDB6;" d="M274.116,412.213l91.287-26.839c-0.195-0.365-0.413-0.729-0.559-1.094l-90.728,26.666V412.213z
							"/>
					</g>
					<g>
						<path style="fill:#F0DDB6;" d="M274.116,416.279v1.256c30.029-8.337,60.289-17.005,90.194-25.889
							c0.146-0.34,0.291-0.681,0.462-0.997c0.073-0.146,0.146-0.316,0.219-0.462C334.875,399.113,304.359,407.871,274.116,416.279z"
							/>
					</g>
					<g>
						<path style="fill:#F0DDB6;" d="M274.116,421.471l90.096-25.548c-0.122-0.219-0.243-0.462-0.316-0.705
							c-0.049-0.146-0.097-0.292-0.121-0.438l-89.659,25.427V421.471z"/>
					</g>
					<g>
						<path style="fill:#F0DDB6;" d="M364.869,397.406c-31.096,7.113-61.573,17.225-90.753,30.114v1.307
							c29.181-12.895,59.678-23.053,90.801-30.181C364.966,398.233,364.991,397.819,364.869,397.406z"/>
					</g>
				</g>
			</g>
		</g>
		<g>
			<path style="fill:#F77E68;" d="M277.338,393.736v38.187l87.75-29.704c1.483,0.389,6.126-0.51,4.424,1.896
				c-1.288,1.774-3.087,2.917-5.104,3.67c-10.598,3.987-21.172,7.949-31.77,11.911c-9.018,3.379-18.012,6.855-27.006,10.258
				c-8.532,3.233-16.991,6.952-25.766,9.431c-4.132,1.167-7.827,1.92-11.716,1.459c0-12.227,0-52.771,0-52.771
				c0.729,0,46.84-16.966,47.375-17.137c0.437-0.17,37.993-5.834,50.875-7.778c0.948,0.535,1.823,1.167,2.601,1.945
				c0.462,0.486,0.899,1.021,1.313,1.604c0.826,1.24,0.316,2.212-1.069,2.552c-1.434,0.365-2.431,1.118-3.136,2.115L277.338,393.736
				z"/>
			<path style="fill:#FFAB9C;" d="M370.33,366.761l-90.667,22.047c-2.723,0.656-4.959,2.358-6.344,4.618
				c-0.996,1.58-1.531,3.427-1.531,5.396v42.1c-2.674,0.17-5.372-0.146-8.289-1.167c-9.942-3.549-19.762-7.438-29.728-11.011
				c-10.549-3.768-21.123-7.535-31.673-11.303c-23.724-8.483-47.448-16.918-71.196-25.304c-4.375-1.556-7-4.181-8.435-8.508
				c-1.993-6.101-3.111-12.178-1.337-18.522c1.337-4.74,4.035-7.681,8.969-8.896c0.122-0.024,0.267-0.073,0.389-0.097
				c35.051-7.827,70.054-15.824,105.057-23.846c2.698-0.608,5.202-0.535,7.827,0.122c13.418,3.282,26.811,6.563,40.205,9.845
				c24.21,5.931,48.445,11.813,72.679,17.696c4.376,1.07,9.456,1.896,12.737,5.177c0.486,0.486,0.924,1.021,1.313,1.604
				C370.305,366.736,370.33,366.736,370.33,366.761z"/>
			<path style="fill:#FFC7BD;" d="M273.319,393.426c-0.996,1.58-1.531,3.427-1.531,5.396v42.1c-2.674,0.17-5.372-0.146-8.289-1.167
				c-9.942-3.549-19.762-7.438-29.728-11.011c-10.549-3.768-21.123-7.535-31.673-11.303c-23.724-8.483-47.448-16.918-71.196-25.304
				c-4.375-1.556-7-4.181-8.435-8.508c-1.993-6.101-3.111-12.178-1.337-18.522c1.337-4.74,4.035-7.681,8.969-8.896L273.319,393.426z
				"/>
		</g>
		<path style="fill:#FFFFFF;" d="M370.314,366.706c-0.221-0.312-0.451-0.608-0.686-0.893l-89.28,21.768
			c-3,0.731-5.545,2.249-7.363,4.387c-0.133,0.157-0.254,0.315-0.376,0.473l-139.76-36.84c-0.785,0.176-1.568,0.355-2.353,0.531
			c-0.811,0.179-1.545,0.419-2.244,0.687l143.098,37.72c-0.406,0.937-0.624,1.894-0.643,2.867v43.565
			c0.784-0.007,1.566-0.059,2.35-0.147v-43.396c0.025-1.304,0.604-2.629,1.717-3.939c1.495-1.759,3.615-3.012,6.13-3.625
			l89.798-21.894C370.746,367.599,370.624,367.172,370.314,366.706z"/>
	</g>
	<g>
		<g>
			<path style="fill:#F0EADD;" d="M225.832,339.349c-5.984-1.7-12.088-2.957-18.203-4.081c-12.575-2.313-25.027-4.708-37.448-7.772
				c-12.196-3.008-24.361-6.155-36.854-7.683c-5.601-0.685-11.331-1.427-16.996-1.602c0.007,0.008,0.011,0.015,0.018,0.023
				c0.948,1.021,2.844,1.045,4.06,1.556c0.851,0.34,1.629,0.778,2.333,1.288c0.194,0.146,0.389,0.316,0.583,0.462
				c0.024,0.51,0.243,1.045,0.559,1.458c0.121,0.17,0.267,0.34,0.413,0.51c0.34,0.438,0.705,0.875,0.875,1.41
				c0.024,0.073,0.024,0.17,0.049,0.243c0.146,0.827-0.243,1.677-0.292,2.504c-0.049,0.219-0.049,0.438,0,0.656
				c0.024,0.194,0.097,0.389,0.194,0.559c0.316,0.705,0.899,1.337,0.948,2.115c0.073,0.948-0.632,1.774-0.996,2.649
				c-0.097,0.194-0.17,0.413-0.195,0.608c-0.024,0.195-0.024,0.413,0,0.608c0.049,0.826,0.486,1.629,0.705,2.455
				c0.097,0.34,0.146,0.705,0.121,1.07c0,0.073,0,0.121-0.024,0.194c-0.146,1.07-0.972,1.993-1.264,3.038
				c-0.049,0.219-0.097,0.438-0.097,0.681c-0.049,0.413-0.049,0.851,0,1.264c0,0.365,0.024,0.729,0.024,1.069
				c0,0.608-0.073,1.191-0.146,1.774c-0.049,0.413-0.097,0.802-0.122,1.215c-0.024,0.049-0.024,0.121-0.024,0.17
				c-0.073,1.069,0,2.188,0.51,3.111c0.097,0.17,0.219,0.316,0.34,0.486c-0.243,0.194-0.535,0.365-0.826,0.51h-0.024
				c-0.391,0.173-0.828,0.282-1.279,0.366c1.246,0.938,2.416,1.99,3.587,3.024c0.202,0.178,0.665,0.47,0.899,0.622
				c0.553,0.22,1.461,0.537,1.963,0.741c1.835,0.745,3.631,1.531,5.398,2.362c3.151,0.513,6.344,0.788,9.516,1.153
				c11.836,1.364,23.255,4.075,34.742,7.167c11.313,3.045,22.601,5.418,34.087,7.668c4.85,0.95,9.658,2.19,14.56,2.843
				c3.703,0.493,7.419,0.869,11.096,1.47c0.497-3.854,0.745-7.739,1.002-11.688c0.513-7.885,1.432-15.732,1.914-23.62
				C236.189,342.954,231.071,340.838,225.832,339.349z"/>
			<g>
				<g>
					<g>
						<path style="fill:#F0DDB6;" d="M241.132,349.676c-38.606-9.553-77.894-18.355-116.834-26.167
							c0.34,0.438,0.705,0.875,0.875,1.41c38.645,7.777,77.592,16.523,115.852,25.977
							C241.06,350.489,241.099,350.083,241.132,349.676z"/>
					</g>
					<g>
						<path style="fill:#F0DDB6;" d="M240.779,353.729l-71.244-17.896c-14.463-3.646-29.412-7.39-44.604-8.167
							c-0.049,0.219-0.049,0.438,0,0.656c0.024,0.194,0.097,0.389,0.194,0.559c14.973,0.802,29.777,4.521,44.118,8.119
							l71.428,17.965C240.708,354.552,240.742,354.14,240.779,353.729z"/>
					</g>
					<g>
						<path style="fill:#F0DDB6;" d="M240.479,357.14c-38.041-9.114-76.811-17.012-115.403-23.496
							c-0.097,0.194-0.17,0.413-0.195,0.608c-0.024,0.195-0.024,0.413,0,0.608c38.621,6.468,77.443,14.378,115.489,23.508
							C240.407,357.959,240.443,357.55,240.479,357.14z"/>
					</g>
					<g>
						<path style="fill:#F0DDB6;" d="M240.055,361.977c0.034-0.407,0.069-0.814,0.104-1.222
							c-37.876-8.324-76.372-16.208-114.572-23.44c0.097,0.34,0.146,0.705,0.121,1.07c0,0.073,0,0.121-0.024,0.194
							C163.786,345.796,202.231,353.665,240.055,361.977z"/>
					</g>
					<g>
						<path style="fill:#F0DDB6;" d="M239.745,366.057c-38.466-7.081-77.286-15.061-115.422-23.759
							c-0.049,0.413-0.049,0.851,0,1.264c38.13,8.683,76.875,16.648,115.33,23.711C239.68,366.867,239.716,366.463,239.745,366.057z
							"/>
					</g>
					<g>
						<path style="fill:#F0DDB6;" d="M239.506,369.458l-115.304-23.052c-0.049,0.413-0.097,0.802-0.122,1.215l115.344,23.055
							C239.451,370.271,239.479,369.864,239.506,369.458z"/>
					</g>
				</g>
			</g>
		</g>
		<g>
			<path style="fill:#FF6930;" d="M253.128,381.628c0.17,0.365-1.434,2.382-3.087,4.23c-3.597-0.486-7.122-1.653-10.914-2.528
				c-31.916-7.389-64.074-15.071-95.844-22.217c-7.317-1.653-16.14-2.261-22.995-5.08c-1.021-0.438-2.163-1.191-2.99-2.139
				c-0.608-0.681-0.049-1.75,0.851-1.653c1.945,0.243,4.254,0.389,5.907-0.34h0.024l113.759,26.009c0,0,1.58-31.113,1.677-31.502
				c0-0.389-100.56-21.852-116.773-25.328c-0.705-0.51-1.483-0.948-2.333-1.288c-1.215-0.51-3.111-0.535-4.059-1.556
				c-1.896-1.993,1.118-3.209,3.038-3.427c4.691-0.535,9.358-1.045,14.05-1.556c33.471,6.32,110.623,21.172,110.623,21.172
				S252.763,380.898,253.128,381.628z"/>
			<path style="fill:#FF500D;" d="M365.274,356.962c-35.659,9.407-71.294,18.911-106.904,28.488
				c-4.57,1.215-8.678,0.524-12.883-0.497v-36.645c0-1.75-0.51-3.427-1.434-4.837c-1.264-1.993-3.33-3.452-5.761-3.938
				l-121.294-24.04c0.729-0.365,1.629-0.608,2.382-0.681c9.723-1.094,19.446-2.163,29.169-3.257
				c14.317-1.556,28.61-3.136,42.927-4.716l33.763-3.646c5.615-0.608,11.157,0.559,16.699,1.094
				c16.14,1.483,32.256,3.209,48.372,4.862c17.939,1.847,35.878,3.719,53.792,5.566c6.685,0.68,13.345,1.483,20.029,1.871
				c0.389,0.024,0.778,0.073,1.142,0.121c3.282,0.583,5.542,2.771,7.098,5.688c2.431,4.521,3.16,10.695,3.33,15.022
				C376.042,345.197,373.854,354.701,365.274,356.962z"/>
			<path style="fill:#AD3102;" d="M365.274,356.962c-35.659,9.407-71.294,18.911-106.904,28.488
				c-4.57,1.215-7.501,0.811-11.706-0.21l-1.177-36.932c0-1.75-0.51-3.427-1.434-4.837c18.79-4.375,93.486-20.686,121.221-26.763
				c3.282,0.583,5.542,2.771,7.098,5.688c2.431,4.521,3.16,10.695,3.33,15.022C376.042,345.197,373.854,354.701,365.274,356.962z"/>
		</g>
		<path style="fill:none;stroke:#FFFFFF;stroke-width:1.1751;stroke-miterlimit:10;" d="M263.925,375.127
			c34.727-8.773,69.453-17.546,104.18-26.318"/>
		<path style="fill:#FFFFFF;" d="M364.139,316.581c-0.061-0.003-0.121-0.009-0.182-0.013l-118.55,26.642
			c-2.011-3.578-5.989-4.942-8.457-5.141L122.698,314.44c-1.103,0.124-2.204,0.241-3.31,0.367c-0.822,0.094-1.842,0.371-2.594,0.813
			l119.754,24.767l0.15,0.021c0.311,0.024,7.613,0.668,7.613,7.902l-0.004,36.339c0.787,0.204,1.576,0.414,2.356,0.592
			l-0.002-36.932c0-1.065-0.139-2.018-0.367-2.889l122.166-27.454C367.23,317.182,365.81,316.675,364.139,316.581z"/>
	</g>
	<g>
		<g>
			<path style="fill:#F0EADD;" d="M361.702,287.509c-14.095,1.911-28.239,3.457-42.373,5.064
				c-14.292,1.625-29.319,1.271-43.467,4.327v28.423c2.02-0.005,4.055,0.459,5.972,1.327c0.038,0.002,0.069,0.002,0.108,0.004
				c0.768-0.042,1.536-0.102,2.301-0.179c1.586-0.119,3.164-0.206,4.738-0.421c4.225-0.575,8.399-1.548,12.596-2.292
				c8.894-1.578,17.931-2.452,26.898-3.503c9.794-1.148,19.565-2.451,29.203-4.401c-0.61-0.259-1.262-0.487-1.706-0.663
				c0-0.024,0.024-0.049,0.024-0.073c0.122-0.389,0.194-0.826,0.146-1.215c-0.073-0.583-0.243-1.094-0.486-1.629
				c-0.073-0.219-0.195-0.462-0.292-0.681c-0.073-0.146-0.122-0.292-0.194-0.462c-0.243-0.583-0.438-1.215-0.462-1.847
				c0-0.413,0.073-0.826,0.17-1.24c0.073-0.438,0.195-0.851,0.292-1.264c0.073-0.413,0.121-0.851,0.048-1.264
				c-0.073-0.438-0.243-0.851-0.413-1.264c-0.17-0.413-0.34-0.778-0.413-1.191c-0.073-0.17-0.097-0.34-0.097-0.535
				c0-0.851,0.486-1.58,0.9-2.333c0.267-0.413,0.535-0.826,0.681-1.264c0.073-0.243,0.146-0.486,0.146-0.754
				c0.025-0.462-0.097-0.924-0.219-1.386c-0.097-0.389-0.219-0.778-0.219-1.191c-0.024-0.146-0.024-0.316,0-0.486
				c0.073-0.365,0.219-0.705,0.438-1.021c0.267-0.413,0.608-0.802,0.9-1.215c0.024-0.024,0.048-0.073,0.073-0.122
				c0.243-0.364,0.437-0.729,0.462-1.167c0.049-0.121,0.049-0.219,0.024-0.34c-0.024-0.243-0.097-0.462-0.195-0.681
				c-0.073-0.17-0.121-0.365-0.17-0.535v-0.146c0.097-0.073,0.194-0.146,0.316-0.194c1.313-0.535,2.844-0.17,4.156-0.681
				c0.243-0.097,0.486-0.243,0.583-0.462c0.122-0.292,0-0.632-0.218-0.851C361.876,287.63,361.789,287.57,361.702,287.509z"/>
			<g>
				<g>
					<g>
						<path style="fill:#F0DDB6;" d="M275.862,300.461v1.229l50.601-5.505l30.457-3.306c0.024-0.024,0.048-0.073,0.073-0.122
							c0.243-0.364,0.437-0.729,0.462-1.167L275.862,300.461z"/>
					</g>
					<g>
						<path style="fill:#F0DDB6;" d="M326.463,296.185c-16.935,2.017-33.843,4.265-50.601,6.669v1.241
							c26.498-3.837,53.442-7.191,80.159-10c0.267-0.413,0.608-0.802,0.9-1.215c0.024-0.024,0.048-0.073,0.073-0.122
							C346.833,293.827,336.648,294.97,326.463,296.185z"/>
					</g>
					<g>
						<path style="fill:#F0DDB6;" d="M275.862,307.903c26.53-3.424,53.374-7.148,79.94-11.111c-0.097-0.389-0.219-0.778-0.219-1.191
							c-26.517,3.931-53.264,7.648-79.721,11.09V307.903z"/>
					</g>
					<g>
						<path style="fill:#F0DDB6;" d="M275.862,310.732v1.23c26.203-4.817,52.824-8.766,79.333-11.767
							c0.267-0.413,0.535-0.826,0.681-1.264C329.124,301.901,302.286,305.884,275.862,310.732z"/>
					</g>
					<g>
						<path style="fill:#F0DDB6;" d="M275.862,317.185c25.997-5.57,52.48-9.932,78.944-12.93c-0.17-0.413-0.34-0.778-0.413-1.191
							c-26.309,3.036-52.659,7.359-78.531,12.88V317.185z"/>
					</g>
					<g>
						<path style="fill:#F0DDB6;" d="M275.862,318.69v1.231c26.071-4.844,52.589-8.814,79.017-11.874
							c0.073-0.438,0.195-0.851,0.292-1.264C328.622,309.835,302.031,313.839,275.862,318.69z"/>
					</g>
					<g>
						<path style="fill:#F0DDB6;" d="M275.862,323.173c26.359-4.462,53.145-8.113,79.794-10.897
							c-0.073-0.219-0.195-0.462-0.292-0.681c-0.073-0.146-0.122-0.292-0.194-0.462c-26.487,2.753-53.11,6.37-79.309,10.792V323.173
							z"/>
					</g>
				</g>
			</g>
		</g>
		<g>
			<path style="fill:#FFCA64;" d="M362.171,288.552c-0.097,0.219-0.34,0.365-0.583,0.462c-1.312,0.51-2.844,0.146-4.156,0.681
				c-0.122,0.048-0.219,0.122-0.316,0.194v0.146c0.048,0.17,0.097,0.365,0.17,0.535c-14.852,1.677-80.822,8.362-80.822,8.362v26.349
				l79.534-10.16c0,0.024-0.024,0.049-0.024,0.073c1.167,0.462,3.768,1.288,3.281,2.066c-0.122,0.219-0.364,0.292-0.583,0.365
				c-1.24,0.389-2.504,0.51-3.768,0.681c-1.969,0.243-3.938,0.51-5.906,0.754c-3.841,0.486-7.681,0.997-11.497,1.483
				c-18.376,2.358-36.826,4.351-55.105,7.195c-4.473,0.705-9.067,0.365-13.539-0.146c-0.705-0.073-1.386-0.17-2.091-0.243
				c1.094-11.813,3.33-35.221,3.427-35.221c0.049,0.243,47.181-4.861,75.961-7.803c4.132,0.705,8.386,1.191,12.421,2.212
				c1.045,0.267,2.552,0.389,3.379,1.167C362.171,287.92,362.292,288.261,362.171,288.552z"/>
			<path style="fill:#FFB254;" d="M359.561,286.76l-80.482,8.751c-2.285,0.243-4.229,1.531-5.396,3.379
				c-0.681,1.118-1.094,2.455-1.094,3.865v25.183c-1.24-0.097-2.479-0.219-3.719-0.365c-16.116-1.872-32.232-3.792-48.348-5.688
				c-18.036-2.139-36.096-4.278-54.157-6.393c-10.015-1.167-20.005-2.431-30.02-3.403c-2.941-0.292-4.497-1.653-5.615-4.181
				c-3.354-7.511-4.132-15.022-0.413-22.679c1.337-2.747,3.208-4.132,6.393-4.546c0.511-0.073,0.997-0.121,1.507-0.195
				c19.324-2.528,38.649-5.25,57.949-7.876c14.828-2.018,29.655-3.986,44.482-6.053c3.427-0.486,6.685,0.438,9.966,1.021
				c31.673,5.493,63.345,11.084,95.018,16.651c4.278,0.754,8.726,1.24,12.956,2.309C358.881,286.614,359.221,286.687,359.561,286.76
				z"/>
			<path style="fill:#FFD687;" d="M273.683,298.889c-0.681,1.118-1.094,2.455-1.094,3.865v25.183
				c-1.24-0.097-2.479-0.219-3.719-0.365c-16.116-1.872-32.232-3.792-48.348-5.688c-18.036-2.139-36.096-4.278-54.157-6.393
				c-10.015-1.167-20.005-2.431-30.02-3.403c-2.941-0.292-4.497-1.653-5.615-4.181c-3.354-7.511-4.132-15.022-0.413-22.679
				c1.337-2.747,3.208-4.132,6.393-4.546c0.511-0.073,0.997-0.121,1.507-0.195L273.683,298.889z"/>
		</g>
		<g>
			<g>
				<path style="fill:#FFFFFF;" d="M258.496,312.818c-0.517,4.7-2.268,9.177-5.029,12.961c-0.447-0.047-0.893-0.106-1.34-0.164
					c2.867-3.725,4.689-8.214,5.206-12.926c0.635-5.864-0.776-11.833-3.972-16.792l0.987-0.634
					C257.697,300.445,259.166,306.684,258.496,312.818z"/>
			</g>
			<g>
				<path style="fill:#FFFFFF;" d="M137.722,298.964c-0.118,4.677,0.893,9.33,2.867,13.537c-0.446-0.047-0.893-0.082-1.351-0.129
					c-1.868-4.207-2.809-8.801-2.691-13.431c0.164-6.898,2.667-13.643,7.039-18.978l0.905,0.752
					C140.284,285.85,137.875,292.325,137.722,298.964z"/>
			</g>
		</g>
		<path style="fill:#FFFFFF;" d="M358.573,286.535c-1.525-0.386-3.086-0.684-4.655-0.957l-75.543,8.856
			c-1.48,0.156-3.79,0.951-5.325,2.837l-129.077-17.552c-2.418,0.32-4.834,0.644-7.253,0.959c-0.463,0.06-0.891,0.147-1.301,0.25
			L271.86,299.48c-0.235,0.722-0.381,1.529-0.39,2.445l0.616,25.989c0.784,0.066,1.569,0.116,2.355,0.154l-0.621-26.16
			c0.044-4.466,4.319-5.083,4.815-5.14l82.28-9.646C360.15,286.841,359.266,286.712,358.573,286.535z"/>
	</g>
	<g>
		<g>
			<path style="fill:#F0EADD;" d="M387.771,241.805c-1.508,0.416-3.016,0.829-4.524,1.242c-11.918,3.265-23.698,7.003-35.658,10.116
				c-12.108,3.152-24.351,5.78-36.453,8.943c-5.979,1.563-11.976,3.339-17.695,5.698c-0.334,0.138-0.665,0.282-0.997,0.425v43.043
				c10.018-3.011,19.848-7.026,29.788-10.231c11.478-3.701,22.861-7.74,34.236-11.747c10.247-3.61,20.542-7.32,30.74-11.279
				c-0.592-0.835-3.551-0.389-4.681-0.687c-0.146-0.024-0.267-0.073-0.34-0.146c-0.316-0.243-0.583-0.511-0.802-0.803
				c0.17-0.219,0.316-0.486,0.414-0.778c0.219-0.583,0.463-1.215,0.561-1.847c0.049-0.413,0.074-0.827-0.048-1.24
				c0-0.049,0-0.097-0.024-0.146c-0.121-0.486-0.388-0.9-0.631-1.337c-0.121-0.219-0.243-0.462-0.315-0.705
				c-0.048-0.146-0.097-0.292-0.121-0.438c-0.218-1.045,0.099-2.115,0.537-3.135c0.146-0.34,0.292-0.68,0.462-0.996
				c0.073-0.146,0.146-0.316,0.22-0.462c0.633-1.312,1.169-2.746,0.732-4.107c-0.073-0.243-0.194-0.486-0.315-0.705
				c-0.194-0.365-0.412-0.73-0.558-1.094c-0.073-0.17-0.121-0.316-0.146-0.486c-0.218-0.972,0.123-1.92,0.513-2.892
				c0.171-0.462,0.366-0.923,0.488-1.385c0.146-0.583,0.22-1.167,0.074-1.75c0-0.024-0.024-0.073-0.024-0.097
				c-0.097-0.365-0.291-0.705-0.437-1.07c-0.121-0.292-0.218-0.608-0.169-0.948c0.122-0.802,1.071-1.385,1.047-2.211
				c-0.024-0.219-0.218-0.851-0.485-1.386c0.122-0.243,0.268-0.462,0.414-0.68c0.706-0.996,1.703-1.749,3.138-2.112
				c1.385-0.339,1.897-1.311,1.071-2.551C387.778,241.814,387.774,241.81,387.771,241.805z"/>
			<g>
				<g>
					<g>
						<path style="fill:#F0DDB6;" d="M292.444,273.478c30.408-5.517,60.905-12.436,90.783-20.602c0-0.024-0.024-0.073-0.024-0.097
							c-0.097-0.365-0.291-0.705-0.437-1.07c-29.733,8.146-60.084,15.05-90.323,20.537V273.478z"/>
					</g>
					<g>
						<path style="fill:#F0DDB6;" d="M292.444,277.915v1.248l90.222-23.152c0.171-0.462,0.366-0.923,0.488-1.385L292.444,277.915z"
							/>
					</g>
					<g>
						<path style="fill:#F0DDB6;" d="M292.444,286.984l90.413-26.501c-0.194-0.365-0.412-0.73-0.558-1.094l-89.854,26.328V286.984z"
							/>
					</g>
					<g>
						<path style="fill:#F0DDB6;" d="M292.444,291.061v1.256c29.74-8.236,59.701-16.792,89.314-25.563
							c0.146-0.34,0.292-0.68,0.462-0.996c0.073-0.146,0.146-0.316,0.22-0.462C352.615,274.11,322.399,282.755,292.444,291.061z"/>
					</g>
					<g>
						<path style="fill:#F0DDB6;" d="M292.444,296.249l89.213-25.217c-0.121-0.219-0.243-0.462-0.315-0.705
							c-0.048-0.146-0.097-0.292-0.121-0.438l-88.776,25.097V296.249z"/>
					</g>
					<g>
						<path style="fill:#F0DDB6;" d="M382.311,272.515c-30.78,7.014-60.954,16.968-89.868,29.642v1.307
							c28.916-12.681,59.11-22.681,89.916-29.709C382.408,273.342,382.433,272.929,382.311,272.515z"/>
					</g>
				</g>
			</g>
		</g>
		<g>
			<path style="fill:#241C19;" d="M294.784,268.772l-0.032,38.187l87.774-29.631c1.482,0.39,6.126-0.505,4.422,1.9
				c-1.29,1.773-3.09,2.914-5.107,3.666c-10.602,3.978-21.178,7.931-31.78,11.884c-9.021,3.371-18.018,6.84-27.014,10.235
				c-8.534,3.226-16.996,6.938-25.773,9.41c-4.133,1.164-7.828,1.914-11.717,1.449c0.01-12.227,0.044-52.771,0.044-52.771
				c0.729,0.001,46.854-16.928,47.389-17.097c0.438-0.17,37.997-5.802,50.882-7.736c0.948,0.536,1.822,1.168,2.599,1.947
				c0.461,0.487,0.898,1.022,1.311,1.605c0.825,1.24,0.314,2.212-1.072,2.551c-1.435,0.363-2.432,1.116-3.137,2.112L294.784,268.772
				z"/>
			<path style="fill:#241C19;" d="M387.798,241.875l-90.685,21.971c-2.723,0.654-4.961,2.354-6.348,4.613
				c-0.998,1.579-1.534,3.426-1.536,5.395l-0.035,42.1c-2.674,0.168-5.372-0.15-8.288-1.174
				c-9.939-3.557-19.756-7.454-29.719-11.036c-10.546-3.776-21.117-7.553-31.663-11.329c-23.717-8.503-47.434-16.957-71.175-25.363
				c-4.374-1.559-6.997-4.187-8.428-8.515c-1.988-6.103-3.101-12.181-1.321-18.523c1.341-4.739,4.041-7.678,8.977-8.889
				c0.121-0.024,0.267-0.073,0.389-0.097c35.058-7.798,70.067-15.766,105.076-23.758c2.699-0.605,5.202-0.53,7.827,0.128
				c13.415,3.293,26.806,6.585,40.196,9.878c24.205,5.951,48.435,11.854,72.664,17.756c4.375,1.073,9.454,1.904,12.733,5.188
				c0.486,0.487,0.923,1.022,1.311,1.605C387.773,241.85,387.798,241.85,387.798,241.875z"/>
			<path style="fill:#363636;" d="M290.765,268.459c-0.998,1.579-1.534,3.426-1.536,5.395l-0.035,42.1
				c-2.674,0.168-5.372-0.15-8.288-1.174c-9.939-3.557-19.756-7.454-29.719-11.036c-10.546-3.776-21.117-7.553-31.663-11.329
				c-23.717-8.503-47.434-16.957-71.175-25.363c-4.374-1.559-6.997-4.187-8.428-8.515c-1.988-6.103-3.101-12.181-1.321-18.523
				c1.341-4.739,4.041-7.678,8.977-8.889L290.765,268.459z"/>
		</g>
		<path style="fill:#FFFFFF;" d="M387.782,241.82c-0.311-0.439-0.639-0.842-0.978-1.226l-90.111,22.344
			c-2.261,0.56-4.22,1.769-5.702,3.386l-140.157-35.919c-0.954,0.213-1.906,0.43-2.859,0.643c-0.687,0.151-1.327,0.339-1.934,0.554
			l143.455,36.765c-0.893,1.571-1.408,3.362-1.44,5.245l-0.038,42.391c0.784-0.003,1.566-0.049,2.35-0.133l0.035-42.014l0.003-0.207
			c0.066-3.98,2.884-7.446,6.852-8.43l90.895-22.538C388.105,242.413,387.985,242.125,387.782,241.82z"/>
	</g>
	<g>
		<g>
			<path style="fill:#F0EADD;" d="M259.332,241.935c4.123,0.387,7.967,1.592,12.213,1.565c5.061-0.033,10.107-0.418,15.172-0.393
				c9.413,0.046,18.803,0.87,28.216,0.916c9.053,0.044,18.148-0.369,27.184-1.314c-0.023-0.018-0.048-0.036-0.069-0.054
				c-0.316-0.243-0.583-0.511-0.851-0.802c-0.778-0.924-1.361-2.042-1.774-3.281c0.17-0.17,0.34-0.34,0.462-0.535
				c0.389-0.632,0.559-1.361,0.729-2.115c0.024-0.073,0.024-0.17,0.049-0.243c0.073-0.316,0.146-0.656,0.194-0.972
				c0.219-0.997,0.316-1.993,0.122-2.99c-0.024-0.073-0.024-0.17-0.049-0.243c-0.097-0.413-0.219-0.802-0.292-1.215
				c-0.049-0.267-0.049-0.559-0.024-0.826c0.073-0.583,0.389-1.118,0.656-1.629c0.194-0.389,0.365-0.753,0.413-1.167v-0.073
				c0.097-0.997-0.559-1.993-0.389-2.99c0.073-0.438,0.292-0.802,0.583-1.167c0.292-0.413,0.68-0.802,0.972-1.215
				c0.049-0.049,0.073-0.073,0.073-0.121c0.268-0.34,0.438-0.705,0.486-1.118v-0.073c0.024-0.316-0.024-0.875-0.17-1.386
				c0-0.024,0-0.024,0-0.049c0.429-0.429,0.932-0.853,1.388-1.294c-3.691-0.216-7.159-1.143-10.775-1.438
				c-3.837-0.313-7.689-0.379-11.536-0.449c-8.298-0.15-16.501-0.91-24.78-1.366c-8.078-0.445-16.188-0.531-24.274-0.252
				c-4.281,0.148-8.483,1.015-12.689,1.912c0.01,0.17,0.025,0.34,0.031,0.511c0.232,5.757-0.202,11.579-0.614,17.318
				C259.787,236.238,259.556,239.087,259.332,241.935z"/>
			<g>
				<g>
					<g>
						<path style="fill:#F0DDB6;" d="M260.664,219.792c-0.002,0.406-0.005,0.811-0.012,1.217c27.292-0.618,54.96-0.59,82.271,0.061
							c0.268-0.34,0.438-0.705,0.486-1.118v-0.073C315.949,219.204,288.154,219.153,260.664,219.792z"/>
					</g>
					<g>
						<path style="fill:#F0DDB6;" d="M260.565,224.036c-0.017,0.409-0.034,0.818-0.054,1.226c26.957-2.062,54.269-3,81.366-2.855
							c0.292-0.413,0.68-0.802,0.972-1.215C315.463,220.999,287.815,221.957,260.565,224.036z"/>
					</g>
					<g>
						<path style="fill:#F0DDB6;" d="M341.684,226.564v0.073c-0.049,0.413-0.219,0.778-0.413,1.167l-80.725,1.385l-0.024-1.215
							L341.684,226.564z"/>
					</g>
					<g>
						<path style="fill:#F0DDB6;" d="M340.639,230.258c-26.836-1.189-53.962-0.221-80.63,2.877
							c-0.006,0.084-0.012,0.168-0.018,0.252c-0.012,0.166-0.026,0.333-0.038,0.499l0.058,0.48
							c26.763-3.111,53.962-4.084,80.919-2.893C340.833,231.06,340.711,230.671,340.639,230.258z"/>
					</g>
					<g>
						<path style="fill:#F0DDB6;" d="M259.778,236.212c-0.016,0.206-0.031,0.413-0.047,0.619l0.012,0.597l80.871-1.507
							c0.024-0.073,0.024-0.17,0.049-0.243c0.073-0.316,0.146-0.656,0.194-0.972L259.778,236.212z"/>
					</g>
				</g>
			</g>
		</g>
		<g>
			<path style="fill:#02909C;" d="M344.868,246.155c-0.608,2.333-4.546,1.434-6.077,1.361c-6.174-0.267-12.348-0.51-18.522-0.778
				c-23.116-0.997-46.208-1.945-69.325-2.82c1.191-11.643,3.282-31.259,3.379-31.259c0.073,0.365,63.637-0.802,87.701-1.094
				c0.194,0.049,0.389,0.122,0.583,0.17c1.191,0.34,2.382,0.948,3.014,1.993c1.167,1.993-0.997,3.33-2.382,4.716
				c0,0.024,0,0.024,0,0.049c-12.883-0.024-81.843-0.608-81.843-0.608v22.193l79.801,1.774c0.267,0.292,0.535,0.559,0.851,0.802
				C343.094,243.506,345.306,244.502,344.868,246.155z"/>
			<path style="fill:#17B6C4;" d="M345.953,214.854l-82.475-1.799c-1.531-0.024-2.917,0.535-3.938,1.507
				c-1.07,1.021-1.75,2.455-1.75,4.059v25.547c-16.432-0.632-32.863-1.264-49.295-1.823c-26.86-0.924-53.719-1.847-80.579-2.771
				c-6.879-0.243-11.035-4.473-13.466-10.647c-1.726-4.351-2.82-9.018-2.601-13.685c0.267-6.417,3.257-12.081,8.167-16.189
				c0.486-0.413,0.997-0.753,1.531-1.045c2.382-1.41,5.08-1.774,7.9-1.726c11.473,0.292,22.946,0.535,34.419,0.826
				c22.12,0.51,44.215,1.021,66.335,1.556c21.536,0.535,43.097,1.07,64.633,1.556c1.701,0.049,3.33,0.365,4.959,0.778
				c14.244,3.549,28.756,6.587,42.83,10.744c1.167,0.34,2.382,0.924,2.99,1.993C345.856,214.124,345.953,214.513,345.953,214.854z"
				/>
			<path style="fill:#026870;" d="M259.541,214.562c-1.07,1.021-1.75,2.455-1.75,4.059v25.547
				c-16.432-0.632-32.863-1.264-49.295-1.823c-26.86-0.924-53.719-1.847-80.579-2.771c-6.879-0.243-11.035-4.473-13.466-10.647
				c-1.726-4.351-2.82-9.018-2.601-13.685c0.267-6.417,3.257-12.081,8.167-16.189c0.486-0.413,0.997-0.753,1.531-1.045
				C142.379,200.415,238.515,212.034,259.541,214.562z"/>
		</g>
		<path style="fill:#FFFFFF;" d="M259.16,213.49l-136.797-15.921c-0.82,0.391-1.612,0.878-2.363,1.503
			c-0.199,0.166-0.374,0.351-0.566,0.522l138.001,16.061c-0.398,0.79-0.693,1.723-0.813,2.84l-0.006,25.647
			c0.783,0.03,1.566,0.062,2.35,0.092v-25.549c0.49-4.245,4.117-4.447,4.487-4.456l82.122,1.813
			c0.428-0.684,0.562-1.435,0.047-2.313c-0.008-0.013-0.021-0.023-0.03-0.036l-82.125-1.813
			C262.327,211.891,260.602,212.31,259.16,213.49z"/>
	</g>
	<g>
		<g>
			<path style="fill:#F0EADD;" d="M260.346,171.313c-3.841-1.033-7.692-1.2-11.666-1.328c-10.993-0.354-21.97-0.603-32.956-1.176
				c-11.5-0.6-22.987-0.673-34.493-1.041c-6.502-0.208-13.879,0.308-20.647-0.723c0.838,1.211,1.43,2.584,1.819,4.072
				c0.097,0.267,0.146,0.559,0.219,0.851c-0.316,0.292-0.583,0.608-0.778,0.899c-0.316,0.438-0.413,0.826-0.413,1.191
				c0,0.438,0.146,0.826,0.316,1.288c0.121,0.316,0.243,0.681,0.316,1.094c0.073,0.462-0.024,0.899-0.17,1.361
				c-0.122,0.389-0.316,0.778-0.462,1.191c-0.122,0.292-0.219,0.608-0.292,0.924c-0.097,0.438-0.097,0.851-0.073,1.288
				c0,0.413,0.024,0.827,0.049,1.24c0.024,0.097,0.024,0.17,0.024,0.267c0.024,1.021-0.097,2.042-0.267,3.063
				c-0.073,0.413-0.146,0.802-0.219,1.215c0,0.073-0.024,0.122-0.024,0.195c-0.194,0.948-0.365,1.92-0.608,2.893
				c-0.024,0.17-0.049,0.316-0.097,0.486c-0.049,0.243-0.121,0.486-0.17,0.729c-0.194,0.826-0.365,1.628-0.389,2.455
				c-0.024,0.996,0.219,2.017,0.826,2.771c-0.506,0.726-1.197,1.371-1.736,2.088c1.558,0.228,3.105,0.697,4.569,1.425
				c-1.225-0.609,1.118,0.279,1.478,0.358c0.096,0.021,0.166,0.037,0.239,0.054c0.181,0.013,0.449,0.038,0.847,0.08
				c2.598,0.278,5.202,0.5,7.8,0.795c5.175,0.587,10.338,1.27,15.511,1.871c10.295,1.197,20.601,2.282,30.895,3.495
				c14.469,1.705,29.293,3.357,43.96,2.826v-37.348C262.596,171.906,261.456,171.611,260.346,171.313z"/>
			<g>
				<g>
					<g>
						<path style="fill:#F0DDB6;" d="M263.753,183.144c-34.095-1.788-68.501-4.836-102.322-9.087c0,0.438,0.146,0.826,0.316,1.288
							c33.747,4.206,68.033,7.231,102.006,9.018V183.144z"/>
					</g>
					<g>
						<path style="fill:#F0DDB6;" d="M263.753,189.06c-33.983-2.166-68.222-5.918-101.861-11.26
							c-0.122,0.389-0.316,0.778-0.462,1.191c33.784,5.346,68.171,9.101,102.322,11.288V189.06z"/>
					</g>
					<g>
						<path style="fill:#F0DDB6;" d="M263.753,192.563c-34.253-2.132-68.801-5.96-102.687-11.36c0,0.413,0.024,0.827,0.049,1.24
							c33.885,5.403,68.387,9.21,102.638,11.34V192.563z"/>
					</g>
					<g>
						<path style="fill:#F0DDB6;" d="M263.753,197.156c-34.347-2.171-68.901-5.964-102.882-11.383
							c-0.073,0.413-0.146,0.802-0.219,1.215c34.029,5.423,68.701,9.218,103.1,11.388V197.156z"/>
					</g>
					<g>
						<path style="fill:#F0DDB6;" d="M263.753,202.206c-34.63-2.382-69.494-6.448-103.732-12.13
							c-0.024,0.17-0.049,0.316-0.097,0.486c-0.049,0.243-0.121,0.486-0.17,0.729c34.311,5.687,69.273,9.755,104,12.136V202.206z"/>
					</g>
				</g>
			</g>
		</g>
		<g>
			<path style="fill:#132762;" d="M272.15,213.265c-1.896-0.17-3.816-0.365-5.761-0.559c-2.99-0.316-5.979-0.559-8.945-0.826
				c-18.547-1.556-37.044-3.452-55.591-5.177c-8.24-0.778-16.456-1.531-24.696-2.285c-6.32-0.583-12.786-0.656-18.644-3.354
				c-0.194-0.097-0.413-0.195-0.559-0.365c-0.17-0.195-0.219-0.438-0.194-0.705c0-0.122,0.049-0.267,0.097-0.389
				c0.486-1.167,1.604-2.042,2.333-3.087l102.942,9.723v-26.981l-100.73-8.143c-0.413-1.58-1.045-3.038-1.969-4.303
				c-0.243-0.316-0.486-0.656-0.413-1.045c0.049-0.219,0.219-0.389,0.389-0.559c1.726-1.58,4.084-2.09,6.368-1.969
				c5.664,0.316,11.352,0.608,17.04,0.924l88.406,7.511C272.223,171.675,272.053,204.296,272.15,213.265z"/>
			<path style="fill:#2445AD;" d="M386.678,179.678c0.049,8.945,0.049,17.915,0,26.86c-0.024,4.546-1.483,5.98-6.053,6.077
				c-13.563,0.243-27.151,0.486-40.715,0.729c-6.053,0.097-12.105,0.194-18.133,0.292c-9.456,0.17-18.911,0.316-28.367,0.438
				c-8.289,0.122-16.31-0.316-24.526-1.118V179.8c0-2.115-1.094-4.011-2.796-5.08c-0.826-0.535-1.774-0.851-2.819-0.924
				c-20.37-1.337-89.743-5.931-103.234-7.657c-0.024-0.097-0.049-0.243-0.024-0.365c0.073-0.219,0.243-0.413,0.413-0.559
				c1.701-1.58,4.084-2.091,6.344-1.969c13.442,0.729,26.86,1.434,40.302,2.212c37.215,2.188,74.453,4.205,111.717,5.785
				c15.848,0.656,31.697,1.313,47.545,1.945c4.837,0.219,9.674,0.413,14.511,0.608C385.196,173.966,386.63,175.376,386.678,179.678z
				"/>
			<path style="fill:#0E1D4A;" d="M386.678,179.678c0.049,8.945,0.049,17.915,0,26.86c-0.024,4.546-1.483,5.98-6.053,6.077
				c-13.563,0.243-27.151,0.486-40.715,0.729c-6.053,0.097-12.105,0.194-18.133,0.292c-9.456,0.17-18.911,0.316-28.367,0.438
				c-8.289,0.122-16.31-0.316-24.526-1.118V179.8c0-2.115-1.094-4.011-2.796-5.08l100.244-1.531
				c4.837,0.219,9.674,0.413,14.511,0.608C385.196,173.966,386.63,175.376,386.678,179.678z"/>
		</g>
		<g>
			<g>
				<path style="fill:#FFD687;" d="M281.951,174.535v39.377c-1.34-0.059-2.667-0.129-4.007-0.211v-39.165H281.951z"/>
				<rect x="378.827" y="182.274" style="fill:#FFD687;" width="4.009" height="24.677"/>
			</g>
		</g>
		<path style="fill:#FFFFFF;" d="M339.151,172.081l-72.981,1.461c-0.151-0.077-0.291-0.163-0.45-0.233
			c-0.915-0.403-1.955-0.654-3.095-0.744l-101.303-8.046c-0.318,0.205-0.627,0.428-0.913,0.69c-0.17,0.17-0.34,0.34-0.389,0.559
			c-0.072,0.386,0.167,0.724,0.408,1.038l102.01,8.103c0.876,0.069,1.66,0.255,2.333,0.551c1.95,0.858,2.938,2.319,2.938,4.34
			v33.034c0.789,0.079,1.57,0.153,2.35,0.228v-33.262c0-1.51-0.408-2.847-1.176-3.961l108.808-2.179
			C364.848,173.134,351.999,172.61,339.151,172.081z"/>
	</g>
	<g>
		<g>
			<path style="fill:#F0EADD;" d="M273.165,170.952c0.773,0.075,1.566,0.201,2.389,0.423c-2.032-0.545,3.184-0.362,4.03-0.421
				c1.772-0.123,3.544-0.252,5.318-0.356c4.231-0.249,8.435-0.297,12.672-0.242c8.366,0.107,16.748,0.175,25.093-0.522
				c6.746-0.563,13.415-1.626,20.059-2.879c-0.054-0.044-0.113-0.076-0.166-0.122c-0.836-0.639-1.511-1.455-2.093-2.35
				c0.389-0.482,0.574-1.149,0.637-1.81c0.057-0.782,0.014-1.607,0.267-2.375c0.211-0.619,0.57-1.222,0.61-1.857
				c-0.001-0.024-0.001-0.024-0.003-0.049c0.003-0.414-0.163-0.795-0.351-1.15c-0.35-0.639-0.842-1.222-1-1.92
				c-0.187-0.794,0.088-1.587,0.388-2.381c0.15-0.397,0.323-0.82,0.424-1.215c0.101-0.395,0.13-0.786,0.085-1.173
				c-0.038-0.266-0.124-0.505-0.232-0.718c-0.167-0.405-0.406-0.782-0.645-1.184c-0.183-0.234-0.316-0.47-0.451-0.707
				c-0.214-0.378-0.381-0.784-0.404-1.22l-0.005-0.097c-0.019-0.827,0.479-1.558,0.88-2.285c0.225-0.352,0.426-0.703,0.527-1.098
				c-0.001-0.024,0.022-0.05,0.019-0.098c0.246-0.889,0.074-2.34-0.438-3.288c0.137-0.177,0.225-0.352,0.363-0.506
				c0.023-0.025,0.023-0.025,0.046-0.051c0.332-0.397,0.669-0.804,0.994-1.215c-2.916-0.144-5.846-0.552-8.677-0.793
				c-6.4-0.544-12.778-1.446-19.212-1.472c-6.613-0.027-13.244,0.956-19.847,1.343c-5.918,0.346-11.985,0.429-17.865,1.299
				c0.379-0.022-2.087,0.481-2.234,0.52c-0.119,0.031-0.596,0.162-1.069,0.293c-0.057,0.039-0.161,0.1-0.314,0.184
				c-0.064,0.119-0.115,0.211-0.156,0.284c-0.082,0.262-0.164,0.524-0.246,0.786c-0.706,3.647-0.195-0.395-0.57,3.397
				c-0.291,2.941-0.1,5.971-0.009,8.918C272.17,158.909,272.627,164.934,273.165,170.952z"/>
			<g>
				<g>
					<g>
						<path style="fill:#F0DDB6;" d="M341.215,143.145c0.003,0.049-0.021,0.074-0.019,0.098c-0.101,0.395-0.302,0.746-0.527,1.098
							c-22.067-0.759-44.348-0.021-66.312,2.16l-0.111-1.211C296.426,143.074,318.927,142.349,341.215,143.145z"/>
					</g>
					<g>
						<path style="fill:#F0DDB6;" d="M340.197,147.944c-21.819,0.275-43.792,1.313-65.44,3.015l-0.087-1.212
							c21.526-1.696,43.403-2.729,65.123-3.023C339.816,147.161,339.983,147.566,340.197,147.944z"/>
					</g>
					<g>
						<path style="fill:#F0DDB6;" d="M341.293,149.835l-67.56,5.315l-0.087-1.212l67.002-5.287
							C340.887,149.052,341.126,149.43,341.293,149.835z"/>
					</g>
					<g>
						<path style="fill:#F0DDB6;" d="M341.439,151.726c-0.101,0.395-0.274,0.817-0.424,1.215
							c-12.117,0.09-24.308,2.034-36.136,3.935c-10.019,1.589-20.4,3.244-30.692,3.776l-0.097,0.005l-0.063-1.214l0.097-0.005
							c10.244-0.529,20.577-2.158,30.571-3.77C316.692,153.734,329.077,151.78,341.439,151.726z"/>
					</g>
					<g>
						<path style="fill:#F0DDB6;" d="M341.978,158.391c0.001,0.024,0.001,0.024,0.003,0.049
							c-22.953,1.867-46.148,4.234-68.983,6.995l-0.16-1.209c22.786-2.759,45.909-5.097,68.789-6.985
							C341.816,157.596,341.981,157.977,341.978,158.391z"/>
					</g>
				</g>
			</g>
		</g>
		<g>
			<path style="fill:#FF6930;" d="M344.594,172.738c-1.573,1.128-3.658,1.747-5.581,1.749c-3.627-0.007-7.258-0.088-10.885-0.095
				c-20.376-0.067-40.749-0.086-61.148-0.127c0.748-9.556,2.741-39.767,2.911-39.776c0.128,0.115,44.819-3.118,66.504-4.555
				l0.073-0.004c1.757,0.08,3.449,0.333,4.847,1.015c4.893,2.376,2.187,5.583-0.128,8.355l-65.397,3.378l1.422,27.528l65.348-3.376
				c0.611,0.528,1.265,0.933,2.037,1.258C347.161,169.198,346.777,171.189,344.594,172.738z"/>
			<path style="fill:#FF500D;" d="M343.994,134.903l-66.538,3.437c-1.821,0.094-3.432,0.932-4.536,2.182
				c-1.128,1.251-1.772,2.915-1.68,4.711l1.5,29.033c-13.388-0.014-26.801-0.051-40.214-0.089
				c-24.49-0.074-48.955-0.149-73.442-0.174c-8.69-0.014-17.371-0.32-26.033,0.201c-7.911,0.457-12.676-2.728-15.436-9.985
				c-2.341-6.207-4.364-12.383-3.497-19.169c0.256-2.106,0.712-4.126,1.437-6.11c1.518-4.07,3.025-6.46,5.539-7.734
				c1.776-0.968,4.068-1.354,7.206-1.394c31.201-0.516,62.39-0.813,93.604-1.549c0.924-0.023,1.872-0.048,2.821-0.048
				c2.066-0.058,4.133-0.092,6.201-0.101c18.827-0.242,37.66,0.123,56.476,0.612c9.408,0.244,18.818,0.537,28.228,0.83
				c4.705,0.146,9.409,0.269,14.113,0.391c3.535,0.11,8.343-0.577,11.589,1.008C343.728,132.117,344.31,133.475,343.994,134.903z"/>
			<path style="fill:#AD3102;" d="M343.994,134.903l-66.538,3.437c-1.821,0.094-3.432,0.932-4.536,2.182l-151.826-9.317
				c1.776-0.968,4.068-1.354,7.206-1.394c31.201-0.516,62.39-0.813,93.604-1.549c0.924-0.023,1.872-0.048,2.821-0.048
				c2.066-0.058,4.133-0.092,6.201-0.101c18.827-0.242,37.66,0.123,56.476,0.612c9.408,0.244,18.818,0.537,28.228,0.83
				c4.705,0.146,9.409,0.269,14.113,0.391c3.535,0.11,8.343-0.577,11.589,1.008C343.728,132.117,344.31,133.475,343.994,134.903z"/>
		</g>
		<path style="fill:#FFFFFF;" d="M272.227,139.564l-145.807-9.67c-2.766,0.205-4.788,0.77-6.38,1.932l150.711,9.995
			c-0.356,0.845-0.602,1.825-0.688,2.965l1.514,29.486c0.785,0.001,1.568,0.003,2.353,0.004l-1.518-29.385
			c0.448-5.351,5.275-5.465,5.9-5.463l65.225-3.369c0.408-0.805,0.604-1.605,0.449-2.376l-65.715,3.397
			C276.646,137.056,274.068,137.643,272.227,139.564z"/>
	</g>
	<g>
		<g>
			<path style="fill:#F0EADD;" d="M381.776,125.232c0.15-0.265,0.229-0.555,0.306-0.846c0.054-0.315,0.108-0.63,0.138-0.921
				c0.056-0.412,0.063-0.801,0.07-1.214c0.008-0.437-0.034-0.876-0.074-1.314c-0.018-0.389-0.059-0.803-0.101-1.193
				c-0.086-0.658-0.172-1.292-0.258-1.949c-0.11-0.683-0.171-1.364-0.256-2.047c-0.043-0.341-0.085-0.682-0.128-1.023
				c0.001-0.073-0.022-0.122-0.021-0.195c-0.063-0.584-0.125-1.169-0.14-1.753c-0.041-0.414-0.059-0.803-0.027-1.216l0.005-0.267
				c0.069-1.19,0.435-2.618,0.115-3.791c-0.046-0.122-0.093-0.245-0.139-0.367c-0.047-0.122-0.119-0.172-0.165-0.27
				c0.052-0.169,0.128-0.362,0.229-0.555c0.126-0.241,0.276-0.506,0.427-0.795c0.46-0.844,0.997-1.779,1.217-2.656
				c-8.583,0.523-17.415,0.042-25.388,0.633c-15.839,1.174-33.499,3.105-48.051,5.087v21.145c0.591-0.073,1.197-0.123,1.836-0.123
				h70.917c1.358-1.4,0.197-2.716-0.538-4.297C381.751,125.28,381.776,125.256,381.776,125.232z"/>
			<g>
				<g>
					<g>
						<path style="fill:#F0DDB6;" d="M309.534,112.461v1.226l71.87-6.185c-0.046-0.122-0.093-0.245-0.139-0.367
							c-0.047-0.122-0.119-0.172-0.165-0.27c0.052-0.169,0.128-0.362,0.229-0.555L309.534,112.461z"/>
					</g>
					<g>
						<path style="fill:#F0DDB6;" d="M309.534,115.212v1.216c23.872-0.27,47.979-1.48,71.778-3.652
							c-0.041-0.414-0.059-0.803-0.027-1.216C357.487,113.708,333.383,114.94,309.534,115.212z"/>
					</g>
					<g>
						<path style="fill:#F0DDB6;" d="M309.534,119.1c23.947-0.65,48.164-1.774,72.067-3.353c-0.043-0.341-0.085-0.682-0.128-1.023
							c0.001-0.073-0.022-0.122-0.021-0.195c-23.846,1.579-48.005,2.703-71.918,3.354V119.1z"/>
					</g>
					<g>
						<path style="fill:#F0DDB6;" d="M382.115,119.743c-16.79-0.512-33.744-0.005-50.447,1.454l-1.728,0.14
							c-6.755,0.602-13.725,1.234-20.406,0.104v1.231c2.342,0.378,4.707,0.554,7.074,0.595c4.496,0.078,9-0.305,13.456-0.713
							l1.704-0.14c16.703-1.459,33.656-1.966,50.447-1.478C382.198,120.547,382.157,120.133,382.115,119.743z"/>
					</g>
					<g>
						<path style="fill:#F0DDB6;" d="M309.534,124.875v1.2c24.111-1.67,48.515-2.544,72.686-2.61
							c0.056-0.412,0.063-0.801,0.07-1.214C358.096,122.316,333.67,123.187,309.534,124.875z"/>
					</g>
				</g>
			</g>
		</g>
		<g>
			<path style="fill:#FFB254;" d="M381.716,130.093c-1.428,1.02-3.524,1.3-5.225,1.295c-19.428,0.196-38.833,0.465-58.237,0.685
				c-5.714,0.07-11.455,0.238-17.17,0.357c0.741-9.031,2.292-25.487,2.292-25.487l43.669-8.719c0,0,0.024,0,0.073,0.001l0.267,0.005
				c6.293,0.183,12.587,0.366,18.88,0.548c3.159,0.104,6.317,0.207,9.452,0.286c1.288,0.047,5.199,0.212,6.754,1.649
				c1.34,1.239,0.163,3.188-0.716,4.801l-70.755,6.107l-0.291,16.672l71.066-3.063c0,0.024-0.025,0.048-0.026,0.072
				C382.571,127.069,383.931,128.503,381.716,130.093z"/>
			<path style="fill:#FFCA64;" d="M382.627,103.859l-70.255,3.952c-2.555,0.15-4.769,1.619-5.9,3.738
				c-0.528,0.987-0.839,2.1-0.86,3.291l-0.305,17.499c-5.983,0.139-11.965,0.253-17.92,0.149
				c-8.681,0.116-17.365,0.378-26.042,0.251c-30.915-0.515-61.829-1.055-92.767-1.619c-6.027-0.105-7.225-1.147-9.113-7.185
				c-1.313-4.156-1.795-8.589-1.161-12.905c0.496-3.346,1.452-5.201,3.585-6.21c1.005-0.493,2.299-0.762,3.954-0.904
				c16.167-1.395,32.333-2.742,48.475-4.089c15.339-1.313,30.654-2.626,45.992-3.914c1.801-0.139,3.625-0.18,5.448-0.124
				c14.604,0.425,29.207,0.874,43.835,1.3c12.587,0.366,25.197,0.756,37.784,1.121c6.293,0.207,12.586,0.39,18.904,0.573
				c3.134,0.103,6.293,0.207,9.452,0.286c1.264,0.022,5.175,0.212,6.754,1.649C383.372,101.538,383.134,102.677,382.627,103.859z"/>
			<path style="fill:#FFD687;" d="M382.627,103.859l-70.255,3.952c-2.555,0.15-4.769,1.619-5.9,3.738l-144.582-6.729
				c1.005-0.493,2.299-0.762,3.954-0.904c16.167-1.395,32.333-2.742,48.475-4.089c15.339-1.313,30.654-2.626,45.992-3.914
				c1.801-0.139,3.625-0.18,5.448-0.124c14.604,0.425,29.207,0.874,43.835,1.3c12.587,0.366,25.197,0.756,37.784,1.121
				c6.293,0.207,12.586,0.39,18.904,0.573c3.134,0.103,6.293,0.207,9.452,0.286c1.264,0.022,5.175,0.212,6.754,1.649
				C383.372,101.538,383.134,102.677,382.627,103.859z"/>
		</g>
		<g>
			<g>
				<g>
					<path style="fill:#3E68BD;" d="M172.731,121.209c1.242-1.812,1.775-4.094,1.414-6.275c-0.085-0.495-0.207-0.955-0.376-1.37
						c1.872-2.858,1.647-6.835-0.528-9.47l-0.906,0.748c1.704,2.051,1.99,5.182,0.773,7.535c-0.08-0.095-0.161-0.179-0.242-0.275
						c-0.831-0.884-2.046-1.293-3.096-1.029c-1.263,0.307-2.119,1.573-1.882,2.764c0.281,1.38,1.856,2.089,3.082,1.852
						c0.778-0.151,1.408-0.563,1.91-1.036c0.044,0.153,0.077,0.307,0.098,0.472c0.309,1.827-0.124,3.735-1.115,5.281
						c-0.487-0.361-0.989-0.593-1.504-0.708c-1.089-0.242-2.2,0.126-2.79,0.927c-0.361,0.476-0.49,1.12-0.359,1.733
						c0.108,0.554,0.429,1.007,0.883,1.261c0.838,0.473,1.97,0.246,3.031-0.629c0.31-0.253,0.597-0.542,0.872-0.831
						c1.485,1.754,2.074,4.396,1.536,6.961c-0.153,0.702-0.377,1.404-0.683,2.092l1.269,0.022c0.246-0.619,0.433-1.25,0.561-1.871
						C175.309,126.354,174.564,123.239,172.731,121.209z M170.755,114.534c-0.684,0.129-1.57-0.251-1.712-0.923
						c-0.119-0.578,0.363-1.239,1-1.393c0.13-0.033,0.271-0.054,0.401-0.052c0.54,0.009,1.135,0.278,1.562,0.744
						c0.15,0.155,0.288,0.334,0.402,0.536C172,113.933,171.439,114.405,170.755,114.534z M170.377,122.085
						c-0.513,0.426-1.224,0.778-1.701,0.511c-0.221-0.121-0.299-0.358-0.321-0.487c-0.054-0.271-0.002-0.576,0.155-0.785
						c0.253-0.336,0.726-0.528,1.231-0.519c0.118,0.002,0.247,0.016,0.364,0.042c0.351,0.077,0.701,0.235,1.049,0.5
						C170.914,121.612,170.651,121.854,170.377,122.085z"/>
				</g>
				<g>
					<path style="fill:#3E68BD;" d="M298.156,127.816c1.242-1.824,1.776-4.106,1.402-6.287c-0.074-0.495-0.195-0.944-0.364-1.358
						c1.872-2.87,1.659-6.835-0.528-9.482l-0.906,0.748c1.692,2.063,1.978,5.182,0.762,7.547c-0.069-0.095-0.149-0.191-0.23-0.286
						c-0.831-0.884-2.046-1.282-3.096-1.03c-1.263,0.307-2.131,1.585-1.882,2.776c0.282,1.38,1.844,2.077,3.082,1.84
						c0.778-0.139,1.408-0.551,1.91-1.036c0.044,0.154,0.077,0.307,0.097,0.472c0.309,1.827-0.124,3.735-1.115,5.281
						c-0.487-0.349-0.989-0.593-1.504-0.708c-1.077-0.242-2.212,0.138-2.79,0.927c-0.361,0.476-0.49,1.131-0.371,1.733
						c0.12,0.555,0.441,1.007,0.895,1.261c0.838,0.485,1.97,0.246,3.031-0.629c0.31-0.253,0.597-0.53,0.872-0.831
						c0.852,1.002,1.405,2.305,1.628,3.707c0.388-0.005,0.788-0.01,1.176-0.015C299.987,130.681,299.275,129.058,298.156,127.816z
						 M296.181,121.13c-0.672,0.129-1.583-0.239-1.711-0.923c-0.12-0.566,0.374-1.239,1-1.393c0.13-0.033,0.271-0.054,0.412-0.052
						c0.54,0.01,1.112,0.278,1.55,0.744c0.15,0.155,0.276,0.334,0.402,0.536C297.426,120.529,296.865,121.001,296.181,121.13z
						 M295.802,128.68c-0.513,0.426-1.236,0.778-1.701,0.511c-0.221-0.121-0.3-0.346-0.321-0.476
						c-0.066-0.283-0.001-0.588,0.155-0.797c0.253-0.336,0.726-0.528,1.231-0.519c0.117,0.002,0.246,0.016,0.364,0.042
						c0.351,0.077,0.701,0.247,1.049,0.5C296.34,128.208,296.077,128.45,295.802,128.68z"/>
				</g>
			</g>
		</g>
		<path style="fill:#FFFFFF;" d="M312.984,106.642c-1.761,0.099-3.419,0.579-4.794,1.389c-1.121,0.66-1.99,1.464-2.6,2.387
			l-133.698-7.02c-2.013,0.172-4.028,0.338-6.04,0.512c-2.031,0.178-3.528,0.565-4.647,1.281l143.457,7.532
			c-0.057,0.309-0.097,0.624-0.109,0.95l-0.326,18.684c0.784-0.018,1.567-0.035,2.352-0.054l0.324-18.565
			c0.057-1.507,0.892-2.746,2.48-3.682c1.054-0.62,2.345-0.99,3.733-1.068l68.853-3.864c0.43-0.786,0.861-1.623,1.027-2.411
			L312.984,106.642z"/>
	</g>
	<g>
		<g>
			<path style="fill:#F0EADD;" d="M234.544,68.59c-11.42-0.984-22.833-2.054-34.26-2.952c-11.409-0.896-22.753-1.472-34.2-1.435
				c-5.04,0.016-10.163-0.233-15.184,0.237c-3.467,0.324-6.641,0.687-9.892,0.577c0.313,0.652,0.582,1.334,0.8,2.048
				c0.108,0.263,0.168,0.553,0.253,0.841c-0.304,0.304-0.559,0.631-0.741,0.93c-0.298,0.45-0.38,0.842-0.365,1.207
				c0.018,0.437,0.179,0.82,0.368,1.274c0.134,0.311,0.27,0.67,0.36,1.08c0.091,0.458,0.012,0.9-0.115,1.367
				c-0.106,0.393-0.284,0.79-0.414,1.209c-0.11,0.296-0.194,0.616-0.254,0.935c-0.08,0.441-0.063,0.854-0.021,1.29
				c0.017,0.413,0.057,0.825,0.098,1.237c0.028,0.096,0.031,0.169,0.035,0.266c0.065,1.019-0.015,2.044-0.144,3.071
				c-0.056,0.416-0.114,0.807-0.17,1.223c0.003,0.073-0.02,0.122-0.017,0.195c-0.156,0.955-0.287,1.933-0.491,2.915
				c-0.017,0.171-0.036,0.318-0.078,0.49c-0.039,0.245-0.102,0.491-0.141,0.735c-0.161,0.834-0.299,1.642-0.29,2.469
				c0.016,0.997,0.3,2.007,0.937,2.735c-0.409,0.64-0.957,1.226-1.427,1.845c1.182,0.39,2.33,0.926,3.408,1.615
				c0.018,0.005,0.028,0.006,0.047,0.011c0.121,0.023,0.218,0.043,0.304,0.06c1.113-0.082,2.398,0.208,3.51,0.264
				c2.72,0.139,5.446,0.12,8.169,0.115c5.738-0.011,11.427,0.255,17.141,0.776c11.485,1.048,22.889,2.148,34.43,2.366
				c12.89,0.243,26.115,0.893,39.222,0.505V70.018C241.819,69.426,238.2,68.905,234.544,68.59z"/>
			<g>
				<g>
					<g>
						<path style="fill:#F0DDB6;" d="M245.374,75.034l-0.024,1.217c-34.584-0.383-69.56-2.04-104.027-4.933
							c-0.189-0.455-0.35-0.837-0.368-1.274C175.521,72.981,210.644,74.657,245.374,75.034z"/>
					</g>
					<g>
						<path style="fill:#F0DDB6;" d="M245.425,80.961c-34.574-0.758-69.493-3.149-103.857-7.196
							c-0.106,0.393-0.284,0.79-0.414,1.209c34.494,4.043,69.543,6.43,104.271,7.205V80.961z"/>
					</g>
					<g>
						<path style="fill:#F0DDB6;" d="M245.267,84.453l-0.024,1.217c-34.719-0.718-69.775-3.15-104.265-7.235
							c-0.041-0.412-0.082-0.824-0.098-1.237C175.393,81.282,210.523,83.735,245.267,84.453z"/>
					</g>
					<g>
						<path style="fill:#F0DDB6;" d="M245.425,89.041c-34.833-0.756-69.956-3.17-104.557-7.268c-0.056,0.416-0.114,0.807-0.17,1.223
							c34.633,4.098,69.859,6.509,104.726,7.263V89.041z"/>
					</g>
					<g>
						<path style="fill:#F0DDB6;" d="M245.425,94.088c-35.056-0.961-70.432-3.637-105.234-7.982
							c-0.017,0.171-0.036,0.318-0.078,0.49c-0.039,0.245-0.102,0.491-0.141,0.735c34.859,4.345,70.315,7.018,105.452,7.975V94.088z
							"/>
					</g>
				</g>
			</g>
		</g>
		<g>
			<path style="fill:#92AEEB;" d="M253.164,104.764c-1.901-0.094-3.828-0.211-5.779-0.327c-3-0.195-5.997-0.318-8.971-0.466
				c-18.594-0.808-37.153-1.958-55.754-2.936c-8.265-0.446-16.505-0.868-24.768-1.289c-6.338-0.329-12.802-0.141-18.764-2.602
				c-0.198-0.089-0.421-0.178-0.573-0.342c-0.178-0.188-0.236-0.428-0.223-0.697c-0.005-0.121,0.038-0.269,0.082-0.393
				c0.439-1.185,1.521-2.105,2.207-3.178l103.25,5.573l-1.086-26.959l-100.976-4.083c-0.476-1.562-1.167-2.994-2.14-4.22
				c-0.256-0.306-0.512-0.636-0.455-1.028c0.04-0.221,0.203-0.397,0.366-0.574c1.661-1.648,3.996-2.253,6.284-2.224
				c5.672,0.088,11.367,0.15,17.063,0.237l88.637,3.948C251.563,63.205,252.706,95.806,253.164,104.764z"/>
			<path style="fill:#6186D6;" d="M366.248,66.596c0.408,8.936,0.769,17.898,1.081,26.838c0.159,4.543-1.241,6.034-5.803,6.316
				c-13.543,0.789-27.11,1.578-40.653,2.367c-6.044,0.341-12.087,0.681-18.107,1.021c-9.441,0.55-18.883,1.077-28.326,1.579
				c-8.277,0.455-16.31,0.34-24.551-0.13l-1.334-33.128c-0.085-2.113-1.254-3.964-2.998-4.964c-0.847-0.501-1.807-0.779-2.854-0.809
				c-20.407-0.516-89.909-2.315-103.458-3.497c-0.028-0.096-0.058-0.241-0.039-0.363c0.064-0.222,0.226-0.423,0.39-0.575
				c1.637-1.647,3.996-2.253,6.26-2.223c13.461,0.188,26.896,0.352,40.358,0.589c37.273,0.688,74.563,1.206,111.859,1.285
				c15.862,0.018,31.724,0.036,47.585,0.03c4.842,0.024,9.683,0.024,14.524,0.023C364.536,60.948,366.026,62.299,366.248,66.596z"/>
			<path style="fill:#3E68BD;" d="M366.248,66.596c0.408,8.936,0.769,17.898,1.081,26.838c0.159,4.543-1.241,6.034-5.803,6.316
				c-13.543,0.789-27.11,1.578-40.653,2.367c-6.044,0.341-12.087,0.681-18.107,1.021c-9.441,0.55-18.883,1.077-28.326,1.579
				c-8.277,0.455-16.31,0.34-24.551-0.13l-1.334-33.128c-0.085-2.113-1.254-3.964-2.998-4.964l100.101-5.564
				c4.842,0.024,9.683,0.024,14.524,0.023C364.536,60.948,366.026,62.299,366.248,66.596z"/>
		</g>
		<g>
			<path style="fill:#FFFFFF;" d="M312.638,63.621l1.565,38.875c-0.81,0.033-1.631,0.089-2.44,0.145l-1.568-38.922L312.638,63.621z"
				/>
			<path style="fill:#FFFFFF;" d="M278.236,65.006l1.588,39.427c-0.399,0.028-0.798,0.044-1.208,0.072l-1.589-39.451L278.236,65.006
				z"/>
			<path style="fill:#FFFFFF;" d="M323.322,63.191l1.558,38.687c-1.338,0.077-2.663,0.154-4.001,0.232
				c-0.669,0.039-1.338,0.077-2.006,0.116l-1.562-38.793L323.322,63.191z"/>
		</g>
		<path style="fill:#FFFFFF;" d="M360.19,60.947c-8.775-0.008-17.555-0.01-26.335-0.014l-86.52,5.302
			c-1.49-1.239-3.349-1.696-4.59-1.724l-102.561-3.794c-0.209,0.164-0.413,0.337-0.605,0.528c-0.163,0.177-0.326,0.354-0.366,0.574
			c-0.057,0.392,0.199,0.722,0.455,1.028c0.053,0.067,0.096,0.14,0.148,0.208l102.854,3.805c0.463,0.015,4.534,0.272,4.71,4.646
			l1.329,33.007c0.791,0.047,1.574,0.09,2.357,0.133l-1.338-33.235c-0.046-1.148-0.297-2.11-0.672-2.927l114.574-7.021
			C362.759,61.108,361.635,60.953,360.19,60.947z"/>
	</g>
</g>
<g id="TEXTS">
	
		<text transform="matrix(0.9939 0.1102 -0.1102 0.9939 144.4649 303.8709)" style="fill:#FFFFFF; font-family:'BalsamiqSans-Regular'; font-size:17.2577px;">Daily Journal</text>
	
		<text transform="matrix(0.9776 -0.2104 0.2104 0.9776 262.6435 368.5906)" style="fill:#FFFFFF; font-family:'Mali-Regular'; font-size:22.6501px;">News 4 U</text>
	
		<text transform="matrix(0.9577 0.2879 -0.2879 0.9577 146.743 255.9396)" style="fill:#FFFFFF; font-family:'Mali-Regular'; font-size:21.1853px;">the Sunshine</text>
	<g>
		<g>
			
				<text transform="matrix(0.9563 0.2923 -0.2923 0.9563 149.828 378.8501)" style="fill:#FFFFFF; font-family:'Aclonica-Regular'; font-size:18.0102px;">HOUSE OF</text>
		</g>
		
			<text transform="matrix(0.9618 0.2739 -0.2739 0.9618 151.532 398.3362)" style="fill:#FFFFFF; font-family:'Aclonica-Regular'; font-size:18.01px;">DRAGON</text>
	</g>
	<g>
		
			<text transform="matrix(0.9971 0.0759 -0.0759 0.9971 120.791 226.537)" style="fill:#17B6C4; font-family:'Mali-Regular'; font-size:19.7113px;">PSICHOLOGY</text>
	</g>
	
		<text transform="matrix(1 -0.0029 0.0029 1 284.2875 200.8853)" style="fill:#FFFFFF; font-family:'Domine-Regular'; font-size:19.0629px;">COOKING</text>
	
		<text transform="matrix(0.9998 0.0186 -0.0186 0.9998 180.0964 124.9734)" style="fill:#FFFFFF; font-family:'BalsamiqSans-Regular'; font-size:15.5388px;">SHORT TALES</text>
	<g>
		
			<text transform="matrix(0.9999 0.0173 -0.0173 0.9999 120.2174 159.2)" style="fill:#0E1D4A; font-family:'Aclonica-Regular'; font-size:16.5491px;">FANTASTIC ART</text>
	</g>
	<g>
		
			<text transform="matrix(-0.0118 -0.9999 0.9999 -0.0118 294.7969 102.8758)" style="fill:#F0EADD; font-family:'Domine-Regular'; font-size:13.1864px; letter-spacing:2;">RED</text>
		
			<text transform="matrix(-0.0118 -0.9999 0.9999 -0.0118 307.0049 102.383)" style="fill:#F0EADD; font-family:'Domine-Regular'; font-size:13.1864px;">KING</text>
	</g>
</g>
</svg>
