<?xml version="1.0" encoding="utf-8"?>
<!-- Generator: Adobe Illustrator 27.5.0, SVG Export Plug-In . SVG Version: 6.00 Build 0)  -->
<svg version="1.1" xmlns="http://www.w3.org/2000/svg" xmlns:xlink="http://www.w3.org/1999/xlink" x="0px" y="0px"
	 viewBox="0 0 500 500" style="enable-background:new 0 0 500 500;" xml:space="preserve">
<g id="BACKGROUND">
	<g>
		<rect y="1" style="fill-rule:evenodd;clip-rule:evenodd;fill:#EBF2F7;" width="500" height="500"/>
		<polygon style="fill-rule:evenodd;clip-rule:evenodd;fill:#F4F7F9;" points="21.476,1 57.685,1 250,251 239.39,1 260.61,1 
			250,251 194.894,1 216.777,1 250,251 146.803,1 170.84,1 250,251 91.159,1 119.471,1 250,251 119.472,501 91.159,501 250,251 
			170.84,501 146.803,501 250,251 57.685,501 21.476,501 250,251 216.777,501 194.894,501 250,251 0,354.196 0,330.159 250,251 
			0,306.103 0,284.223 250,251 0,479.523 0,443.315 250,251 260.61,501 239.39,501 250,251 0,409.84 0,381.528 250,251 500,443.315 
			500,479.523 250,251 500,381.528 500,409.84 250,251 500,330.159 500,354.196 250,251 500,284.223 500,306.103 250,251 0,261.61 
			0,240.39 250,251 478.523,501 442.314,501 250,251 353.196,501 329.159,501 250,251 408.839,501 380.527,501 250,251 305.103,501 
			283.222,501 250,251 500,147.803 500,171.84 250,251 380.528,1 408.838,1 250,251 500,22.476 500,58.683 250,251 442.314,1 
			478.522,1 250,251 329.159,1 353.195,1 250,251 500,240.39 500,261.61 250,251 283.223,1 305.103,1 250,251 0,217.778 0,195.895 
			250,251 500,195.895 500,217.777 250,251 500,92.16 500,120.471 250,251 0,58.685 0,22.477 250,251 0,120.472 0,92.16 250,251 
			0,171.841 0,147.803 250,251 		"/>
	</g>
</g>
<g id="OBJECTS">
	<g>
		<g>
			<g>
				<polygon style="fill-rule:evenodd;clip-rule:evenodd;fill:#7B261E;" points="0,1.166 72.879,348.212 127.834,333.486 94.112,0 
					0,0 				"/>
				<path style="fill-rule:evenodd;clip-rule:evenodd;fill:#A51919;" d="M0,1.166l63.104,300.499
					c8.016-0.831,16.031-1.662,24.045-2.493c14.203-1.473,10.42-9.858,8.869-23.808L66.02,0H0V1.166z"/>
				<path style="fill-rule:evenodd;clip-rule:evenodd;fill:#B52A22;" d="M57.688,199.684C50.332,167.663,18.622,23.298,8.416,1.91
					C5.678,2.534,46.649,186.062,50.143,201.402c1.203,5.251,10.951,59.92,16.438,55.903
					C73.872,258.635,58.891,205.015,57.688,199.684z"/>
			</g>
			<g>
				<polygon style="fill-rule:evenodd;clip-rule:evenodd;fill:#A51919;" points="500,1.166 427.121,348.212 372.164,333.486 
					405.889,0 500,0 				"/>
				<path style="fill-rule:evenodd;clip-rule:evenodd;fill:#7B261E;" d="M436.801,302.114l-9.68,46.098l-54.957-14.726L405.889,0
					h28.355c-34.902,266.841-49.727,289.522-31.48,295.603C410.932,298.325,424.068,300.496,436.801,302.114z"/>
				<path style="fill-rule:evenodd;clip-rule:evenodd;fill:#B52A22;" d="M444.609,199.684
					c7.355-32.021,39.066-176.385,49.272-197.773c2.738,0.623-38.233,184.152-41.727,199.492
					c-1.205,5.251-10.951,59.92-16.439,55.903C428.426,258.635,443.408,205.015,444.609,199.684z"/>
			</g>
		</g>
		<g>
			<g>
				<g>
					<path style="fill-rule:evenodd;clip-rule:evenodd;fill:#A51919;" d="M186.696,219.484l-6.969-48.692
						c-2.824-19.733-4.348-13.706,1.688-30.716c2.344-6.607,4.479-15.433,3.293-23.71c-2.295-16.049-3.113-21.762-3.113-21.762
						l5.457-0.664l5.426-0.893c0,0,0.818,5.712,3.115,21.762c1.184,8.277,5.707,16.151,9.811,21.835
						c10.563,14.635,7.41,9.277,10.234,29.01l6.928,48.42c1.012,7.065-8.127,8.849-17.225,10.082
						C196.467,225.357,187.653,226.183,186.696,219.484z"/>
					<path style="fill-rule:evenodd;clip-rule:evenodd;fill:#812E23;" d="M186.694,219.484l-6.967-48.692
						c-0.035-0.242-0.068-0.477-0.104-0.711c6.649,9.47,18.887,15.327,38.613,13.742l4.328,30.25
						c1.012,7.065-8.127,8.849-17.225,10.082C196.467,225.357,187.653,226.183,186.694,219.484z"/>
					<path style="fill-rule:evenodd;clip-rule:evenodd;fill:#F2D173;" d="M183.045,91.897l7.281-1.042
						c1.736-0.249,3.363,0.97,3.611,2.708l2.385,16.666c0.248,1.738-0.969,3.363-2.707,3.612l-7.281,1.042
						c-1.738,0.248-3.363-0.97-3.613-2.708l-2.385-16.665C180.088,93.772,181.307,92.146,183.045,91.897z"/>
					<path style="fill-rule:evenodd;clip-rule:evenodd;fill:#F2D173;" d="M178.975,92.48l15.422-2.207
						c0.434-0.063,0.84,0.242,0.902,0.677l0.26,1.82c0.063,0.435-0.242,0.841-0.676,0.903l-15.422,2.207
						c-0.434,0.062-0.84-0.243-0.902-0.677l-0.262-1.82C178.235,92.948,178.54,92.542,178.975,92.48z"/>
					<path style="fill-rule:evenodd;clip-rule:evenodd;fill:#F2D173;" d="M187.805,157.179l16.26-2.327
						c1.93-0.276,3.736,1.077,4.012,3.008l4.879,34.091c0.277,1.931-1.076,3.736-3.008,4.012l-16.26,2.327
						c-1.93,0.276-3.736-1.077-4.012-3.008l-4.879-34.091C184.522,159.26,185.875,157.455,187.805,157.179z"/>
					<path style="fill-rule:evenodd;clip-rule:evenodd;fill:#E5BA50;" d="M211.829,184.081l1.127,7.87
						c0.277,1.931-1.076,3.736-3.008,4.012l-16.26,2.327c-1.93,0.276-3.736-1.077-4.012-3.008l-2.545-17.779
						C193.106,181.601,201.211,184.052,211.829,184.081z"/>
					<path style="fill-rule:evenodd;clip-rule:evenodd;fill:#A74E3C;" d="M217.432,216.586c0.424-0.166,0.811-0.338,1.178-0.61
						c0.129-0.111,0.223-0.207,0.314-0.351c0.059-0.104,0.162-0.447,0.207-0.468c0.182-0.002,0.174,0.487,0.162,0.587
						c-0.041,0.238-0.127,0.408-0.266,0.604c-0.324,0.456-0.744,0.74-1.221,1.017c-4.469,2.59-30.873,6.54-28.078,1.904
						c-0.008-0.662,2.209,0.847,7.059,0.567C204.071,219.415,215.25,217.316,217.432,216.586z"/>
					<g>
						<path style="fill-rule:evenodd;clip-rule:evenodd;fill:#D29A22;" d="M180.989,95.398c1.316-0.227,14.561-2.136,14.67-1.364
							c-0.379,0.742-12.691,2.607-14.355,2.894c-2.012,0.346-2.068,0.612-2.516-0.232C178.192,95.728,179.159,95.738,180.989,95.398
							z"/>
					</g>
					<path style="fill-rule:evenodd;clip-rule:evenodd;fill:#D29A22;" d="M185.819,114.915l-2.617-18.295
						c-0.51,0.082-0.947,0.152-1.289,0.208c-0.268,0.043-0.473,0.077-0.609,0.1c-0.285,0.049-0.529,0.097-0.744,0.139l2.162,15.108
						c0.154,1.07,0.828,1.943,1.73,2.398C184.87,114.784,185.334,114.905,185.819,114.915z"/>
					<path style="fill-rule:evenodd;clip-rule:evenodd;fill:#A74E3C;" d="M216.338,193.11c-0.627-4.976-1.271-9.948-1.936-14.919
						c-0.936-6.983-1.898-13.958-2.998-20.917c-1.422-9.682-0.695-7.457-5.506-14.813c-1.188-1.813-2.338-3.672-3.521-5.384
						c-1.191-1.73-2.627-3.996-3.971-6.479c-2.496-4.617-4.67-9.988-4.342-14.076c2.166,6.271,5.197,14.59,9.113,19.981
						c2.281,3.175,4.498,6.967,7.004,9.866c0.301,0.367,0.447,0.845,0.59,1.292c0.228,0.737,0.408,1.481,0.578,2.233
						c0.537,2.372,0.967,4.762,1.381,7.157c1.197,6.96,2.213,13.939,3.185,20.933c0.686,4.975,1.342,9.949,1.971,14.93
						c0.109,0.889,3.041,18.957,1.42,18.712C217.854,212.048,216.483,194.268,216.338,193.11z"/>
					<path style="fill-rule:evenodd;clip-rule:evenodd;fill:#812E23;" d="M187.659,197.214c-0.793-4.953-1.568-9.905-2.324-14.863
						c-1.061-6.965-2.092-13.93-2.99-20.919c-1.35-9.693-1.422-7.352,1.133-15.763c0.631-2.074,1.213-4.18,1.869-6.156
						c0.658-1.995,1.402-4.572,1.994-7.332c1.102-5.132,1.682-10.896,0.221-14.729c-0.32,6.627-0.896,15.462-3.143,21.735
						c-1.301,3.688-2.365,7.95-3.957,11.435c-0.188,0.436-0.193,0.937-0.205,1.405c-0.012,0.771,0.025,1.537,0.072,2.307
						c0.15,2.426,0.408,4.841,0.682,7.256c0.803,7.017,1.785,14,2.813,20.987c0.738,4.967,1.504,9.925,2.295,14.883
						c0.146,0.884,2.398,19.049,3.887,18.36C191.516,215.816,187.846,198.366,187.659,197.214z"/>
					<g>
						<path style="fill-rule:evenodd;clip-rule:evenodd;fill:#F6DFA4;" d="M196.873,157.362c2.063-0.38,4.203-0.799,6.279-1.059
							c0.826-0.085,1.535,0.093,2.289,0.421c0.377,0.175,0.674,0.35,0.994,0.616c0.34,0.298,0.561,0.569,0.709,1.003
							c0.625,2.571,3.463,22.324,2.975,24.133c-0.947-1.238-3.602-19.783-4.686-23.583c0.004,0.017-0.088-0.098-0.162-0.159
							c-0.182-0.142-0.363-0.238-0.574-0.331c-0.379-0.156-0.861-0.301-1.277-0.247c-2.066,0.331-4.139,0.726-6.197,1.105
							c-1.559,0.287-9.51,2.568-9.586,0.831C187.233,158.32,195.123,157.691,196.873,157.362z"/>
						<path style="fill-rule:evenodd;clip-rule:evenodd;fill:#F6DFA4;" d="M193.608,99.639c0.234,1.637,1.498,11.439,0.832,12.423
							c-0.693,0.104-2.586-11.102-2.742-12.135c-0.199-1.381-0.945-3.577,0.365-3.636C193.434,95.936,193.379,98.21,193.608,99.639z
							"/>
					</g>
				</g>
				<g>
					<path style="fill-rule:evenodd;clip-rule:evenodd;fill:#D1A45B;" d="M231.264,36.749
						c-16.561,7.914-24.424,38.874-13.283,116.316c11.139,77.443,31.574,180.734,50.273,193.601
						c18.697,12.866,44.418,1.542,28.295-113.648c-8.301-59.312-16.816-114.756-28.977-150.617
						C256.115,48.614,241.063,32.535,231.264,36.749z"/>
					<path style="fill-rule:evenodd;clip-rule:evenodd;fill:#BE8F4C;" d="M229.831,37.507
						c-15.572,9.014-22.664,40.387-11.85,115.557c11.139,77.443,31.574,180.734,50.273,193.601
						c12.654,8.708,28.522,6.323,32.461-31.831c-9.889,2.935-19.353,1.973-26.85-6.036c-28.687-30.645-33.228-84.792-44.095-159.766
						C220.461,84.82,219.053,62.143,229.831,37.507z"/>
					<path style="fill-rule:evenodd;clip-rule:evenodd;fill:#93682A;" d="M227.891,42.937c0.143-0.333,0.529-0.489,0.861-0.346
						c0.336,0.143,0.49,0.529,0.348,0.863c-3.98,9.317-5.621,19.33-5.127,36.455c0.496,17.214,3.143,41.579,7.729,79.54
						c4.662,38.583,10.545,71.754,17.285,97.012c6.494,24.337,13.757,41.277,21.461,48.564c0.266,0.249,0.275,0.665,0.027,0.929
						c-0.248,0.264-0.664,0.275-0.928,0.025c-7.889-7.462-15.275-24.612-21.832-49.18c-6.752-25.308-12.645-58.539-17.316-97.19
						c-4.592-38.005-7.24-62.402-7.738-79.659C222.163,62.602,223.834,52.432,227.891,42.937z"/>
					<path style="fill-rule:evenodd;clip-rule:evenodd;fill:#E0C392;" d="M263.012,80.581
						c7.359,24.46,30.006,128.078,23.645,149.442c-3.162-7.768-18.99-109.622-27.807-138.433l-2.695-8.805
						c-2.231-6.615-12.029-25.402-7.716-27.253C254.535,50.211,262.148,78.074,263.012,80.581z"/>
					<path style="fill-rule:evenodd;clip-rule:evenodd;fill:#BE8F4C;" d="M237.825,127.677c5.002-0.892,38.802-6.728,41-2.454
						c-1.135,2.367-35.169,8.655-39.665,9.532c-5.715,1.028-7.691,2.451-8.311-1.861
						C229.856,128.332,231.94,128.861,237.825,127.677z"/>
					<path style="fill-rule:evenodd;clip-rule:evenodd;fill:#BE8F4C;" d="M234.471,96.083c3.578-0.59,27.771-4.383,29.615-0.035
						c-0.688,2.271-25.021,6.499-28.234,7.102c-4.088,0.682-5.439,1.973-6.139-2.323C228.725,96.265,230.268,96.909,234.471,96.083z
						"/>
					<path style="fill-rule:evenodd;clip-rule:evenodd;fill:#BE8F4C;" d="M246.284,194.295c5.001-0.892,38.802-6.728,40.999-2.455
						c-1.137,2.367-35.168,8.655-39.665,9.532c-5.717,1.028-7.691,2.451-8.311-1.861
						C238.313,194.95,240.397,195.479,246.284,194.295z"/>
					<path style="fill-rule:evenodd;clip-rule:evenodd;fill:#BE8F4C;" d="M259.08,267.593c4.465-0.778,34.633-5.843,36.697-1.541
						c-0.967,2.331-31.334,7.841-35.346,8.614c-5.102,0.897-6.84,2.271-7.49-2.035C251.951,268.068,253.83,268.642,259.08,267.593z"
						/>
					<path style="fill-rule:evenodd;clip-rule:evenodd;fill:#BE8F4C;" d="M244.924,162.277c4.654-0.818,36.105-6.155,38.216-1.863
						c-1.025,2.343-32.689,8.128-36.871,8.938c-5.318,0.943-7.141,2.334-7.779-1.974
						C237.498,162.815,239.45,163.374,244.924,162.277z"/>
					<path style="fill-rule:evenodd;clip-rule:evenodd;fill:#BE8F4C;" d="M253.383,228.895c4.654-0.818,36.104-6.155,38.217-1.863
						c-1.027,2.344-32.688,8.128-36.871,8.938c-5.318,0.943-7.142,2.334-7.781-1.974
						C245.957,229.434,247.909,229.991,253.383,228.895z"/>
				</g>
				<g>
					<g>
						<g>
							<path style="fill-rule:evenodd;clip-rule:evenodd;fill:#CBE0EE;" d="M193.344,324.748l-30.807,10.849
								c0,0-9.617-0.574-14.244-13.709l-49.33-140.081c-1.32-3.359-0.756-1.388,0.635-3.77c0.426-0.729,0.543-1.63,0.242-2.481l0,0
								c-0.361-1.026-1.24-1.73-2.244-1.925c-2.318-0.451-1.391,0.342-2.498-2.797l-3.695-10.494c0,0-3.725-14.305,3.895-30.086
								c7.617-15.781,7.561-24.809,3.697-35.781C95.131,83.5,95.131,83.5,95.131,83.5l11.793-4.153l11.793-4.153
								c0,0,0,0,3.863,10.973c3.865,10.972,9.478,18.043,25.305,25.568c15.824,7.525,21.885,21.008,21.885,21.008l3.697,10.494
								c1.105,3.14,1.33,1.941-0.195,3.744c-0.66,0.782-0.904,1.881-0.543,2.907v0.001c0.301,0.851,0.955,1.48,1.744,1.781
								c2.576,0.985,1.779-0.905,2.857,2.54l49.33,140.081c4.627,13.135-2.512,19.609-2.512,19.609L193.344,324.748z"/>
							<path style="fill-rule:evenodd;clip-rule:evenodd;fill:#FFFFFF;" d="M113.125,77.163l2.111-0.744
								c4.531,8.214,16.656,30.546,18.354,32.566c23.361,22.855,21.756,9.564,32.518,41.761
								c9.605,26.61,18.633,53.636,27.701,80.438c2.014,5.977,32.15,87.416,24.24,83.893c-5.248,7.107-20.297-45.623-22.504-52.063
								l-9.949-29.056c-8.984-26.674-18.301-54.042-25.904-81.137c-9.652-30.755-6.547-17.038-29.412-40.639
								C127.463,108.499,115.258,86.195,113.125,77.163z"/>
							<path style="fill-rule:evenodd;clip-rule:evenodd;fill:#EAB913;" d="M221.877,310.442c0.586-0.779,1.221-2.026,1.518-2.831
								c1.426-3.873,0.818-8.183-0.522-11.987l-49.309-140.017c-0.172-0.056-0.346-0.119-0.525-0.187
								c-1.916-0.732-3.416-2.261-4.098-4.199c-0.752-2.134-0.412-4.479,0.861-6.309c-0.043-0.113-0.084-0.227-0.125-0.342
								l-0.527-1.497l-74.027,0.842c-0.394,2.334-0.603,4.701-0.625,7.08c-0.021,2.475,0.15,5.726,0.754,8.187l3.635,10.319
								c0.039,0.116,0.08,0.23,0.117,0.345c2.139,0.628,3.873,2.243,4.625,4.378c0.68,1.932,0.467,4.073-0.563,5.839
								c-0.098,0.165-0.195,0.323-0.293,0.475l49.309,140.017c1.34,3.806,3.565,7.544,7.104,9.669
								c0.736,0.441,2.008,1.016,2.957,1.255L221.877,310.442z"/>
							<path style="fill-rule:evenodd;clip-rule:evenodd;fill:#F0CC61;" d="M163.489,143.137l-6.895,0.079
								c0.885,2.614,1.891,5.763,3.098,9.606c7.604,27.094,16.92,54.463,25.904,81.137l9.949,29.056
								c1.777,5.187,11.883,40.392,18.492,50.188l5.213-1.835c-1.791-15.744-23.732-75.113-25.441-80.184
								c-9.068-26.802-18.096-53.827-27.701-80.438C165.145,147.863,164.282,145.35,163.489,143.137z"/>
							<path style="fill-rule:evenodd;clip-rule:evenodd;fill:#F2D173;" d="M93,74.617l21.426-7.545
								c2.082-0.733,4.385,0.37,5.117,2.451l4.703,13.356l-28.994,10.21l-4.703-13.356C89.817,77.653,90.92,75.351,93,74.617z"/>
							<path style="fill-rule:evenodd;clip-rule:evenodd;fill:#EAB913;" d="M97.301,95.069l26.59-9.364
								c0.793-0.279,1.67,0.141,1.949,0.934l0,0c0.279,0.793-0.141,1.67-0.934,1.949l-26.59,9.364
								c-0.793,0.279-1.67-0.141-1.951-0.934l0,0C96.088,96.226,96.508,95.349,97.301,95.069z"/>
							<path style="fill-rule:evenodd;clip-rule:evenodd;fill:#EAB913;" d="M120.387,79.938c-5.963,2.1-10.234,3.604-16.199,5.704
								c-3.561,1.255-5.701,2.773-6.906-0.648l-0.705-2.003l-2.709-7.693l-0.309-0.877L93,74.617
								c-0.916,0.323-1.643,0.949-2.105,1.728c-0.59,0.989-0.756,2.224-0.346,3.389l4.703,13.356l2.896-1.02l23.586-8.306
								l2.512-0.884l-1.348-3.827L120.387,79.938z"/>
							<g>
								<path style="fill-rule:evenodd;clip-rule:evenodd;fill:#EAB913;" d="M96.092,77.786c-0.121-0.346,0.061-0.724,0.406-0.846
									c0.346-0.122,0.725,0.06,0.846,0.405l4.25,12.068c0.121,0.346-0.061,0.725-0.406,0.846c-0.346,0.122-0.725-0.06-0.846-0.405
									L96.092,77.786z"/>
								<path style="fill-rule:evenodd;clip-rule:evenodd;fill:#EAB913;" d="M101.907,75.739c-0.123-0.346,0.059-0.725,0.404-0.846
									c0.346-0.122,0.725,0.06,0.846,0.405l4.25,12.068c0.121,0.345-0.061,0.724-0.404,0.846c-0.346,0.122-0.725-0.06-0.848-0.405
									L101.907,75.739z"/>
								<path style="fill-rule:evenodd;clip-rule:evenodd;fill:#EAB913;" d="M107.719,73.691c-0.121-0.346,0.059-0.724,0.404-0.846
									c0.346-0.122,0.725,0.06,0.848,0.405l4.25,12.068c0.121,0.346-0.061,0.725-0.406,0.846c-0.346,0.122-0.725-0.06-0.846-0.406
									L107.719,73.691z"/>
								<path style="fill-rule:evenodd;clip-rule:evenodd;fill:#EAB913;" d="M113.532,71.645c-0.121-0.346,0.061-0.725,0.406-0.846
									c0.346-0.122,0.725,0.06,0.846,0.405l4.25,12.068c0.121,0.345-0.061,0.724-0.406,0.846c-0.346,0.122-0.725-0.06-0.846-0.405
									L113.532,71.645z"/>
							</g>
							<path style="fill-rule:evenodd;clip-rule:evenodd;fill:#CF9122;" d="M130.77,251.769c-0.346,0.121-0.725-0.06-0.848-0.405
								c-0.121-0.346,0.06-0.725,0.406-0.847l65.93-23.218c0.346-0.122,0.725,0.06,0.848,0.405c0.121,0.346-0.061,0.725-0.406,0.846
								L130.77,251.769z"/>
							<path style="fill-rule:evenodd;clip-rule:evenodd;fill:#CF9122;" d="M135.538,265.308c-0.346,0.122-0.725-0.06-0.846-0.405
								c-0.123-0.346,0.059-0.725,0.404-0.846l65.93-23.219c0.348-0.121,0.727,0.06,0.848,0.406c0.121,0.345-0.06,0.724-0.406,0.846
								L135.538,265.308z"/>
							<path style="fill-rule:evenodd;clip-rule:evenodd;fill:#CF9122;" d="M140.305,278.848c-0.346,0.121-0.725-0.061-0.846-0.406
								c-0.123-0.346,0.059-0.724,0.404-0.846l65.932-23.218c0.346-0.122,0.725,0.06,0.846,0.405
								c0.121,0.346-0.059,0.725-0.404,0.846L140.305,278.848z"/>
							<path style="fill-rule:evenodd;clip-rule:evenodd;fill:#CF9122;" d="M145.073,292.387c-0.346,0.122-0.725-0.06-0.846-0.405
								c-0.121-0.346,0.061-0.725,0.404-0.847l65.932-23.218c0.346-0.122,0.725,0.06,0.846,0.405
								c0.123,0.346-0.059,0.725-0.404,0.847L145.073,292.387z"/>
							<path style="fill-rule:evenodd;clip-rule:evenodd;fill:#CF9122;" d="M149.84,305.926c-0.344,0.122-0.725-0.06-0.846-0.405
								c-0.121-0.346,0.061-0.724,0.406-0.846l65.93-23.219c0.348-0.121,0.725,0.061,0.848,0.405
								c0.121,0.347-0.061,0.725-0.406,0.847L149.84,305.926z"/>
							<path style="fill-rule:evenodd;clip-rule:evenodd;fill:#CF9122;" d="M154.608,319.466c-0.344,0.121-0.723-0.06-0.846-0.405
								c-0.121-0.346,0.061-0.725,0.406-0.847l65.932-23.218c0.346-0.122,0.725,0.06,0.846,0.405s-0.061,0.725-0.406,0.846
								L154.608,319.466z"/>
							<path style="fill-rule:evenodd;clip-rule:evenodd;fill:#ECF5F9;" d="M189.575,201.071l-14.789-42
								c-14.912,5.235-37.275,13.087-70.816,24.864l14.883,42.259L189.575,201.071z"/>
							<path style="fill-rule:evenodd;clip-rule:evenodd;fill:#FFFFFF;" d="M169.723,160.849l-7.01,2.461
								c4.186,14.181,8.764,28.402,13.447,42.526l8.105-2.879C179.497,188.891,174.676,174.824,169.723,160.849z"/>
							<path style="fill-rule:evenodd;clip-rule:evenodd;fill:#F4D98E;" d="M115.247,144.147c6.563-0.049,47.613-0.117,51.266,1.585
								c0.016,1.487-47.18,2.438-51.219,2.483c-1.826,0.015-14.982,1.529-14.367-1.737
								C100.178,142.917,113.325,144.177,115.247,144.147z"/>
							<path style="fill-rule:evenodd;clip-rule:evenodd;fill:#CF9122;" d="M103.373,175.31c-0.346,0.121-0.725-0.06-0.848-0.405
								c-0.121-0.345,0.061-0.725,0.406-0.846l65.93-23.218c0.346-0.122,0.725,0.06,0.848,0.405
								c0.121,0.346-0.061,0.724-0.406,0.846L103.373,175.31z"/>
							<path style="fill-rule:evenodd;clip-rule:evenodd;fill:#E09F17;" d="M181.2,231.825
								c-6.203,2.143-49.268,17.553-50.641,15.205c-2.561-4.969,46.527-18.08,49.297-19.046c2.769-0.966,13.709-6.235,14.17-2.943
								C195.872,228.176,183.012,231.182,181.2,231.825z"/>
							<path style="fill-rule:evenodd;clip-rule:evenodd;fill:#E09F17;" d="M186.813,245.181
								c-6.203,2.143-50.504,18.659-50.639,15.36c-0.992-4.206,46.525-18.235,49.295-19.201c2.77-0.966,13.709-6.235,14.17-2.943
								C201.485,241.531,188.625,244.537,186.813,245.181z"/>
							<path style="fill-rule:evenodd;clip-rule:evenodd;fill:#E09F17;" d="M191.02,258.396
								c-6.203,2.143-49.881,18.496-51.102,15.834c-1.469-4.98,46.988-18.709,49.758-19.675c2.77-0.966,13.709-6.235,14.17-2.943
								C205.692,254.747,192.832,257.753,191.02,258.396z"/>
							<path style="fill-rule:evenodd;clip-rule:evenodd;fill:#E09F17;" d="M196.477,271.753
								c-6.203,2.143-50.656,18.973-50.795,15.362c-0.547-6.396,46.682-18.237,49.451-19.203c2.77-0.966,13.709-6.235,14.17-2.943
								C211.149,268.103,198.29,271.109,196.477,271.753z"/>
							<path style="fill-rule:evenodd;clip-rule:evenodd;fill:#E09F17;" d="M201.784,285.579
								c-6.203,2.144-52.373,18.837-50.945,15.833c-3.502-5.426,46.832-18.707,49.602-19.673c2.77-0.966,13.709-6.235,14.17-2.944
								C216.456,281.931,203.596,284.936,201.784,285.579z"/>
							<path style="fill-rule:evenodd;clip-rule:evenodd;fill:#E09F17;" d="M205.836,298.952
								c-6.203,2.143-50.658,18.817-51.26,15.681c-2.703-3.875,47.146-18.555,49.916-19.521c2.77-0.966,13.709-6.235,14.17-2.944
								C220.51,295.304,207.649,298.309,205.836,298.952z"/>
							<path style="fill-rule:evenodd;clip-rule:evenodd;fill:#E09F17;" d="M210.182,313.435
								c-5.281,1.873-43.818,15.764-47.23,15.146c-7.943-4.304,43.721-18.197,46.078-19.042c2.359-0.846,11.67-5.639,12.07-2.329
								C222.676,310.424,211.725,312.871,210.182,313.435z"/>
						</g>
						<g>
							<path style="fill-rule:evenodd;clip-rule:evenodd;fill:#E5EFF9;" d="M139.504,280.743
								c-7.002-18.368-14.08-36.697-20.941-55.119c-6.18-16.733-12.205-33.44-17.188-50.578c-1.814-6.253-3.455-12.378-4.559-18.803
								c-0.682-3.99-1.369-8.384-0.346-12.37c7.441-22.519,5.762-18.048,11.035-39.133c5.344,9.141-3.861,31.524-6.254,40.352
								c-0.463,2.952,0.396,7.182,1.002,10.075c1.43,6.109,3.266,12.01,5.223,17.967c5.713,16.726,12.117,33.169,18.578,49.617
								c7.205,18.294,14.529,36.542,21.549,54.907c1.736,4.647,18.85,42.917,10.889,43.401
								C151.739,324.635,140.969,284.612,139.504,280.743z"/>
							<path style="fill-rule:evenodd;clip-rule:evenodd;fill:#D29A22;" d="M101.608,143.841l-5.143,0.059
								c-1.014,3.979-0.328,8.362,0.352,12.344c0.818,4.768,1.934,9.372,3.195,13.985c1.67,0.785,2.986,2.207,3.617,3.994
								c0.68,1.932,0.467,4.073-0.563,5.839c-0.045,0.075-0.088,0.149-0.133,0.222c0.621,2.045,1.256,4.084,1.904,6.119
								l15.256,43.32c6.381,17.043,12.928,34.015,19.41,51.02c1.465,3.869,12.234,43.892,18.988,40.316
								c7.961-0.484-9.152-38.754-10.889-43.401c-7.02-18.365-14.344-36.613-21.549-54.907
								c-5.15-13.115-10.268-26.228-15.027-39.483c-1.207-3.368-2.395-6.745-3.551-10.133c-1.957-5.957-3.793-11.858-5.223-17.967
								c-0.605-2.893-1.465-7.123-1.002-10.075C101.358,144.702,101.477,144.283,101.608,143.841z"/>
							<path style="fill-rule:evenodd;clip-rule:evenodd;fill:#BD7B27;" d="M130.77,251.769c-0.346,0.121-0.725-0.06-0.848-0.405
								c-0.121-0.346,0.06-0.725,0.406-0.847l5.885-2.073l0.488,1.235L130.77,251.769z"/>
							<path style="fill-rule:evenodd;clip-rule:evenodd;fill:#BD7B27;" d="M135.538,265.308c-0.346,0.122-0.725-0.06-0.846-0.405
								c-0.123-0.346,0.059-0.725,0.404-0.846l6.375-2.245l0.484,1.236L135.538,265.308z"/>
							<path style="fill-rule:evenodd;clip-rule:evenodd;fill:#BD7B27;" d="M140.305,278.848c-0.346,0.121-0.725-0.061-0.846-0.405
								c-0.123-0.347,0.059-0.725,0.404-0.847l6.799-2.395l0.477,1.239L140.305,278.848z"/>
							<path style="fill-rule:evenodd;clip-rule:evenodd;fill:#BD7B27;" d="M145.073,292.387c-0.346,0.122-0.725-0.06-0.846-0.405
								c-0.121-0.346,0.061-0.725,0.404-0.847l7.41-2.608c0.162,0.405,0.326,0.816,0.49,1.233L145.073,292.387z"/>
							<path style="fill-rule:evenodd;clip-rule:evenodd;fill:#BD7B27;" d="M149.84,305.926c-0.344,0.122-0.725-0.06-0.846-0.405
								c-0.121-0.346,0.061-0.725,0.406-0.846l7.645-2.692c0.141,0.422,0.279,0.842,0.416,1.26L149.84,305.926z"/>
							<path style="fill-rule:evenodd;clip-rule:evenodd;fill:#BD7B27;" d="M153.905,318.386c0.07-0.075,0.16-0.135,0.264-0.172
								l6.363-2.241c0.041,0.492,0.063,0.954,0.059,1.387l-5.881,2.07C154.444,319.117,154.174,318.767,153.905,318.386z"/>
							<path style="fill-rule:evenodd;clip-rule:evenodd;fill:#D7D2D6;" d="M110.454,181.659l-6.402,2.248
								c0.262,0.833,0.523,1.664,0.787,2.495l14.014,39.792l7.51-2.667l-0.307-0.776
								C120.696,209.106,115.373,195.463,110.454,181.659z"/>
							<path style="fill-rule:evenodd;clip-rule:evenodd;fill:#DAB475;" d="M101.123,147.311c-0.184-0.235-0.26-0.511-0.197-0.833
								c-0.09-0.424,0.02-0.779,0.283-1.077C101.135,145.999,101.112,146.642,101.123,147.311z"/>
							<path style="fill-rule:evenodd;clip-rule:evenodd;fill:#BD7B27;" d="M103.373,175.31c-0.346,0.121-0.725-0.06-0.848-0.405
								c-0.121-0.346,0.061-0.725,0.406-0.846l4.346-1.531l0.199,0.606l0.223,0.652L103.373,175.31z"/>
							<path style="fill-rule:evenodd;clip-rule:evenodd;fill:#CC8722;" d="M135.493,246.617c-2.828,0.653-4.668,0.868-4.934,0.413
								c-0.498-0.966,0.961-2.239,3.645-3.671C134.633,244.445,135.063,245.531,135.493,246.617z"/>
							<path style="fill-rule:evenodd;clip-rule:evenodd;fill:#CC8722;" d="M140.922,260.409c-2.916,0.657-4.721,0.794-4.748,0.132
								c-0.178-0.752,1.203-1.82,3.596-3.07C140.155,258.45,140.54,259.43,140.922,260.409z"/>
							<path style="fill-rule:evenodd;clip-rule:evenodd;fill:#CC8722;" d="M146.04,273.579c-3.527,0.901-5.854,1.236-6.121,0.65
								c-0.309-1.045,1.588-2.476,4.793-4.093C145.155,271.283,145.598,272.431,146.04,273.579z"/>
							<path style="fill-rule:evenodd;clip-rule:evenodd;fill:#CC8722;" d="M151.383,286.891c-3.471,0.82-5.67,1.022-5.701,0.225
								c-0.104-1.2,1.477-2.592,4.131-4.068C150.291,284.208,150.821,285.5,151.383,286.891z"/>
							<path style="fill-rule:evenodd;clip-rule:evenodd;fill:#CC8722;" d="M156.61,300.703c-3.801,1.03-6.108,1.417-5.772,0.709
								c-0.77-1.193,1.064-2.767,4.422-4.505C155.721,298.169,156.174,299.44,156.61,300.703z"/>
							<path style="fill-rule:evenodd;clip-rule:evenodd;fill:#CC8722;" d="M160.319,314.228c-3.416,0.833-5.611,1.085-5.742,0.405
								c-0.607-0.872,1.447-2.291,5.023-3.977C159.905,311.928,160.149,313.127,160.319,314.228z"/>
						</g>
						<path style="fill-rule:evenodd;clip-rule:evenodd;fill:#F7E3AD;" d="M112.596,70.642c-1.9,0.675-16.832,5.619-17.836,5.14
							c0.43-1.056,15.227-6.057,17.23-6.789c1.512-0.56,2.982-1.653,3.498-0.559C116.286,69.682,113.899,70.144,112.596,70.642z"/>
					</g>
					<path style="fill-rule:evenodd;clip-rule:evenodd;fill:#E0EBF5;" d="M110.454,181.659l-6.402,2.248
						c0.26,0.831,0.521,1.661,0.787,2.49v0.001c0,0.001,0,0.002,0,0.003l9.518,27.027l1.008,2.858l3.488,9.906l5.654-2.008
						l0.303-0.107l1.553-0.551l0.402-0.143l0.029-0.01l1.971-0.7l0.117-0.042l7.301-2.594l2.008-0.713l25.758-9.149l2.42-0.86
						l7.521-2.672l0.002-0.001l2.27-0.807c-0.502-1.515-1.002-3.03-1.502-4.547c0,0,0-0.001,0-0.002
						c-0.061-0.18-0.119-0.36-0.178-0.54c-0.158-0.479-0.316-0.958-0.473-1.437c-1.119-3.409-2.23-6.823-3.328-10.239
						c-0.549-1.711-1.096-3.423-1.639-5.136c-3.807,0.277-8.119,0.587-13.002,0.934c-17.488,1.24-29.09-0.062-36.963-3.319
						c-1.252-0.517-2.408-1.084-3.479-1.697c-0.695,0.244-1.394,0.49-2.1,0.737c-0.394,0.138-0.791,0.277-1.189,0.417
						C111.696,181.223,111.077,181.44,110.454,181.659z"/>
					<path style="fill-rule:evenodd;clip-rule:evenodd;fill:#E0EBF5;" d="M178.362,185.643c1.379,4.02,2.754,8.043,4.121,12.067
						c0,0,0.002,0.001,0.002,0.002c0.594,1.749,1.188,3.497,1.781,5.245l5.309-1.886l-5.025-14.275l-0.705-1.996l-0.676-1.92
						c-1.52,0.118-3.199,0.246-5.055,0.385c-0.184,0.014-0.367,0.027-0.555,0.041c0.109,0.323,0.221,0.645,0.332,0.968v0.001
						C178.047,184.731,178.206,185.187,178.362,185.643z"/>
				</g>
				<g>
					<path style="fill-rule:evenodd;clip-rule:evenodd;fill:#F7F2E0;" d="M290.727,327.575l-30.166-11.892
						c0,0-6.846-6.686-1.773-19.548l54.076-137.175c1.195-3.378,0.336-1.532,2.928-2.415c0.793-0.27,1.467-0.871,1.795-1.704v-0.001
						c0.397-1.004,0.193-2.104-0.434-2.904c-1.445-1.845-1.266-0.647-0.053-3.722l4.051-10.276c0,0,6.508-13.155,22.484-20.041
						c15.976-6.887,21.805-13.696,26.041-24.441c4.236-10.745,4.236-10.745,4.236-10.745l11.549,4.553l11.549,4.553
						c0,0,0,0-4.236,10.745c-4.236,10.745-4.621,19.7,2.358,35.637c6.98,15.936,2.762,29.993,2.762,29.993l-4.053,10.276
						c-1.211,3.074-0.262,2.322-2.578,2.684c-1.004,0.157-1.902,0.823-2.299,1.828l0,0c-0.328,0.833-0.246,1.732,0.15,2.471
						c1.291,2.414,1.924,0.478,0.492,3.763l-54.076,137.176c-5.072,12.862-14.637,13.079-14.637,13.079L290.727,327.575z"/>
					<path style="fill-rule:evenodd;clip-rule:evenodd;fill:#8CC4D9;" d="M378.09,74.663l20.982,8.271
						c2.037,0.803,3.047,3.128,2.244,5.166l-5.156,13.079l-28.393-11.192l5.156-13.079C373.728,74.87,376.053,73.86,378.09,74.663z"
						/>
					<path style="fill-rule:evenodd;clip-rule:evenodd;fill:#75A1C8;" d="M368.018,92.803l26.039,10.265
						c0.775,0.306,1.16,1.191,0.855,1.968l0,0c-0.307,0.776-1.193,1.161-1.969,0.855l-26.039-10.265
						c-0.777-0.306-1.162-1.192-0.855-1.968l0,0C366.355,92.882,367.24,92.497,368.018,92.803z"/>
					
						<rect x="309.12" y="162.299" transform="matrix(0.3668 -0.9303 0.9303 0.3668 25.7047 444.8502)" style="fill-rule:evenodd;clip-rule:evenodd;fill:#8CC4D9;" width="61.004" height="82.489"/>
					
						<rect x="340.322" y="208.122" transform="matrix(0.3667 -0.9303 0.9303 0.3667 34.0318 481.6608)" style="fill-rule:evenodd;clip-rule:evenodd;fill:#A9D2E2;" width="61.004" height="15.42"/>
					<path style="fill-rule:evenodd;clip-rule:evenodd;fill:#FFFFFF;" d="M374.838,184.628l14.346,5.655l0.422-1.07
						c1.432-3.285,0.799-1.349-0.492-3.763c-0.397-0.739-0.479-1.638-0.15-2.471c0.396-1.005,1.295-1.671,2.299-1.828
						c2.316-0.362,1.367,0.391,2.578-2.684l4.053-10.276c0,0,4.219-14.057-2.762-29.993c-6.354-14.509-6.604-23.231-3.4-32.786
						l-4.344-1.712c-3.385,9.482-4.328,17.735-1.881,30.703c2.688,14.245-1.959,28.133-1.959,28.133l-4.053,10.276
						c-1.211,3.074-0.473,2.239-2.086,2.877c-0.699,0.277-1.393,1.024-1.789,2.029c-0.326,0.833-0.387,1.676-0.213,2.327
						c0.566,2.127,1.24,0.209-0.147,3.511L374.838,184.628z"/>
					<path style="fill-rule:evenodd;clip-rule:evenodd;fill:#FFFFFF;" d="M366.81,247.036l-14.346-5.655l-31.281,79.352
						c-5.072,12.862-11.568,14.288-11.568,14.288l11.277,4.446c0,0,9.564-0.217,14.635-13.079L366.81,247.036z"/>
					<path style="fill-rule:evenodd;clip-rule:evenodd;fill:#E3E0D3;" d="M273.133,301.791l31.281-79.352l-14.346-5.655
						l-31.281,79.353c-5.072,12.862,1.773,19.548,1.773,19.548l11.277,4.445C271.838,320.129,268.06,314.653,273.133,301.791z"/>
					<path style="fill-rule:evenodd;clip-rule:evenodd;fill:#E3E0D3;" d="M312.441,160.031l14.346,5.655l0.422-1.07
						c1.238-3.361,0.422-1.499,2.287-2.667c0.572-0.358,1.103-1.014,1.432-1.847c0.397-1.005,0.4-2.023,0.078-2.704
						c-0.742-1.567-0.773-0.453,0.439-3.527l4.051-10.276c0,0,6.08-13.323,17.766-21.901c10.639-7.81,15.578-14.486,19.574-23.728
						l-4.344-1.712c-4.178,9.17-10.313,15.376-24.857,21.646c-15.977,6.886-22.484,20.041-22.484,20.041l-4.051,10.276
						c-1.213,3.074-1.393,1.876,0.053,3.722c0.627,0.8,0.83,1.9,0.434,2.905c-0.328,0.833-1.002,1.434-1.795,1.704
						c-2.592,0.883-1.732-0.963-2.928,2.415L312.441,160.031z"/>
					
						<rect x="277.926" y="183.524" transform="matrix(0.3667 -0.9303 0.9303 0.3667 17.4112 408.0471)" style="fill-rule:evenodd;clip-rule:evenodd;fill:#7EADCE;" width="61.003" height="15.42"/>
					<path style="fill-rule:evenodd;clip-rule:evenodd;fill:#75A1C8;" d="M395.178,96.463c-5.84-2.302-10.021-3.951-15.863-6.253
						c-3.488-1.375-6.08-1.628-4.76-4.978l0.773-1.961l2.969-7.534l0.34-0.858l-0.547-0.215c-0.896-0.354-1.85-0.356-2.703-0.074
						c-1.086,0.359-2.014,1.178-2.463,2.318l-5.156,13.079l2.836,1.118l23.098,9.105l2.459,0.969l1.477-3.747L395.178,96.463z"/>
					<g>
						<path style="fill-rule:evenodd;clip-rule:evenodd;fill:#75A1C8;" d="M378.434,77.56c0.133-0.338,0.516-0.504,0.853-0.371
							c0.338,0.134,0.504,0.516,0.371,0.854L375,89.86c-0.135,0.338-0.516,0.504-0.856,0.371c-0.338-0.133-0.504-0.516-0.371-0.854
							L378.434,77.56z"/>
						<path style="fill-rule:evenodd;clip-rule:evenodd;fill:#75A1C8;" d="M384.125,79.804c0.133-0.338,0.516-0.504,0.853-0.371
							c0.34,0.134,0.506,0.516,0.373,0.854l-4.658,11.817c-0.135,0.338-0.516,0.504-0.855,0.371
							c-0.338-0.133-0.504-0.516-0.371-0.854L384.125,79.804z"/>
						<path style="fill-rule:evenodd;clip-rule:evenodd;fill:#75A1C8;" d="M389.818,82.048c0.133-0.338,0.516-0.504,0.853-0.371
							c0.338,0.133,0.506,0.516,0.371,0.854l-4.658,11.817c-0.133,0.339-0.516,0.505-0.853,0.372
							c-0.338-0.133-0.506-0.516-0.371-0.855L389.818,82.048z"/>
						<path style="fill-rule:evenodd;clip-rule:evenodd;fill:#75A1C8;" d="M395.51,84.292c0.135-0.338,0.518-0.504,0.855-0.371
							c0.338,0.133,0.504,0.516,0.371,0.854l-4.658,11.817c-0.135,0.339-0.516,0.505-0.855,0.372
							c-0.338-0.133-0.504-0.516-0.371-0.854L395.51,84.292z"/>
					</g>
					<g>
						
							<rect x="331.634" y="180.89" transform="matrix(0.3668 -0.9303 0.9303 0.3668 3.7685 449.8045)" style="fill-rule:evenodd;clip-rule:evenodd;fill:#7EADCE;" width="1.317" height="82.489"/>
						
							<rect x="346.292" y="143.708" transform="matrix(0.3667 -0.9303 0.9303 0.3667 47.6435 439.8988)" style="fill-rule:evenodd;clip-rule:evenodd;fill:#7EADCE;" width="1.317" height="82.49"/>
					</g>
					<path style="fill-rule:evenodd;clip-rule:evenodd;fill:#E3E0D3;" d="M291.232,232.132c-0.338-0.133-0.504-0.516-0.371-0.855
						c0.135-0.338,0.518-0.504,0.855-0.371l64.562,25.452c0.338,0.134,0.504,0.516,0.371,0.854
						c-0.133,0.338-0.516,0.504-0.854,0.371L291.232,232.132z"/>
					<path style="fill-rule:evenodd;clip-rule:evenodd;fill:#E3E0D3;" d="M286.006,245.391c-0.338-0.134-0.504-0.516-0.371-0.854
						c0.135-0.338,0.516-0.505,0.855-0.371l64.563,25.452c0.338,0.133,0.506,0.516,0.371,0.855
						c-0.133,0.338-0.516,0.505-0.853,0.371L286.006,245.391z"/>
					<path style="fill-rule:evenodd;clip-rule:evenodd;fill:#E3E0D3;" d="M280.779,258.649c-0.338-0.134-0.504-0.516-0.371-0.855
						c0.133-0.339,0.516-0.505,0.855-0.371l64.563,25.452c0.338,0.133,0.506,0.516,0.371,0.853
						c-0.133,0.339-0.516,0.505-0.854,0.372L280.779,258.649z"/>
					<path style="fill-rule:evenodd;clip-rule:evenodd;fill:#E3E0D3;" d="M275.553,271.908c-0.338-0.134-0.504-0.517-0.371-0.854
						c0.133-0.339,0.516-0.505,0.855-0.371l64.563,25.451c0.338,0.134,0.506,0.517,0.371,0.855
						c-0.133,0.339-0.516,0.505-0.853,0.371L275.553,271.908z"/>
					<path style="fill-rule:evenodd;clip-rule:evenodd;fill:#E3E0D3;" d="M270.326,285.166c-0.338-0.133-0.504-0.516-0.371-0.854
						c0.133-0.338,0.516-0.504,0.855-0.371l64.563,25.452c0.338,0.134,0.504,0.517,0.371,0.854
						c-0.133,0.339-0.516,0.505-0.855,0.371L270.326,285.166z"/>
					<path style="fill-rule:evenodd;clip-rule:evenodd;fill:#E3E0D3;" d="M265.1,298.425c-0.338-0.133-0.504-0.516-0.371-0.854
						c0.133-0.338,0.516-0.505,0.854-0.371l64.564,25.452c0.338,0.134,0.504,0.516,0.371,0.854
						c-0.133,0.338-0.516,0.504-0.855,0.371L265.1,298.425z"/>
				</g>
				<g>
					<g>
						<path style="fill-rule:evenodd;clip-rule:evenodd;fill:#DDCAA7;" d="M242.881,132.156c-7.088-2.313-12.047-5.455-10.33,1.362
							c1.719,6.816,2.016,9.512,2.016,9.512s-16.016,42.18-18.301,69.803c-2.285,27.624-2.076,39.447-2.076,39.447
							s-7.633,10.39-5.373,11.006c2.26,0.616,11.979-0.653,11.979-0.653s14.785,7.783,25.615,10.171
							c10.832,2.387,16.761,3.472,16.761,3.472s5.928,1.084,16.902,2.686c10.973,1.6,27.557-0.446,27.557-0.446
							s8.641,4.628,10.971,4.852c2.332,0.224-1.129-12.195-1.129-12.195s4.381-10.984,12.021-37.628
							c7.641-26.643,7.592-71.761,7.592-71.761s1.233-2.416,5.252-8.183c4.02-5.767-1.732-4.584-9.18-4.93
							c-12.525-7.168-44.383-12.385-44.383-12.385S257.135,129.886,242.881,132.156z"/>
						<path style="fill-rule:evenodd;clip-rule:evenodd;fill:#D0B991;" d="M327.385,205.527
							c-1.721,16.882-2.979,33.932-10.238,42.651c-3.103,3.727-55.324-31.718-57.311-32.839c-1.072-0.607-0.043,13.749-2.617,13.049
							c-9.017-2.453-24.248-5.268-24.718-6.979c-6.072-22.088-0.893-49.655,8.469-73.384c-0.635-3.273-1.785-8.148-3.701-13.039
							c-1.053-2.681-1.777-4.402-2.074-5.436c-2.459-0.553-3.611,0.127-2.643,3.967c1.004,3.982,1.523,6.558,1.781,8.012
							c0.184,1.035,0.234,1.501,0.234,1.501s-16.016,42.18-18.301,69.803c-2.285,27.624-2.076,39.447-2.076,39.447
							s-7.633,10.39-5.373,11.006c2.26,0.616,11.979-0.654,11.979-0.654s14.785,7.784,25.615,10.172
							c10.832,2.387,16.761,3.472,16.761,3.472s5.928,1.084,16.902,2.686c10.973,1.6,27.557-0.446,27.557-0.446
							s8.641,4.628,10.971,4.852c2.332,0.224-1.129-12.195-1.129-12.195s4.381-10.984,12.021-37.628
							c7.641-26.643,7.592-71.761,7.592-71.761s0.213-0.418,0.75-1.32c0.756-1.269,2.154-3.494,4.502-6.863
							c2.109-3.027,1.527-4.139-0.578-4.563c-0.643,0.862-1.932,2.216-3.869,4.355c-2.922,3.233-5.35,6.642-7.092,9.329
							C330.275,173.427,329.234,187.376,327.385,205.527z"/>
						<path style="fill-rule:evenodd;clip-rule:evenodd;fill:#BFA174;" d="M225.204,171.118
							c30.478,0.534,85.687,13.096,110.773,19.184c-0.777,10.983-2.1,23.501-4.346,34.424
							c-35.658-2.513-87.703-12.171-114.462-19.48C218.827,194.221,222.008,181.883,225.204,171.118z"/>
						<path style="fill-rule:evenodd;clip-rule:evenodd;fill:#B28D58;" d="M328.986,188.626c2.522,0.597,4.867,1.16,6.99,1.675
							v0.017l-0.023,0.316c-0.023,0.337-0.049,0.677-0.074,1.017l-0.033,0.439c-0.025,0.331-0.049,0.664-0.076,0.998l-0.025,0.337
							c-0.029,0.369-0.059,0.74-0.09,1.112l-0.031,0.396c-0.029,0.341-0.057,0.683-0.086,1.025l-0.041,0.463
							c-0.027,0.316-0.055,0.633-0.082,0.95l-0.053,0.585c-0.027,0.301-0.055,0.603-0.084,0.904l-0.051,0.547
							c-0.027,0.295-0.057,0.592-0.084,0.889l-0.061,0.61c-0.027,0.263-0.053,0.525-0.078,0.788
							c-0.027,0.255-0.053,0.509-0.08,0.765c-0.025,0.251-0.053,0.503-0.08,0.754c-0.027,0.269-0.057,0.537-0.086,0.806
							l-0.063,0.567c-0.039,0.36-0.08,0.721-0.121,1.081l-0.041,0.355c-0.035,0.321-0.074,0.642-0.111,0.963l-0.066,0.55
							l-0.004,0.038c-0.043,0.347-0.086,0.695-0.129,1.042l-0.018,0.145c-0.063,0.495-0.125,0.991-0.191,1.485l-0.01,0.088
							c-0.07,0.523-0.141,1.046-0.211,1.568l-0.006,0.04c-0.602,4.376-1.314,8.692-2.156,12.785
							c-2.061-0.145-4.178-0.315-6.34-0.506c0.863-5.952,1.445-12.334,2.094-18.692
							C328.006,199.432,328.537,193.811,328.986,188.626z"/>
						<path style="fill-rule:evenodd;clip-rule:evenodd;fill:#B3905A;" d="M225.204,171.118c2.313,0.04,4.768,0.151,7.34,0.322
							c-3.852,12.1-6.865,24.438-7.832,35.764c-2.686-0.666-5.213-1.321-7.543-1.957c0.828-5.511,2.037-11.35,3.439-17.156
							l0.004-0.013c0.125-0.518,0.25-1.035,0.379-1.551l0.025-0.101c0.217-0.877,0.438-1.753,0.662-2.626l0.047-0.18
							c0.113-0.44,0.229-0.879,0.344-1.317l0.064-0.249c0.09-0.336,0.178-0.672,0.268-1.007l0.145-0.536
							c0.086-0.322,0.172-0.643,0.26-0.964l0.1-0.368c0.104-0.374,0.205-0.746,0.307-1.117l0.096-0.34
							c0.086-0.31,0.172-0.619,0.258-0.928l0.148-0.525l0.01-0.038c0.09-0.319,0.18-0.637,0.271-0.954l0.016-0.054l0.148-0.52
							c0.082-0.291,0.166-0.581,0.25-0.87l0.098-0.338c0.084-0.285,0.166-0.569,0.248-0.852l0.15-0.51l0.023-0.077
							c0.092-0.311,0.184-0.622,0.275-0.931V171.118z"/>
						<path style="fill-rule:evenodd;clip-rule:evenodd;fill:#93682A;" d="M220.465,206.768c-0.338-0.088-0.539-0.433-0.451-0.77
							c0.088-0.337,0.434-0.539,0.77-0.451c16.828,4.4,34.242,7.996,51.443,10.903c19.801,3.348,39.357,5.789,57.434,7.5
							c0.346,0.033,0.602,0.341,0.568,0.689c-0.033,0.347-0.342,0.602-0.689,0.569c-18.065-1.711-37.647-4.157-57.525-7.517
							C254.758,214.773,237.305,211.171,220.465,206.768z"/>
						<path style="fill-rule:evenodd;clip-rule:evenodd;fill:#EBEBEB;" d="M227.764,171.607c-0.346-0.027-0.605-0.331-0.578-0.678
							c0.027-0.347,0.33-0.605,0.678-0.578c18.18,1.392,36.636,4.066,54.541,7.379c17.908,3.315,35.242,7.265,51.184,11.209
							c0.34,0.083,0.547,0.424,0.463,0.762c-0.082,0.338-0.424,0.545-0.762,0.462c-15.943-3.945-33.26-7.892-51.111-11.196
							C264.32,175.663,245.909,172.996,227.764,171.607z"/>
						<path style="fill-rule:evenodd;clip-rule:evenodd;fill:#ECE1CB;" d="M302.576,143.639c-20.234-4.76-55.33-8.857-56.041-9.232
							c3.297-3.632,50.623,5.489,56.689,6.762c2.279,0.511,30.293,7.804,28.033,9.552
							C331.838,152.948,316.266,146.119,302.576,143.639z"/>
					</g>
					<path style="fill-rule:evenodd;clip-rule:evenodd;fill:#D0B991;" d="M233.582,244.725c-0.137,3.54-6.316,0.237-2.379-2.054
						C232.661,241.822,233.323,243.629,233.582,244.725z"/>
					<path style="fill-rule:evenodd;clip-rule:evenodd;fill:#D0B991;" d="M238.092,241.613c-0.096,2.455-4.381,0.165-1.65-1.424
						C237.452,239.602,237.911,240.854,238.092,241.613z"/>
					<path style="fill-rule:evenodd;clip-rule:evenodd;fill:#D0B991;" d="M244.055,246.247c-0.096,2.455-4.381,0.165-1.65-1.424
						C243.415,244.235,243.873,245.487,244.055,246.247z"/>
					<path style="fill-rule:evenodd;clip-rule:evenodd;fill:#D0B991;" d="M307.1,253.86c-2.799-2.171,3.482-5.275,3.057-0.741
						C309.998,254.799,308.144,254.286,307.1,253.86z"/>
					<path style="fill-rule:evenodd;clip-rule:evenodd;fill:#D0B991;" d="M309.014,259.987c-1.941-1.506,2.414-3.658,2.117-0.515
						C311.021,260.638,309.736,260.282,309.014,259.987z"/>
					<path style="fill-rule:evenodd;clip-rule:evenodd;fill:#D0B991;" d="M300.57,258.665c-1.941-1.506,2.414-3.658,2.117-0.514
						C302.578,259.315,301.293,258.96,300.57,258.665z"/>
					<path style="fill-rule:evenodd;clip-rule:evenodd;fill:#B28D58;" d="M321.021,210.259c-2.801-2.171,3.482-5.275,3.055-0.741
						C323.918,211.197,322.064,210.684,321.021,210.259z"/>
					<path style="fill-rule:evenodd;clip-rule:evenodd;fill:#B28D58;" d="M322.934,216.385c-1.941-1.505,2.414-3.658,2.117-0.514
						C324.941,217.036,323.656,216.68,322.934,216.385z"/>
					<path style="fill-rule:evenodd;clip-rule:evenodd;fill:#B28D58;" d="M314.49,215.064c-1.941-1.506,2.414-3.658,2.119-0.514
						C316.5,215.713,315.213,215.358,314.49,215.064z"/>
					<path style="fill-rule:evenodd;clip-rule:evenodd;fill:#D0B991;" d="M237.336,168.501c-4.121-3.196,5.125-7.765,4.496-1.091
						C241.6,169.881,238.872,169.126,237.336,168.501z"/>
					<path style="fill-rule:evenodd;clip-rule:evenodd;fill:#D0B991;" d="M241.51,162.079c-1.941-1.506,2.414-3.658,2.119-0.514
						C243.52,162.729,242.233,162.374,241.51,162.079z"/>
					<path style="fill-rule:evenodd;clip-rule:evenodd;fill:#D0B991;" d="M244.248,169.182c-2.344-1.818,2.914-4.417,2.557-0.621
						C246.674,169.967,245.122,169.538,244.248,169.182z"/>
				</g>
				<g>
					<g>
						<path style="fill-rule:evenodd;clip-rule:evenodd;fill:#FFFFFF;" d="M356.033,202.198c-1.172,2.546-4.279,7.036-9.56,9.436
							c-7.598,3.453-8.846,7.471-13.48,14.778c-10.398,16.398-24.41,42.489-24.41,42.489s-2.621,7.001,8.84,16.307
							c8.441,6.854,33.65,22.788,44.715,14.278l26.494-48.689c4.09-7.516,3.537-6.059,3.635-14.392
							c0.031-2.784,0.373-5.834,1.469-7.973c2.553-4.985,2.553-4.985,2.553-4.985L356.033,202.198z"/>
						<path style="fill-rule:evenodd;clip-rule:evenodd;fill:#A51919;" d="M347.916,214.811c-2.336,1.063-4.313,2.305-6.002,4.256
							c-1.004,1.159-1.85,2.468-2.652,3.771c-1.115,1.811-2.182,3.645-3.322,5.443c-2.857,4.506-5.598,9.099-8.287,13.707
							c-5.426,9.295-10.711,18.735-15.809,28.217c-0.168,0.895,0.129,2.256,0.387,3.028c1.207,3.613,4.514,6.927,7.393,9.264
							c5.271,4.281,11.947,8.353,18.059,11.27c5.219,2.49,16.078,6.908,21.779,3.333l26.105-47.971
							c0.746-1.375,1.533-2.756,2.23-4.156c0.295-0.593,0.605-1.241,0.758-1.89c0.152-0.656,0.174-1.396,0.188-2.066
							c0.018-0.829,0.021-1.659,0.021-2.49c0.002-0.821-35.438-26.396-39.33-24.438
							C348.963,214.324,348.457,214.565,347.916,214.811z"/>
						<path style="fill-rule:evenodd;clip-rule:evenodd;fill:#7B261E;" d="M320.836,253.871c-3.053,5.418-6.055,10.869-8.992,16.334
							c-0.168,0.895,0.129,2.256,0.387,3.028c1.207,3.613,4.514,6.927,7.393,9.264c5.271,4.281,11.947,8.353,18.059,11.27
							c5.219,2.49,16.078,6.908,21.779,3.333l26.105-47.971c0.414-0.764,0.842-1.527,1.258-2.297
							c-5.395-1.535-11.215-2.203-17.051-1.743C353.123,246.4,334.891,255.027,320.836,253.871z"/>
						<path style="fill-rule:evenodd;clip-rule:evenodd;fill:#B24935;" d="M347.916,214.811c-1.272,0.579-2.438,1.21-3.508,1.982
							c0.941,2.267,2.906,4.862,6.377,7.831c11.064,9.465,30.828,18.229,37.764,18.475l0.006-0.016
							c0.152-0.656,0.174-1.396,0.188-2.066c0.275-12.624-7.23-11.712-17.813-18.359
							C361.818,216.935,354.008,212.042,347.916,214.811z"/>
						<path style="fill-rule:evenodd;clip-rule:evenodd;fill:#7B261E;" d="M341.103,243.012c-0.24,3.39-6.063,0.034-2.219-2.042
							C340.309,240.201,340.887,241.953,341.103,243.012z"/>
						<path style="fill-rule:evenodd;clip-rule:evenodd;fill:#7B261E;" d="M345.521,240.167c-0.166,2.351-4.203,0.023-1.539-1.416
							C344.971,238.218,345.371,239.433,345.521,240.167z"/>
						<path style="fill-rule:evenodd;clip-rule:evenodd;fill:#7B261E;" d="M351.096,244.792c-0.166,2.351-4.203,0.024-1.537-1.415
							C350.545,242.844,350.947,244.059,351.096,244.792z"/>
						<path style="fill-rule:evenodd;clip-rule:evenodd;fill:#953225;" d="M354.631,284.267c3.637,2.353-3.691,6.787-3.643,1.221
							C351.006,283.426,353.316,283.857,354.631,284.267z"/>
						<path style="fill-rule:evenodd;clip-rule:evenodd;fill:#953225;" d="M354.174,277.587c2.52,1.632-2.559,4.706-2.527,0.847
							C351.66,277.005,353.262,277.304,354.174,277.587z"/>
						<path style="fill-rule:evenodd;clip-rule:evenodd;fill:#953225;" d="M362.764,274.211c2.522,1.631-2.559,4.705-2.525,0.846
							C360.25,273.628,361.852,273.927,362.764,274.211z"/>
						<path style="fill-rule:evenodd;clip-rule:evenodd;fill:#F1D7C8;" d="M344.469,218.162c-0.084-0.301,0.092-0.614,0.395-0.698
							c0.301-0.084,0.613,0.092,0.697,0.394c1.082,3.851,6.992,8.452,14.209,12.634c10.006,5.799,22.461,10.727,28.219,11.806
							c0.307,0.058,0.51,0.353,0.453,0.66c-0.059,0.308-0.355,0.51-0.662,0.452c-5.853-1.097-18.471-6.081-28.576-11.937
							C351.76,227.159,345.643,222.338,344.469,218.162z"/>
					</g>
					<g>
						<path style="fill-rule:evenodd;clip-rule:evenodd;fill:#3D3D3C;" d="M353.879,194.828c-1.92,3.402-1.725,8.19,6.074,14.86
							c11.836,10.126,33.629,19.45,39.023,18.401c2.346-0.457,4.145-2.253,5.428-4.138c3.801-5.585-7.189-15.253-19.646-22.788
							C372.019,193.457,357.723,188.018,353.879,194.828z"/>
						<path style="fill-rule:evenodd;clip-rule:evenodd;fill:#575756;" d="M368.791,202.052c5.545,4.166,14.369,9.199,20.195,11.973
							c8.293,3.949,12.096,2.334,5.633-3.044c-2.508-2.085-6.146-4.58-9.99-6.975c-5.117-3.186-10.603-6.192-14.613-7.651
							C361.553,193.276,363.297,197.922,368.791,202.052z"/>
						<path style="fill-rule:evenodd;clip-rule:evenodd;fill:#20201E;" d="M364.002,195.961c-0.055-0.308,0.148-0.604,0.457-0.659
							c0.307-0.056,0.603,0.148,0.658,0.456c0.25,1.343,1.49,2.974,3.35,4.717c3.797,3.562,10.09,7.475,15.924,10.41
							c5.777,2.906,11.047,4.846,12.896,4.502c0.15-0.028,0.25-0.066,0.297-0.115c0.213-0.229,0.572-0.24,0.801-0.027
							c0.229,0.214,0.24,0.572,0.025,0.8c-0.219,0.234-0.529,0.385-0.92,0.457c-2.088,0.388-7.635-1.601-13.607-4.606
							c-5.918-2.976-12.311-6.956-16.189-10.594C365.664,199.399,364.299,197.561,364.002,195.961z"/>
						<path style="fill-rule:evenodd;clip-rule:evenodd;fill:#2F2E2C;" d="M402.992,220.894c-5.395,1.049-27.188-8.275-39.025-18.4
							c-4.76-4.072-6.688-7.442-7.029-10.224c-1.316,0.488-2.359,1.321-3.059,2.559c-1.353,2.396-1.656,5.481,1.01,9.426
							c1.117,1.656,2.758,3.462,5.064,5.434c9.535,8.157,25.531,15.793,34.211,17.906c2.094,0.51,3.764,0.698,4.813,0.495
							c2.346-0.457,4.145-2.253,5.428-4.138c0.766-1.126,0.93-2.419,0.604-3.826C404.387,220.485,403.715,220.753,402.992,220.894z"
							/>
						<path style="fill-rule:evenodd;clip-rule:evenodd;fill:#20201E;" d="M403.004,220.96c-2.865,0.557-10.324-1.792-18.465-5.631
							c-7.244-3.415-15.035-8.011-20.615-12.785c-2.385-2.04-4.063-3.905-5.185-5.609c-1.102-1.674-1.672-3.195-1.857-4.573
							c-0.629,0.242-1.193,0.566-1.686,0.978c-0.496,0.415-0.92,0.92-1.258,1.521c-0.672,1.188-1.082,2.547-0.994,4.097
							c0.088,1.552,0.674,3.299,2,5.26c0.559,0.825,1.246,1.689,2.08,2.59c0.836,0.903,1.82,1.846,2.971,2.83
							c4.457,3.81,10.322,7.507,16.193,10.58c6.686,3.499,13.375,6.189,17.992,7.312c1.059,0.258,2.008,0.434,2.822,0.517
							c0.791,0.081,1.451,0.076,1.963-0.023c1.053-0.205,1.996-0.684,2.83-1.319c1.006-0.768,1.855-1.766,2.553-2.79
							c0.371-0.545,0.6-1.13,0.697-1.748c0.098-0.614,0.066-1.262-0.082-1.938c-0.297,0.167-0.605,0.313-0.926,0.435
							C403.705,220.79,403.361,220.89,403.004,220.96L403.004,220.96z M384.596,215.208c8.117,3.827,15.543,6.173,18.383,5.621
							c0.35-0.068,0.688-0.167,1.012-0.29c0.342-0.13,0.67-0.289,0.984-0.471c0.006-0.003,0.012-0.006,0.018-0.007
							c0.037-0.008,0.072,0.014,0.08,0.05c0.168,0.724,0.209,1.418,0.104,2.077c-0.1,0.637-0.334,1.24-0.717,1.802
							c-0.703,1.034-1.565,2.043-2.584,2.821c-0.85,0.647-1.811,1.135-2.887,1.344c-0.523,0.102-1.197,0.107-1.998,0.025
							c-0.822-0.085-1.777-0.261-2.842-0.52c-4.627-1.126-11.328-3.819-18.023-7.323c-5.879-3.077-11.754-6.78-16.217-10.597
							c-1.152-0.987-2.141-1.933-2.982-2.84c-0.84-0.908-1.533-1.777-2.094-2.606c-1.338-1.984-1.934-3.753-2.022-5.328
							c-0.09-1.578,0.328-2.96,1.01-4.169c0.348-0.616,0.781-1.133,1.289-1.559c0.523-0.438,1.127-0.778,1.803-1.029
							c0.004-0.002,0.012-0.003,0.018-0.004c0.035-0.004,0.068,0.021,0.072,0.058c0.172,1.381,0.734,2.91,1.85,4.6
							c1.115,1.694,2.783,3.55,5.158,5.582C369.582,207.208,377.361,211.797,384.596,215.208z"/>
					</g>
				</g>
				<g>
					<path style="fill-rule:evenodd;clip-rule:evenodd;fill:#536A25;" d="M292.559,216.864
						c-2.584-34.938-6.313-69.027-20.397-69.438c-18.16-0.529-14.688,49.822-10.103,98.619c3.471,36.968,19.4,53.47,27.707,32.617
						C297.074,260.311,293.994,236.28,292.559,216.864z"/>
					<path style="fill-rule:evenodd;clip-rule:evenodd;fill:#6D842E;" d="M285.057,179.499c1.707,10.337,6.184,57.404,5.02,76.079
						c-0.316,5.078-1.855,9.896-3.088,1.467c-1.586-10.857-3.121-34.48-5.355-53.396c-2.914-24.656-5.598-43.832-4.158-44.009
						C281.342,157.031,284.635,177.433,285.057,179.499z"/>
					<path style="fill-rule:evenodd;clip-rule:evenodd;fill:#45591F;" d="M269.215,147.847
						c-14.803,4.902-11.475,52.236-7.156,98.199c2.049,21.818,8.438,36.503,15.037,40.592c-3.119-15.041-4.082-45.459-5.932-77.601
						C269.328,177.126,266.24,160.44,269.215,147.847z"/>
					<path style="fill-rule:evenodd;clip-rule:evenodd;fill:#3F511B;" d="M281.855,155.157c-0.607-1.144-1.25-2.177-1.932-3.087
						c3.582,18.018,7.578,46.685,8.381,82.254c0.467,20.608,0.697,35.347,0.793,45.891c0.227-0.494,0.449-1.007,0.668-1.552
						c0.211-0.533,0.414-1.071,0.609-1.612c-0.109-10.302-0.338-24.144-0.756-42.756
						C288.861,200.771,285.269,173.346,281.855,155.157L281.855,155.157z M275.959,148.461c1.75,35.823,5.902,117.961,6.963,138.926
						c-0.426,0.169-0.861,0.28-1.297,0.345c-1.043-20.621-5.27-104.209-7.01-139.863
						C275.076,148.027,275.523,148.225,275.959,148.461L275.959,148.461z M268.008,148.362c-0.533,0.28-1.039,0.619-1.52,1.019
						c-3.52,20.043-0.457,56.542,1.932,84.989c0.553,6.592,1.07,12.751,1.461,18.177c1.111,15.436,3.107,25.692,4.896,32.209
						c0.592,0.597,1.19,1.109,1.791,1.534c-1.873-6.218-4.152-16.826-5.377-33.836c-0.389-5.417-0.906-11.588-1.461-18.192
						C267.295,205.253,264.154,167.836,268.008,148.362z"/>
				</g>
				<g>
					<path style="fill-rule:evenodd;clip-rule:evenodd;fill:#536A25;" d="M325.801,229.908c8.166-34.068,14.982-67.676,1.691-72.352
						c-17.141-6.028-29.147,42.994-39.625,90.873c-7.936,36.271,2.219,56.837,16.475,39.499
						C316.885,272.671,321.262,248.842,325.801,229.908z"/>
					<path style="fill-rule:evenodd;clip-rule:evenodd;fill:#6D842E;" d="M330.019,192.031
						c-1.519,10.366-11.57,56.566-18.359,74.001c-1.848,4.741-4.779,8.863-3.389,0.458c1.793-10.825,7.516-33.795,11.141-52.495
						c4.725-24.374,8-43.458,9.426-43.188C333.316,169.499,330.246,189.936,330.019,192.031z"/>
					<path style="fill-rule:evenodd;clip-rule:evenodd;fill:#45591F;" d="M324.557,157.06c-15.594,0.167-26.82,46.271-36.689,91.37
						c-4.684,21.407-3.065,37.34,1.978,43.241c1.604-15.276,9.941-44.546,17.955-75.727
						C315.758,184.987,317.893,168.152,324.557,157.06z"/>
					<path style="fill-rule:evenodd;clip-rule:evenodd;fill:#3F511B;" d="M334.375,167.869c-0.231-1.275-0.529-2.454-0.902-3.528
						c-2.068,18.253-6.98,46.778-17.035,80.906c-5.826,19.773-10.09,33.884-13.205,43.957c0.367-0.401,0.736-0.822,1.109-1.275
						c0.363-0.443,0.719-0.894,1.07-1.351c3.029-9.847,7.023-23.102,12.285-40.96C327.174,213.453,332.094,186.235,334.375,167.869
						L334.375,167.869z M330.795,159.697c-9.23,34.657-30.26,114.167-35.625,134.462c-0.461,0.03-0.906,0.005-1.342-0.066
						c5.279-19.961,26.678-100.874,35.867-135.367C330.086,159.015,330.451,159.34,330.795,159.697L330.795,159.697z
						 M323.25,157.184c-9.594,17.38-17.984,53.979-24.488,82.353c-1.48,6.46-2.865,12.496-4.141,17.775
						c-4.008,16.576-5.065,27.375-5.17,33.868c-0.443-0.588-0.857-1.258-1.24-2.007c0.277-6.752,1.496-17.13,5.133-32.172
						c1.277-5.288,2.658-11.313,4.137-17.761c6.379-27.824,14.564-63.525,24.012-81.548
						C322.072,157.458,322.658,157.289,323.25,157.184z"/>
				</g>
				<g>
					<path style="fill-rule:evenodd;clip-rule:evenodd;fill:#536A25;" d="M63.981,180.589c-12.707-4.509-29.926,0.41-20.498,12.708
						c9.43,12.298,16.398,12.709,20.498,31.566c4.1,18.857,37.305,17.628,42.635,31.156c5.33,13.527,6.149,18.037,22.547,25.416
						c16.398,7.38,17.219,29.927,17.219,29.927s8.607-39.355,1.229-60.672c-7.379-21.317-25.416-32.796-28.285-45.504
						c-1.855-8.218-11.336-19.096-19.818-21.764C88.541,179.973,71.848,183.38,63.981,180.589z"/>
					<path style="fill-rule:evenodd;clip-rule:evenodd;fill:#3F511B;" d="M139.52,279.87c-5.596-14.735-12.254-26.242-21.746-38.831
						c-8.855-11.276-18.896-21.433-29.613-30.935c-5.965-5.168-11.707-9.732-18.346-14.007c-3.287-1.998-16.564-7.503-16.642-7.561
						c2.93-1.088,14.875,5.066,17.318,6.448c6.883,4.084,12.771,8.546,18.924,13.654c11.039,9.426,21.271,19.502,30.422,30.787
						c9.816,12.734,16.693,24.415,22.41,39.443c0.113,0.305,0.223,0.61,0.332,0.916c0.736,2.431,9.061,41.783,3.037,35.933
						c-0.307,0.099-4.867-31.992-5.771-34.953C139.842,280.716,139.561,279.978,139.52,279.87z"/>
					<path style="fill-rule:evenodd;clip-rule:evenodd;fill:#3F511B;" d="M99.27,228.233c-2.801-0.81-5.611-1.567-8.402-2.407
						c-2.828-0.861-5.328-1.712-7.982-3.04c-2.557-1.343-4.344-2.607-6.225-4.819c-0.346-0.406-7.74-8.431-6.781-9.146
						c0.805-0.611,7.619,7.616,8.018,8.057c1.832,1.883,3.518,2.932,5.887,4.042c2.568,1.135,5.037,1.876,7.736,2.621
						c2.82,0.759,5.645,1.466,8.453,2.274c1.232,0.378,11.367,3.006,9.912,4.803C109.549,232.553,100.54,228.612,99.27,228.233z"/>
					<path style="fill-rule:evenodd;clip-rule:evenodd;fill:#3F511B;" d="M104.344,219.109c-0.354-7.04,0.48-10.451-1.213-17.918
						c-0.859-3.204-2.451-5.624-4.67-8.048c-1.18-1.229-2.266-2.172-3.68-3.119c-0.316-0.198-3.924-1.936-3.947-1.989
						c0.494-0.578,3.959,0.849,4.461,1.088c1.623,0.833,2.852,1.733,4.209,2.953c2.656,2.517,4.486,5.065,5.621,8.574
						c2.023,7.685,1.344,10.956,1.732,18.293c0.389,3.782,2.996,9.915,1.611,10.182C106.206,231.261,104.45,220.057,104.344,219.109
						z"/>
					<path style="fill-rule:evenodd;clip-rule:evenodd;fill:#3F511B;" d="M121.926,252.029c-3.939-1.447-8.668-3.149-12.377-5.035
						c-1.551-0.843-13.354-8.438-13.564-10.525c0.561-0.31,12.676,7.626,14.518,8.545c3.957,1.684,8.234,3.171,12.287,4.65
						c3.158,1.156,5.933,1.188,5.455,3.195C127.725,255.077,124.84,253.072,121.926,252.029z"/>
					<path style="fill-rule:evenodd;clip-rule:evenodd;fill:#3F511B;" d="M132.229,255.846c-1.643-13.779-8.162-25.898-9.049-32.151
						c5.035,4.973,10.592,24.353,11.553,31.881c0.096,1.064,1.344,7.564-0.783,7.236
						C132.069,263.103,132.442,257.984,132.229,255.846z"/>
					<path style="fill-rule:evenodd;clip-rule:evenodd;fill:#71854E;" d="M137.702,240.506c-1.428-2.447-2.93-4.757-4.48-7.123
						c-7.551-11.004-15.781-17.252-19.606-30.612c-0.744-2.939-1.678-5.014-3.49-7.446c-1.769-2.229-3.43-3.64-5.84-5.137
						c-5.152-2.944-9.791-4.056-15.637-4.637c-1.094-0.092-15.002-0.995-15.25-1.103c1.305-0.571,13.615-0.166,15.332-0.087
						c6.123,0.378,10.959,1.425,16.414,4.36c2.656,1.561,4.49,3.056,6.463,5.436c2.051,2.633,3.129,4.902,4.002,8.121
						c3.836,12.587,12.361,19.201,19.684,29.734c1.6,2.402,3.133,4.737,4.588,7.234c1.535,2.958,12.66,32.392,7.834,28.865
						C147.498,268.351,139.678,244.284,137.702,240.506z"/>
				</g>
				<g>
					<path style="fill-rule:evenodd;clip-rule:evenodd;fill:#3F511B;" d="M144.698,154.526
						c-7.367-11.294-24.041-17.829-24.006-2.332c0.037,15.497,5.326,20.05-2.854,37.529s18.963,36.644,14.994,50.632
						c-3.971,13.987-6.055,18.069,2.506,33.884c8.559,15.813-4.467,34.235-4.467,34.235s30.719-26.064,37.783-47.487
						c7.066-21.423-0.311-41.491,5.117-53.335c3.51-7.658,2.574-22.057-2.553-29.324
						C164.594,168.935,149.258,161.518,144.698,154.526z"/>
					<path style="fill-rule:evenodd;clip-rule:evenodd;fill:#536A25;" d="M144.522,279.277c4.49-15.109,6.178-28.296,6.268-44.062
						c-0.197-14.336-2.02-28.502-4.775-42.558c-1.605-7.726-3.402-14.838-6.088-22.265c-1.4-3.582-8.617-16.014-8.645-16.107
						c2.99,0.912,8.754,13.052,9.857,15.632c2.996,7.423,4.971,14.542,6.762,22.335c3.059,14.191,5.08,28.407,5.508,42.93
						c0.078,16.078-1.539,29.537-6.111,44.952c-0.096,0.311-0.191,0.62-0.291,0.93c-0.891,2.379-18.145,38.713-19.383,30.408
						c-0.305-0.107,15.537-28.386,16.615-31.288C144.264,280.146,144.489,279.388,144.522,279.277z"/>
					<path style="fill-rule:evenodd;clip-rule:evenodd;fill:#536A25;" d="M143.848,213.81c-1.734-2.342-3.512-4.65-5.219-7.011
						c-1.727-2.399-3.197-4.593-4.502-7.258c-1.219-2.618-1.873-4.708-2.025-7.607c-0.027-0.532-1.039-11.398,0.156-11.385
						c1.01,0.003,1.438,10.677,1.486,11.269c0.314,2.609,1.02,4.466,2.229,6.784c1.354,2.461,2.867,4.548,4.561,6.777
						c1.781,2.315,3.598,4.589,5.34,6.936c0.752,1.048,7.215,9.286,4.969,9.831C149.401,223.48,144.627,214.882,143.848,213.81z"/>
					<path style="fill-rule:evenodd;clip-rule:evenodd;fill:#536A25;" d="M153.418,209.635c3.988-5.812,6.721-8.017,9.904-14.98
						c1.26-3.068,1.463-5.958,1.17-9.231c-0.191-1.692-0.484-3.101-1.033-4.712c-0.133-0.35-1.945-3.918-1.932-3.976
						c0.744-0.159,2.633,3.077,2.885,3.571c0.787,1.648,1.217,3.108,1.555,4.901c0.586,3.613,0.496,6.749-0.73,10.227
						c-3.055,7.336-5.58,9.525-9.723,15.593c-1.984,3.243-3.631,9.701-4.895,9.072C147.524,220.424,152.926,210.452,153.418,209.635
						z"/>
					<path style="fill-rule:evenodd;clip-rule:evenodd;fill:#536A25;" d="M147.424,246.471c-2.254-3.54-4.98-7.762-6.785-11.511
						c-0.721-1.61-5.496-14.809-4.398-16.596c0.635,0.094,5.451,13.752,6.359,15.601c2.123,3.739,4.621,7.516,6.945,11.15
						c1.809,2.835,3.996,4.544,2.398,5.85C150.186,252.412,149.11,249.068,147.424,246.471z"/>
					<path style="fill-rule:evenodd;clip-rule:evenodd;fill:#536A25;" d="M153.299,255.756c7.053-11.951,9.223-25.54,12.311-31.05
						c0.986,7.009-6.354,25.785-10.156,32.354c-0.57,0.902-3.518,6.827-5.012,5.277C148.77,261.428,152.17,257.584,153.299,255.756z
						"/>
					<path style="fill-rule:evenodd;clip-rule:evenodd;fill:#495D20;" d="M166.956,246.88c0.352-2.811,0.557-5.56,0.76-8.381
						c0.674-13.328-2.08-23.288,2.984-36.229c1.191-2.788,1.707-5.004,1.742-8.036c-0.055-2.846-0.52-4.975-1.527-7.628
						c-2.311-5.466-5.322-9.163-9.617-13.171c-0.814-0.737-11.322-9.891-11.453-10.128c1.383,0.336,10.922,8.126,12.24,9.231
						c4.639,4.016,7.85,7.782,10.404,13.424c1.164,2.853,1.715,5.153,1.84,8.242c0.033,3.337-0.486,5.795-1.744,8.884
						c-4.588,12.334-1.822,22.763-2.391,35.58c-0.186,2.88-0.385,5.665-0.742,8.533c-0.572,3.283-9.584,33.433-11.281,27.7
						C157.852,274.959,166.235,251.083,166.956,246.88z"/>
				</g>
				<g>
					<path style="fill-rule:evenodd;clip-rule:evenodd;fill:#536A25;" d="M213.006,183.743c10.902-7.935,28.809-8.11,23.264,6.36
						c-5.547,14.471-12.111,16.844-10.684,36.089c1.428,19.245-30.76,27.501-32.025,41.986
						c-1.266,14.484-0.771,19.041-14.396,30.775s-8.004,33.585-8.004,33.585s-19.436-35.287-18.418-57.822
						c1.018-22.535,15.051-38.666,14.191-51.665c-0.557-8.406,5.441-21.53,12.816-26.498
						C189.284,190.13,206.256,188.655,213.006,183.743z"/>
					<path style="fill-rule:evenodd;clip-rule:evenodd;fill:#3F511B;" d="M168.79,300.396c1.178-15.718,4.293-28.643,9.816-43.409
						c5.287-13.328,12.027-25.918,19.603-38.075c4.25-6.649,8.459-12.657,13.609-18.643c2.584-2.849,13.75-11.901,13.809-11.979
						c-3.117-0.211-12.824,9.085-14.773,11.103c-5.439,5.872-9.816,11.823-14.264,18.468c-7.906,12.174-14.854,24.742-20.42,38.163
						c-5.793,14.998-9.068,28.152-10.279,44.186c-0.021,0.324-0.041,0.648-0.059,0.973c-0.016,2.539,3.186,42.635,7.299,35.315
						c0.322,0.007-4.424-32.057-4.398-35.152C168.721,301.299,168.784,300.512,168.79,300.396z"/>
					<path style="fill-rule:evenodd;clip-rule:evenodd;fill:#3F511B;" d="M192.709,239.45c2.453-1.572,4.936-3.097,7.373-4.695
						c2.465-1.629,4.621-3.156,6.789-5.183c2.068-2.013,3.424-3.733,4.598-6.389c0.217-0.487,5.025-10.282,3.904-10.696
						c-0.945-0.357-5.142,9.467-5.398,10.002c-1.223,2.327-2.541,3.812-4.496,5.548c-2.141,1.818-4.297,3.23-6.672,4.71
						c-2.488,1.53-4.996,3.01-7.459,4.583c-1.074,0.712-10.045,6.112-8.141,7.421C184.081,246.513,191.598,240.175,192.709,239.45z"
						/>
					<path style="fill-rule:evenodd;clip-rule:evenodd;fill:#3F511B;" d="M185.25,232.145c-1.66-6.852-3.43-9.884-3.928-17.524
						c-0.086-3.316,0.754-6.088,2.191-9.043c0.781-1.514,1.555-2.726,2.641-4.036c0.248-0.28,3.213-2.97,3.221-3.028
						c-0.639-0.414-3.555,1.939-3.967,2.311c-1.322,1.26-2.242,2.472-3.197,4.027c-1.832,3.168-2.863,6.131-2.955,9.818
						c0.246,7.943,1.826,10.886,3.539,18.031c0.701,3.737-0.057,10.358,1.348,10.22C186.92,244.324,185.42,233.083,185.25,232.145z"
						/>
					<path style="fill-rule:evenodd;clip-rule:evenodd;fill:#3F511B;" d="M177.748,268.703c3.367-2.507,7.416-5.482,10.438-8.344
						c1.244-1.249,10.404-11.886,10.014-13.946c-0.627-0.138-9.986,10.913-11.494,12.317c-3.314,2.739-6.992,5.381-10.457,7.95
						c-2.699,2.006-5.351,2.825-4.322,4.613C173.053,273.273,175.248,270.531,177.748,268.703z"/>
					<path style="fill-rule:evenodd;clip-rule:evenodd;fill:#3F511B;" d="M168.954,275.29c-2.34-13.678,0.467-27.149-0.459-33.397
						c-3.416,6.198-3.234,26.358-2.018,33.85c0.211,1.047,0.859,7.633,2.807,6.715C171.168,282.203,169.358,277.4,168.954,275.29z"
						/>
					<path style="fill-rule:evenodd;clip-rule:evenodd;fill:#71854E;" d="M159.348,262.137c0.672-2.751,1.459-5.393,2.271-8.101
						c4.113-12.696,10.229-21.025,10.1-34.921c-0.121-3.029,0.186-5.283,1.23-8.13c1.063-2.641,2.256-4.464,4.141-6.585
						c4.104-4.287,8.234-6.671,13.674-8.889c1.023-0.399,14.102-5.216,14.307-5.39c-1.41-0.177-13.1,3.709-14.723,4.273
						c-5.764,2.102-10.104,4.48-14.5,8.844c-2.104,2.253-3.436,4.206-4.65,7.049c-1.219,3.106-1.607,5.588-1.529,8.923
						c-0.102,13.158-6.396,21.922-10.424,34.103c-0.852,2.757-1.658,5.431-2.344,8.238c-0.631,3.273-2.936,34.655,0.691,29.902
						C157.868,291.617,158.528,266.321,159.348,262.137z"/>
				</g>
				<g>
					<g>
						<path style="fill-rule:evenodd;clip-rule:evenodd;fill:#536A25;" d="M216.594,236.092c-0.896,3.856-0.232,7.936,5.691,10.119
							c8.988,3.313,24.5,1.302,27.965-2.12c1.507-1.488,2.502-3.889,3.142-6.127c1.902-6.632-6.476-9.941-15.587-10.712
							C228.487,226.464,218.387,228.374,216.594,236.092z"/>
						<path style="fill-rule:evenodd;clip-rule:evenodd;fill:#506523;" d="M244.588,216.256c-1.236,1.371-2.352,2.666-3.447,4.15
							c-2.404,3.405-3.191,5.422-4.436,9.257c-0.143,0.408-0.455,1.411-0.988,1.487c-0.533-0.045-0.842-1.031-0.982-1.432
							c-1.09-4.104-0.076-8.015,1.771-11.808c1.068-2.021,2.164-3.588,3.697-5.311c2.672-2.779,3.906-4.637,5.988-2.099
							C248.528,212.779,247.311,213.246,244.588,216.256z"/>
					</g>
					<g>
						<path style="fill-rule:evenodd;clip-rule:evenodd;fill:#A51919;" d="M213.823,292.935c2.684,0.928,5.133,1.538,7.398-0.438
							c1.854,4.865,4.848,5.435,9.586,3.723c4.686-1.693,0.145-3.182,4.242-0.81c6.764,3.916,10.248-2.512,12.426-2.199
							c7.605,1.092,7.956-0.308,10.949-7.582c3.186-7.743,15.082-43.38,9.438-49.651c-4.281-4.759-10.979-2.396-15.699-0.166
							c-4.21-5.172-7.578-8.011-14.191-4.086c-7.199,4.271-2.49,5.077-8.107,0.77c-5.797-4.445-10.385-0.627-14.373,3.584
							c-12.248-10.072-18.135-2.6-15.967,11.151C200.959,256.348,205.131,289.215,213.823,292.935z"/>
						<path style="fill-rule:evenodd;clip-rule:evenodd;fill:#7A1B16;" d="M216.206,236.452c-0.02-0.335,0.234-0.623,0.57-0.643
							c0.334-0.021,0.623,0.235,0.643,0.57c0.375,6.179,1.133,14.814,1.969,23.485c1.512,15.676,3.269,31.386,3.475,32.966
							c0.043,0.333-0.193,0.637-0.525,0.68c-0.332,0.042-0.637-0.192-0.68-0.525c-0.207-1.598-1.973-17.364-3.48-33.005
							C217.34,251.324,216.582,242.682,216.206,236.452z"/>
						<path style="fill-rule:evenodd;clip-rule:evenodd;fill:#7A1B16;" d="M233.176,235.258c-0.018-0.336,0.24-0.623,0.578-0.641
							c0.336-0.017,0.623,0.241,0.639,0.578c1.123,20.586,0.723,59.321,0.723,59.433c-0.004,0.336-0.279,0.605-0.615,0.602
							c-0.336-0.003-0.605-0.279-0.602-0.615C233.901,294.503,234.297,255.84,233.176,235.258z"/>
						<path style="fill-rule:evenodd;clip-rule:evenodd;fill:#7A1B16;" d="M252.176,237.638c0-0.336,0.271-0.608,0.609-0.608
							c0.336-0.001,0.607,0.271,0.609,0.608c0.004,7.567-0.703,16.643-1.637,25.264c-1.714,15.802-4.203,30.115-4.455,30.803
							c-0.113,0.316-0.463,0.48-0.779,0.366c-0.316-0.115-0.48-0.464-0.365-0.78c0.244-0.669,2.688-14.812,4.389-30.517
							C251.477,254.2,252.182,245.172,252.176,237.638z"/>
						<path style="fill-rule:evenodd;clip-rule:evenodd;fill:#BF0717;" d="M208.079,245.594c1.176,10.806,2.381,22.395,3.217,33.216
							c0.031,0.454,0.043,0.915,0.064,1.37c0.014,0.219,0.145,1.218,0.004,1.388c-0.408,0.254-0.977-0.907-1.078-1.129
							c-0.178-0.4-0.33-0.877-0.521-1.251c-3.604-8.454-5.43-23.814-6.523-33.089c-0.379-3.483-2.275-9.729,1.123-9.79
							C208.008,235.503,207.645,242.057,208.079,245.594z"/>
						<path style="fill-rule:evenodd;clip-rule:evenodd;fill:#BF0717;" d="M226.022,245.541c2.652,24.393,0.801,42.611-0.49,42.327
							c-1.08-0.238-4.24-15.139-5.785-41.232c-0.379-3.483-0.838-10.317,2.561-10.379
							C225.952,235.45,225.588,242.005,226.022,245.541z"/>
						<path style="fill-rule:evenodd;clip-rule:evenodd;fill:#BF0717;" d="M243.157,246.213
							c-0.256,24.527-3.398,42.167-4.365,41.657c-0.807-0.426-1.834-15.683-0.564-41.691c0.037-3.504,0.328-10.325,2.947-9.782
							C244.053,236.248,243.157,242.648,243.157,246.213z"/>
						<path style="fill-rule:evenodd;clip-rule:evenodd;fill:#BF0717;" d="M260.67,248.682c-2.762,22.274-7.439,38.009-8.266,37.452
							c-0.691-0.465-0.053-14.434,3.785-37.958c0.395-3.182,1.363-9.354,3.691-8.609C262.514,239.708,261.039,245.44,260.67,248.682
							z"/>
					</g>
				</g>
				<g>
					<g>
						<path style="fill-rule:evenodd;clip-rule:evenodd;fill:#3F511B;" d="M290.424,240.537c-1.762,3.545-2.059,7.667,3.199,11.159
							c7.98,5.303,23.535,6.93,27.697,4.401c1.811-1.1,3.332-3.206,4.473-5.234c3.383-6.014-4.002-11.17-12.688-14.025
							C304.221,233.918,293.953,233.442,290.424,240.537z"/>
						<path style="fill-rule:evenodd;clip-rule:evenodd;fill:#3F511B;" d="M322.246,227.708c-1.52,1.048-2.904,2.05-4.315,3.24
							c-3.125,2.758-4.357,4.537-6.455,7.982c-0.23,0.364-0.77,1.268-1.303,1.22c-0.51-0.168-0.582-1.199-0.627-1.62
							c-0.111-4.245,1.777-7.816,4.453-11.079c1.508-1.719,2.935-2.991,4.822-4.313c3.244-2.086,4.875-3.608,6.313-0.658
							C326.883,225.235,325.59,225.408,322.246,227.708z"/>
					</g>
					<g>
						<path style="fill-rule:evenodd;clip-rule:evenodd;fill:#EAB913;" d="M274.59,295.201c2.397,1.522,4.641,2.682,7.301,1.283
							c0.678,5.163,3.461,6.408,8.465,5.838c4.951-0.564,0.875-3.063,4.314,0.192c5.676,5.373,10.551-0.074,12.598,0.733
							c7.147,2.819,7.811,1.539,12.404-4.847c4.889-6.797,24.699-38.719,20.658-46.125c-3.066-5.62-10.127-4.868-15.236-3.79
							c-2.902-6.006-5.521-9.546-12.863-7.256c-7.988,2.492-3.594,4.365-8.064-1.124c-4.613-5.664-9.959-3.011-14.813,0.165
							c-9.588-12.631-17.043-6.721-18.111,7.159C270.533,256.63,266.994,289.572,274.59,295.201z"/>
						<path style="fill-rule:evenodd;clip-rule:evenodd;fill:#D29A22;" d="M289.963,240.798c0.059-0.331,0.373-0.552,0.703-0.494
							s0.553,0.373,0.494,0.703c-1.063,6.099-2.322,14.676-3.512,23.305c-2.152,15.601-4.074,31.291-4.238,32.877
							c-0.035,0.333-0.334,0.575-0.668,0.539c-0.334-0.035-0.576-0.334-0.541-0.668c0.168-1.602,2.094-17.351,4.242-32.916
							C287.631,255.529,288.891,246.945,289.963,240.798z"/>
						<path style="fill-rule:evenodd;clip-rule:evenodd;fill:#D29A22;" d="M306.75,243.558c0.062-0.331,0.381-0.55,0.711-0.489
							c0.33,0.061,0.549,0.378,0.488,0.709c-3.666,20.289-13.006,57.883-13.033,57.991c-0.082,0.326-0.412,0.524-0.738,0.443
							c-0.326-0.081-0.523-0.412-0.443-0.738C293.762,301.365,303.086,263.842,306.75,243.558z"/>
						<path style="fill-rule:evenodd;clip-rule:evenodd;fill:#D29A22;" d="M324.685,250.265c0.078-0.327,0.404-0.53,0.733-0.452
							c0.326,0.077,0.529,0.405,0.453,0.732c-1.744,7.364-4.531,16.03-7.432,24.202c-5.318,14.978-11.049,28.328-11.451,28.939
							c-0.186,0.282-0.563,0.36-0.844,0.176c-0.281-0.185-0.361-0.563-0.176-0.844c0.393-0.594,6.039-13.789,11.324-28.675
							C320.178,266.217,322.949,257.595,324.685,250.265z"/>
						<path style="fill-rule:evenodd;clip-rule:evenodd;fill:#F4D98E;" d="M279.943,247.813c-1.354,10.785-2.859,22.339-4.547,33.06
							c-0.074,0.449-0.17,0.9-0.254,1.349c-0.037,0.216-0.141,1.218-0.316,1.35c-0.457,0.153-0.74-1.107-0.789-1.347
							c-0.08-0.431-0.117-0.93-0.219-1.338c-1.551-9.058,0.223-24.424,1.301-33.7c0.438-3.477,0.035-9.991,3.358-9.266
							C282.207,237.98,280.34,244.273,279.943,247.813z"/>
						<path style="fill-rule:evenodd;clip-rule:evenodd;fill:#F4D98E;" d="M297.412,251.909
							c-3.055,24.345-9.066,41.643-10.258,41.067c-0.996-0.48-0.627-15.708,3.9-41.453c0.435-3.477,1.57-10.232,4.891-9.506
							C299.678,242.075,297.809,248.368,297.412,251.909z"/>
						<path style="fill-rule:evenodd;clip-rule:evenodd;fill:#F4D98E;" d="M313.93,256.522c-5.92,23.805-13.053,40.24-13.875,39.521
							c-0.688-0.603,1.84-15.683,9.086-40.694c0.846-3.399,2.705-9.969,5.129-8.836C317.105,247.035,314.754,253.055,313.93,256.522
							z"/>
						<path style="fill-rule:evenodd;clip-rule:evenodd;fill:#F4D98E;" d="M330.398,262.972
							c-7.838,21.033-16.023,35.261-16.699,34.528c-0.564-0.612,3.285-14.055,12.455-36.056c1.119-3.004,3.488-8.786,5.58-7.523
							C334.266,254.668,331.504,259.903,330.398,262.972z"/>
					</g>
				</g>
				<g>
					<path style="fill-rule:evenodd;clip-rule:evenodd;fill:#6E6E6D;" d="M168.51,268.017c15.877-4.322,30.537-1.245,32.748,6.874
						c2.211,8.119-8.867,18.204-24.742,22.527c-15.875,4.322-30.537,1.245-32.748-6.874
						C141.557,282.425,152.635,272.339,168.51,268.017z"/>
					<path style="fill-rule:evenodd;clip-rule:evenodd;fill:#C4C4C4;" d="M197.75,274.256c1.725,6.335-8.355,14.596-22.516,18.451
						c-14.162,3.857-27.041,1.846-28.766-4.489l-12.998-47.742l51.281-13.963L197.75,274.256z"/>
					<path style="fill-rule:evenodd;clip-rule:evenodd;fill:#AFB0B0;" d="M197.75,274.256c1.682,6.172-7.848,14.173-21.436,18.146
						c1.639-1.544,3.334-3.334,5.016-5.4c8.328-10.236-2.828-31.781-10.154-56.792l13.576-3.696L197.75,274.256z"/>
					<path style="fill-rule:evenodd;clip-rule:evenodd;fill:#6E6E6D;" d="M155.143,218.923c15.877-4.322,30.523-1.303,32.713,6.745
						c2.191,8.047-8.902,18.075-24.777,22.397c-15.877,4.322-30.521,1.304-32.713-6.744
						C128.174,233.273,139.268,223.246,155.143,218.923z"/>
					<path style="fill-rule:evenodd;clip-rule:evenodd;fill:#AFB0B0;" d="M156.348,223.346c13.189-3.591,25.113-1.975,26.635,3.609
						c1.52,5.584-7.939,13.023-21.129,16.614c-13.189,3.591-25.113,1.975-26.633-3.609
						C133.7,234.375,143.159,226.938,156.348,223.346z"/>
					<path style="fill-rule:evenodd;clip-rule:evenodd;fill:#999A9A;" d="M189.227,243.591c-0.211-0.771,0.277-1.576,1.088-1.797
						c0.813-0.221,1.639,0.226,1.85,0.997c1.025,3.769-1.422,7.99-6.209,11.77c-4.473,3.53-11.061,6.755-18.703,8.836
						c-7.641,2.08-14.955,2.641-20.6,1.864c-6.041-0.83-10.293-3.229-11.318-6.996c-0.211-0.771,0.277-1.576,1.088-1.797
						c0.81-0.221,1.639,0.226,1.85,0.997c0.699,2.567,4.041,4.263,8.883,4.928c5.236,0.721,12.098,0.181,19.338-1.791
						c7.238-1.972,13.426-4.983,17.576-8.26C187.903,249.314,189.926,246.158,189.227,243.591z"/>
					<path style="fill-rule:evenodd;clip-rule:evenodd;fill:#999A9A;" d="M190.709,249.032c-0.211-0.771,0.275-1.576,1.088-1.797
						c0.811-0.221,1.639,0.226,1.848,0.998c1.027,3.768-1.422,7.989-6.209,11.769c-4.473,3.53-11.059,6.755-18.701,8.836
						c-7.643,2.08-14.955,2.641-20.6,1.864c-6.043-0.83-10.293-3.228-11.318-6.996c-0.211-0.771,0.275-1.576,1.088-1.797
						c0.811-0.221,1.639,0.226,1.848,0.997c0.699,2.567,4.043,4.263,8.883,4.928c5.238,0.721,12.098,0.181,19.338-1.791
						c7.24-1.971,13.428-4.983,17.578-8.26C189.385,254.756,191.409,251.6,190.709,249.032z"/>
					<path style="fill-rule:evenodd;clip-rule:evenodd;fill:#999A9A;" d="M192.19,254.475c-0.209-0.772,0.277-1.576,1.09-1.798
						c0.811-0.221,1.637,0.227,1.848,0.998c1.025,3.768-1.422,7.989-6.209,11.769c-4.473,3.53-11.061,6.755-18.703,8.835
						c-7.641,2.081-14.953,2.642-20.6,1.865c-6.041-0.83-10.293-3.228-11.318-6.996c-0.209-0.771,0.277-1.576,1.088-1.797
						c0.811-0.221,1.639,0.226,1.85,0.997c0.699,2.567,4.041,4.263,8.883,4.928c5.238,0.721,12.098,0.181,19.338-1.791
						c7.24-1.971,13.426-4.983,17.576-8.26C190.868,260.197,192.889,257.041,192.19,254.475z"/>
					<path style="fill-rule:evenodd;clip-rule:evenodd;fill:#D8D8D8;" d="M169.916,223.371c-0.529-0.025-1.055-0.04-1.584-0.047
						c-5.131-0.007-9.361,0.602-14.348,1.928c-4.588,1.334-8.322,2.845-12.262,5.505c-1.639,1.179-2.883,2.253-4.15,3.783
						c-0.316,0.412-2.475,4.35-2.51,4.367c-0.672-0.609,1.182-4.287,1.58-4.936c1.176-1.773,2.412-3.012,4.088-4.385
						c3.947-3.086,7.832-4.844,12.627-6.407c5.225-1.575,9.668-2.313,15.098-2.34c0.568,0.004,1.129,0.019,1.695,0.046
						c0.779,0.072,13.369,1.504,11.127,3.804C180.821,226.133,173.735,223.703,169.916,223.371z"/>
					<path style="fill-rule:evenodd;clip-rule:evenodd;fill:#575756;" d="M134.885,239.967c-0.098-0.219,0.002-0.476,0.221-0.572
						c0.221-0.097,0.476,0.003,0.572,0.223c1.254,2.837,4.295,4.466,8.43,5.07c4.602,0.673,10.529,0.077,16.871-1.54
						c6.078-1.551,11.807-4.288,15.908-7.277c4.016-2.927,6.445-6.052,6.037-8.457c-0.041-0.235,0.117-0.46,0.354-0.501
						c0.234-0.04,0.459,0.117,0.5,0.353c0.469,2.761-2.102,6.189-6.379,9.307c-4.18,3.046-10.016,5.835-16.205,7.413
						c-6.451,1.646-12.496,2.249-17.213,1.56C139.551,244.896,136.272,243.106,134.885,239.967z"/>
					<path style="fill-rule:evenodd;clip-rule:evenodd;fill:#D8D8D8;" d="M137.813,258.356c-0.156-0.18-0.137-0.454,0.043-0.61
						c0.182-0.157,0.455-0.139,0.611,0.042c2.24,2.568,6.641,3.899,11.941,4.176c5.809,0.303,12.668-0.667,18.971-2.669
						c5.301-1.684,9.93-3.852,13.369-6.363c3.186-2.324,5.338-4.932,6.035-7.703c0.057-0.231,0.293-0.373,0.525-0.315
						c0.232,0.059,0.373,0.294,0.316,0.526c-0.75,2.98-3.019,5.752-6.365,8.193c-3.514,2.564-8.229,4.775-13.621,6.488
						c-6.4,2.033-13.371,3.018-19.275,2.71C144.84,262.543,140.221,261.118,137.813,258.356z"/>
					<path style="fill-rule:evenodd;clip-rule:evenodd;fill:#D8D8D8;" d="M139.424,264.272c-0.156-0.181-0.139-0.454,0.043-0.611
						c0.182-0.157,0.455-0.138,0.611,0.043c2.24,2.567,6.639,3.898,11.941,4.175c5.807,0.303,12.666-0.667,18.971-2.669
						c5.299-1.683,9.928-3.853,13.369-6.362c3.184-2.324,5.336-4.933,6.033-7.703c0.059-0.232,0.295-0.374,0.527-0.316
						c0.23,0.058,0.373,0.294,0.314,0.526c-0.75,2.98-3.02,5.752-6.365,8.193c-3.512,2.563-8.229,4.775-13.619,6.487
						c-6.4,2.033-13.371,3.018-19.277,2.71C146.45,268.457,141.832,267.032,139.424,264.272z"/>
					<path style="fill-rule:evenodd;clip-rule:evenodd;fill:#D8D8D8;" d="M141.045,270.199c-0.164-0.175-0.156-0.449,0.02-0.614
						c0.174-0.164,0.449-0.155,0.613,0.02c2.164,2.301,6.504,3.42,11.766,3.554c5.77,0.146,12.615-0.898,18.93-2.878
						c5.311-1.665,9.963-3.76,13.44-6.141c3.219-2.205,5.416-4.642,6.17-7.195c0.068-0.229,0.309-0.36,0.539-0.292
						c0.228,0.067,0.359,0.309,0.291,0.537c-0.815,2.756-3.131,5.35-6.51,7.664c-3.549,2.43-8.283,4.564-13.674,6.254
						c-6.402,2.007-13.348,3.067-19.205,2.918C147.938,273.886,143.379,272.682,141.045,270.199z"/>
				</g>
			</g>
			<g>
				<g>
					<path style="fill-rule:evenodd;clip-rule:evenodd;fill:#597C93;" d="M329.943,85.174c-1.5,3.06-8.977,19.253-11.742,18.42
						c-1.162-1.542,3.287-17.04,4.619-20.059c2.51-5.161,3.666-4.747,5.393-4.219C329.805,79.803,332.176,79.982,329.943,85.174z"/>
					<path style="fill-rule:evenodd;clip-rule:evenodd;fill:#597C93;" d="M342.879,97.71c-2.191,2.221-13.41,14.035-15.375,13.033
						c-0.443-1.36,8.109-13.006,10.15-15.216c3.68-3.75,4.478-3.279,5.705-2.646C344.486,93.463,346.342,93.901,342.879,97.71z"/>
					<path style="fill-rule:evenodd;clip-rule:evenodd;fill:#597C93;" d="M309.168,86.984c0.121,2.831,1.09,17.658-1.217,17.913
						c-1.436-0.808-4.303-14.127-4.527-16.87c-0.219-4.767,0.771-4.823,2.217-4.976C306.971,82.91,308.738,82.283,309.168,86.984z"
						/>
				</g>
				<g>
					<path style="fill-rule:evenodd;clip-rule:evenodd;fill:#597C93;" d="M145.786,75.684c2.004,2.018,12.762,12.44,11.246,13.632
						c-1.598,0.035-12.719-8.458-14.742-10.367c-3.389-3.392-2.703-3.864-1.75-4.604C141.418,73.662,142.286,72.433,145.786,75.684z
						"/>
					<path style="fill-rule:evenodd;clip-rule:evenodd;fill:#597C93;" d="M162.821,64.19c1.045,3.244,6.93,20.132,4.252,21.115
						c-1.975-0.508-9.646-15.083-10.791-18.195c-1.779-5.458-0.613-5.818,1.066-6.425C158.895,60.125,160.809,58.872,162.821,64.19z
						"/>
					<path style="fill-rule:evenodd;clip-rule:evenodd;fill:#597C93;" d="M184.12,68.154c-1.133,2.415-6.777,15.163-8.83,14.731
						c-0.855-1.082,2.535-13.091,3.543-15.463c1.893-4.072,2.752-3.842,4.033-3.566C184.047,64.111,185.807,64.079,184.12,68.154z"
						/>
				</g>
			</g>
			<g>
				<g>
					<g>
						<path style="fill-rule:evenodd;clip-rule:evenodd;fill:#A9825D;" d="M117.53,270.301h117.965h21.716h117.965v160.423
							c0,27.492,4.707,23.067-23.23,22.5c-70.002-1.421-143.31,0.357-215.033,0.601c-22.644,0.076-19.383,3.716-19.383-17.7V270.301
							z"/>
						<path style="fill-rule:evenodd;clip-rule:evenodd;fill:#A07353;" d="M375.301,438.773c0.52,18.502,1.469,14.954-23.355,14.45
							c-70.002-1.421-143.31,0.357-215.033,0.601c-22.644,0.076-19.383,3.716-19.383-17.7V282.969
							c18.434-2.186,39.629-2.296,63.996,0.159C177.215,357.219,217.916,438.551,375.301,438.773z"/>
						<path style="fill-rule:evenodd;clip-rule:evenodd;fill:#995F3B;" d="M207.581,452.679
							c11.549-0.07,167.576-1.489,169.445,0.125c0.066,1.758-158.843,2.523-169.427,2.596c-12.27,0.069-92.131,2.069-86.73-0.803
							C115.233,451.637,195.735,452.757,207.581,452.679z"/>
					</g>
					<g>
						<path style="fill-rule:evenodd;clip-rule:evenodd;fill:#935B47;" d="M190.553,385.799h108.776
							c6.464,0,11.752,6.494,11.752,14.432l0,0c0,7.936-5.288,14.431-11.752,14.431H190.553c-6.464,0-11.752-6.494-11.752-14.431
							l0,0C178.8,392.293,184.089,385.799,190.553,385.799z"/>
					</g>
				</g>
				<g>
					<g>
						<path style="fill-rule:evenodd;clip-rule:evenodd;fill:#678AB1;" d="M397.385,438.777c0.512,25.071,1.865,30.281-7.178,30.281
							c-9.043,0-43.332,1.953-43.332,1.953s-0.754-10.094,5.31-14.001c6.061-3.907,28.639-7.814,28.639-7.814L397.385,438.777z"/>
						<path style="fill-rule:evenodd;clip-rule:evenodd;fill:#7EADCE;" d="M386.127,281.116c27.799-3.781,62.023,2.999,62.023,2.999
							c-5.211,9.812-20.605,75.536-23.389,85.141c-6.547,22.605-5.723,32.642-13.014,54.794
							c-9.508,28.886-4.828,37.71-32.811,37.494l-30.898-0.237c-3.67-0.028-7.029,0.7-7.065-0.881
							c-0.17-7.525,5.563-11.188,6.193-11.371c5.205-1.508,28.117-5.589,28.117-5.589l4.963-112.622L386.127,281.116z"/>
						<path style="fill-rule:evenodd;clip-rule:evenodd;fill:#678AB1;" d="M373,443.871c1.162-44.387,3.332-118.979,4.494-163.367
							c14.537-1.061,25.389-0.293,30.496-0.234c0.965,0.012-3.816,42.853-4.506,49.103c-2.951,26.826-14.42,90.056-16.598,102.581
							C384.969,442.978,373,443.903,373,443.871z"/>
					</g>
					<path style="fill-rule:evenodd;clip-rule:evenodd;fill:#9DC3DB;" d="M433.43,313.584c-2.199,10.988-16.23,79.505-19.707,85.269
						c-1.91-0.377,13.129-79.613,14.447-86.306c0.717-3.586,3.426-25.9,7.281-24.01C440.113,288.236,434.144,309.883,433.43,313.584
						z"/>
				</g>
				<path style="fill-rule:evenodd;clip-rule:evenodd;fill:#678AB1;" d="M95.694,438.777c-0.512,25.071-1.865,30.281,7.18,30.281
					c9.043,0,43.332,1.953,43.332,1.953s0.752-10.094-5.311-14.001c-6.063-3.907-28.639-7.814-28.639-7.814L95.694,438.777z"/>
				<g>
					<g>
						<path style="fill-rule:evenodd;clip-rule:evenodd;fill:#7EADCE;" d="M110.475,280.529
							c-27.799-3.782-62.021,2.999-62.021,2.999c5.209,9.811,17.082,76.123,19.863,85.728c6.549,22.605,5.725,32.642,13.014,54.794
							c9.508,28.886,4.83,37.71,32.813,37.494l30.896-0.237c3.67-0.028,7.029,0.7,7.064-0.881c0.17-7.525-5.561-11.188-6.193-11.371
							c-5.205-1.508-28.117-5.589-28.117-5.589l-4.963-112.622L110.475,280.529z"/>
						<path style="fill-rule:evenodd;clip-rule:evenodd;fill:#9DC3DB;" d="M58.735,312.912c2.199,10.989,16.23,79.505,19.707,85.27
							c1.91-0.376-13.129-79.613-14.447-86.305c-0.715-3.586-3.426-25.9-7.281-24.01C52.051,287.565,58.02,309.212,58.735,312.912z"
							/>
					</g>
					<path style="fill-rule:evenodd;clip-rule:evenodd;fill:#678AB1;" d="M120.079,443.871c-1.162-44.387-5.01-119.65-6.172-164.038
						c-14.537-1.061-25.389-0.293-30.496-0.234c-0.965,0.011,5.494,43.523,6.184,49.774c2.951,26.826,14.42,90.056,16.598,102.581
						C108.11,442.978,120.081,443.903,120.079,443.871z"/>
				</g>
				<path style="fill-rule:evenodd;clip-rule:evenodd;fill:#7EADCE;" d="M110.079,461.503c1.273,0.038,2.623,0.053,4.064,0.041
					l30.896-0.237c3.67-0.028,7.029,0.7,7.064-0.881c0.17-7.525-5.561-11.188-6.193-11.371c-4.871-1.411-25.248-5.075-27.844-5.54
					c-4.836,4.764-8.379,9.735-8.496,15.879C109.555,460.133,109.733,460.837,110.079,461.503z"/>
				<path style="fill-rule:evenodd;clip-rule:evenodd;fill:#7EADCE;" d="M383,461.503c-1.273,0.038-2.623,0.053-4.063,0.041
					l-30.898-0.237c-3.67-0.028-7.029,0.7-7.065-0.881c-0.17-7.525,5.563-11.188,6.193-11.371c4.871-1.411,25.248-5.075,27.844-5.54
					c4.836,4.764,8.379,9.735,8.498,15.879C383.523,460.133,383.346,460.837,383,461.503z"/>
				<g>
					<g>
						<path style="fill-rule:evenodd;clip-rule:evenodd;fill:#7EADCE;" d="M413.404,371.191
							c-10.201,26.507-10.201,26.507-10.201,26.507s-23.299,14.97-33.283,21.642c-11.434,7.639-11.299-5.765-9.504-10.974
							c2.02-5.854,9.758-12.446,20.105-20.965c0,0-4.074-16.789,6.264-30.929C397.123,342.332,426.199,340.421,413.404,371.191z"/>
						<g>
							<path style="fill:#6F96C2;" d="M387.113,409.851c-0.471,0-0.934-0.221-1.225-0.634c-0.478-0.677-0.318-1.613,0.357-2.091
								c8.289-5.859,14.357-10.298,16.969-14.069c2.578-3.72,7.92-13.61,7.975-13.709c0.393-0.731,1.305-1.001,2.031-0.608
								c0.73,0.394,1.002,1.304,0.609,2.032c-0.223,0.412-5.477,10.138-8.148,13.993c-2.898,4.186-8.891,8.582-17.703,14.811
								C387.715,409.762,387.414,409.851,387.113,409.851z"/>
						</g>
					</g>
					<path style="fill-rule:evenodd;clip-rule:evenodd;fill:#9DC3DB;" d="M381.598,376.853c0.021-4.191,0.545-7.527,2.004-11.476
						c1.453-3.581,3.068-6.079,5.978-8.645c1.588-1.228,8.893-5.358,10.459-3.654c-0.008,0.03-6.986,5.259-7.879,6.255
						c-2.018,2.43-3.066,4.578-3.986,7.588c-0.945,3.453-1.213,6.343-1.215,9.902c0.113,4.532,1.715,8.438-1.588,8.789
						C381.342,386.809,381.742,380.265,381.598,376.853z"/>
				</g>
				<g>
					<g>
						<path style="fill-rule:evenodd;clip-rule:evenodd;fill:#7EADCE;" d="M79.674,371.191
							c10.201,26.507,10.201,26.507,10.201,26.507s23.299,14.97,33.283,21.642c11.434,7.639,11.299-5.765,9.504-10.974
							c-2.018-5.854-9.758-12.446-20.103-20.965c0,0,4.072-16.789-6.266-30.929C95.957,342.332,66.879,340.421,79.674,371.191z"/>
						<g>
							<path style="fill:#6F96C2;" d="M105.964,409.851c-0.3,0-0.602-0.089-0.865-0.275c-8.812-6.228-14.805-10.625-17.703-14.811
								c-2.671-3.854-7.923-13.58-8.146-13.992c-0.394-0.729-0.121-1.639,0.608-2.032c0.727-0.392,1.638-0.122,2.032,0.608
								c0.054,0.1,5.395,9.99,7.972,13.708c2.611,3.772,8.68,8.211,16.969,14.07c0.676,0.477,0.837,1.414,0.358,2.091
								C106.898,409.63,106.435,409.851,105.964,409.851z"/>
						</g>
					</g>
					<path style="fill-rule:evenodd;clip-rule:evenodd;fill:#9DC3DB;" d="M108.741,376.853c-0.021-4.191-0.543-7.527-2.002-11.476
						c-1.453-3.581-3.068-6.079-5.98-8.645c-1.588-1.228-8.893-5.358-10.459-3.654c0.008,0.03,6.986,5.259,7.881,6.255
						c2.016,2.43,3.066,4.578,3.986,7.588c0.945,3.453,1.211,6.343,1.213,9.902c-0.113,4.532-1.713,8.438,1.59,8.789
						C108.998,386.809,108.598,380.265,108.741,376.853z"/>
				</g>
				<g>
					<g>
						<path style="fill-rule:evenodd;clip-rule:evenodd;fill:#BC9A7A;" d="M394.5,358.767L94.776,355.81
							c3.957-18.359,7.477-33.799,12.854-51.905c3.27-10.992,6.516-21.827,9.379-32.939c50.732,0.752,100.986,0.784,151.685,0.98
							c33.945,0.131,67.408-1.032,101.359-0.758c2.555,0.02,5.109,0.043,7.666,0.065c4.777,22.714,10.223,47.135,13.959,70.033
							C392.619,347.114,393.559,352.94,394.5,358.767z"/>
						<path style="fill-rule:evenodd;clip-rule:evenodd;fill:#B58F72;" d="M394.5,358.767L94.776,355.81
							c3.957-18.359,7.477-33.799,12.854-51.905c3.27-10.992,6.516-21.827,9.379-32.939c7.82,0.116,15.629,0.215,23.43,0.3
							c3.607,48.612,60.711,74.579,172.453,73.005c36.221-0.51,61.598-0.132,79.379,0.683L394.5,358.767z"/>
						<path style="fill-rule:evenodd;clip-rule:evenodd;fill:#935B47;" d="M257.182,355.609
							c6.049,0.022,133.795-0.426,133.781,1.765c0.039,1.941-127.701,0.714-133.766,0.694c-19.291-0.07-120.066,1.653-145.943,0.005
							c-22.723-1.448-6.85-3.146,4.188-3.542C146.625,353.411,239.086,355.554,257.182,355.609z"/>
						<path style="fill-rule:evenodd;clip-rule:evenodd;fill:#F1D7C8;" d="M256.18,269.367c5.59,0.018,123.643-0.526,123.629,1.665
							c0.035,1.94-118.012,0.809-123.615,0.794c-21.8-0.068-156.24,2.638-138.935-1.547
							C99.709,265.903,234.69,269.314,256.18,269.367z"/>
					</g>
				</g>
			</g>
		</g>
	</g>
</g>
<g id="TEXTS">
	<g>
		<g>
			<text transform="matrix(1 0 0 1 195.7993 311.4336)"><tspan x="0" y="0" style="fill:#935B47; font-family:'OpenSans-Extrabold'; font-size:33.1371px;">F</tspan><tspan x="17.863" y="0" style="fill:#935B47; font-family:'OpenSans-Extrabold'; font-size:33.1371px;">OOD</tspan></text>
			<text transform="matrix(1 0 0 1 194.9019 340.6104)"><tspan x="0" y="0" style="fill:#935B47; font-family:'OpenSans-Extrabold'; font-size:33.1371px;">B</tspan><tspan x="22.329" y="0" style="fill:#935B47; font-family:'OpenSans-Extrabold'; font-size:33.1371px;">ANK</tspan></text>
		</g>
		<text transform="matrix(1 0 0 1 201.5239 408.3848)"><tspan x="0" y="0" style="fill:#F1D7C8; font-family:'Yellowtail'; font-size:27.1158px;">D</tspan><tspan x="18.059" y="0" style="fill:#F1D7C8; font-family:'Yellowtail'; font-size:27.1158px;">onation</tspan></text>
	</g>
</g>
</svg>
