<?xml version="1.0" encoding="utf-8"?>
<!-- Generator: Adobe Illustrator 27.5.0, SVG Export Plug-In . SVG Version: 6.00 Build 0)  -->
<svg version="1.1" xmlns="http://www.w3.org/2000/svg" xmlns:xlink="http://www.w3.org/1999/xlink" x="0px" y="0px"
	 viewBox="0 0 750 500" style="enable-background:new 0 0 750 500;" xml:space="preserve">
<g id="BACKGROUND">
	<rect style="fill:#FFFFFF;" width="750" height="500"/>
</g>
<g id="OBJECTS">
	<path style="fill:#E9DFF2;" d="M724.004,288.065c0,0-4.348-92.391-8.696-135.869c-4.348-43.478-45.652-104.348-121.739-115.217
		c-76.087-10.87-235.87-4.348-322.826-4.348c-86.957,0-140.217,2.174-181.522,32.609c-41.304,30.435-41.304,100-41.304,143.478
		s-6.522,169.565-6.522,201.087c0,31.522,59.783,60.87,142.391,56.522c82.609-4.348,357.609-3.261,413.043-6.522
		c55.435-3.261,102.146-10.472,115.217-38.043C725.118,394.189,724.004,288.065,724.004,288.065z"/>
	<g>
		<path style="fill:#282726;" d="M290.603,290.369l80.028-7.184l2.454,6.068c0,0-79.014,7.585-79.014,6.447
			C294.071,294.562,290.603,290.369,290.603,290.369z"/>
		<path style="fill:#282726;" d="M291.094,288.502c1.112,0.141,70.212,27.088,70.212,27.088l-0.327,10.792l-71.96-29.826
			L291.094,288.502z"/>
		<polygon style="fill:#282726;" points="288.345,244.23 286.71,296.225 293.58,297.867 294.889,246.146 		"/>
		<path style="fill:#77706B;" d="M284.334,292.096c0,4.483,2.529,8.117,5.648,8.117c3.119,0,5.648-3.634,5.648-8.117
			c0-4.483-2.529-8.117-5.648-8.117C286.862,283.979,284.334,287.613,284.334,292.096z"/>
		<path style="fill:#282726;" d="M451.563,369.777c0,0-0.033-9.853-2.414-10.16c-2.381-0.307-8.435,3.999-8.435,3.999l-2.225-6.2
			c0,0,6.94,1.077,8.762-0.911c1.822-1.989-7.193-7.156-7.193-7.156l5.022-5.108c0,0,3.595,8.777,5.174,8.893
			c1.579,0.115,3.644-9.674,3.644-9.674s5.887,2.899,5.667,2.876c-0.22-0.023-6.29,6.002-6.368,7.999
			c-0.078,1.997,9.778-0.288,9.778-0.288l-0.53,8.462c0,0-7.333-4.882-8.82-3.514c-1.487,1.368,4.771,8.299,4.771,8.299
			L451.563,369.777z"/>
		<path style="fill:#77706B;" d="M276.894,290.059l12.433-2.716c0,0,3.272,3.395,1.309,8.147l-12.106,2.376L276.894,290.059z"/>
		<path style="fill:#282726;" d="M454.508,372.707c8.306-1.88,13.449-10.974,11.492-20.315
			c-1.957-9.341-10.276-15.396-18.579-13.524c-8.303,1.871-13.452,10.968-11.495,20.309
			C437.891,368.521,446.205,374.578,454.508,372.707z M440.528,358.435c-1.346-6.443,2.197-12.716,7.923-14.007
			c5.72-1.289,11.454,2.885,12.805,9.325c1.352,6.44-2.194,12.707-7.92,13.998C447.613,369.049,441.879,364.875,440.528,358.435z"/>
		<path style="fill:#282726;" d="M342.014,379.134c0,0,4.026-8.924,1.999-10.257c-2.027-1.333-9.273-0.123-9.273-0.123l0.54-6.592
			c0,0,5.832,4.05,8.298,3.059c2.466-0.991-3.558-9.658-3.558-9.658l6.643-2.393c0,0-0.363,9.53,1.017,10.334
			c1.38,0.804,7.277-7.132,7.277-7.132s4.13,5.231,3.941,5.112c-0.189-0.119-8.158,2.639-9.051,4.41
			c-0.893,1.771,8.96,4.072,8.96,4.072l-3.963,7.416c0,0-4.621-7.664-6.528-7.086c-1.907,0.578,0.897,9.619,0.897,9.619
			L342.014,379.134z"/>
		<path style="fill:#77706B;" d="M420.225,357.038c24.722-0.368,44.843-30.479,44.941-67.249
			c0.092-36.769-19.87-66.277-44.586-65.904c-24.722,0.368-44.843,30.479-44.941,67.249
			C375.542,327.903,395.504,357.405,420.225,357.038z M380.737,291.925c0.088-33.625,17.874-61.144,39.732-61.476
			c21.853-0.325,39.495,26.665,39.407,60.29c-0.088,33.626-17.879,61.151-39.731,61.482
			C398.292,352.546,380.649,325.55,380.737,291.925z"/>
		<g>
			<g>
				<path style="fill:#282726;" d="M397.038,231.237c0.397,1.069,0.794,2.138,1.191,3.207c1.075,2.895,2.15,5.791,3.226,8.686
					c1.589,4.279,3.178,8.558,4.767,12.837c1.946,5.24,3.892,10.481,5.838,15.721c2.124,5.719,4.248,11.438,6.371,17.158
					c2.144,5.773,4.288,11.546,6.431,17.319c2.006,5.403,4.013,10.806,6.019,16.209c1.689,4.549,3.379,9.098,5.068,13.647
					c1.215,3.273,2.431,6.546,3.646,9.819c0.578,1.556,1.129,3.124,1.734,4.67c0.026,0.066,0.049,0.133,0.074,0.199
					c0.092,0.247,0.491,0.14,0.398-0.11c-0.397-1.069-0.794-2.138-1.191-3.207c-1.075-2.895-2.15-5.791-3.226-8.686
					c-1.589-4.279-3.178-8.558-4.767-12.837c-1.946-5.24-3.892-10.481-5.838-15.721c-2.124-5.719-4.248-11.438-6.371-17.158
					c-2.144-5.773-4.288-11.546-6.432-17.319c-2.006-5.403-4.013-10.806-6.019-16.209c-1.689-4.549-3.378-9.098-5.068-13.647
					c-1.216-3.273-2.431-6.546-3.646-9.819c-0.578-1.556-1.13-3.124-1.734-4.67c-0.026-0.066-0.049-0.133-0.074-0.199
					C397.344,230.881,396.945,230.987,397.038,231.237L397.038,231.237z"/>
			</g>
			<g>
				<path style="fill:#282726;" d="M380.635,319.886c0.668-0.66,1.336-1.319,2.004-1.979c1.808-1.785,3.615-3.569,5.423-5.354
					c2.685-2.651,5.37-5.301,8.055-7.951c3.261-3.219,6.522-6.439,9.783-9.658c3.588-3.542,7.176-7.084,10.764-10.626
					c3.606-3.56,7.212-7.119,10.818-10.679c3.377-3.334,6.755-6.668,10.132-10.003c2.842-2.806,5.684-5.611,8.526-8.417
					c2.053-2.027,4.107-4.054,6.16-6.081c0.965-0.953,1.99-1.872,2.908-2.871c0.04-0.044,0.085-0.084,0.127-0.126
					c0.189-0.187-0.103-0.479-0.292-0.292c-0.668,0.66-1.336,1.319-2.004,1.979c-1.808,1.785-3.615,3.569-5.423,5.354
					c-2.685,2.65-5.37,5.301-8.055,7.951c-3.261,3.219-6.522,6.439-9.783,9.658c-3.588,3.542-7.176,7.084-10.764,10.626
					c-3.606,3.56-7.212,7.119-10.818,10.679c-3.378,3.334-6.755,6.668-10.133,10.003c-2.842,2.805-5.684,5.611-8.526,8.417
					c-2.053,2.027-4.107,4.054-6.16,6.081c-0.965,0.953-1.99,1.872-2.908,2.871c-0.04,0.044-0.085,0.084-0.127,0.126
					C380.154,319.781,380.446,320.073,380.635,319.886L380.635,319.886z"/>
			</g>
			<g>
				<path style="fill:#282726;" d="M427.577,217.514c-0.209,1.22-0.418,2.44-0.627,3.66c-0.569,3.32-1.137,6.641-1.706,9.961
					c-0.841,4.911-1.682,9.822-2.523,14.733c-1.026,5.992-2.052,11.984-3.078,17.977c-1.124,6.564-2.248,13.127-3.372,19.691
					c-1.135,6.626-2.269,13.251-3.404,19.877c-1.058,6.178-2.116,12.356-3.174,18.534c-0.894,5.221-1.788,10.442-2.682,15.663
					c-0.643,3.754-1.286,7.508-1.929,11.262c-0.304,1.778-0.615,3.555-0.913,5.333c-0.013,0.076-0.026,0.152-0.039,0.228
					c-0.044,0.26,0.353,0.371,0.398,0.11c0.209-1.22,0.418-2.44,0.627-3.66c0.569-3.32,1.137-6.641,1.706-9.961
					c0.841-4.911,1.682-9.822,2.523-14.733c1.026-5.992,2.052-11.984,3.079-17.977c1.124-6.564,2.248-13.128,3.372-19.691
					c1.135-6.626,2.269-13.251,3.404-19.877c1.058-6.178,2.116-12.356,3.174-18.534c0.894-5.221,1.788-10.442,2.682-15.663
					c0.643-3.754,1.286-7.508,1.929-11.262c0.304-1.778,0.615-3.555,0.913-5.333c0.013-0.076,0.026-0.152,0.039-0.228
					C428.02,217.364,427.622,217.252,427.577,217.514L427.577,217.514z"/>
			</g>
			<g>
				<path style="fill:#282726;" d="M379.475,272.798c2.746,0.918,5.492,1.836,8.238,2.753c6.593,2.203,13.186,4.407,19.78,6.611
					c7.973,2.665,15.946,5.329,23.918,7.994c6.855,2.291,13.711,4.582,20.566,6.874c2.275,0.76,4.549,1.521,6.824,2.281
					c1.06,0.354,2.15,0.84,3.242,1.084c0.048,0.011,0.096,0.032,0.142,0.048c0.252,0.084,0.361-0.314,0.11-0.398
					c-2.746-0.918-5.492-1.836-8.238-2.753c-6.593-2.204-13.186-4.407-19.779-6.611c-7.973-2.665-15.946-5.329-23.919-7.994
					c-6.855-2.291-13.711-4.582-20.566-6.874c-2.275-0.76-4.549-1.521-6.824-2.281c-1.06-0.354-2.15-0.84-3.242-1.084
					c-0.048-0.011-0.096-0.032-0.142-0.048C379.333,272.316,379.224,272.714,379.475,272.798L379.475,272.798z"/>
			</g>
			<g>
				<path style="fill:#282726;" d="M461.998,271.944c-2.772,0.789-5.544,1.579-8.316,2.368c-6.654,1.895-13.308,3.789-19.962,5.684
					c-8,2.278-15.999,4.555-23.999,6.833c-6.95,1.979-13.899,3.958-20.849,5.936c-2.277,0.648-4.554,1.296-6.83,1.945
					c-1.069,0.304-2.211,0.53-3.25,0.925c-0.047,0.018-0.098,0.028-0.146,0.041c-0.255,0.073-0.146,0.471,0.11,0.398
					c2.772-0.789,5.544-1.579,8.316-2.368c6.654-1.895,13.308-3.789,19.962-5.684c8-2.278,15.999-4.555,23.999-6.833
					c6.95-1.979,13.899-3.958,20.849-5.936c2.277-0.648,4.554-1.297,6.83-1.945c1.069-0.304,2.211-0.53,3.25-0.925
					c0.047-0.018,0.097-0.028,0.145-0.041C462.363,272.269,462.254,271.871,461.998,271.944L461.998,271.944z"/>
			</g>
			<g>
				<path style="fill:#282726;" d="M386.492,248.642c0.607,0.747,1.213,1.493,1.82,2.24c1.651,2.032,3.302,4.064,4.952,6.096
					c2.442,3.006,4.883,6.012,7.325,9.017c2.979,3.668,5.958,7.335,8.937,11.002c3.263,4.017,6.527,8.035,9.79,12.052
					c3.294,4.055,6.588,8.111,9.883,12.166c3.072,3.781,6.143,7.563,9.215,11.344c2.596,3.196,5.192,6.391,7.788,9.587
					c1.867,2.298,3.733,4.596,5.6,6.894c0.877,1.08,1.707,2.243,2.652,3.265c0.04,0.044,0.076,0.094,0.114,0.14
					c0.167,0.206,0.458-0.087,0.292-0.292c-0.606-0.747-1.213-1.493-1.82-2.24c-1.651-2.032-3.302-4.064-4.952-6.096
					c-2.442-3.006-4.883-6.012-7.325-9.017c-2.979-3.667-5.958-7.335-8.938-11.002c-3.263-4.017-6.527-8.035-9.79-12.052
					c-3.294-4.055-6.588-8.111-9.883-12.166c-3.072-3.781-6.143-7.563-9.215-11.344c-2.596-3.196-5.192-6.391-7.788-9.587
					c-1.867-2.298-3.733-4.596-5.6-6.894c-0.877-1.08-1.707-2.243-2.652-3.265c-0.04-0.044-0.076-0.093-0.113-0.14
					C386.616,248.144,386.326,248.438,386.492,248.642L386.492,248.642z"/>
			</g>
			<g>
				<path style="fill:#282726;" d="M410.385,220.177c0.11,1.245,0.221,2.49,0.331,3.735c0.3,3.388,0.6,6.777,0.901,10.165
					c0.444,5.012,0.888,10.023,1.332,15.035c0.542,6.115,1.084,12.23,1.626,18.346c0.594,6.699,1.187,13.398,1.781,20.096
					c0.599,6.763,1.199,13.525,1.798,20.287c0.559,6.306,1.118,12.612,1.676,18.919c0.472,5.33,0.945,10.66,1.417,15.99
					c0.34,3.834,0.68,7.668,1.019,11.502c0.161,1.818,0.315,3.637,0.483,5.454c0.007,0.079,0.014,0.157,0.021,0.236
					c0.023,0.262,0.436,0.265,0.413,0c-0.11-1.245-0.221-2.49-0.331-3.735c-0.3-3.388-0.6-6.777-0.901-10.165
					c-0.444-5.012-0.888-10.023-1.332-15.035c-0.542-6.115-1.084-12.23-1.626-18.345c-0.594-6.699-1.187-13.398-1.781-20.096
					c-0.599-6.762-1.199-13.525-1.798-20.287c-0.559-6.306-1.118-12.612-1.676-18.919c-0.472-5.33-0.945-10.66-1.417-15.99
					c-0.34-3.834-0.679-7.668-1.019-11.502c-0.161-1.818-0.315-3.637-0.483-5.454c-0.007-0.079-0.014-0.157-0.021-0.236
					C410.774,219.914,410.362,219.912,410.385,220.177L410.385,220.177z"/>
			</g>
			<g>
				<path style="fill:#282726;" d="M442.455,229.53c-0.462,0.982-0.924,1.963-1.385,2.945c-1.257,2.671-2.513,5.343-3.769,8.014
					c-1.85,3.933-3.7,7.867-5.55,11.8c-2.266,4.817-4.531,9.633-6.797,14.45c-2.482,5.276-4.963,10.552-7.445,15.829
					c-2.495,5.305-4.991,10.61-7.486,15.916c-2.336,4.966-4.672,9.932-7.008,14.898c-1.974,4.196-3.947,8.392-5.921,12.587
					c-1.414,3.006-2.828,6.012-4.242,9.018c-0.672,1.43-1.373,2.85-2.019,4.291c-0.028,0.062-0.057,0.122-0.086,0.184
					c-0.112,0.239,0.243,0.449,0.356,0.208c0.462-0.982,0.923-1.963,1.385-2.945c1.257-2.671,2.513-5.343,3.769-8.014
					c1.85-3.933,3.7-7.867,5.55-11.8c2.265-4.816,4.531-9.633,6.796-14.45c2.482-5.276,4.963-10.552,7.445-15.829
					c2.495-5.305,4.991-10.61,7.486-15.916c2.336-4.966,4.672-9.932,7.007-14.898c1.974-4.196,3.947-8.392,5.921-12.587
					c1.414-3.006,2.828-6.012,4.242-9.018c0.672-1.43,1.373-2.85,2.018-4.291c0.028-0.062,0.057-0.122,0.086-0.184
					C442.924,229.499,442.568,229.289,442.455,229.53L442.455,229.53z"/>
			</g>
		</g>
		<path style="fill:#282726;" d="M356.358,341.595c0,0,27.197,22.469,27.36,23.827s79.995-5.431,79.668-7.468
			c-0.094-0.587,1.599-4.565-1.636-7.468c-8-7.178-25.684-16.634-25.684-16.634l-78.359,3.734L356.358,341.595z"/>
		<path style="fill:#282726;" d="M338.691,276.685c0,0-40.815-23.674-42.166-24.986l0.491-7.468l44.878,27.674L338.691,276.685z"/>
		<path style="fill:#8255A5;" d="M299.469,234.046c0,0,40.897,26.479,42.206,26.479c1.309,0,92.264-11.881,92.264-11.881
			l-38.28-26.479l-96.518,5.771L299.469,234.046z"/>
		<path style="fill:#8255A5;" d="M295.543,233.537c0,0-2.454-89.62,0-91.148c2.454-1.528,97.663-6.62,100.607-2.546
			c2.945,4.074,14.232,78.927,14.232,78.927L295.543,233.537z"/>
		<path style="fill:#282726;" d="M342.419,276.149c0,0-52.569-22.862-54.152-24.166l1.044-20.281l54.124,26.755L342.419,276.149z"/>
		<path style="fill:#C98B61;" d="M396.641,125.076c0,0,20.612,24.187,26.256,36.154c2.527,5.358,4.417,22.914,4.417,36.154
			c0,13.239,0,15.531,0,15.531l-24.784-6.111c0,0-2.454-37.172-3.926-38.19c-1.472-1.018-15.95-23.933-15.95-23.933L396.641,125.076
			z"/>
		<path style="fill:#282726;" d="M368.526,297.762c9.239,39.152,38.566,64.669,65.507,56.982
			c26.94-7.68,41.296-45.657,32.051-84.809c-9.239-39.159-38.567-64.676-65.507-56.989
			C373.636,220.627,359.287,258.604,368.526,297.762z M401.34,221.426c23.692-6.754,49.49,15.689,57.618,50.128
			c8.127,34.446-4.494,67.844-28.192,74.605c-23.698,6.754-49.497-15.689-57.618-50.128
			C365.021,261.584,377.642,228.186,401.34,221.426z"/>
		<polygon style="fill:#282726;" points="435.295,197.384 391.243,216.733 391.523,222.589 435.575,205.022 		"/>
		<path style="fill:#FFFFFF;" d="M434.377,325.588c0,0,1.555,2.766,3.555,4.38c1.999,1.614,13.552,10.373,17.773,14.522
			c4.221,4.149,2.222,8.99,0.222,11.295c-1.999,2.305-9.775,0.692-13.996-0.461c-4.221-1.152-11.108-3.458-13.107-4.841
			c-1.999-1.383-10.664-5.071-15.773-9.451c-5.11-4.38-6.887-8.529-6.887-13.139s0.222-7.146,0.222-7.146L434.377,325.588z"/>
		<path style="fill:#FFFFFF;" d="M377.635,330.057c0,0-0.46,10.742,0.23,12.89c0.69,2.148,24.617,19.097,32.669,22.2
			c8.052,3.103,15.644,1.193,16.105-2.387c0.46-3.581-0.69-7.4-3.681-11.458c-2.991-4.058-16.795-17.187-18.175-20.29
			C403.403,327.909,377.635,330.057,377.635,330.057z"/>
		<path style="fill:#282726;" d="M235.932,301.302c3.156,43.881,27.668,77.19,57.004,74.846
			c29.336-2.344,47.387-39.452,44.231-83.333c-3.156-43.881-24.496-77.557-53.832-75.213
			C254,219.946,232.777,257.421,235.932,301.302z M243.127,301.132c-2.668-37.097,14.425-68.716,38.173-70.613
			c23.755-1.898,45.168,26.645,47.836,63.742c2.668,37.104-14.419,68.716-38.173,70.613
			C267.214,366.771,245.795,338.236,243.127,301.132z"/>
		<polygon style="fill:#282726;" points="430.013,191.782 430.848,223.608 438.357,224.372 437.522,192.292 		"/>
		<path style="fill:#F9BA6E;" d="M391.467,180.254c0,0,47.115,30.667,54.572,48.067c3.507,8.182-5.1,99.556-5.1,99.556
			s-11.171,0.432-15.588,0.681c-4.417,0.25-8.588,0-8.588,0v4.274c0,0-6.316-0.013-20.858,1.018
			c-17.303,1.227-24.568,0.112-22.883,0.422c0,0-1.995-33.945-2.486-44.432c-0.491-10.486-1.864-43.189-1.864-43.189
			s-18.149-10.659-27.964-17.4c-9.815-6.741-20.627-12.049-22.099-18.791c-1.472-6.741-0.245-24.218,0.982-28.463
			c1.227-4.245,74.106-5.493,74.106-5.493L391.467,180.254z"/>
		<polygon style="fill:#282726;" points="343.031,211.641 298.979,230.991 299.259,236.847 343.311,219.279 		"/>
		<path style="fill:#C98B61;" d="M309.883,218.361c0,0,4.078,10.072,3.431,15.279c-0.647,5.207-1.654,10.436-4.151,10.961
			c-2.497,0.525-3.833-2.054-3.658-4.087c0.175-2.033-0.385-6.231-0.846-6.728C304.199,233.291,309.883,218.361,309.883,218.361z"/>
		<path style="fill:#9C61BC;" d="M382.347,167.871c0,0,9.949-3.668,13.015-3.352c3.066,0.316,46.314,19.796,46.741,21.753
			c0.427,1.957,1.172,4.457-0.116,5.702c-1.287,1.245-14.686,3.205-16.059,3.319c-1.374,0.114-41.578-19.333-43.06-20.634
			C381.386,173.357,382.347,167.871,382.347,167.871z"/>
		<g>
			<g>
				<path style="fill:#282726;" d="M255.398,241.852c0.436,1.063,0.872,2.126,1.308,3.189c1.181,2.879,2.361,5.758,3.542,8.637
					c1.745,4.255,3.49,8.509,5.235,12.764c2.137,5.21,4.274,10.421,6.41,15.631c2.332,5.686,4.664,11.372,6.996,17.059
					c2.354,5.739,4.708,11.479,7.061,17.218c2.203,5.371,4.405,10.741,6.608,16.112c1.854,4.521,3.708,9.042,5.563,13.564
					c1.334,3.252,2.667,6.504,4.001,9.756c0.633,1.544,1.248,3.097,1.9,4.633c0.027,0.065,0.053,0.13,0.08,0.195
					c0.099,0.242,0.499,0.136,0.398-0.11c-0.436-1.063-0.872-2.126-1.308-3.189c-1.181-2.879-2.361-5.758-3.542-8.637
					c-1.745-4.255-3.49-8.509-5.235-12.764c-2.137-5.21-4.273-10.421-6.41-15.631c-2.332-5.686-4.664-11.372-6.996-17.059
					c-2.354-5.739-4.708-11.479-7.061-17.218c-2.203-5.371-4.405-10.741-6.608-16.112c-1.854-4.521-3.708-9.042-5.563-13.564
					c-1.334-3.252-2.667-6.504-4.001-9.756c-0.633-1.544-1.248-3.097-1.9-4.633c-0.027-0.065-0.053-0.13-0.08-0.195
					C255.696,241.5,255.297,241.607,255.398,241.852L255.398,241.852z"/>
			</g>
			<g>
				<path style="fill:#282726;" d="M237.358,329.971c0.729-0.652,1.458-1.303,2.187-1.955c1.995-1.783,3.99-3.566,5.984-5.349
					c2.938-2.627,5.877-5.253,8.815-7.88c3.584-3.204,7.168-6.408,10.752-9.611c3.943-3.525,7.886-7.049,11.829-10.574
					c3.963-3.543,7.926-7.085,11.889-10.628c3.695-3.303,7.391-6.607,11.086-9.91c3.124-2.792,6.247-5.585,9.371-8.377
					c2.248-2.009,4.496-4.019,6.744-6.028c1.064-0.951,2.199-1.861,3.21-2.869c0.043-0.043,0.091-0.082,0.137-0.122
					c0.198-0.177-0.094-0.468-0.292-0.292c-0.729,0.652-1.458,1.303-2.187,1.955c-1.995,1.783-3.989,3.566-5.984,5.349
					c-2.938,2.627-5.877,5.253-8.815,7.88c-3.584,3.204-7.168,6.408-10.752,9.611c-3.943,3.525-7.886,7.049-11.829,10.574
					c-3.963,3.542-7.926,7.085-11.889,10.628c-3.696,3.303-7.391,6.607-11.086,9.91c-3.124,2.792-6.247,5.585-9.371,8.377
					c-2.248,2.009-4.496,4.019-6.744,6.028c-1.064,0.951-2.199,1.861-3.21,2.869c-0.043,0.043-0.091,0.082-0.137,0.122
					C236.868,329.857,237.16,330.148,237.358,329.971L237.358,329.971z"/>
			</g>
			<g>
				<path style="fill:#282726;" d="M288.923,228.21c-0.231,1.221-0.462,2.441-0.692,3.661c-0.623,3.292-1.245,6.584-1.868,9.876
					c-0.927,4.9-1.853,9.799-2.78,14.699c-1.123,5.937-2.246,11.874-3.369,17.811c-1.238,6.546-2.476,13.093-3.714,19.639
					c-1.241,6.563-2.483,13.126-3.724,19.689c-1.165,6.161-2.33,12.321-3.495,18.482c-0.978,5.17-1.956,10.341-2.934,15.511
					c-0.706,3.733-1.412,7.465-2.118,11.198c-0.335,1.769-0.678,3.536-1.004,5.306c-0.014,0.076-0.029,0.152-0.043,0.228
					c-0.049,0.259,0.349,0.371,0.398,0.11c0.231-1.22,0.462-2.441,0.693-3.661c0.623-3.292,1.245-6.584,1.868-9.876
					c0.927-4.9,1.853-9.799,2.78-14.699c1.123-5.937,2.246-11.874,3.368-17.811c1.238-6.546,2.476-13.093,3.714-19.639
					c1.241-6.563,2.483-13.126,3.724-19.69c1.165-6.16,2.33-12.321,3.495-18.481c0.978-5.171,1.956-10.341,2.934-15.512
					c0.706-3.733,1.412-7.465,2.118-11.198c0.334-1.769,0.678-3.536,1.003-5.306c0.014-0.076,0.029-0.152,0.043-0.228
					C289.37,228.061,288.972,227.949,288.923,228.21L288.923,228.21z"/>
			</g>
			<g>
				<path style="fill:#282726;" d="M236.104,283.166c0.808,0.245,1.617,0.489,2.425,0.734c2.2,0.666,4.4,1.332,6.601,1.998
					c3.255,0.985,6.509,1.97,9.763,2.955c3.971,1.202,7.943,2.404,11.914,3.605c4.35,1.317,8.701,2.633,13.051,3.95
					c4.392,1.329,8.785,2.659,13.177,3.988c4.096,1.24,8.193,2.479,12.29,3.719c3.463,1.048,6.927,2.096,10.39,3.144
					c2.493,0.754,4.985,1.509,7.478,2.263c1.168,0.353,2.362,0.833,3.559,1.077c0.051,0.01,0.101,0.031,0.15,0.046
					c0.255,0.077,0.364-0.321,0.11-0.398c-0.808-0.245-1.617-0.489-2.425-0.734c-2.2-0.666-4.4-1.332-6.601-1.997
					c-3.254-0.985-6.509-1.97-9.763-2.955c-3.971-1.202-7.942-2.404-11.914-3.605c-4.35-1.317-8.701-2.633-13.051-3.95
					c-4.392-1.329-8.785-2.659-13.177-3.988c-4.097-1.24-8.193-2.479-12.29-3.719c-3.463-1.048-6.927-2.096-10.39-3.144
					c-2.492-0.754-4.985-1.509-7.478-2.263c-1.168-0.354-2.362-0.833-3.559-1.077c-0.051-0.01-0.101-0.03-0.15-0.045
					C235.959,282.691,235.85,283.089,236.104,283.166L236.104,283.166z"/>
			</g>
			<g>
				<path style="fill:#282726;" d="M326.695,282.314c-0.813,0.21-1.626,0.419-2.439,0.629c-2.227,0.574-4.453,1.148-6.68,1.722
					c-3.278,0.845-6.556,1.69-9.834,2.535c-3.998,1.031-7.997,2.062-11.995,3.092c-4.379,1.129-8.759,2.258-13.138,3.387
					c-4.443,1.146-8.886,2.291-13.329,3.437c-4.122,1.063-8.245,2.126-12.367,3.189c-3.485,0.898-6.97,1.797-10.455,2.695
					c-2.508,0.647-5.017,1.293-7.525,1.94c-1.178,0.304-2.437,0.517-3.585,0.924c-0.049,0.017-0.102,0.026-0.153,0.039
					c-0.257,0.066-0.148,0.464,0.11,0.398c0.813-0.21,1.626-0.419,2.439-0.629c2.227-0.574,4.454-1.148,6.68-1.722
					c3.278-0.845,6.556-1.69,9.834-2.536c3.998-1.031,7.997-2.062,11.995-3.092c4.38-1.129,8.759-2.258,13.138-3.387
					c4.443-1.146,8.886-2.291,13.33-3.437c4.122-1.063,8.245-2.126,12.367-3.189c3.485-0.898,6.97-1.797,10.455-2.695
					c2.508-0.647,5.017-1.294,7.525-1.94c1.178-0.304,2.437-0.517,3.585-0.924c0.049-0.017,0.102-0.026,0.153-0.039
					C327.061,282.646,326.952,282.248,326.695,282.314L326.695,282.314z"/>
			</g>
			<g>
				<path style="fill:#282726;" d="M243.816,259.154c0.664,0.74,1.327,1.48,1.991,2.22c1.816,2.025,3.633,4.049,5.449,6.074
					c2.676,2.983,5.352,5.966,8.028,8.949c3.279,3.655,6.558,7.31,9.837,10.965c3.577,3.987,7.153,7.974,10.73,11.961
					c3.61,4.024,7.221,8.049,10.831,12.073c3.381,3.768,6.761,7.537,10.142,11.305c2.845,3.171,5.69,6.342,8.534,9.513
					c2.054,2.289,4.108,4.579,6.161,6.868c0.963,1.073,1.884,2.215,2.903,3.236c0.044,0.044,0.083,0.093,0.124,0.139
					c0.178,0.198,0.469-0.094,0.292-0.292c-0.664-0.74-1.328-1.48-1.991-2.22c-1.816-2.025-3.633-4.049-5.449-6.074
					c-2.676-2.983-5.352-5.966-8.028-8.949c-3.279-3.655-6.558-7.31-9.837-10.965c-3.577-3.987-7.153-7.974-10.73-11.961
					c-3.61-4.024-7.221-8.049-10.831-12.073c-3.381-3.768-6.761-7.537-10.142-11.305c-2.845-3.171-5.69-6.342-8.535-9.513
					c-2.054-2.289-4.107-4.579-6.161-6.868c-0.963-1.073-1.884-2.215-2.903-3.236c-0.044-0.044-0.083-0.093-0.125-0.139
					C243.93,258.664,243.639,258.956,243.816,259.154L243.816,259.154z"/>
			</g>
			<g>
				<path style="fill:#282726;" d="M270.051,230.858c0.122,1.243,0.243,2.485,0.365,3.727c0.329,3.366,0.659,6.732,0.988,10.099
					c0.489,4.994,0.978,9.989,1.466,14.983c0.594,6.072,1.188,12.145,1.783,18.217c0.651,6.65,1.302,13.3,1.952,19.951
					c0.659,6.736,1.318,13.471,1.978,20.207c0.613,6.259,1.225,12.518,1.838,18.777c0.519,5.307,1.039,10.613,1.558,15.92
					c0.372,3.802,0.744,7.604,1.116,11.406c0.176,1.802,0.347,3.606,0.529,5.408c0.008,0.078,0.015,0.156,0.023,0.234
					c0.026,0.262,0.439,0.264,0.413,0c-0.122-1.243-0.243-2.485-0.365-3.727c-0.329-3.366-0.659-6.732-0.988-10.099
					c-0.489-4.994-0.977-9.989-1.466-14.983c-0.594-6.072-1.189-12.145-1.783-18.217c-0.651-6.65-1.302-13.3-1.952-19.951
					c-0.659-6.736-1.318-13.471-1.977-20.207c-0.613-6.259-1.225-12.518-1.838-18.777c-0.519-5.307-1.039-10.613-1.558-15.92
					c-0.372-3.802-0.744-7.604-1.116-11.406c-0.176-1.803-0.347-3.606-0.529-5.408c-0.008-0.078-0.015-0.156-0.023-0.234
					C270.438,230.596,270.025,230.593,270.051,230.858L270.051,230.858z"/>
			</g>
			<g>
				<path style="fill:#282726;" d="M305.253,240.154c-0.505,0.972-1.01,1.944-1.515,2.916c-1.381,2.659-2.762,5.317-4.143,7.976
					c-2.035,3.918-4.07,7.836-6.105,11.754c-2.482,4.779-4.965,9.558-7.447,14.336c-2.719,5.234-5.438,10.468-8.156,15.702
					c-2.755,5.303-5.51,10.607-8.264,15.91c-2.558,4.925-5.117,9.851-7.675,14.776c-2.162,4.162-4.324,8.324-6.486,12.486
					c-1.555,2.993-3.109,5.986-4.664,8.979c-0.736,1.417-1.508,2.821-2.21,4.255c-0.03,0.062-0.063,0.122-0.095,0.183
					c-0.122,0.235,0.234,0.444,0.356,0.208c0.505-0.972,1.01-1.944,1.515-2.916c1.381-2.659,2.762-5.317,4.143-7.976
					c2.035-3.918,4.07-7.836,6.106-11.754c2.482-4.779,4.965-9.558,7.447-14.337c2.719-5.234,5.438-10.468,8.156-15.702
					c2.755-5.303,5.51-10.607,8.264-15.91c2.558-4.925,5.117-9.851,7.675-14.776c2.162-4.162,4.324-8.324,6.486-12.486
					c1.555-2.993,3.109-5.986,4.664-8.979c0.736-1.417,1.508-2.821,2.21-4.255c0.03-0.062,0.064-0.122,0.095-0.183
					C305.732,240.127,305.376,239.918,305.253,240.154L305.253,240.154z"/>
			</g>
		</g>
		<path style="fill:#77706B;" d="M281.775,373.869c27.154-0.15,49.001-33.445,48.794-74.36
			c-0.213-40.914-22.394-73.958-49.541-73.801c-27.154,0.15-49.001,33.445-48.794,74.36
			C232.44,340.982,254.62,374.019,281.775,373.869z M237.84,301.001c-0.19-37.416,19.112-67.851,43.121-67.99
			c24.003-0.132,43.614,30.085,43.804,67.501c0.19,37.416-19.119,67.858-43.121,67.998
			C257.642,368.641,238.03,338.417,237.84,301.001z"/>
		<path style="fill:#C98B61;" d="M292.874,216.034c0,0-7.366,3.814-10.696,7.535s-3.173,10.378-1.549,12.302
			c1.624,1.925,3.458-0.133,3.458-0.133s0.426,2.446,2.346,3.229c1.921,0.783,3.585-1.077,3.585-1.077s-0.344,2.23,1.678,3.532
			c2.022,1.301,3.835-1.13,3.835-1.13s1.119,3.865,3.556,3.568c4.266-0.519,3.894-5.89,7.883-9.426
			c3.989-3.536,2.699-13.439,2.913-16.073C310.096,215.727,292.874,216.034,292.874,216.034z"/>
		<g>
			<path style="fill:#282726;" d="M373.229,196.495c2.406,1.46,4.767,2.997,7.113,4.549c5.366,3.55,10.632,7.258,15.729,11.186
				c5.645,4.35,11.183,8.958,16.005,14.224c0.905,0.988,1.838,1.967,2.473,3.157c0.624,1.17,1.03,2.448,1.341,3.733
				c0.787,3.252,1.002,6.636,1.125,9.97c0.27,7.369-0.18,14.758,0.298,22.119c0.246,3.799,0.332,7.594,0.349,11.401
				c0.025,5.383-0.035,10.767-0.117,16.149c-0.089,5.792-0.211,11.584-0.352,17.375c-0.118,4.843-0.249,9.685-0.391,14.527
				c-0.074,2.531-0.151,5.061-0.234,7.592c-0.004,0.118-0.008,0.236-0.012,0.355c-0.009,0.266,0.404,0.265,0.413,0
				c0.06-1.786,0.114-3.572,0.168-5.357c0.135-4.463,0.26-8.926,0.375-13.389c0.147-5.72,0.277-11.44,0.379-17.16
				c0.101-5.637,0.179-11.276,0.187-16.914c0.006-4.123,0.014-8.257-0.206-12.376c-0.148-2.779-0.32-5.546-0.348-8.332
				c-0.038-3.817,0.025-7.633-0.005-11.45c-0.028-3.614-0.11-7.246-0.564-10.835c-0.336-2.661-0.832-5.464-2.169-7.829
				c-0.652-1.153-1.588-2.121-2.478-3.09c-1.143-1.245-2.332-2.449-3.55-3.622c-2.6-2.505-5.332-4.872-8.127-7.155
				c-5.339-4.36-10.918-8.424-16.613-12.304c-3.316-2.26-6.671-4.466-10.085-6.574c-0.165-0.102-0.331-0.204-0.497-0.305
				C373.21,196.001,373.002,196.358,373.229,196.495L373.229,196.495z"/>
		</g>
		<g>
			<path style="fill:#282726;" d="M327.728,188.982c-0.428,4.173-0.351,8.488,0.213,12.64c0.404,2.969,1.09,6.038,2.633,8.642
				c0.8,1.35,1.999,2.454,3.151,3.499c3.956,3.586,8.352,6.711,12.703,9.791c5.19,3.673,10.473,7.215,15.79,10.7
				c2.271,1.488,4.55,2.965,6.836,4.431c0.915,0.587,1.832,1.17,2.748,1.755c1.616,1.031,2.904,2.424,3.644,4.208
				c0.979,2.359,0.758,5.201,0.858,7.719c0.109,2.731,0.216,5.462,0.321,8.194c0.249,6.458,0.49,12.917,0.714,19.376
				c0.21,6.043,0.411,12.086,0.56,18.131c0.134,5.429,0.109,10.859,0.246,16.287c0.16,6.315,0.437,12.628,0.803,18.933
				c0.021,0.358,0.042,0.716,0.064,1.074c0.016,0.264,0.429,0.266,0.413,0c-0.291-4.683-0.505-9.373-0.679-14.062
				c-0.233-6.268-0.236-12.535-0.357-18.804c-0.108-5.58-0.287-11.159-0.472-16.738c-0.217-6.551-0.456-13.102-0.704-19.653
				c-0.204-5.383-0.414-10.766-0.631-16.149c-0.056-1.383-0.115-2.732-0.591-4.05c-0.59-1.63-1.633-3.076-2.997-4.144
				c-0.899-0.704-1.921-1.275-2.882-1.89c-1.036-0.663-2.071-1.328-3.104-1.995c-5.124-3.308-10.216-6.667-15.247-10.115
				c-4.977-3.41-9.94-6.877-14.641-10.663c-1.615-1.301-3.225-2.637-4.665-4.133c-1.523-1.583-2.442-3.467-3.084-5.567
				c-1.593-5.215-1.691-10.948-1.315-16.353c0.025-0.355,0.051-0.709,0.087-1.063C328.167,188.718,327.754,188.72,327.728,188.982
				L327.728,188.982z"/>
		</g>
		<polygon style="fill:#282726;" points="341.348,206.295 342.727,275.852 351,276.141 349.391,206.321 		"/>
		<path style="fill:#9C61BC;" d="M295.128,182.696c0,0,9.749-3.722,12.767-3.438c3.018,0.284,45.735,19.165,46.173,21.098
			c0.438,1.933,1.195,4.4-0.059,5.644c-1.254,1.244-14.411,3.308-15.761,3.433c-1.35,0.125-41.073-18.751-42.543-20.024
			C294.236,188.136,295.128,182.696,295.128,182.696z"/>
		<path style="fill:#282726;" d="M346.256,270.2c0,0,13.741,5.959,15.704,8.996c1.963,3.036,2.863,7.819,2.863,16.523
			c0,8.704-0.491,47.976-0.491,47.976l-7.975-2.1c0,0,1.104-45.927,0.859-50.178c-0.245-4.251-1.472-8.055-3.435-9.675
			c-1.963-1.62-10.837-5.397-10.837-5.397L346.256,270.2z"/>
		<g>
			<path style="fill:#282726;" d="M284.153,235.821c0.099-1.398,0.263-2.796,0.477-4.181c0.168-1.086,0.367-2.171,0.665-3.229
				c0.283-1.004,0.69-1.781,1.299-2.623c0.333-0.461,0.667-0.921,1-1.382c0.156-0.215-0.202-0.422-0.356-0.208
				c-0.85,1.174-1.76,2.258-2.207,3.656c-0.651,2.034-0.917,4.207-1.141,6.324c-0.058,0.547-0.112,1.095-0.15,1.644
				C283.722,236.086,284.135,236.085,284.153,235.821L284.153,235.821z"/>
		</g>
		<g>
			<path style="fill:#282726;" d="M290.106,238.346c0.214-1.806,0.49-3.611,0.853-5.392c0.21-1.031,0.419-2.118,0.877-3.074
				c0.45-0.939,0.94-1.865,1.432-2.783c0.126-0.234-0.23-0.443-0.356-0.208c-0.504,0.939-1.013,1.885-1.465,2.85
				c-0.456,0.971-0.673,2.061-0.886,3.105c-0.371,1.818-0.65,3.659-0.868,5.502C289.662,238.61,290.075,238.607,290.106,238.346
				L290.106,238.346z"/>
		</g>
		<g>
			<path style="fill:#282726;" d="M295.678,240.52c0.054-1.813,0.242-3.65,0.618-5.424c0.29-1.368,0.771-2.649,1.516-3.84
				c0.34-0.543,0.769-1.213,1.335-1.559c0.226-0.138,0.019-0.495-0.208-0.356c-0.55,0.336-0.972,0.935-1.322,1.458
				c-0.798,1.191-1.339,2.514-1.657,3.907c-0.433,1.895-0.637,3.872-0.695,5.814C295.257,240.786,295.67,240.785,295.678,240.52
				L295.678,240.52z"/>
		</g>
		<path style="fill:#77706B;" d="M271.246,294.472c0,4.483,2.529,8.117,5.648,8.117c3.119,0,5.648-3.634,5.648-8.117
			c0-4.483-2.529-8.117-5.648-8.117C273.775,286.355,271.246,289.989,271.246,294.472z"/>
		<path style="fill:#282726;" d="M272.804,294.026c0,2.761,1.557,4.999,3.478,4.999c1.921,0,3.478-2.238,3.478-4.999
			c0-2.761-1.557-4.999-3.478-4.999C274.362,289.027,272.804,291.265,272.804,294.026z"/>
		<g>
			<path style="fill:#282726;" d="M406.822,333.203c2.683,3.143,5.389,6.268,8.148,9.344c0.87,0.97,1.745,1.938,2.649,2.877
				c0.184,0.192,0.476-0.1,0.292-0.292c-3.412-3.547-6.595-7.328-9.802-11.06c-0.332-0.387-0.664-0.773-0.995-1.161
				C406.941,332.709,406.65,333.002,406.822,333.203L406.822,333.203z"/>
		</g>
		<g>
			<path style="fill:#282726;" d="M397.711,340.022c3.062-2.167,6.736-3.189,10.477-2.864c0.556,0.048,1.031-0.509,1.031-1.031
				c0-0.598-0.474-0.983-1.031-1.032c-4.057-0.352-8.197,0.796-11.518,3.146c-0.454,0.321-0.669,0.901-0.37,1.411
				C396.562,340.101,397.253,340.345,397.711,340.022L397.711,340.022z"/>
		</g>
		<g>
			<path style="fill:#282726;" d="M401.298,345.98c3.005-2.954,7.03-4.762,11.25-4.931c1.323-0.053,1.33-2.116,0-2.063
				c-4.767,0.191-9.311,2.194-12.709,5.535C398.891,345.454,400.35,346.912,401.298,345.98L401.298,345.98z"/>
		</g>
		<g>
			<path style="fill:#282726;" d="M406.087,351.532c2.258-3.005,5.918-4.877,9.673-4.924c1.326-0.017,1.33-2.08,0-2.063
				c-4.541,0.057-8.745,2.341-11.454,5.946c-0.335,0.446-0.072,1.153,0.37,1.411C405.204,352.211,405.751,351.979,406.087,351.532
				L406.087,351.532z"/>
		</g>
		<g>
			<path style="fill:#282726;" d="M428.742,333.686c1.144-1.201,2.914-1.881,4.543-2.34c0.891-0.251,1.806-0.451,2.727-0.549
				c0.44-0.047,0.882-0.075,1.325-0.078c0.203-0.001,0.407,0.003,0.61,0.014c0.096,0.005,0.193,0.012,0.289,0.021
				c0.034,0.003,0.34,0.042,0.162,0.016c0.551,0.081,1.109-0.137,1.269-0.721c0.133-0.485-0.166-1.188-0.72-1.269
				c-2.069-0.303-4.21,0.013-6.21,0.576c-1.943,0.547-4.034,1.38-5.453,2.87C426.368,333.189,427.825,334.65,428.742,333.686
				L428.742,333.686z"/>
		</g>
		<g>
			<path style="fill:#282726;" d="M432.301,338.293c2.684-2.336,6.004-3.817,9.523-4.311c0.552-0.078,0.854-0.781,0.72-1.269
				c-0.163-0.594-0.715-0.798-1.269-0.72c-3.874,0.544-7.491,2.281-10.433,4.842c-0.42,0.366-0.375,1.084,0,1.459
				C431.26,338.71,431.88,338.66,432.301,338.293L432.301,338.293z"/>
		</g>
		<g>
			<path style="fill:#282726;" d="M438.008,343.046c2.042-2.665,5.246-4.507,8.592-4.851c0.554-0.057,1.031-0.433,1.031-1.031
				c0-0.514-0.474-1.089-1.031-1.032c-4.152,0.427-7.843,2.57-10.374,5.873c-0.339,0.443-0.068,1.155,0.37,1.411
				C437.128,343.727,437.668,343.489,438.008,343.046L438.008,343.046z"/>
		</g>
		<g>
			<path style="fill:#282726;" d="M378.451,339.306c4.587,3.493,9.246,6.896,13.951,10.227c3.682,2.607,7.399,5.175,11.213,7.586
				c3.79,2.396,7.729,4.782,12.182,5.674c2.371,0.475,4.858,0.542,7.218-0.038c1.105-0.272,2.479-0.683,3.309-1.52
				c0.187-0.189-0.104-0.481-0.292-0.292c-0.727,0.733-1.927,1.096-2.891,1.353c-2.092,0.558-4.315,0.58-6.445,0.241
				c-4.537-0.722-8.529-3.054-12.364-5.455c-7.126-4.461-13.95-9.419-20.706-14.416c-1.662-1.229-3.321-2.464-4.966-3.716
				C378.448,338.789,378.243,339.147,378.451,339.306L378.451,339.306z"/>
		</g>
		<g>
			<path style="fill:#282726;" d="M413.613,337.983c4.74,2.292,9.513,4.519,14.306,6.698c3.694,1.679,7.402,3.328,11.152,4.879
				c2.834,1.173,5.736,2.45,8.745,3.108c2.484,0.544,5.18,0.636,7.585-0.301c0.865-0.337,1.813-0.808,2.45-1.508
				c0.178-0.196-0.113-0.489-0.292-0.292c-0.532,0.585-1.309,0.996-2.024,1.302c-2.125,0.911-4.542,0.95-6.792,0.562
				c-3.034-0.523-5.952-1.791-8.786-2.949c-7.123-2.91-14.112-6.158-21.069-9.441c-1.692-0.798-3.383-1.6-5.067-2.414
				C413.583,337.512,413.373,337.867,413.613,337.983L413.613,337.983z"/>
		</g>
		<path style="fill:#282726;" d="M343.471,383.088c8.285,1.981,16.678-3.962,18.754-13.276c2.076-9.314-2.954-18.475-11.232-20.462
			c-8.278-1.988-16.678,3.956-18.754,13.269C330.17,371.939,335.193,381.1,343.471,383.088z M336.705,363.988
			c1.435-6.422,7.221-10.524,12.93-9.154c5.703,1.37,9.169,7.685,7.74,14.107c-1.429,6.422-7.215,10.517-12.923,9.148
			C338.743,376.726,335.276,370.41,336.705,363.988z"/>
		<path style="fill:#282726;" d="M358.034,326.892c0,0-11.778,5.262-13.087,7.977c-1.309,2.716-0.981,17.313-0.981,17.313h8.343
			c0,0-0.654-12.391,0.654-13.239c1.309-0.849,7.689-3.904,7.689-3.904L358.034,326.892z"/>
		<polygon style="fill:#77706B;" points="343.23,347.599 354.026,348.618 348.383,367.203 343.966,366.44 		"/>
		<path style="fill:#C98B61;" d="M297.752,128.641c0,0-16.107,19.678-19.691,35.318c-2.801,12.221,12.475,55.758,12.475,55.758
			l18.749-1.456c0,0-0.9-16.804-2.208-26.988c-1.309-10.184-3.19-20.623-3.19-20.623l17.504-21.981L297.752,128.641z"/>
		<path style="fill:#FFFFFF;" d="M304.869,156.478c9.322,4.414,15.051,6.449,15.051,6.449s-1.518,7.02-1.064,14.599
			c0.077,1.27-0.039,3.862-0.141,5.883c3.281,1.389,7.016,3.012,10.803,4.7c5.011-0.518,17.8,1.279,22.297,0.68
			c10.143-1.363,21.08-3.437,28.936-4.122c7.855-0.678,14.933-2.55,14.767-3.055c-0.16-0.512-2.062-13.409-2.716-18.841
			c-0.66-5.431,0.404-14.949-2.05-24.967c-2.454-10.012-3.928-23.082-7.035-25.289c-3.107-2.207-11.616-4.753-17.011-6.109
			c-5.401-1.356-7.855-3.058-7.855-3.058l-20.772,1.19c0,0-12.11,1.615-19.958,6.03c-7.855,4.408-12.597,7.293-19.632,15.782
			c-7.035,8.489-13.25,17.059-13.25,17.059S295.546,152.063,304.869,156.478z"/>
		<g>
			<path style="fill:#282726;" d="M319.998,161.646c1.02-2.66,1.802-5.426,2.636-8.148c1.079-3.521,2.136-7.05,3.139-10.593
				c0.327-1.156,0.674-2.314,0.931-3.489c0.057-0.259-0.341-0.369-0.398-0.11c-0.577,2.639-1.424,5.237-2.188,7.826
				c-1.054,3.571-2.131,7.136-3.264,10.682c-0.398,1.245-0.786,2.5-1.254,3.721C319.505,161.785,319.904,161.892,319.998,161.646
				L319.998,161.646z"/>
		</g>
		<g>
			<path style="fill:#282726;" d="M322.708,152.89c3.81-1.899,7.702-3.659,11.599-5.371c0.243-0.107,0.033-0.462-0.208-0.356
				c-3.897,1.712-7.79,3.472-11.599,5.371C322.262,152.652,322.471,153.008,322.708,152.89L322.708,152.89z"/>
		</g>
		<g>
			<path style="fill:#282726;" d="M322.209,154.467c3.326,0.14,6.657,0.067,9.974-0.219c0.263-0.023,0.265-0.435,0-0.413
				c-3.317,0.286-6.647,0.359-9.974,0.219C321.943,154.043,321.944,154.456,322.209,154.467L322.209,154.467z"/>
		</g>
		<g>
			<path style="fill:#282726;" d="M333.473,106.803c2.413,4.213,6.625,6.964,11.243,8.237c5.115,1.41,11.176,1.312,15.941-1.188
				c2.564-1.345,4.714-3.464,5.895-6.124c0.107-0.241-0.249-0.451-0.356-0.208c-2.33,5.251-7.936,7.606-13.38,7.931
				c-4.677,0.28-9.528-0.7-13.522-3.215c-2.251-1.418-4.14-3.329-5.464-5.641C333.697,106.364,333.34,106.572,333.473,106.803
				L333.473,106.803z"/>
		</g>
		<path style="fill:#FFFFFF;" d="M382.736,111.837c0,0,5.556,2.154,11.729,6.795c6.173,4.64,15.279,17.235,17.748,21.212
			c2.469,3.977,3.241,5.469,3.241,5.469s-2.778,4.474-9.414,9.28c-6.636,4.806-15.433,6.297-15.433,6.297L382.736,111.837z"/>
		<g>
			<path style="fill:#282726;" d="M393.405,160.666c-0.87-4.147-1.831-8.283-2.933-12.374c-0.698-2.591-1.617-5.11-2.332-7.695
				c-0.78-2.823-1.398-5.692-1.968-8.564c-0.35-1.762-0.684-3.529-0.979-5.301c-0.043-0.261-0.441-0.15-0.398,0.11
				c0.718,4.31,1.572,8.617,2.674,12.845c0.676,2.596,1.605,5.11,2.325,7.693c0.772,2.77,1.451,5.566,2.098,8.367
				c0.386,1.673,0.763,3.348,1.115,5.028C393.061,161.035,393.459,160.926,393.405,160.666L393.405,160.666z"/>
		</g>
		<path style="fill:#282726;" d="M367.416,83.979c0,0,2.626-4.152,0.25-8.823c-2.376-4.671-4.502-7.007-8.504-8.304
			c-4.002-1.298-7.503-0.908-7.503-0.908s2.376-3.633,0-8.434c-2.376-4.801-9.254-4.152-9.254-4.152s-1-4.671-7.378-4.412
			c-6.378,0.259-7.128,5.19-7.128,5.19s-3.627-3.114-7.753,0.519c-4.127,3.633-3.126,6.098-3.126,6.098s-2.876-1.038-6.628,2.595
			c-3.752,3.633-1.876,8.434-1.876,8.434s-2.876,0.519-4.252,3.633c-1.376,3.114-0.75,8.564-4.127,9.731
			c-3.377,1.168-4.752,0.778-4.377,1.557c0.375,0.778,4.502,4.412,10.38,2.725s8.379-6.098,7.878-9.731
			c-0.5-3.633-1.376-5.45-1.376-5.45s6.003,1.557,8.129-1.427c2.126-2.984,1.501-5.19,1.501-5.19s4.502,2.206,6.253,0.259
			c1.751-1.946,1.751-4.541,1.751-4.541s1.125,2.595,4.627,2.984c3.502,0.389,3.627-1.816,3.627-1.816s-0.25,2.854,2.126,3.633
			c2.376,0.779,3.251,0,3.251,0s-3.752,0.908-6.378,4.671c-2.626,3.763-3.376,9.731-1.876,13.494
			c1.501,3.763,3.501,8.693,5.127,10.121C342.405,97.862,367.416,83.979,367.416,83.979z"/>
		<path style="fill:#C98B61;" d="M340.366,107.36c0,0,0.51,2.557,7.689,3.792c7.185,1.235,13.599-1.403,14.862-3.43
			c0,0-0.701-1.177-1.149-2.517c-0.104-0.316-0.197-0.638-0.264-0.954c-0.357-1.686-0.473-7.066-0.473-7.066l-13.873-4.191
			l-5.784-1.75c0,0,0.24,5.269,0,7.962C341.139,101.891,340.366,107.36,340.366,107.36z"/>
		<path style="fill:#C98B61;" d="M340.366,85.064c0,0-1.103-2.944-3.153-2.617c-2.049,0.327-2.68,1.472-2.365,3.762
			c0.315,2.29,2.049,7.688,3.784,8.342c1.734,0.654,4.414,0.327,4.572-0.654C343.362,92.916,340.366,85.064,340.366,85.064z"/>
		<path style="fill:#C98B61;" d="M366.293,79.85c0,0,1.049,5.114,1.656,10.479c0.608,5.365-1.89,8.886-4.929,10.731
			c-3.039,1.844-8.679,2.264-14.301,0.084c-5.622-2.18-7.122-5.868-8.49-10.563c-1.368-4.695-0.075-6.278-0.075-6.278
			s5.188-4.308,8.379-6.488s5.883-5.385,5.883-5.385S362.445,74.568,366.293,79.85z"/>
		<path style="fill:#C98B61;" d="M366.374,82.511c0,0,0.462-1.854,2.615-1.987c2.154-0.132,2.769,1.987,2.615,4.239
			c-0.154,2.252-0.154,4.371-1.231,5.431c-1.077,1.06-2.307,1.59-2.923,1.06C366.835,90.724,366.374,82.511,366.374,82.511z"/>
		<g>
			<path style="fill:#282726;" d="M366.546,81.172c0.639,3.548,1.449,7.058,1.539,10.679c0.007,0.265,0.419,0.266,0.413,0
				c-0.091-3.657-0.909-7.204-1.554-10.788C366.897,80.801,366.499,80.911,366.546,81.172L366.546,81.172z"/>
		</g>
		<g>
			<path style="fill:#282726;" d="M349.297,84.613c1.151,0,1.152-1.788,0-1.788C348.146,82.825,348.145,84.613,349.297,84.613
				L349.297,84.613z"/>
		</g>
		<g>
			<path style="fill:#282726;" d="M359.408,81.989c0,0.029,0,0.058,0,0.087c-0.005,0.123,0.021,0.238,0.077,0.344
				c0.036,0.111,0.098,0.207,0.185,0.288c0.081,0.087,0.177,0.149,0.288,0.185c0.107,0.056,0.221,0.082,0.344,0.077
				c0.079-0.011,0.158-0.021,0.238-0.032c0.151-0.043,0.283-0.119,0.394-0.23c0.047-0.06,0.093-0.121,0.14-0.181
				c0.081-0.139,0.122-0.29,0.122-0.451c0-0.029,0-0.058,0-0.087c0.005-0.123-0.021-0.238-0.077-0.344
				c-0.036-0.111-0.098-0.207-0.185-0.288c-0.081-0.087-0.177-0.149-0.288-0.185c-0.107-0.056-0.221-0.082-0.344-0.077
				c-0.079,0.011-0.158,0.021-0.238,0.032c-0.151,0.043-0.283,0.119-0.395,0.23c-0.047,0.06-0.093,0.121-0.14,0.181
				C359.449,81.677,359.408,81.828,359.408,81.989L359.408,81.989z"/>
		</g>
		<g>
			<path style="fill:#282726;" d="M355.714,83.419c0.137,0.589,0.431,1.138,0.859,1.566c0.221,0.221,0.476,0.398,0.746,0.554
				c0.302,0.175,0.63,0.33,0.878,0.581c0.209,0.212,0.38,0.527,0.324,0.834c-0.057,0.313-0.356,0.49-0.623,0.61
				c-0.648,0.292-1.384,0.33-2.066,0.141c-0.256-0.071-0.366,0.327-0.11,0.398c0.734,0.203,1.52,0.17,2.228-0.116
				c0.629-0.254,1.159-0.749,0.943-1.486c-0.22-0.748-0.927-1.041-1.533-1.418c-0.644-0.401-1.077-1.039-1.249-1.774
				C356.052,83.051,355.654,83.16,355.714,83.419L355.714,83.419z"/>
		</g>
		<g>
			<path style="fill:#282726;" d="M351.952,89.417c1.61,2.073,4.477,2.688,6.781,1.416c0.232-0.128,0.025-0.485-0.208-0.356
				c-2.157,1.191-4.786,0.575-6.281-1.351C352.081,88.916,351.791,89.21,351.952,89.417L351.952,89.417z"/>
		</g>
		<g>
			<path style="fill:#282726;" d="M346.39,80.79c1.359-0.399,2.739-0.72,4.135-0.96c0.261-0.045,0.15-0.443-0.11-0.398
				c-1.396,0.24-2.776,0.561-4.135,0.96C346.026,80.467,346.135,80.865,346.39,80.79L346.39,80.79z"/>
		</g>
		<g>
			<path style="fill:#282726;" d="M357.854,78.731c1.368-0.141,2.75-0.118,4.111,0.081c0.26,0.038,0.372-0.359,0.11-0.398
				c-1.4-0.205-2.813-0.241-4.221-0.096C357.592,78.345,357.59,78.758,357.854,78.731L357.854,78.731z"/>
		</g>
		<g>
			<path style="fill:#282726;" d="M340.778,91.517c-0.566-0.375-1.004-0.926-1.224-1.571c-0.119-0.347-0.187-0.742-0.053-1.094
				c0.156-0.409,0.557-0.644,0.966-0.414c0.148,0.083,0.364-0.057,0.303-0.233c-0.548-1.579-1.702-2.908-3.231-3.601
				c-0.24-0.109-0.45,0.247-0.208,0.356c1.432,0.649,2.527,1.871,3.042,3.354c0.101-0.078,0.202-0.155,0.303-0.233
				c-0.95-0.533-1.725,0.432-1.654,1.343c0.077,0.998,0.734,1.908,1.548,2.449C340.792,92.02,340.999,91.663,340.778,91.517
				L340.778,91.517z"/>
		</g>
		<g>
			<path style="fill:#282726;" d="M368.402,84.378c0.318-1.022,1.041-1.893,1.997-2.376c0.237-0.12,0.028-0.476-0.208-0.356
				c-1.051,0.531-1.839,1.504-2.187,2.623C367.925,84.522,368.323,84.631,368.402,84.378L368.402,84.378z"/>
		</g>
		<path style="fill:#9C61BC;" d="M306.008,71.567c0.007-0.64,0.37-1.249,1.252-1.512c1.403-0.419,3.063,0.443,4.231,1.184
			c1.275,0.809,2.892,1.935,2.637,3.712c-0.122,0.851-1.041,1.301-1.773,1.335c-2.178,0.103-4.819-1.567-6.087-3.342
			C305.969,72.526,305.897,72.023,306.008,71.567z"/>
		<g>
			<path style="fill:#282726;" d="M361.005,101.935c-2.882,1.11-6.41,1.415-9.349,0.417c-2.423-0.823-4.978-2.452-6.414-4.634
				c-0.145-0.221-0.503-0.014-0.356,0.208c1.458,2.216,3.993,3.862,6.44,4.746c3.062,1.106,6.768,0.824,9.789-0.339
				C361.36,102.238,361.254,101.839,361.005,101.935L361.005,101.935z"/>
		</g>
	</g>
	<g>
		<g>
			<path style="fill:#67A8A5;" d="M71.865,251.472c0.575,3.767,1.125,7.538,1.663,11.311c0.233,1.636,0.463,3.272,0.689,4.909
				c0.114,0.829,0.227,1.659,0.339,2.488c0.113,0.833-0.096-0.716-0.015-0.112c0.029,0.215,0.057,0.43,0.086,0.645
				c0.057,0.428,0.113,0.856,0.169,1.284c0.401,3.064,0.788,6.132,1.107,9.206c0.198,1.906,0.41,3.827,0.38,5.746
				c-0.013,0.827,0.144-0.88,0.074-0.456c-0.067,0.406-0.114,0.816-0.166,1.224c-0.043,0.339-0.082,0.678-0.121,1.018
				c-0.342,3.028-0.636,6.063-0.937,9.095c-0.506,5.089-1.001,10.179-1.492,15.27c-0.605,6.266-1.205,12.532-1.803,18.798
				c-0.623,6.539-1.244,13.078-1.863,19.617c-0.568,6-1.135,12-1.7,18c-0.429,4.557-0.858,9.115-1.286,13.672
				c-0.21,2.234-0.474,4.471-0.63,6.71c-0.007,0.1-0.019,0.199-0.028,0.298c-0.174,1.853,1.756,3.628,3.548,3.548
				c2.07-0.093,3.362-1.563,3.548-3.548c0.146-1.555,0.291-3.11,0.437-4.664c0.383-4.081,0.767-8.163,1.151-12.244
				c0.54-5.734,1.081-11.468,1.623-17.201c0.616-6.512,1.233-13.024,1.853-19.536c0.611-6.416,1.223-12.832,1.841-19.247
				c0.524-5.446,1.051-10.891,1.587-16.336c0.355-3.602,0.708-7.203,1.092-10.802c0.089-0.836,0.223-1.675,0.285-2.512
				c-0.01,0.135-0.176,1.281-0.087,0.667c0.073-0.503,0.158-1.005,0.175-1.514c0.026-0.783-0.034-1.573-0.091-2.353
				c-0.453-6.268-1.39-12.517-2.248-18.738c-0.703-5.101-1.443-10.197-2.212-15.288c-0.042-0.28-0.085-0.56-0.127-0.84
				c-0.281-1.84-2.689-3.02-4.364-2.478C72.338,247.756,71.563,249.499,71.865,251.472L71.865,251.472z"/>
		</g>
		<g>
			<path style="fill:#67A8A5;" d="M222.348,255.865c-1.422,4.023-2.789,8.067-4.12,12.12c-1.1,3.349-2.173,6.709-3.172,10.09
				c-0.779,2.637-1.568,5.297-2.068,8.004c-0.453,2.451-0.178,4.843,0.098,7.302c0.484,4.316,1.116,8.616,1.768,12.91
				c0.825,5.437,1.71,10.865,2.618,16.29c1.02,6.102,2.072,12.198,3.141,18.291c1.07,6.102,2.158,12.202,3.258,18.299
				c0.981,5.439,1.972,10.876,2.971,16.311c0.741,4.032,1.487,8.063,2.238,12.093c0.366,1.963,0.685,3.943,1.103,5.896
				c0.019,0.087,0.033,0.176,0.05,0.264c0.345,1.828,2.645,3.034,4.364,2.478c1.953-0.632,2.847-2.406,2.478-4.364
				c-0.254-1.347-0.506-2.695-0.758-4.043c-0.665-3.561-1.326-7.123-1.984-10.686c-0.946-5.125-1.884-10.25-2.814-15.378
				c-1.081-5.957-2.15-11.915-3.205-17.876c-1.09-6.161-2.164-12.325-3.212-18.493c-0.955-5.624-1.89-11.251-2.775-16.887
				c-0.381-2.422-0.752-4.846-1.106-7.272c-0.158-1.082-0.313-2.165-0.462-3.249c-0.032-0.235-0.064-0.47-0.096-0.704
				c-0.125-0.918,0.117,0.889,0.012,0.088c-0.062-0.471-0.124-0.943-0.184-1.414c-0.321-2.521-0.744-5.123-0.681-7.673
				c0.004-0.148,0.022-0.298,0.023-0.446c0.003-0.54-0.181,1.101-0.094,0.693c0.05-0.237,0.081-0.478,0.126-0.716
				c0.229-1.199,0.526-2.385,0.836-3.564c0.837-3.185,1.805-6.336,2.797-9.476c1.703-5.389,3.508-10.747,5.372-16.083
				c0.107-0.306,0.214-0.612,0.322-0.918c0.619-1.752-0.701-3.959-2.478-4.364C224.726,252.935,223.011,253.989,222.348,255.865
				L222.348,255.865z"/>
		</g>
		<path style="fill:#F9BA6E;" d="M179.513,237.529c0,0,1.802-2.374,3.004-8.014c1.201-5.639-0.3-20.776-0.3-20.776l-9.011-1.187
			L179.513,237.529z"/>
		<path style="fill:#F9BA6E;" d="M113.432,219.128l-0.601,17.808l66.982-2.078l-10.213-50.16l-23.128-4.452
			c0,0-7.206,0.13-12.914,1.104c-5.709,0.974-15.02,15.518-18.024,19.673C112.531,205.178,113.432,219.128,113.432,219.128z"/>
		<path style="fill:#754D32;" d="M103.595,329.004c0,0-0.865,28.109-1.442,44.072c-0.577,15.963-0.577,34.388-0.577,34.388
			l21.048,0.994c0,0,9.515-50.998,11.245-62.103c1.73-11.105,2.018-16.657,2.018-16.657L103.595,329.004z"/>
		<path style="fill:#754D32;" d="M150.303,334.644c0,0,3.172,64.826,3.748,75.346l21.57-0.323c0,0,4.956-59.497,5.532-72.805
			c0.577-13.308,0.577-13.308,0.577-13.308l-32.292,1.584L150.303,334.644z"/>
		<path style="fill:#256FBF;" d="M89.066,380.003c0.697-17.175,4.359-50.833,4.359-50.833c1.261-13.369,3.374-20.587,5.151-34.659
			c2.535-20.102,14.592-58.507,14.592-58.507l11.904-1.18l54.291-5.01c0,0,0.901,7.361,0.901,8.747c0,0.79,0.39,14.123,1.802,26.413
			c1.064,9.255,2.703,24.205,2.703,29.564c0,12.473,2.853,27.041,2.853,37.109c0,15.808-0.288,51.989-1.441,63.212l-37.751,0.66
			c0,0-2.838-58.887-3.004-62.452c-0.135-5.715-1.66-28.127-1.66-28.127s-4.324,22.002-4.979,27.824
			c-1.286,9.865-8.084,64.495-8.084,64.495l-42.502-2.029C88.201,395.228,88.49,394.197,89.066,380.003z"/>
		<path style="fill:#77706B;" d="M80.525,279.37c0,0,33.733-1.715,35.535-0.865c1.802,0.85,2.929,4.462,1.352,5.949
			c-1.577,1.487-36.955,2.66-36.955,2.66s-1.019-0.543-1.359-3.736C78.795,280.52,80.525,279.37,80.525,279.37z"/>
		<path style="fill:#77706B;" d="M189.75,239.031c-0.901,0-2.403,0.85-2.403,0.85l-0.3,15.865h3.604L189.75,239.031z"/>
		<path style="fill:#754D32;" d="M190.626,271.682c0.225-0.637-2.929,3.187-3.83,7.862c-0.901,4.674,0.451,9.349,3.379,9.774
			c2.929,0.425,2.253-3.612,2.929-6.162c0.676-2.55,2.478-5.099,2.478-5.099L190.626,271.682z"/>
		<path style="fill:#77706B;" d="M215.632,283.793c0,0-33.341-3.4-34.692-2.762c-1.352,0.638-2.929,4.25,0.451,6.799l34.016,2.975
			c0,0,1.37-0.093,1.894-3.373C217.663,285.167,215.632,283.793,215.632,283.793z"/>
		<path style="fill:#754D32;" d="M191.752,281.456c0,0,2.253,2.975,2.253,5.099c0,2.125,0.451,4.037-0.225,5.099
			c-0.676,1.062-1.352,3.4,0.45,4.037c1.802,0.637,2.703,0.212,2.703,0.212s1.126,1.275,3.154,1.275c2.027,0,2.027,0,2.027,0
			s1.352,1.062,2.929,0.85s2.253-0.85,2.253-0.85s0.225,0.85,2.478-1.487c2.253-2.337,2.478-8.287,1.802-11.474
			c-0.676-3.187-4.731-7.437-4.731-9.561c0-2.125,0.451-3.825,0.451-3.825l-15.544-2.762l-1.577,5.737
			C190.176,273.806,186.796,277.418,191.752,281.456z"/>
		<g>
			<path style="fill:#282726;" d="M197.08,296.05c3.66-3.771,3.584-9.562,1.855-14.224c-0.092-0.247-0.491-0.14-0.398,0.11
				c1.675,4.518,1.807,10.158-1.749,13.823C196.603,295.948,196.894,296.241,197.08,296.05L197.08,296.05z"/>
		</g>
		<g>
			<path style="fill:#282726;" d="M202.261,297.324c1.575-1.954,2.871-4.407,3.333-6.881c0.502-2.69,0.037-5.734-1.048-8.242
				c-0.105-0.243-0.461-0.033-0.356,0.208c1.05,2.43,1.513,5.509,0.964,8.139c-0.486,2.323-1.695,4.637-3.184,6.485
				C201.804,297.238,202.094,297.531,202.261,297.324L202.261,297.324z"/>
		</g>
		<g>
			<path style="fill:#282726;" d="M207.475,297.283c1.334-2.005,2.333-4.493,2.498-6.901c0.113-1.648-0.162-3.401-0.542-5.004
				c-0.152-0.641-0.325-1.301-0.604-1.901c-0.112-0.241-0.468-0.031-0.356,0.208c0.253,0.544,0.405,1.15,0.545,1.73
				c0.385,1.594,0.658,3.326,0.545,4.967c-0.161,2.338-1.148,4.748-2.442,6.693C206.971,297.296,207.328,297.503,207.475,297.283
				L207.475,297.283z"/>
		</g>
		<path style="fill:#F9BA6E;" d="M162.466,188.417l15.094,35.054c0,0,2.853,3.9,4.659,5.812c1.8,1.912,8.059,8.155,7.206,17.28
			c-1.353,14.449-1.8,28.614-1.8,28.614s6.477-0.736,11.563-0.009c4.731,0.676,10.363,3.83,10.363,3.83s6.309-10.481,8.109-18.34
			c1.806-7.864,1.353-16.577-0.9-25.29c-2.253-8.707-13.064-33.566-29.511-43.552c-5.376-3.266-9.623-5.307-12.9-6.574
			c-3.259-1.256-5.559-1.744-7.07-1.918c-1.623-0.192-2.335-0.012-2.335-0.012L162.466,188.417z"/>
		<path style="fill:#77706B;" d="M197.062,239.118l-2.231,16.365c0,0,8.675,0,13.88,0.701c5.205,0.701,14.872,3.741,14.872,3.741
			l1.735-16.832C225.318,243.093,210.199,238.183,197.062,239.118z"/>
		<path style="fill:#77706B;" d="M224.417,245.13c0,0,6.984,1.185,8.11,2.37c1.126,1.185,0,10.667-2.027,11.141
			c-2.027,0.474-7.209-1.422-7.209-1.422L224.417,245.13z"/>
		<polygon style="fill:#256FBF;" points="176.888,202.33 133.6,200.338 125.071,234.317 179.513,234.845 		"/>
		<path style="fill:#282726;" d="M230.425,414.879l0.3-23.231l7.809-0.85l5.707,22.664l0.901,9.915c0,0,7.509,2.55,9.912,5.949
			c2.403,3.4,2.403,5.383,2.403,5.383s-35.443,1.417-36.344,0.567c-0.901-0.85,3.304-7.932,5.407-9.632
			c2.103-1.7,4.806-2.55,4.806-2.55L230.425,414.879z"/>
		<g>
			<path style="fill:#282726;" d="M141.897,206.93c-0.361,3.758-0.723,7.517-1.084,11.275c-0.051,0.531-0.102,1.062-0.153,1.593
				c-0.007,0.068,0.043,0.146,0.102,0.178c4.26,2.289,8.52,4.579,12.78,6.868c0.444,0.239,1.02,0.705,1.517,0.815
				c0.413,0.092,1.06-0.293,1.443-0.426c2.706-0.943,5.411-1.886,8.117-2.83c2.144-0.747,4.287-1.495,6.431-2.242
				c0.088-0.031,0.15-0.104,0.151-0.199c0.081-3.993,0.161-7.986,0.242-11.979c0.011-0.565,0.023-1.13,0.034-1.694
				c0.002-0.115-0.097-0.201-0.206-0.206c-3.287-0.153-6.574-0.306-9.861-0.46c-5.236-0.244-10.473-0.488-15.71-0.732
				c-1.199-0.056-2.398-0.112-3.597-0.168c-0.266-0.012-0.265,0.4,0,0.413c3.287,0.153,6.574,0.306,9.86,0.46
				c5.237,0.244,10.473,0.488,15.71,0.732c1.199,0.056,2.398,0.112,3.597,0.168c-0.069-0.069-0.138-0.137-0.206-0.206
				c-0.081,3.993-0.161,7.986-0.242,11.979c-0.011,0.565-0.023,1.129-0.034,1.694c0.051-0.066,0.101-0.133,0.152-0.199
				c-2.919,1.018-5.838,2.035-8.757,3.053c-1.826,0.636-3.651,1.273-5.476,1.909c-0.455,0.159-0.969,0.276-1.402,0.489
				c-0.157,0.077-0.272,0.012-0.038,0.088c-0.07-0.023-0.155-0.077-0.216-0.116c-1.191-0.765-2.532-1.361-3.778-2.03
				c-1.917-1.03-3.833-2.06-5.75-3.09c-1.381-0.742-2.762-1.484-4.143-2.227c-0.072-0.039-0.264-0.189-0.344-0.185
				c-0.106,0.006-0.037,0.164,0.046,0.051c0.07-0.095,0.041-0.43,0.053-0.546c0.031-0.318,0.061-0.636,0.092-0.955
				c0.361-3.758,0.723-7.517,1.084-11.275C142.335,206.665,141.923,206.667,141.897,206.93z"/>
		</g>
		<path style="fill:#256FBF;" d="M167.277,183.325l3.971,23.395l6.012,0.07c0,0-0.365-6.045-1-10.183
			c-0.706-4.615-1.482-9.003-1.912-11.363C171.089,183.988,168.789,183.5,167.277,183.325z"/>
		<path style="fill:#282726;" d="M140.84,175.424c0,0-3.717-0.223-4.956-1.781c-1.239-1.558-1.126-5.009-1.126-5.009
			s-1.352-0.445-2.027-2.894c-0.676-2.449,1.239-6.344,1.239-6.344s-2.816-2.449-1.802-6.121c1.014-3.673,5.407-3.673,5.407-3.673
			s0.113-3.45,2.365-4.897s3.041-1.224,3.041-1.224s-0.788-1.892,4.28-4.118c5.069-2.226,8.673,0.223,8.673,0.223
			s4.28-2.003,9.799-0.334c5.519,1.67,5.97,5.342,5.97,5.342s4.505,1.002,6.42,4.118c1.915,3.117,1.126,5.788,1.126,5.788
			s1.69,2.337,1.239,4.786c-0.451,2.449-1.69,3.784-1.69,3.784s2.365,1.447,1.352,4.563c-1.014,3.116-7.659,5.231-11.038,5.676
			C165.733,173.754,140.84,175.424,140.84,175.424z"/>
		<path style="fill:#754D32;" d="M145.638,181.968c-0.416,1.93,0.432,3.913,2.121,4.935c2.349,1.422,5.794,3.223,8.776,3.657
			c5.112,0.738,7.358-0.149,7.358-0.149l0.423-1.616l2.482-9.463l0.4-1.535l-18.776-8.753L145.638,181.968z"/>
		<path style="fill:#754D32;" d="M174.599,158.923c0,0,1.964,7.088,1.091,13.282c-0.873,6.193-3.855,10.322-11.493,11.148
			c-7.638,0.826-12.875-3.716-14.62-6.606s-2.691-11.423-2.473-15.346c0.218-3.923,5.019-9.91,13.311-10.529
			C168.707,150.252,173.29,153.142,174.599,158.923z"/>
		<path style="fill:#754D32;" d="M173.806,164.788c0,0,2.253-2.226,4.956-1.781c2.703,0.445,3.755,3.859,1.502,6.827
			c-2.253,2.968-6.157,2.968-6.157,2.968L173.806,164.788z"/>
		<g>
			<path style="fill:#282726;" d="M174.951,163.452c0.286,2.455,0.562,4.918,0.717,7.385c0.035,0.549,0.09,1.118,0.033,1.668
				c-0.027,0.264,0.386,0.262,0.413,0c0.121-1.178-0.081-2.436-0.185-3.608c-0.133-1.49-0.289-2.979-0.455-4.466
				c-0.036-0.326-0.073-0.652-0.111-0.978C175.333,163.192,174.92,163.189,174.951,163.452L174.951,163.452z"/>
		</g>
		<g>
			<path style="fill:#282726;" d="M175.974,166.562c0.025-0.034-0.031,0.039-0.012,0.016c0.014-0.018,0.028-0.035,0.042-0.053
				c0.053-0.066,0.109-0.129,0.167-0.192c0.183-0.2,0.38-0.386,0.59-0.557c0.59-0.482,1.308-0.84,2.077-0.893
				c0.263-0.018,0.265-0.431,0-0.413c-1.264,0.087-2.471,0.878-3.219,1.883C175.459,166.567,175.817,166.773,175.974,166.562
				L175.974,166.562z"/>
		</g>
		<g>
			<path style="fill:#282726;" d="M157.001,167.67c-1.324,0.147-1.617-2.407-0.291-2.555
				C158.033,164.968,158.326,167.522,157.001,167.67L157.001,167.67z"/>
		</g>
		<g>
			<path style="fill:#282726;" d="M168.44,166.132c-1.324,0.147-1.617-2.407-0.291-2.555
				C169.473,163.43,169.766,165.984,168.44,166.132L168.44,166.132z"/>
		</g>
		<g>
			<path style="fill:#282726;" d="M162.523,162.489c0.145,0.437,0.313,0.87,0.513,1.284c0.245,0.504,0.602,0.837,1,1.22
				c0.28,0.27,0.942,0.826,0.753,1.286c-0.174,0.421-0.876,0.547-1.262,0.613c-0.619,0.106-1.32,0.118-1.917-0.099
				c-0.25-0.091-0.358,0.308-0.11,0.398c0.581,0.212,1.251,0.213,1.857,0.139c0.549-0.066,1.215-0.197,1.619-0.61
				c0.954-0.975-0.857-2.041-1.333-2.712c-0.338-0.476-0.539-1.079-0.722-1.63C162.838,162.128,162.44,162.236,162.523,162.489
				L162.523,162.489z"/>
		</g>
		<g>
			<path style="fill:#282726;" d="M154.589,163.672c0.145-0.078,0.292-0.152,0.441-0.221c0.184-0.085,0.168-0.077,0.356-0.148
				c0.319-0.12,0.647-0.219,0.979-0.297c0.161-0.038,0.322-0.07,0.485-0.097c0.025-0.004,0.251-0.038,0.132-0.022
				c0.082-0.011,0.164-0.019,0.246-0.027c0.34-0.032,0.682-0.041,1.024-0.029c0.36,0.012,0.704-0.325,0.688-0.688
				c-0.017-0.383-0.302-0.675-0.688-0.688c-1.515-0.051-3.023,0.313-4.356,1.03c-0.317,0.17-0.443,0.636-0.247,0.941
				C153.856,163.747,154.25,163.854,154.589,163.672L154.589,163.672z"/>
		</g>
		<g>
			<path style="fill:#282726;" d="M166.466,161.99c0.233-0.056,0.467-0.104,0.704-0.141c0.054-0.009,0.109-0.019,0.164-0.025
				c-0.18,0.018,0.027-0.002,0.064-0.006c0.119-0.013,0.238-0.024,0.358-0.032c0.478-0.033,0.958-0.027,1.435,0.016
				c0.359,0.032,0.703-0.339,0.688-0.688c-0.018-0.4-0.303-0.653-0.688-0.688c-1.034-0.092-2.082-0.004-3.09,0.238
				c-0.35,0.084-0.592,0.501-0.48,0.846C165.737,161.874,166.091,162.081,166.466,161.99L166.466,161.99z"/>
		</g>
		<g>
			<path style="fill:#282726;" d="M158.984,169.146c0.8,0.547,1.818,0.855,2.768,0.98c2.205,0.29,4.239-0.619,5.817-2.126
				c0.193-0.184-0.1-0.475-0.292-0.292c-1.53,1.46-3.516,2.331-5.649,1.986c-0.84-0.136-1.727-0.42-2.436-0.905
				C158.972,168.64,158.765,168.997,158.984,169.146L158.984,169.146z"/>
		</g>
		<path style="fill:#282726;" d="M146.51,166.557l1.802,1.781c0,0,1.051-1.707,0.713-3.599c-0.338-1.892,0.3-2.745,2.103-4.415
			c1.802-1.669,2.891-3.858,4.581-4.637c1.69-0.779,5.144,0.148,8.861-0.297c3.717-0.445,5.256,0.705,6.158,1.707
			c0.901,1.002,1.915,3.228,2.929,5.009c1.014,1.781,2.14,3.896,2.14,3.896s0.676-2.449,0.113-5.12
			c-0.563-2.671-2.703-8.57-9.349-9.794s-14.755,0.223-17.459,3.673C146.397,158.209,143.919,163.218,146.51,166.557z"/>
		<path style="fill:#F9BA6E;" d="M133.558,181.35c0,0-8.112,1.187-18.925,6.569c-10.813,5.383-28.234,28.33-31.238,35.413
			c-3.004,7.083-4.205,15.298-4.205,20.398s5.031,31.659,6.908,33.429c1.877,1.771,21.927-3.116,22.227-4.816s0-35.413,0.3-36.829
			c0.3-1.417,17.421-23.797,18.322-25.78C127.85,207.75,133.558,181.35,133.558,181.35z"/>
		<path style="fill:#754D32;" d="M148.875,167.113c0,0-1.427-3.042-4.731-3.191c-3.304-0.148-4.055,4.155-2.403,7.272
			c1.652,3.116,4.731,3.388,6.983,2.498L148.875,167.113z"/>
		<g>
			<path style="fill:#282726;" d="M147.241,171.824c-0.757-0.179-1.566-0.583-2.06-1.193c-1.031-1.276,0.235-2.825,1.667-2.854
				c0.176-0.003,0.276-0.225,0.146-0.352c-1.045-1.025-2.654-1.517-4.088-1.396c-0.263,0.022-0.265,0.435,0,0.413
				c1.329-0.112,2.825,0.322,3.796,1.275c0.049-0.117,0.097-0.235,0.146-0.352c-1.559,0.031-3.077,1.626-2.226,3.172
				c0.488,0.886,1.549,1.458,2.509,1.685C147.389,172.283,147.499,171.885,147.241,171.824L147.241,171.824z"/>
		</g>
		<path style="fill:#77706B;" d="M79.341,240.471c0,0-8.786,0.425-9.912,1.7c-1.126,1.275-0.225,9.349,1.126,9.986
			c1.352,0.637,6.082-0.637,9.236-0.637L79.341,240.471z"/>
		<path style="fill:#77706B;" d="M78.214,238.955l1.802,13.628c0,0,6.984-1.752,11.264-2.336c4.28-0.584,12.165-0.779,13.967-0.389
			c1.802,0.389,4.731,0.389,4.731,0.389s1.577-14.407-0.225-14.991c-1.802-0.584-11.038-2.726-20.049-1.168
			C80.692,235.645,77.989,238.176,78.214,238.955z"/>
		<path style="fill:#282726;" d="M65.223,391.479l9.011,0.85l1.201,18.131l-1.201,11.332c0,0,6.007,1.983,9.912,6.516
			c3.905,4.533,3.304,7.932,3.304,7.932l-38.447-1.7c0,0,2.703-6.799,5.106-8.782c2.403-1.983,6.608-3.4,6.608-3.4l0.601-11.615
			L65.223,391.479z"/>
		<g>
			<path style="fill:#282726;" d="M125.597,235.324c1.741,0.037,3.482,0.074,5.224,0.11c4.182,0.088,8.365,0.176,12.547,0.265
				c5.061,0.107,10.122,0.214,15.183,0.32c4.377,0.092,8.755,0.185,13.132,0.277c1.444,0.031,2.889,0.061,4.333,0.091
				c0.651,0.014,1.416,0.143,2.063,0.043c0.029-0.004,0.063,0.001,0.092,0.002c0.266,0.006,0.266-0.407,0-0.413
				c-1.741-0.037-3.482-0.074-5.224-0.11c-4.182-0.088-8.364-0.176-12.547-0.265c-5.061-0.107-10.122-0.214-15.183-0.32
				c-4.378-0.092-8.755-0.185-13.132-0.277c-1.444-0.031-2.889-0.061-4.333-0.092c-0.651-0.014-1.416-0.143-2.063-0.044
				c-0.029,0.005-0.063-0.001-0.092-0.002C125.331,234.906,125.331,235.318,125.597,235.324L125.597,235.324z"/>
		</g>
		<g>
			<path style="fill:#282726;" d="M113.614,240.51c1.949,0.081,3.898,0.159,5.847,0.235c4.774,0.188,9.548,0.368,14.322,0.539
				c5.989,0.215,11.979,0.416,17.969,0.593c5.595,0.165,11.191,0.314,16.787,0.395c3.576,0.052,7.179,0.156,10.753-0.051
				c0.23-0.013,0.46-0.029,0.69-0.05c0.262-0.024,0.265-0.437,0-0.413c-3.217,0.293-6.499,0.16-9.724,0.124
				c-5.44-0.062-10.879-0.201-16.317-0.355c-6.028-0.171-12.056-0.37-18.083-0.582c-5.007-0.177-10.014-0.364-15.02-0.559
				c-1.608-0.063-3.215-0.127-4.823-0.191c-0.73-0.029-1.572-0.185-2.299-0.094c-0.032,0.004-0.07-0.003-0.103-0.004
				C113.348,240.087,113.349,240.499,113.614,240.51L113.614,240.51z"/>
		</g>
		<g>
			<path style="fill:#282726;" d="M130.209,241.476c-0.985,2.077-2.596,3.945-4.246,5.512c-3.205,3.046-7.368,5.217-11.452,6.848
				c-0.78,0.312-1.574,0.62-2.386,0.84c-0.256,0.07-0.147,0.468,0.11,0.398c2.499-0.679,4.917-1.878,7.187-3.094
				c3.817-2.045,7.252-4.543,9.791-8.097c0.497-0.695,0.986-1.424,1.354-2.199C130.679,241.446,130.323,241.236,130.209,241.476
				L130.209,241.476z"/>
		</g>
		<g>
			<path style="fill:#282726;" d="M165.751,242.298c0.883,2.245,2.274,4.352,3.761,6.234c2.684,3.399,6.213,6.218,9.913,8.447
				c0.736,0.444,1.49,0.885,2.279,1.231c0.241,0.105,0.451-0.25,0.208-0.356c-2.146-0.94-4.146-2.358-5.995-3.772
				c-3.463-2.649-6.453-5.747-8.608-9.558c-0.426-0.753-0.844-1.528-1.161-2.335C166.053,241.944,165.654,242.05,165.751,242.298
				L165.751,242.298z"/>
		</g>
		<g>
			<path style="fill:#282726;" d="M156.869,241.738c-0.053,3.018-0.144,6.037-0.272,9.053c-0.092,2.175-0.197,4.352-0.39,6.521
				c-0.069,0.774-0.141,1.552-0.277,2.317c-0.104,0.584-0.219,1.079-0.742,1.435c-0.993,0.676-2.439,0.728-3.596,0.755
				c-0.716,0.017-1.438,0.001-2.152-0.068c-0.264-0.026-0.262,0.387,0,0.413c1.669,0.163,3.566,0.194,5.164-0.368
				c0.69-0.243,1.326-0.635,1.566-1.358c0.185-0.559,0.239-1.176,0.309-1.757c0.527-4.36,0.591-8.796,0.714-13.182
				c0.035-1.254,0.067-2.507,0.089-3.761C157.287,241.473,156.874,241.473,156.869,241.738L156.869,241.738z"/>
		</g>
		<path style="fill:#754D32;" d="M88.126,275.955c0,0,2.028-2.975,8.56-4.674c6.533-1.7,9.912,0,13.066,2.337
			c3.154,2.337,5.407,6.799,5.857,10.199c0.451,3.4,0.451,5.099-1.577,5.737c-2.027,0.638-3.604-1.487-3.604-1.487
			s0.225,1.487-2.253,2.125c-2.478,0.637-3.379-1.7-3.379-1.7s0.225,1.7-2.478,1.912c-2.703,0.212-3.154-3.187-3.154-3.187
			s0,2.125-2.703,1.912s-2.253-3.825-2.703-5.099C93.308,282.754,87,279.354,88.126,275.955z"/>
		<g>
			<path style="fill:#282726;" d="M110.627,288.121c0.658-2.531,0.18-5.437-0.964-7.745c-0.912-1.839-2.328-3.695-4.087-4.812
				c-0.225-0.143-0.432,0.214-0.208,0.356c1.644,1.044,2.968,2.776,3.846,4.48c1.159,2.252,1.663,5.117,1.015,7.611
				C110.163,288.268,110.56,288.378,110.627,288.121L110.627,288.121z"/>
		</g>
		<g>
			<path style="fill:#282726;" d="M105.003,288.491c0.293-2.259,0.17-4.803-0.632-6.945c-0.657-1.754-1.835-3.446-3.258-4.675
				c-0.2-0.173-0.493,0.118-0.292,0.292c1.412,1.219,2.596,2.906,3.213,4.662c0.728,2.074,0.839,4.49,0.556,6.665
				C104.556,288.753,104.969,288.751,105.003,288.491L105.003,288.491z"/>
		</g>
		<g>
			<path style="fill:#282726;" d="M99.371,287.216c-0.147-1.898-0.509-3.822-1.083-5.635c-0.303-0.958-0.65-1.947-1.18-2.807
				c-0.142-0.23-0.309-0.508-0.542-0.66c-0.223-0.145-0.43,0.212-0.208,0.356c-0.049-0.032,0.069,0.065,0.103,0.105
				c0.132,0.154,0.242,0.323,0.345,0.497c0.534,0.905,0.883,1.93,1.181,2.932c0.501,1.686,0.837,3.456,0.972,5.212
				C98.979,287.479,99.391,287.481,99.371,287.216L99.371,287.216z"/>
		</g>
		<polygon style="fill:#256FBF;" points="134.76,181.053 133.483,201.822 140.29,202.276 140.29,180.469 		"/>
		<g>
			<path style="fill:#282726;" d="M150.321,241.647c-0.445,6.366-0.937,12.73-1.445,19.091c-0.48,6.005-0.928,12.016-1.647,17.998
				c-0.617,5.137-1.384,10.257-2.274,15.353c-0.428,2.451-0.871,4.901-1.388,7.335c-0.055,0.259,0.343,0.37,0.398,0.11
				c1.421-6.7,2.481-13.494,3.362-20.284c1.414-10.896,2.097-21.895,2.914-32.849c0.168-2.251,0.334-4.503,0.492-6.755
				C150.752,241.382,150.339,241.383,150.321,241.647L150.321,241.647z"/>
		</g>
		<g>
			<path style="fill:#282726;" d="M113.052,229.809c3.611-4.661,7.222-9.323,10.833-13.984c0.519-0.67,1.038-1.34,1.557-2.01
				c0.161-0.207-0.129-0.501-0.292-0.292c-3.611,4.661-7.222,9.323-10.833,13.984c-0.519,0.67-1.038,1.34-1.557,2.01
				C112.6,229.725,112.89,230.019,113.052,229.809L113.052,229.809z"/>
		</g>
		<g>
			<path style="fill:#282726;" d="M142.218,181.625c-0.196,1.212,0.063,2.554,0.482,3.687c1.042,2.815,3.409,4.818,6.051,6.101
				c2.892,1.405,6.12,2.134,9.319,2.336c2.289,0.145,5.153,0.185,7.212-1.008c2.054-1.191,2.439-4.274,1.889-6.384
				c-0.067-0.257-0.465-0.148-0.398,0.11c0.491,1.885,0.208,4.708-1.573,5.843c-1.808,1.153-4.428,1.138-6.485,1.06
				c-2.971-0.112-5.974-0.708-8.725-1.849c-2.753-1.142-5.374-2.959-6.651-5.739c-0.549-1.196-0.923-2.807-0.722-4.046
				C142.658,181.475,142.261,181.363,142.218,181.625L142.218,181.625z"/>
		</g>
		<g>
			<path style="fill:#282726;" d="M182.417,229.339c1.407-6.192,2.254-12.699,2.108-19.049c-0.006-0.265-0.419-0.266-0.413,0
				c0.146,6.317-0.694,12.779-2.093,18.939C181.96,229.487,182.358,229.598,182.417,229.339L182.417,229.339z"/>
		</g>
		<path style="fill:#FFFFFF;" d="M101,412.692l0.577-5.142l14.486,0.625c0.261-0.465,0.579-0.893,0.973-1.231
			c1.952-1.67,5.707-1.67,6.308,0.334c0.601,2.004-1.051,5.345-1.051,5.345l-0.3-0.007c0.512,0.484,1.966,1.787,5.245,4.31
			c4.325,3.327,21.336,15.122,14.704,19.054c-6.631,3.932-39.788-9.678-40.653-10.585C100.424,424.487,101,412.692,101,412.692z"/>
		<path style="fill:#FFFFFF;" d="M170.508,409.744c0.079-0.562,0.235-1.056,0.504-1.413c1.386-1.837,4.076-1.63,5.378,0.416
			c1.169,1.835,0.975,5.719,0.923,6.499c2.016,1.114,23.475,13.134,21.419,18.987c-2.157,6.141-42.832-7.758-43.448-9.051
			c-0.616-1.293-1.233-15.192-1.233-15.192L170.508,409.744z"/>
		<g>
			<path style="fill:#282726;" d="M172.853,418.153c0.09-0.077,0.181-0.151,0.272-0.226c0.092-0.073,0.092-0.073,0-0.002
				c0.047-0.035,0.094-0.07,0.141-0.105c0.188-0.138,0.382-0.269,0.58-0.394c0.38-0.239,0.776-0.451,1.185-0.635
				c0.039-0.018,0.079-0.035,0.118-0.052c-0.114,0.048-0.117,0.049-0.008,0.004c0.107-0.041,0.213-0.084,0.321-0.123
				c0.215-0.077,0.433-0.147,0.653-0.209c0.219-0.061,0.441-0.115,0.664-0.16c0.111-0.022,0.223-0.043,0.335-0.061
				c0.056-0.009,0.112-0.018,0.168-0.026c-0.134,0.018-0.141,0.019-0.021,0.004c0.534-0.063,1.058-0.429,1.031-1.031
				c-0.023-0.504-0.458-1.099-1.031-1.031c-2.196,0.26-4.186,1.151-5.867,2.587c-0.412,0.352-0.389,1.102,0,1.459
				C171.832,418.555,172.414,418.528,172.853,418.153L172.853,418.153z"/>
		</g>
		<g>
			<path style="fill:#282726;" d="M177.047,422.658c0.202-0.211,0.411-0.415,0.628-0.61c0.114-0.103,0.231-0.203,0.349-0.301
				c0.053-0.043,0.105-0.086,0.159-0.128c-0.085,0.068-0.009,0.006,0.033-0.026c0.472-0.353,0.97-0.669,1.493-0.941
				c0.118-0.062,0.238-0.121,0.358-0.178c0.06-0.029,0.121-0.056,0.181-0.084c0.055-0.025,0.208-0.09,0.074-0.034
				c0.26-0.107,0.525-0.203,0.793-0.288c0.549-0.174,1.111-0.298,1.682-0.377c0.536-0.074,0.876-0.787,0.721-1.269
				c-0.191-0.589-0.694-0.8-1.269-0.72c-2.536,0.349-4.897,1.661-6.66,3.498c-0.374,0.39-0.416,1.077,0,1.459
				C175.993,423.029,176.648,423.074,177.047,422.658L177.047,422.658z"/>
		</g>
		<g>
			<path style="fill:#282726;" d="M182.853,425.953c0.195-0.189,0.395-0.373,0.602-0.548c0.097-0.082,0.197-0.161,0.295-0.242
				c0.126-0.103-0.115,0.082,0.017-0.013c0.051-0.037,0.101-0.076,0.153-0.113c0.432-0.313,0.886-0.596,1.359-0.844
				c0.221-0.116,0.447-0.217,0.672-0.324c0.146-0.069-0.139,0.054,0.01-0.005c0.058-0.023,0.115-0.046,0.172-0.069
				c0.13-0.05,0.26-0.098,0.391-0.144c0.494-0.17,1.001-0.301,1.515-0.396c0.532-0.099,0.882-0.77,0.72-1.269
				c-0.184-0.569-0.699-0.826-1.269-0.721c-2.301,0.426-4.424,1.605-6.097,3.227c-0.388,0.376-0.406,1.086,0,1.459
				C181.812,426.336,182.439,426.355,182.853,425.953L182.853,425.953z"/>
		</g>
		<g>
			<path style="fill:#282726;" d="M117.692,415.987c0.929-0.549,1.821-0.974,2.727-1.298c0.989-0.353,2.008-0.61,3.046-0.771
				c0.535-0.083,0.878-0.781,0.72-1.269c-0.188-0.581-0.696-0.81-1.269-0.72c-2.209,0.345-4.342,1.14-6.265,2.278
				c-0.465,0.275-0.673,0.941-0.37,1.411C116.582,416.084,117.194,416.28,117.692,415.987L117.692,415.987z"/>
		</g>
		<g>
			<path style="fill:#282726;" d="M122.896,420.228c0.182-0.194,0.37-0.382,0.567-0.56c0.092-0.083,0.186-0.165,0.281-0.244
				c0.059-0.049,0.12-0.098,0.18-0.146c-0.081,0.064-0.055,0.041,0.012-0.007c0.421-0.306,0.861-0.581,1.328-0.812
				c0.109-0.054,0.218-0.104,0.329-0.154c0.086-0.039,0.097-0.039,0.004-0.002c0.056-0.022,0.112-0.045,0.168-0.066
				c0.238-0.091,0.481-0.171,0.727-0.24c0.245-0.068,0.492-0.126,0.742-0.171c0.059-0.011,0.118-0.02,0.176-0.03
				c0.201-0.035-0.091,0.006,0.036-0.006c0.134-0.012,0.266-0.027,0.4-0.037c0.537-0.038,1.058-0.447,1.032-1.031
				c-0.024-0.526-0.455-1.072-1.032-1.032c-2.448,0.174-4.732,1.29-6.409,3.08c-0.369,0.394-0.42,1.073,0,1.459
				C121.837,420.595,122.502,420.648,122.896,420.228L122.896,420.228z"/>
		</g>
		<g>
			<path style="fill:#282726;" d="M127.407,423.849c0.044-0.062,0.089-0.122,0.132-0.184c0.09-0.128-0.097,0.113,0.004-0.005
				c0.088-0.102,0.172-0.207,0.262-0.307c0.179-0.198,0.368-0.386,0.568-0.563c0.055-0.049,0.111-0.097,0.167-0.144
				c0.015-0.013,0.159-0.131,0.067-0.057c-0.104,0.084,0.085-0.063,0.106-0.078c0.047-0.034,0.095-0.068,0.143-0.101
				c0.227-0.156,0.463-0.298,0.707-0.425c0.115-0.06,0.232-0.116,0.349-0.17c0.096-0.045,0.077-0.031-0.009,0.002
				c0.067-0.026,0.133-0.053,0.2-0.077c0.24-0.089,0.485-0.164,0.734-0.224c0.124-0.03,0.249-0.056,0.374-0.078
				c0.056-0.01,0.112-0.018,0.167-0.027c-0.234,0.04-0.032,0.006,0.02,0.001c0.267-0.027,0.535-0.034,0.803-0.026
				c0.54,0.016,1.056-0.486,1.032-1.031c-0.026-0.572-0.453-1.014-1.032-1.031c-2.649-0.077-5.077,1.358-6.578,3.486
				c-0.312,0.442-0.094,1.166,0.37,1.411C126.525,424.499,127.074,424.321,127.407,423.849L127.407,423.849z"/>
		</g>
		<g>
			<path style="fill:#282726;" d="M155.128,420.672c4.262,1.738,8.541,3.435,12.831,5.103c3.362,1.307,6.731,2.596,10.123,3.823
				c2.944,1.065,5.904,2.121,8.962,2.815c2.537,0.576,5.144,0.967,7.749,1.006c0.755,0.011,1.518-0.002,2.267-0.104
				c0.338-0.046,0.811-0.082,1.071-0.336c0.19-0.186-0.102-0.478-0.292-0.292c-0.213,0.208-0.752,0.215-1.023,0.245
				c-0.722,0.081-1.453,0.087-2.179,0.072c-2.308-0.049-4.612-0.374-6.868-0.853c-3.088-0.656-6.066-1.689-9.033-2.754
				c-6.359-2.284-12.648-4.767-18.92-7.277c-1.528-0.611-3.055-1.225-4.579-1.846C154.992,420.174,154.885,420.573,155.128,420.672
				L155.128,420.672z"/>
		</g>
		<g>
			<path style="fill:#282726;" d="M101.513,421.006c4.393,1.782,8.811,3.508,13.243,5.193c3.49,1.326,6.992,2.627,10.524,3.838
				c3.26,1.118,6.561,2.221,9.985,2.701c1.864,0.261,3.802,0.372,5.662,0.014c0.578-0.111,1.238-0.254,1.745-0.576
				c0.224-0.142,0.017-0.499-0.208-0.356c-0.404,0.256-0.919,0.376-1.378,0.479c-1.551,0.346-3.185,0.312-4.757,0.155
				c-3.519-0.351-6.91-1.45-10.244-2.578c-6.616-2.239-13.135-4.772-19.629-7.338c-1.613-0.638-3.226-1.278-4.833-1.93
				C101.377,420.509,101.27,420.908,101.513,421.006L101.513,421.006z"/>
		</g>
		<g>
			<path style="fill:#282726;" d="M164.143,183.154c-1.069,0.155-2.562,0.077-3.74-0.1c-2.782-0.42-5.389-1.596-7.465-3.507
				c-0.195-0.18-0.488,0.111-0.292,0.292c3.011,2.77,7.507,4.307,11.607,3.713C164.514,183.514,164.403,183.116,164.143,183.154
				L164.143,183.154z"/>
		</g>
	</g>
	<g>
		<path style="fill:#E2B491;" d="M521.484,249.935c0,0-3.776,3.089-8.925,5.149c-5.149,2.059-10.984,9.268-10.984,13.73
			c0,4.462,4.462,12.357,7.208,13.044c2.746,0.686,15.79-1.03,16.133-4.119c0.343-3.089,5.492-19.566,5.492-19.566L521.484,249.935z
			"/>
		<path style="fill:#67A8A5;" d="M669.531,286.918c0,0-8.865-6.035-29.511-12.647l-7.843,8.006c0,0,21.122,7.945,25.146,10.313
			L669.531,286.918z"/>
		<g>
			<polygon style="fill:#77706B;" points="570.183,362.587 578.078,394.622 586.651,392.261 577.898,360.902 			"/>
			<polygon style="fill:#77706B;" points="479.592,345.273 469.273,388.904 477.139,390.348 486.976,346.401 			"/>
			<polygon style="fill:#282726;" points="478.461,343.002 477.53,347.55 488.646,349.149 489.65,344.092 			"/>
			<path style="fill:#67A8A5;" d="M529.346,266.104c0,0,24.666-2.541,27.042-0.706c2.376,1.835,1.744,7.204,0.316,8.332
				c-1.429,1.128-26.23,2.616-26.23,2.616L529.346,266.104z"/>
			<path style="fill:#282726;" d="M503.715,268.041c0,0,27.959-4.096,29.902-2.981c1.943,1.115,2.168,10.211,0.753,11.226
				c-1.416,1.015-28.531,2.346-28.531,2.346L503.715,268.041z"/>
			<path style="fill:#282726;" d="M494.844,268.524c0,0,0.872-7.415,5.084-7.956c4.211-0.541,7.866,1.444,9.129,8.332
				c1.263,6.888-0.798,13.386-3.535,14.619c-2.737,1.233-8.203,0.072-9.707-4.771C494.312,273.905,494.844,268.524,494.844,268.524z
				"/>
			<path style="fill:#67A8A5;" d="M495.832,266.739c0,0,0.747-1.208,4.582-0.757c4.014,0.472,4.266,2.662,4.266,2.662l-16.38,75.32
				l-9.845-0.899L495.832,266.739z"/>
			<path style="fill:#67A8A5;" d="M556.238,262.269l24.347,103.702l-9.851,2.211l-23.55-103.867
				C547.184,264.314,549.831,259.441,556.238,262.269z"/>
			<polygon style="fill:#67A8A5;" points="485.653,335.618 566.629,330.371 568.058,338.056 486.224,343.98 			"/>
			<polygon style="fill:#67A8A5;" points="486.691,333.407 556.884,289.822 559.305,297.884 490.947,339.092 			"/>
			<path style="fill:#67A8A5;" d="M480.255,329.02c0,0,20.122,2.627,20.032,3.394c-0.09,0.767-1.679,11.986-2.86,12.884
				c-1.181,0.898-19.725-2.321-19.725-2.321L480.255,329.02z"/>
			<path style="fill:#67A8A5;" d="M572.179,325.062l-16.258,3.79l3.925,12.904l15.115-2.887
				C574.961,338.868,575.157,330.596,572.179,325.062z"/>
			<polygon style="fill:#282726;" points="574.75,367.099 569.425,368.287 570.719,374.919 583.789,371.791 581.668,365.58 			"/>
			<g>
				<path style="fill:#282726;" d="M480.164,329.352c5.845,0.99,11.69,1.981,17.535,2.971c0.832,0.141,1.665,0.282,2.497,0.423
					c-0.08-0.141-0.16-0.282-0.24-0.423c-0.762,3.539-1.524,7.079-2.286,10.618c-0.093,0.431,0.57,0.616,0.663,0.183
					c0.762-3.539,1.524-7.079,2.286-10.618c0.036-0.167-0.049-0.391-0.24-0.423c-5.845-0.99-11.69-1.981-17.535-2.971
					c-0.832-0.141-1.665-0.282-2.497-0.423C479.914,328.616,479.728,329.278,480.164,329.352L480.164,329.352z"/>
			</g>
			<g>
				<path style="fill:#282726;" d="M561.05,328.22c3.279-0.826,6.558-1.653,9.837-2.479c0.461-0.116,0.922-0.232,1.383-0.349
					c0.429-0.108,0.247-0.771-0.183-0.663c-3.279,0.826-6.558,1.653-9.837,2.479c-0.461,0.116-0.922,0.232-1.383,0.349
					C560.439,327.665,560.62,328.329,561.05,328.22L561.05,328.22z"/>
			</g>
			<g>
				<path style="fill:#282726;" d="M563.893,341.516c3.256-0.676,6.512-1.351,9.768-2.027c0.464-0.096,0.928-0.193,1.392-0.289
					c0.433-0.09,0.25-0.753-0.183-0.663c-3.256,0.676-6.512,1.351-9.768,2.027c-0.464,0.096-0.928,0.193-1.392,0.289
					C563.277,340.943,563.46,341.606,563.893,341.516L563.893,341.516z"/>
			</g>
			<g>
				<path style="fill:#282726;" d="M556.341,331.364c0.624,2.422,1.248,4.844,1.872,7.266c0.088,0.34,0.175,0.681,0.263,1.021
					c0.11,0.428,0.774,0.247,0.663-0.183c-0.624-2.422-1.248-4.844-1.872-7.266c-0.088-0.34-0.175-0.681-0.263-1.021
					C556.894,330.753,556.23,330.935,556.341,331.364L556.341,331.364z"/>
			</g>
			
				<ellipse transform="matrix(0.2311 -0.9729 0.9729 0.2311 -27.7544 766.6335)" style="fill:#282726;" cx="471.148" cy="400.876" rx="17.163" ry="14.932"/>
			<path style="fill:#77706B;" d="M465.637,399.567c-1.314,5.533,0.805,10.776,4.734,11.709c3.929,0.933,8.179-2.796,9.493-8.329
				c1.314-5.533-0.805-10.776-4.734-11.709C471.202,390.305,466.952,394.034,465.637,399.567z"/>
			
				<ellipse transform="matrix(0.2048 -0.9788 0.9788 0.2048 69.8088 884.8405)" style="fill:#282726;" cx="579.497" cy="399.455" rx="17.163" ry="14.932"/>
			<path style="fill:#77706B;" d="M574.62,398.374c-1.165,5.567,1.095,10.75,5.047,11.577c3.952,0.827,8.101-3.015,9.266-8.582
				c1.165-5.567-1.095-10.75-5.047-11.577C579.934,388.965,575.785,392.807,574.62,398.374z"/>
		</g>
		<path style="fill:#E2B491;" d="M533.195,264.947c0,0-6.659-0.089-6.974,1.803c-0.315,1.892-1.261,9.459-5.36,11.666
			c-4.099,2.207-7.567,0.946-7.252-0.946c0.315-1.892,3.153-4.414,3.468-6.306c0.315-1.892-2.059-5.551-1.429-6.813
			s8.681-9.268,9.942-9.268C526.852,255.084,533.195,264.947,533.195,264.947z"/>
		<path style="fill:#E2B491;" d="M647.46,378.314l9.954,14.074c0,0,7.208,0.343,12.014-4.119s5.835-8.925,5.835-8.925l-10.298-13.73
			L647.46,378.314z"/>
		<path style="fill:#E2B491;" d="M556.153,388.268l0.343,16.761c0,0,4.462,3.508,10.984,3.118c6.522-0.39,11.328-2.339,11.328-2.339
			l-0.687-17.54H556.153z"/>
		<path style="fill:#ED839A;" d="M559.929,272.59c0,0-9.955,38.788-12.701,50.116c-2.746,11.327,2.403,72.428,2.403,72.428
			s33.983-2.06,34.326-3.089c0.343-1.03-0.686-54.921-0.686-54.921l8.925-34.669c0,0,19.566,44.624,22.998,50.459
			c3.433,5.835,26.088,36.042,26.088,36.042l31.237-20.939c0,0-28.834-42.221-29.864-43.594c-1.03-1.373-15.79-49.086-15.79-49.086
			L559.929,272.59z"/>
		<polygon style="fill:#77706B;" points="694.83,382.261 706.415,413.155 714.653,409.808 702.296,379.687 		"/>
		<polygon style="fill:#77706B;" points="602.836,375.654 597.687,420.191 605.668,420.706 610.302,375.911 		"/>
		<polygon style="fill:#282726;" points="601.448,373.53 601.055,378.155 612.281,378.445 612.688,373.305 		"/>
		<path style="fill:#67A8A5;" d="M642.998,291.212c0,0,24.2-5.406,26.774-3.862c2.574,1.545,2.574,6.951,1.287,8.238
			c-1.287,1.287-25.745,5.664-25.745,5.664L642.998,291.212z"/>
		<path style="fill:#282726;" d="M617.768,296.131c0,0,27.289-7.335,29.349-6.455c2.06,0.88,3.347,9.887,2.06,11.061
			c-1.287,1.174-28.061,5.664-28.061,5.664L617.768,296.131z"/>
		<path style="fill:#256FBF;" d="M581.468,183.6c0,0-7.466,1.287-14.674,7.723c-7.208,6.436-20.081,35.527-22.655,40.161
			c-2.574,4.634-2.574,5.406-2.574,5.406s-22.054,11.842-22.827,13.387c0,0,5.063,2.832,8.667,6.693
			c3.604,3.862,6.693,11.328,7.723,11.328c1.03,0,20.853-7.723,20.853-7.723s-2.317,16.734-1.03,16.477
			c1.287-0.258,32.695-0.515,47.627,0c14.932,0.515,27.547,0,27.547,0s1.287-52.261-0.515-58.697
			c-1.802-6.436-24.715-35.525-24.715-35.525L581.468,183.6z"/>
		<g>
			<path style="fill:#282726;" d="M565.565,205.428c-1.223,6.388-2.316,12.802-3.384,19.217
				c-1.809,10.862-3.407,21.758-5.571,32.558c-0.343,1.71-0.686,3.423-1.085,5.121c-0.061,0.258,0.337,0.368,0.398,0.11
				c1.264-5.377,2.213-10.84,3.159-16.28c1.975-11.361,3.661-22.77,5.691-34.123c0.387-2.166,0.777-4.332,1.191-6.493
				C566.013,205.278,565.615,205.167,565.565,205.428L565.565,205.428z"/>
		</g>
		<path style="fill:#E2B491;" d="M623.6,272.133c0,0-3.507,7.515-6.513,10.271c-3.006,2.756-7.014,6.012-5.762,7.515
			c1.253,1.503,3.006-0.501,7.014,1.253c4.008,1.754,4.76,4.259,5.01,8.768c0.251,4.509-1.954,6.355-0.261,8.349
			c2.972,3.501,5.492-1.201,5.492-1.201s-0.432,2.217,2.574,1.716c3.006-0.501,2.967-2.852,2.967-2.852s3.006,0,4.008-1.754
			c1.002-1.754,1.002-1.754,1.002-1.754s1.002-0.25,1.252-2.756c0.251-2.505-0.751-6.263-2.004-9.018
			c-1.253-2.756-2.505-4.259-1.754-6.263c0.751-2.004,4.998-9.759,4.998-9.759l-16.906-5.063L623.6,272.133z"/>
		<g>
			<path style="fill:#282726;" d="M628.567,308.227c1.125-2.201,1.692-4.792,1.891-7.236c0.167-2.053,0.02-4.695-1.245-6.447
				c-0.257-0.355-0.854-0.013-0.594,0.347c1.202,1.663,1.31,4.154,1.151,6.1c-0.189,2.314-0.732,4.802-1.798,6.888
				C627.772,308.273,628.365,308.622,628.567,308.227L628.567,308.227z"/>
		</g>
		<g>
			<path style="fill:#282726;" d="M634.453,306.043c1.211-3.939,0.424-8.179-0.037-12.171c-0.05-0.435-0.738-0.44-0.688,0
				c0.453,3.928,1.252,8.113,0.061,11.988C633.66,306.284,634.323,306.466,634.453,306.043L634.453,306.043z"/>
		</g>
		<g>
			<path style="fill:#282726;" d="M639.464,302.536c0.63-3.12,0.305-6.842-1.49-9.524c-0.245-0.366-0.841-0.022-0.594,0.347
				c1.169,1.747,1.607,3.851,1.647,5.928c0.02,1.017-0.025,2.066-0.227,3.066C638.713,302.785,639.376,302.97,639.464,302.536
				L639.464,302.536z"/>
		</g>
		<path style="fill:#282726;" d="M609.015,297.648c0,0,0-7.466,4.119-8.496c4.119-1.03,7.981,0.515,10.04,7.208
			c2.06,6.694,0.772,13.387-1.802,14.932c-2.574,1.545-8.138,1.03-10.198-3.604C609.115,303.054,609.015,297.648,609.015,297.648z"
			/>
		<path style="fill:#67A8A5;" d="M609.787,295.76c0,0,0.601-1.287,4.462-1.287c4.042,0,4.548,2.145,4.548,2.145l-7.466,76.718
			l-9.883,0.258L609.787,295.76z"/>
		<path style="fill:#67A8A5;" d="M669.257,284.261l36.3,100.146l-9.525,3.347L660.504,287.35
			C660.504,287.35,662.563,282.201,669.257,284.261z"/>
		<polygon style="fill:#67A8A5;" points="607.728,365.356 687.535,350.681 689.852,358.147 609.272,373.594 		"/>
		<polygon style="fill:#67A8A5;" points="608.5,363.039 673.119,311.55 676.465,319.273 613.391,368.188 		"/>
		<path style="fill:#67A8A5;" d="M601.596,359.435c0,0,20.292,0.257,20.292,1.03s-0.267,12.1-1.335,13.13
			c-1.068,1.03-19.861,0-19.861,0L601.596,359.435z"/>
		<path style="fill:#67A8A5;" d="M692.427,344.76l-15.704,5.664l5.406,12.357l14.674-4.634
			C696.803,358.147,696.031,349.909,692.427,344.76z"/>
		<polygon style="fill:#282726;" points="699.893,386.209 694.744,388.011 696.803,394.447 709.418,389.813 706.586,383.892 		"/>
		<g>
			<path style="fill:#282726;" d="M601.596,359.778c5.921,0.301,11.841,0.601,17.762,0.902c0.843,0.043,1.686,0.085,2.529,0.128
				c-0.115-0.115-0.229-0.229-0.344-0.344c-0.343,3.604-0.687,7.208-1.03,10.813c-0.042,0.44,0.646,0.437,0.688,0
				c0.343-3.604,0.687-7.208,1.03-10.813c0.018-0.192-0.173-0.335-0.344-0.344c-5.921-0.301-11.842-0.601-17.762-0.902
				c-0.843-0.043-1.686-0.085-2.529-0.128C601.153,359.068,601.155,359.756,601.596,359.778L601.596,359.778z"/>
		</g>
		<g>
			<path style="fill:#282726;" d="M681.706,349.211c3.156-1.202,6.311-2.404,9.467-3.606c0.449-0.171,0.897-0.342,1.346-0.513
				c0.409-0.156,0.232-0.821-0.183-0.663c-3.156,1.202-6.311,2.404-9.467,3.607c-0.448,0.171-0.897,0.342-1.345,0.513
				C681.113,348.704,681.291,349.369,681.706,349.211L681.706,349.211z"/>
		</g>
		<g>
			<path style="fill:#282726;" d="M686.082,362.083c3.157-1.052,6.314-2.105,9.472-3.157c0.447-0.149,0.894-0.298,1.341-0.447
				c0.418-0.139,0.239-0.804-0.183-0.663c-3.157,1.052-6.314,2.105-9.471,3.157c-0.447,0.149-0.894,0.298-1.341,0.447
				C685.482,361.559,685.661,362.224,686.082,362.083L686.082,362.083z"/>
		</g>
		<g>
			<path style="fill:#282726;" d="M677.421,352.832c0.902,2.329,1.803,4.658,2.705,6.988c0.128,0.331,0.256,0.662,0.384,0.993
				c0.158,0.408,0.823,0.231,0.663-0.183c-0.902-2.329-1.803-4.658-2.705-6.988c-0.128-0.331-0.256-0.662-0.384-0.993
				C677.926,352.241,677.261,352.419,677.421,352.832L677.421,352.832z"/>
		</g>
		
			<ellipse transform="matrix(0.1158 -0.9933 0.9933 0.1158 102.4037 978.7599)" style="fill:#282726;" cx="600.948" cy="431.862" rx="17.163" ry="14.932"/>
		<path style="fill:#77706B;" d="M595.323,431.206c-0.659,5.649,2.059,10.608,6.07,11.075c4.011,0.468,7.796-3.733,8.455-9.382
			c0.659-5.649-2.059-10.608-6.07-11.075C599.767,421.357,595.981,425.557,595.323,431.206z"/>
		
			<ellipse transform="matrix(0.089 -0.996 0.996 0.089 229.1826 1086.1622)" style="fill:#282726;" cx="708.388" cy="417.789" rx="17.163" ry="14.932"/>
		<path style="fill:#77706B;" d="M703.419,417.284c-0.506,5.665,2.344,10.548,6.365,10.908c4.022,0.359,7.693-3.941,8.199-9.606
			s-2.344-10.548-6.365-10.908C707.597,407.319,703.926,411.62,703.419,417.284z"/>
		<path style="fill:#256FBF;" d="M604.896,182.83c0,0,13.044-2.087,27.131,8.087c14.087,10.174,34.957,37.565,36.522,43.566
			c1.565,6-4.435,17.739-10.956,27.913c-6.522,10.174-13.044,18.261-13.044,18.261s-21.913-9.652-23.217-12
			c-1.304-2.348,13.944-27.114,13.944-28.419c0-1.304-11.596-21.669-17.857-30.799C611.157,200.308,604.896,182.83,604.896,182.83z"
			/>
		<g>
			<path style="fill:#754D32;" d="M577.253,176.342c0,0-1.374-9.617,2.248-15.112c3.622-5.495,9.992-6.619,13.114-7.119
				s10.241,0.874,14.238,6.744c3.997,5.87,2.123,13.489,0.25,15.862C605.23,179.089,577.253,176.342,577.253,176.342z"/>
			<path style="fill:#E2B491;" d="M578.983,165.317c0,0-2.708,7.231-0.276,17.882c1.433,6.278,8.07,8.272,10.639,8.322
				c14.286,0.276,16.403-11.782,16.403-11.782l0.545-11.809c0,0-0.657-9.448-13.817-9.917
				C578.926,157.528,578.983,165.317,578.983,165.317z"/>
			<path style="fill:#282726;" d="M584.529,170.048c1.419,0.099,1.232,2.811-0.189,2.711
				C582.921,172.661,583.108,169.949,584.529,170.048z"/>
			<path style="fill:#282726;" d="M595.56,170.242c1.419,0.099,1.232,2.811-0.189,2.711
				C593.952,172.855,594.139,170.143,595.56,170.242z"/>
			<path style="fill:#FFFFFF;" d="M584.145,176.939c0.39-0.6,1.458-1.19,2.758-0.769s2.661,0.38,4.395-0.387
				c1.734-0.766,3.595-0.409,4.288,1.674c0.693,2.084-2.929,5.292-6.563,5.364S582.485,179.492,584.145,176.939z"/>
			<g>
				<path style="fill:#282726;" d="M582.815,168.785c1.01-0.461,2.133-0.634,3.237-0.559c0.265,0.018,0.264-0.395,0-0.413
					c-1.18-0.08-2.369,0.124-3.445,0.616C582.366,168.538,582.575,168.894,582.815,168.785L582.815,168.785z"/>
			</g>
			<g>
				<path style="fill:#282726;" d="M594.077,168.529c1.229-0.025,2.454,0.089,3.657,0.343c0.259,0.055,0.37-0.343,0.11-0.398
					c-1.238-0.262-2.501-0.384-3.767-0.358C593.812,168.121,593.811,168.534,594.077,168.529L594.077,168.529z"/>
			</g>
			<path style="fill:#E2B491;" d="M579.219,172.111c0.025-0.215-0.863-2.644-3.497-2.508c-2.634,0.136-3.191,2.473-3.365,4.636
				c-0.174,2.162,1.807,4.57,3.935,5.685c2.128,1.115,4.16-0.763,4.16-0.763L579.219,172.111z"/>
			<g>
				<path style="fill:#282726;" d="M577.513,177.579c-0.863-0.307-1.705-1.1-1.708-2.078c-0.003-0.997,0.72-1.786,1.739-1.677
					c0.102,0.011,0.219-0.104,0.206-0.206c-0.069-0.543-0.267-1.089-0.552-1.555c-0.559-0.91-1.487-1.377-2.552-1.309
					c-0.264,0.017-0.266,0.429,0,0.413c0.969-0.061,1.773,0.358,2.253,1.202c0.156,0.274,0.271,0.567,0.354,0.871
					c0.027,0.1,0.05,0.201,0.071,0.303c0.006,0.029,0.028,0.182,0.014,0.076c0.069-0.069,0.138-0.137,0.206-0.206
					c-1.213-0.13-2.108,0.836-2.15,2.005c-0.043,1.205,0.932,2.178,2.009,2.561C577.654,178.066,577.762,177.667,577.513,177.579
					L577.513,177.579z"/>
			</g>
			<path style="fill:#754D32;" d="M578.71,169.847c0,0,7.216-4.484,10.491-8.16c0,0,7.516,4.911,11.502,6.369
				c3.985,1.458,4.359,4.471,4.359,4.471s2.957-1.181,1.792-7.009c-1.166-5.829-7.161-8.993-15.487-8.826
				c-8.326,0.167-12.823,5.662-13.322,7.993C577.545,167.016,578.71,169.847,578.71,169.847z"/>
			<g>
				<path style="fill:#282726;" d="M590.647,170.72c0.037,2.792,1.829,5.515,4.658,6.126c2.453,0.53,4.926-0.688,6.168-2.835
					c0.431-0.745,0.686-1.57,0.796-2.412c0.107-0.01,0.214-0.02,0.321-0.03c1.407-0.133,2.814-0.267,4.221-0.4
					c0.264-0.025,0.489-0.204,0.489-0.489c0-0.246-0.226-0.514-0.489-0.489c-0.203,0.019-0.405,0.038-0.608,0.058
					c-1.293,0.123-2.586,0.245-3.879,0.368c-0.022-1.362-0.441-2.716-1.275-3.819c-1.508-1.993-4.165-2.881-6.531-1.964
					C592.109,165.767,590.68,168.19,590.647,170.72z M591.625,170.72c0.031-2.38,1.532-4.662,3.94-5.183
					c2.084-0.451,4.144,0.692,5.138,2.519c1.015,1.863,0.856,4.266-0.407,5.972c-1.246,1.684-3.469,2.427-5.448,1.663
					C592.823,174.909,591.653,172.829,591.625,170.72z"/>
				<path style="fill:#282726;" d="M576.95,170.72c0.037,2.792,1.829,5.515,4.658,6.126c2.453,0.53,4.926-0.688,6.168-2.835
					c1.29-2.229,1.133-5.157-0.423-7.215c-1.508-1.993-4.165-2.881-6.531-1.964C578.412,165.767,576.983,168.19,576.95,170.72z
					 M577.928,170.72c0.031-2.38,1.532-4.662,3.94-5.183c2.084-0.451,4.144,0.692,5.139,2.519c1.014,1.863,0.856,4.266-0.407,5.972
					c-1.246,1.684-3.469,2.427-5.448,1.663C579.126,174.909,577.956,172.829,577.928,170.72z"/>
			</g>
			<path style="fill:#E2B491;" d="M605.062,172.527c-0.024-0.215,0.863-2.644,3.497-2.508c2.634,0.136,3.191,2.473,3.365,4.636
				c0.174,2.162-1.807,4.57-3.935,5.685c-2.128,1.115-4.16-0.763-4.16-0.763L605.062,172.527z"/>
			<g>
				<path style="fill:#282726;" d="M606.878,178.393c1.078-0.383,2.052-1.356,2.009-2.561c-0.042-1.168-0.937-2.135-2.15-2.005
					c0.069,0.069,0.137,0.138,0.206,0.206c-0.013,0.101,0.008-0.043,0.014-0.076c0.02-0.102,0.043-0.203,0.071-0.303
					c0.083-0.303,0.198-0.597,0.354-0.871c0.48-0.844,1.284-1.263,2.253-1.202c0.265,0.017,0.264-0.396,0-0.413
					c-1.064-0.067-1.993,0.399-2.552,1.309c-0.286,0.465-0.483,1.012-0.552,1.555c-0.013,0.103,0.105,0.217,0.206,0.206
					c1.019-0.109,1.742,0.68,1.739,1.677c-0.003,0.979-0.845,1.772-1.708,2.078C606.52,178.083,606.627,178.482,606.878,178.393
					L606.878,178.393z"/>
			</g>
			<path style="fill:#E2B491;" d="M589.285,169.348c0,0-0.5,1.291-1.166,1.832c-0.666,0.541-1.249,1.083-0.833,1.665
				c0.416,0.583,2.29,0.666,2.623,0.458C590.242,173.094,589.285,169.348,589.285,169.348z"/>
			<g>
				<path style="fill:#282726;" d="M588.587,170.117c-0.13,0.287-0.312,0.56-0.508,0.806c-0.335,0.42-0.8,0.757-0.989,1.278
					c-0.129,0.355-0.047,0.806,0.25,1.056c0.285,0.24,0.685,0.314,1.043,0.357c0.311,0.037,0.722,0.081,1.022-0.041
					c0.104-0.042,0.175-0.137,0.144-0.254c-0.026-0.098-0.151-0.186-0.254-0.144c-0.203,0.083-0.468,0.061-0.7,0.046
					c-0.301-0.019-0.637-0.063-0.901-0.217c-0.25-0.146-0.308-0.461-0.194-0.723c0.195-0.452,0.639-0.765,0.935-1.148
					c0.193-0.25,0.378-0.518,0.508-0.807C589.051,170.085,588.696,169.875,588.587,170.117L588.587,170.117z"/>
			</g>
			<g>
				<path style="fill:#282726;" d="M587.94,169.71c0.262-0.269,0.633-0.461,0.988-0.57c0.799-0.244,1.642-0.012,2.311,0.454
					c0.21,0.146,0.326,0.435,0.175,0.669c-0.134,0.208-0.445,0.332-0.669,0.176c-0.097-0.068-0.196-0.132-0.299-0.189
					c-0.041-0.023-0.083-0.044-0.125-0.065c-0.008-0.004-0.143-0.063-0.046-0.023c-0.089-0.036-0.181-0.067-0.273-0.092
					c-0.046-0.012-0.191-0.015-0.223-0.047c0.07,0.009,0.078,0.01,0.023,0.004c-0.012-0.001-0.023-0.002-0.035-0.003
					c-0.04-0.003-0.08-0.005-0.12-0.006c-0.071-0.001-0.141,0.004-0.212,0.008c-0.106,0.006,0.102-0.019,0.007-0.002
					c-0.034,0.006-0.069,0.012-0.103,0.02c-0.06,0.013-0.12,0.029-0.178,0.048c-0.023,0.007-0.145,0.036-0.149,0.055
					c0.078-0.033,0.094-0.04,0.048-0.019c-0.011,0.005-0.022,0.01-0.033,0.015c-0.025,0.012-0.049,0.024-0.073,0.037
					c-0.078,0.041-0.152,0.087-0.224,0.137c-0.014,0.009-0.026,0.02-0.04,0.029c-0.061,0.039,0.102-0.085,0.052-0.04
					c-0.02,0.018-0.042,0.034-0.063,0.052c-0.016,0.014-0.032,0.028-0.047,0.044c-0.179,0.184-0.515,0.193-0.692,0
					C587.759,170.204,587.749,169.905,587.94,169.71L587.94,169.71z"/>
			</g>
			<path style="fill:#754D32;" d="M587.703,132.628c7.161,0.999,12.156,9.159,11.823,14.155c-0.333,4.996-3.497,8.16-7.993,7.66
				c0,0-6.495,0.5-10.658-7.327C576.712,139.289,580.542,131.629,587.703,132.628z"/>
			<path style="fill:#ED839A;" d="M588.494,153.361c0,0-1.249,1.124-0.125,1.998c1.124,0.874,8.618,0.375,9.367-0.624
				c0.749-0.999,0.375-1.998-0.375-2.123C596.612,152.487,592.241,153.236,588.494,153.361z"/>
		</g>
		<g>
			<path style="fill:#282726;" d="M619.649,213.31c2.244,3.662,4.461,7.342,6.648,11.038c1.531,2.586,3.055,5.178,4.506,7.809
				c1.427,2.588,2.701,5.26,4.022,7.903c0.141,0.282,0.264,0.587,0.428,0.856c0.179,0.294-0.023,0.099,0.094,0
				c-0.191,0.162-0.33,0.554-0.456,0.765c-0.883,1.484-1.763,2.971-2.639,4.459c-2.689,4.568-5.361,9.148-7.928,13.787
				c-0.967,1.748-1.942,3.501-2.796,5.309c-0.215,0.454-0.465,0.931-0.587,1.422c-0.191,0.77,0.688,1.574,1.112,2.126
				c0.315,0.41,0.638,0.814,0.974,1.207c0.173,0.202,0.464-0.091,0.292-0.292c-0.389-0.456-0.765-0.925-1.123-1.406
				c-0.242-0.325-0.479-0.655-0.689-1.001c-0.11-0.18-0.199-0.329-0.199-0.382c-0.001-0.333,0.288-0.839,0.435-1.163
				c0.783-1.717,1.705-3.374,2.613-5.026c2.53-4.602,5.177-9.141,7.837-13.669c0.941-1.602,1.886-3.201,2.836-4.798
				c0.199-0.334,0.486-0.69,0.627-1.053c0.096-0.246,0.026-0.348-0.093-0.586c-1.228-2.457-2.413-4.94-3.7-7.367
				c-1.286-2.425-2.676-4.797-4.065-7.164c-2.505-4.271-5.061-8.512-7.644-12.736c-0.05-0.082-0.1-0.164-0.151-0.246
				C619.867,212.876,619.51,213.083,619.649,213.31L619.649,213.31z"/>
		</g>
		<g>
			<path style="fill:#282726;" d="M651.132,229.762c-2.951,1.375-5.676,3.225-8.297,5.141c-2.133,1.56-4.207,3.203-6.225,4.909
				c-0.411,0.347-0.821,0.696-1.224,1.052c-0.188,0.166,0.051,0.414,0.25,0.324c4.344-1.972,8.837-3.714,13.403-5.096
				c1.756-0.532,3.534-1.002,5.341-1.319c0.261-0.046,0.15-0.443-0.11-0.398c-5.966,1.047-11.761,3.398-17.305,5.781
				c-0.514,0.221-1.028,0.444-1.538,0.675c0.083,0.108,0.167,0.216,0.25,0.324c3.458-3.06,7.154-5.929,11.035-8.43
				c1.489-0.959,3.02-1.859,4.627-2.608C651.58,230.006,651.371,229.65,651.132,229.762L651.132,229.762z"/>
		</g>
		<g>
			<path style="fill:#282726;" d="M646.142,242.871c-1.413-0.423-2.841-0.799-4.275-1.141c-1.166-0.278-2.339-0.533-3.524-0.72
				c-0.922-0.146-1.876-0.283-2.811-0.206c-0.263,0.021-0.265,0.434,0,0.413c0.977-0.08,1.975,0.07,2.936,0.23
				c1.145,0.19,2.28,0.439,3.408,0.71c1.394,0.335,2.783,0.701,4.156,1.112C646.287,243.345,646.396,242.947,646.142,242.871
				L646.142,242.871z"/>
		</g>
		<path style="fill:#E2B491;" d="M605.411,176.906l2.06,6.436c0,0-4.634,5.149-9.783,5.664L605.411,176.906z"/>
		<g>
			<path style="fill:#282726;" d="M592.87,303.735c-1.704-6.014-3.408-12.028-5.112-18.042c-0.241-0.851-0.482-1.703-0.724-2.554
				c-0.12-0.425-0.784-0.244-0.663,0.183c1.704,6.014,3.408,12.028,5.112,18.042c0.241,0.851,0.482,1.702,0.724,2.554
				C592.327,304.343,592.991,304.162,592.87,303.735L592.87,303.735z"/>
		</g>
		<path style="fill:#8255A5;" d="M563.779,407.148c0,0,1.678-4.119-0.336-5.836c-2.013-1.716-6.04-1.373-6.711-0.343
			c-0.671,1.03-1.342,4.119-1.342,4.119s-8.053,4.462-12.079,6.865c-4.026,2.403-9.059,5.149-8.053,9.955
			c1.007,4.806,11.86,4.548,14.544,4.205c2.684-0.343,33.803-7.534,33.468-9.251c-0.336-1.716-2.754-15.932-4.377-14.692
			C574.517,405.517,563.779,407.148,563.779,407.148z"/>
		<path style="fill:#8255A5;" d="M664.649,390.781c0,0-1.69-4.575-4.395-4.902c-2.704-0.327-5.071,0.654-5.071,1.961
			c0,1.307,2.028,5.882,2.028,5.882s-7.014,10.866-8.705,15.441c-1.69,4.575,0.338,11.601,3.042,11.274
			c2.704-0.327,9.775-4.865,14.845-8.46c5.071-3.595,19.769-18.767,19.093-21.054c-0.676-2.287-10.022-11.58-10.022-11.58
			s-3.154,5.696-4.648,7.271C668.029,389.556,664.649,390.781,664.649,390.781z"/>
		<g>
			<path style="fill:#282726;" d="M664.954,297.556c-0.821-2.052-1.642-4.104-2.462-6.156c-0.467-1.168-0.934-2.335-1.401-3.503
				c-0.083-0.207-0.198-0.421-0.255-0.637c0.038,0.143,0.005,0.04,0.006-0.042c0.003-0.127,0.018-0.247,0.044-0.372
				c0.388-1.793,2.636-2.365,4.171-2.599c0.436-0.066,0.251-0.729-0.183-0.663c-1.626,0.248-3.57,0.816-4.393,2.393
				c-0.24,0.46-0.421,1.048-0.27,1.56c0.29,0.983,0.778,1.946,1.159,2.896c0.598,1.494,1.195,2.988,1.793,4.483
				c0.376,0.94,0.752,1.881,1.128,2.821C664.454,298.145,665.119,297.968,664.954,297.556L664.954,297.556z"/>
		</g>
		<g>
			<path style="fill:#282726;" d="M648.581,290.771c3.511-0.903,7.022-1.806,10.533-2.709c0.494-0.127,0.987-0.254,1.481-0.381
				c0.428-0.11,0.247-0.773-0.183-0.663c-3.511,0.903-7.022,1.806-10.533,2.709c-0.494,0.127-0.987,0.254-1.481,0.381
				C647.97,290.218,648.152,290.881,648.581,290.771L648.581,290.771z"/>
		</g>
		<g>
			<path style="fill:#282726;" d="M609.456,295.668c-0.551,1.465,0.674,2.816,1.919,3.37c1.536,0.683,3.481,0.954,5.14,0.656
				c0.963-0.173,1.91-0.67,2.352-1.581c0.236-0.486,0.341-1.05,0.263-1.587c-0.063-0.436-0.726-0.251-0.663,0.183
				c-0.028-0.195,0.002,0.159,0,0.224c-0.007,0.228-0.036,0.409-0.121,0.653c-0.258,0.74-0.923,1.172-1.654,1.366
				c-1.458,0.387-3.213,0.124-4.613-0.37c-0.806-0.284-1.69-0.785-1.962-1.653c-0.12-0.383-0.124-0.741,0.003-1.079
				C610.275,295.437,609.61,295.258,609.456,295.668L609.456,295.668z"/>
		</g>
		<g>
			<path style="fill:#282726;" d="M495.322,267.521c-0.551,1.465,0.674,2.817,1.919,3.37c1.536,0.684,3.481,0.955,5.14,0.656
				c0.963-0.173,1.91-0.67,2.352-1.581c0.236-0.486,0.341-1.05,0.263-1.587c-0.063-0.436-0.726-0.251-0.663,0.183
				c-0.028-0.195,0.002,0.159,0,0.225c-0.007,0.228-0.036,0.409-0.121,0.653c-0.258,0.74-0.923,1.172-1.654,1.366
				c-1.458,0.387-3.213,0.124-4.613-0.37c-0.806-0.284-1.69-0.784-1.962-1.653c-0.12-0.383-0.124-0.741,0.003-1.079
				C496.141,267.289,495.477,267.11,495.322,267.521L495.322,267.521z"/>
		</g>
		<g>
			<path style="fill:#282726;" d="M545.854,410.478c0.062,0.024,0.158,0.048,0.214,0.084c-0.076-0.05-0.289-0.125-0.082-0.033
				c0.117,0.052,0.232,0.106,0.347,0.163c0.24,0.119,0.475,0.248,0.704,0.387c0.229,0.139,0.453,0.288,0.669,0.445
				c0.051,0.037,0.106,0.072,0.154,0.114c-0.074-0.064-0.237-0.186-0.067-0.05c0.109,0.088,0.217,0.178,0.323,0.271
				c0.393,0.345,0.758,0.723,1.09,1.128c0.04,0.049,0.077,0.103,0.12,0.149c-0.265-0.283-0.091-0.118-0.03-0.035
				c0.076,0.103,0.149,0.207,0.22,0.313c0.157,0.233,0.302,0.473,0.438,0.719c0.349,0.63,1.268,0.889,1.882,0.493
				c0.638-0.411,0.866-1.208,0.493-1.882c-1.263-2.282-3.324-3.987-5.744-4.919c-0.314-0.121-0.781-0.025-1.06,0.139
				c-0.285,0.167-0.557,0.494-0.632,0.822C544.714,409.573,545.133,410.2,545.854,410.478L545.854,410.478z"/>
		</g>
		<g>
			<path style="fill:#282726;" d="M551.971,407.755c0.482,0.253,0.95,0.531,1.399,0.838c0.101,0.069,0.201,0.139,0.3,0.211
				c0.055,0.04,0.11,0.08,0.165,0.12c0.041,0.03,0.235,0.183,0.056,0.04c-0.179-0.142,0.014,0.012,0.054,0.043
				c0.053,0.042,0.106,0.085,0.158,0.129c0.105,0.086,0.209,0.174,0.311,0.264c0.4,0.349,0.779,0.72,1.136,1.112
				c0.183,0.201,0.361,0.407,0.532,0.619c0.034,0.042,0.068,0.085,0.102,0.127c0.179,0.223-0.14-0.189-0.04-0.052
				c0.088,0.121,0.178,0.24,0.265,0.362c0.212,0.298,0.458,0.532,0.822,0.632c0.329,0.091,0.768,0.05,1.06-0.139
				c0.58-0.374,0.939-1.255,0.493-1.882c-1.417-1.993-3.253-3.661-5.424-4.8c-0.637-0.334-1.524-0.184-1.882,0.493
				C551.142,406.508,551.29,407.399,551.971,407.755L551.971,407.755z"/>
		</g>
		<g>
			<path style="fill:#282726;" d="M653.262,402.006c0.944,0.195,1.874,0.452,2.782,0.774c0.223,0.079,0.445,0.162,0.665,0.249
				c0.11,0.043,0.219,0.088,0.329,0.133c0.141,0.059,0.125,0.052-0.048-0.02c0.047,0.02,0.093,0.04,0.14,0.061
				c0.449,0.197,0.89,0.411,1.324,0.639c0.637,0.334,1.524,0.184,1.882-0.493c0.335-0.634,0.187-1.525-0.493-1.882
				c-1.842-0.965-3.812-1.69-5.849-2.112c-0.703-0.145-1.52,0.204-1.692,0.961C652.145,401.002,652.508,401.85,653.262,402.006
				L653.262,402.006z"/>
		</g>
		<g>
			<path style="fill:#282726;" d="M656.758,395.816c0.027-0.005,0.195-0.052,0.212-0.036c-0.023-0.022-0.272,0.029-0.046,0.007
				c0.143-0.014,0.285-0.027,0.428-0.035c0.286-0.016,0.573-0.015,0.858,0c0.143,0.008,0.285,0.022,0.428,0.035
				c0.217,0.021-0.01-0.033-0.046-0.008c0.026-0.018,0.179,0.029,0.212,0.034c0.3,0.053,0.597,0.122,0.889,0.207
				c0.138,0.04,0.274,0.084,0.409,0.131c0.068,0.024,0.135,0.048,0.202,0.074c0.031,0.012,0.253,0.097,0.085,0.031
				c-0.167-0.066,0.052,0.024,0.082,0.038c0.065,0.03,0.13,0.06,0.194,0.092c0.129,0.063,0.256,0.129,0.381,0.199
				c0.25,0.139,0.493,0.292,0.727,0.457c0.058,0.041,0.115,0.085,0.174,0.126c0.159,0.115-0.17-0.148-0.025-0.016
				c0.119,0.108,0.246,0.209,0.364,0.318c0.53,0.486,1.428,0.564,1.945,0c0.486-0.53,0.566-1.426,0-1.945
				c-2.224-2.041-5.242-2.88-8.204-2.361c-0.71,0.124-1.174,1.032-0.961,1.692C655.314,395.62,655.997,395.949,656.758,395.816
				L656.758,395.816z"/>
		</g>
		<g>
			<path style="fill:#282726;" d="M681.434,388.686c-1.814,2.401-3.822,4.67-5.858,6.881c-4.481,4.865-9.345,9.433-14.7,13.326
				c-3.294,2.395-6.791,4.533-10.527,6.168c-0.243,0.106-0.033,0.462,0.208,0.356c6.585-2.881,12.447-7.272,17.76-12.064
				c4.118-3.715,7.963-7.746,11.509-12.01c0.669-0.804,1.334-1.614,1.965-2.449C681.951,388.682,681.592,388.476,681.434,388.686
				L681.434,388.686z"/>
		</g>
		<g>
			<path style="fill:#282726;" d="M581.508,411.438c0.109-0.046-0.076,0.031-0.108,0.044c-0.134,0.055-0.268,0.109-0.403,0.163
				c-0.515,0.205-1.033,0.403-1.552,0.596c-1.891,0.704-3.804,1.352-5.729,1.959c-6.605,2.084-13.362,3.7-20.189,4.86
				c-5.095,0.865-10.234,1.462-15.393,1.77c-0.264,0.016-0.266,0.428,0,0.413c8.554-0.512,17.056-1.815,25.391-3.802
				c5.279-1.259,10.511-2.774,15.607-4.645c0.867-0.318,1.734-0.642,2.585-1.001C581.96,411.691,581.75,411.336,581.508,411.438
				L581.508,411.438z"/>
		</g>
		<g>
			<path style="fill:#282726;" d="M547.014,334.184c2.114,3.171,4.227,6.341,6.341,9.512c0.302,0.453,0.604,0.905,0.905,1.358
				c0.147,0.22,0.504,0.013,0.356-0.208c-2.114-3.171-4.227-6.341-6.341-9.512c-0.302-0.453-0.604-0.905-0.905-1.358
				C547.224,333.756,546.866,333.962,547.014,334.184L547.014,334.184z"/>
		</g>
	</g>
</g>
</svg>
