<?xml version="1.0" encoding="utf-8"?>
<!-- Generator: Adobe Illustrator 27.5.0, SVG Export Plug-In . SVG Version: 6.00 Build 0)  -->
<svg version="1.1" id="Capa_1" xmlns="http://www.w3.org/2000/svg" xmlns:xlink="http://www.w3.org/1999/xlink" x="0px" y="0px"
	 viewBox="0 0 2118 2126" style="enable-background:new 0 0 2118 2126;" xml:space="preserve">
<rect x="-0.002" style="fill:#FFFFFF;" width="2117.597" height="2125.051"/>
<g>
	<g>
		<g>
			<path style="fill:#00B3EC;" d="M1366.298,1108.566c-24.057,0-43.49-8.704-57.758-25.865
				c-34.963-42.06-26.072-120.001-25.678-123.298l13.432,1.806c-0.088,0.748-8.5,74.868,22.428,112.035
				c11.583,13.913,27.589,20.972,47.576,20.972c19.603,0,35.322-6.981,46.721-20.748c31.392-37.919,22.256-115.035,22.161-115.807
				l13.421-1.879c0.429,3.418,10.052,84.281-25.382,127.123C1409.135,1099.93,1389.984,1108.566,1366.298,1108.566z"/>
		</g>
		<g>
			<path style="fill:#00A8E4;" d="M1428.573,1043.33c4.226,1.806,8.369,3.748,12.455,5.782c13.702-41.842,7.903-90.689,7.575-93.33
				l-13.423,1.879C1435.255,958.263,1440.754,1004.784,1428.573,1043.33z"/>
			<path style="fill:#00A8E4;" d="M1298.654,1025.257c-5.971-32.147-2.417-63.562-2.359-64.047l-13.432-1.806
				c-0.25,2.102-3.937,34.54,2.466,68.678C1289.714,1026.941,1294.166,1026.033,1298.654,1025.257z"/>
		</g>
		<path style="fill:#43BDEE;" d="M1419.721,903.279c-20.668,1.17-42.363,5.845-60.743,5.593
			c-26.785-0.369-54.27-10.996-80.616-2.121c-21.627,7.282-36.502,27.278-30.451,46.764c12.268,39.502,66.642,46.91,108.85,47.134
			c16.853,0.092,33.786-0.767,50.588-1.777c53.408-3.223,72.396-29.167,77.509-45.623c4.767-15.35-3.724-31.264-18.224-40.789
			C1453.376,903.75,1436.906,902.304,1419.721,903.279z"/>
		<path style="fill:#00B3EB;" d="M1446.482,929.451c3.258,11.462-6.512,35.822-81.414,38.099
			c-67.707,2.058-91.221-27.958-84.022-37.448c14.331-18.89,43.915-7.136,84.022-7.496
			C1405.179,922.955,1434.76,909.911,1446.482,929.451z"/>
		<g>
			<g>
				<path style="fill:#F3C090;" d="M1411.325,940.665c8.551-7.282-6.408-19.074-10.923-24.647
					c-8.304-10.257-11.234-19.297-12.214-31.511c-1.121-14.035,4.527-28.21,3.175-42.007c-1.442-14.763-9.299-28.783-29.924-25.958
					c-11.709,1.602-20.341,11.991-21.365,23.025c-0.954,10.263,2.896,23.856,2.442,34.196c-0.539,12.287-0.459,21.006-4.117,32.808
					c-1.767,5.694-18.797,23.841-21.535,28.957c-5.786,10.812,28.55,16.424,52.274,15.419
					C1396.695,949.772,1407.851,943.621,1411.325,940.665z"/>
			</g>
			<g>
				<path style="fill:#F2B180;" d="M1345.593,916.863c4.614-14.059,9.882-22.531,7.267-38.245
					c-1.374-8.272-3.286-16.671-3.714-25.069c-0.699-13.792,2.352-25.161,8.957-36.225c-9.971,2.937-17.108,12.292-18.03,22.244
					c-0.956,10.263,2.896,23.856,2.442,34.196c-0.539,12.287-0.459,21.006-4.117,32.808c-1.767,5.694-18.8,23.841-21.535,28.957
					c-4.729,8.831,17.319,14.195,38.485,15.312C1342.508,942.388,1340.685,931.815,1345.593,916.863z"/>
			</g>
			<path style="fill:#F6E0BB;" d="M1384.867,832.95c1.92,6.816,0.422,13.204-3.345,14.263c-3.763,1.063-8.374-3.607-10.292-10.423
				c-1.92-6.816-0.422-13.204,3.343-14.263C1378.34,821.469,1382.947,826.135,1384.867,832.95z"/>
		</g>
		<path style="fill:#81CAF0;" d="M1407.497,981.88c0.187-1.816,4.129-3.277,7.071-4.214c5.835-1.859,11.78-3.379,17.695-5.549
			c-2.139,0.947-0.369,0.184,5.309-2.287c14.236-5.869,23.081-10.394,26.353-26.72c3.658-18.258,12.743-0.17,11.231,10.423
			c-1.935,13.569-12.593,20.923-24.504,25.754c-10.214,4.146-29.354,10.321-40.026,5.558
			C1408.247,983.783,1407.402,982.788,1407.497,981.88z"/>
	</g>
	<g>
		<g>
			<path style="fill:#F3C090;" d="M664.01,1485.227c-20.996,0-38.655-8.069-52.483-23.982
				c-54.983-63.271-32.147-230.604-31.152-237.697l9.85,1.388c-0.24,1.69-23.21,169.941,28.812,229.793
				c12.02,13.831,26.732,20.555,44.973,20.555c13.605,0,24.868-5.243,34.429-16.025c49.976-56.357,28.793-237.57,28.574-239.391
				l9.87-1.194c0.922,7.626,21.926,187.485-30.999,247.177C694.485,1478.707,680.394,1485.227,664.01,1485.227z"/>
		</g>
		<g>
			<path style="fill:#89D5F2;" d="M613.06,1225.068c2.126-7.739,18.879-42.255,51.777-42.255c28.543,0,40.065,28.448,43.912,41.429
				l41.056,0.825c1.418-28.229,1.078-137.424-89.111-136.706c-89.463,0.718-90.573,121.196-90.344,136.706H613.06z"/>
			<path style="fill:#6FCFF1;" d="M662.597,1154.365c-29.339,10.2-31.181,53.401-68.251,51.42
				c-30.329-1.622-8.971-51.202-2.985-64.241c6.753-14.714,14.695-27.895,24.414-39.283
				c-44.896,32.249-45.604,110.511-45.425,122.807h42.711c2.126-7.739,18.879-42.255,51.777-42.255
				c28.543,0,40.065,28.448,43.912,41.429l9.403,0.189C714.779,1190.182,700.832,1141.073,662.597,1154.365z"/>
			<path style="fill:#D4EEF6;" d="M671.466,1095.818c0.012,0,65.45,2.495,69.596,87.864c0.588,12.447-9.43-3.913-11.166-6.893
				c-5.233-8.996-8.874-18.744-13.423-28.089c-10.141-20.831-24.219-38.541-49.16-39.623c-3.651-0.16-20.251,0.529-20.212-5.767
				C647.152,1096.43,667.044,1095.653,671.466,1095.818z"/>
		</g>
		<g>
			<path style="fill:#F3C090;" d="M661.109,1483.571c-34.951,0-63.382-28.434-63.382-63.382c0-34.948,28.431-63.382,63.382-63.382
				c34.951,0,63.382,28.433,63.382,63.382C724.491,1455.137,696.06,1483.571,661.109,1483.571z M661.109,1366.75
				c-29.465,0-53.44,23.972-53.44,53.44c0,29.467,23.975,53.44,53.44,53.44c29.465,0,53.44-23.972,53.44-53.44
				C714.549,1390.722,690.574,1366.75,661.109,1366.75z"/>
		</g>
	</g>
	<g>
		<g>
			<path style="fill:#AEE1F4;" d="M1033.014,1339.365c0-27.38,14.069-93.17,12.168-127.395c-0.211-3.825-1.547-5.942-4.343-8.743
				H883.625c-0.495,2.922-0.061,5.325-0.061,5.325c0,54.76-2.66,91.267-8.748,146.027c-6.083,45.633-24.336,91.262,24.341,118.642
				c33.463,15.215,66.928,1.525,126.249,0c60.901-1.558,168.844,29.205,168.844-66.926
				C1194.251,1336.326,1130.366,1333.282,1033.014,1339.365z"/>
		</g>
		<g>
			<path style="fill:#3EBDEE;" d="M944.034,1480.081c0.82-53.105-13.255-103.734-69.528-123.283
				c-6.355,44.886-23.237,89.49,24.652,116.423C913.44,1479.717,927.742,1480.925,944.034,1480.081z"/>
		</g>
		<g>
			<path style="fill:#3EBDEE;" d="M1162.385,1349.166c-40.327,28.229-51.138,79.931-41.269,127.118
				c39.944-2.422,73.135-16.695,73.135-69.989C1194.251,1376.775,1182.842,1359.201,1162.385,1349.166z"/>
		</g>
		<g>
			<g>
				<path style="fill:#DBECF3;" d="M1017.042,1356.104c-0.578,0-1.136-0.224-1.563-0.621c-0.456-0.427-0.719-1.034-0.719-1.66
					c0-1.962,0.063-4.292,0.18-6.942c0.058-1.257,1.163-2.204,2.384-2.175c1.257,0.053,2.233,1.121,2.175,2.379
					c-0.068,1.548-0.117,2.986-0.146,4.297l4.378-0.286c1.248-0.093,2.345,0.869,2.428,2.126c0.087,1.257-0.864,2.345-2.122,2.432
					l-6.85,0.442C1017.14,1356.104,1017.091,1356.104,1017.042,1356.104z"/>
			</g>
			<g>
				<path style="fill:#DBECF3;" d="M946.391,1465.885c-0.044,0-0.087,0-0.133,0l-0.838-0.005c-1.26-0.019-2.265-1.058-2.241-2.32
					c0.019-1.258,1.049-2.141,2.315-2.238h0.767c3.748-0.063,7.85-0.17,12.564-0.529c1.265-0.199,2.352,0.845,2.449,2.102
					c0.097,1.252-0.843,2.349-2.1,2.447C954.399,1465.711,950.214,1465.885,946.391,1465.885z M985.968,1462.536
					c-1.15,0-2.136-0.864-2.267-2.029c-0.136-1.252,0.767-2.384,2.019-2.519c4.321-0.476,8.826-0.952,13.532-1.374
					c1.289-0.044,2.367,0.816,2.478,2.068c0.112,1.258-0.81,2.369-2.068,2.476c-4.675,0.427-9.146,0.888-13.442,1.364
					C986.135,1462.531,986.05,1462.536,985.968,1462.536z M1107.804,1462.468c-1.214,0-2.223-0.956-2.277-2.175
					c-0.053-1.262,0.918-2.33,2.18-2.383c4.729-0.214,9.207-0.598,13.309-1.146c1.245-0.146,2.399,0.713,2.564,1.961
					c0.167,1.253-0.711,2.398-1.959,2.568c-4.238,0.563-8.848,0.956-13.712,1.175
					C1107.875,1462.468,1107.841,1462.468,1107.804,1462.468z M1080.696,1462.192c-0.036,0-0.073,0-0.112-0.005
					c-4.549-0.218-9.09-0.5-13.581-0.801c-1.257-0.083-2.208-1.17-2.124-2.427c0.083-1.257,1.175-2.199,2.427-2.126
					c4.464,0.301,8.979,0.578,13.501,0.801c1.257,0.058,2.228,1.136,2.167,2.389
					C1082.915,1461.245,1081.908,1462.192,1080.696,1462.192z M918.834,1461.521c-0.258,0-0.522-0.044-0.779-0.141
					c-1.634-0.592-3.265-1.262-4.891-2c-2.781-1.554-5.247-3.122-7.51-4.748c-1.022-0.743-1.255-2.166-0.52-3.19
					c0.736-1.02,2.161-1.258,3.185-0.519c2.127,1.529,4.449,3.01,6.911,4.393c1.347,0.607,2.866,1.218,4.386,1.777
					c1.185,0.432,1.794,1.743,1.364,2.927C920.639,1460.944,919.766,1461.521,918.834,1461.521z M1040.083,1459.75
					c-0.029,0-0.061,0-0.093,0c-4.68-0.185-9.165-0.258-13.427-0.175c-1.146,0.039-2.299-0.98-2.321-2.243
					c-0.024-1.257,0.978-2.301,2.238-2.32c4.335-0.083,8.915-0.005,13.69,0.175c1.262,0.053,2.24,1.117,2.189,2.374
					C1042.311,1458.788,1041.301,1459.75,1040.083,1459.75z M1147.297,1453.963c-0.84,0-1.648-0.466-2.049-1.267
					c-0.558-1.126-0.097-2.5,1.029-3.058c4.02-2,7.627-4.408,10.719-7.17c0.942-0.84,2.381-0.757,3.224,0.184
					c0.837,0.942,0.757,2.384-0.185,3.224c-3.398,3.029-7.343,5.67-11.729,7.85
					C1147.981,1453.885,1147.636,1453.963,1147.297,1453.963z M889.74,1434.564c-0.869,0-1.704-0.505-2.082-1.35
					c-1.872-4.19-3.165-8.617-3.961-13.54c-0.199-1.247,0.646-2.412,1.889-2.616c1.243-0.243,2.415,0.641,2.617,1.884
					c0.73,4.529,1.917,8.588,3.621,12.408c0.515,1.15,0,2.5-1.151,3.02C890.371,1434.501,890.053,1434.564,889.74,1434.564z
					 M1172.516,1423.694c-0.214,0-0.432-0.029-0.65-0.092c-1.209-0.359-1.893-1.631-1.539-2.84
					c1.167-3.927,1.997-8.253,2.471-12.855c0.126-1.258,1.223-2.185,2.5-2.039c1.255,0.126,2.165,1.248,2.036,2.5
					c-0.497,4.889-1.383,9.496-2.631,13.695C1174.41,1423.053,1173.5,1423.694,1172.516,1423.694z M886.128,1394.567
					c-0.095,0-0.189-0.005-0.282-0.015c-1.252-0.155-2.141-1.296-1.99-2.544c0.476-3.855,1.102-8.02,2.029-13.515
					c0.214-1.243,1.379-2.097,2.631-1.869c1.243,0.209,2.081,1.389,1.869,2.626c-0.918,5.427-1.534,9.535-2,13.311
					C888.244,1393.722,887.264,1394.567,886.128,1394.567z M1173.366,1383.551c-0.985,0-1.893-0.641-2.187-1.636
					c-1.262-4.262-3.144-8.092-5.581-11.374c-0.753-1.005-0.541-2.437,0.471-3.189c1.01-0.753,2.442-0.544,3.192,0.471
					c2.76,3.709,4.877,8.015,6.294,12.802c0.354,1.208-0.335,2.476-1.541,2.835
					C1173.798,1383.522,1173.58,1383.551,1173.366,1383.551z M1145.301,1356.623c-0.238,0-0.481-0.034-0.716-0.117
					c-3.828-1.262-8.144-2.301-12.828-3.083c-1.243-0.209-2.083-1.388-1.874-2.626c0.209-1.248,1.384-2.117,2.627-1.874
					c4.913,0.821,9.457,1.913,13.506,3.253c1.199,0.393,1.845,1.685,1.451,2.879
					C1147.151,1356.016,1146.258,1356.623,1145.301,1356.623z M892.555,1354.405c-0.083,0-0.168-0.005-0.253-0.015
					c-1.252-0.141-2.155-1.272-2.017-2.524c0.514-4.626,1-9.102,1.461-13.457c0.134-1.253,1.245-2.17,2.507-2.029
					c1.253,0.136,2.16,1.257,2.029,2.51c-0.461,4.364-0.946,8.85-1.461,13.486C894.691,1353.54,893.704,1354.405,892.555,1354.405z
					 M1050.942,1353.739c-1.185,0-2.19-0.918-2.275-2.122c-0.089-1.257,0.857-2.349,2.114-2.437
					c4.588-0.325,9.108-0.641,13.544-0.927c1.253-0.102,2.345,0.873,2.425,2.131c0.08,1.257-0.873,2.34-2.131,2.422
					c-4.43,0.286-8.937,0.602-13.512,0.927C1051.049,1353.739,1050.996,1353.739,1050.942,1353.739z M1091.561,1351.482
					c-1.233,0-2.25-0.981-2.282-2.224c-0.034-1.257,0.961-2.301,2.219-2.34c3.427-0.088,6.782-0.136,10.056-0.136l3.59,0.024
					c1.262,0.01,2.272,1.044,2.257,2.306c-0.015,1.257-1.18,2.141-2.309,2.257l-3.539-0.024c-3.236,0-6.552,0.049-9.932,0.136
					C1091.6,1351.482,1091.58,1351.482,1091.561,1351.482z M1019.203,1321.805c-0.066,0-0.131-0.005-0.199-0.009
					c-1.258-0.112-2.185-1.219-2.073-2.476c0.378-4.335,0.796-8.869,1.233-13.525c0.119-1.257,1.228-2.165,2.486-2.063
					c1.253,0.121,2.177,1.233,2.058,2.49c-0.437,4.646-0.852,9.175-1.233,13.501
					C1021.37,1320.907,1020.375,1321.805,1019.203,1321.805z M896.631,1313.946c-0.066,0-0.134-0.005-0.199-0.005
					c-1.255-0.111-2.184-1.218-2.076-2.471c0.396-4.554,0.758-9.034,1.088-13.486c0.092-1.258,1.194-2.243,2.442-2.107
					c1.257,0.092,2.199,1.19,2.107,2.447c-0.33,4.471-0.694,8.966-1.092,13.539C898.798,1313.053,897.803,1313.946,896.631,1313.946
					z M1023.077,1281.27c-0.078,0-0.151-0.005-0.231-0.015c-1.255-0.126-2.167-1.243-2.044-2.495l1.347-13.496
					c0.126-1.252,1.252-2.16,2.497-2.044c1.255,0.126,2.17,1.238,2.046,2.495l-1.35,13.501
					C1025.227,1280.391,1024.234,1281.27,1023.077,1281.27z M899.32,1273.38c-0.034,0-0.068,0-0.104-0.004
					c-1.258-0.054-2.233-1.116-2.177-2.379c0.196-4.432,0.361-8.928,0.498-13.506c0.039-1.262,1.039-2.218,2.349-2.218
					c1.258,0.043,2.248,1.087,2.212,2.349c-0.134,4.607-0.304,9.117-0.5,13.578C901.541,1272.425,900.534,1273.38,899.32,1273.38z
					 M1027.053,1240.758c-0.068,0-0.141-0.005-0.214-0.009c-1.255-0.117-2.175-1.228-2.058-2.481
					c0.456-4.913,0.859-9.457,1.187-13.496c0.1-1.257,1.201-2.199,2.459-2.092c1.255,0.102,2.189,1.199,2.087,2.457
					c-0.325,4.058-0.733,8.621-1.192,13.549C1029.213,1239.869,1028.218,1240.758,1027.053,1240.758z M900.274,1232.733
					c-0.003,0-0.005,0-0.01,0c-1.26-0.005-2.277-1.034-2.269-2.292l0.022-7.554c-0.029-0.068-0.161-0.985-0.161-2.252
					c0-1.49,0.18-2.927,0.529-4.272c0.316-1.219,1.56-1.976,2.782-1.631c1.218,0.316,1.951,1.558,1.633,2.782
					c-0.253,0.971-0.381,2.019-0.381,3.121c0,1,0.109,1.685,0.121,1.767l0.017,8.063
					C902.551,1231.724,901.532,1232.733,900.274,1232.733z M923.785,1208.601c-1.083,0-2.042-0.772-2.243-1.874
					c-0.228-1.238,0.597-2.427,1.835-2.655c3.981-0.724,8.52-1.505,13.437-2.287c1.238-0.179,2.41,0.655,2.61,1.898
					c0.196,1.243-0.653,2.413-1.898,2.612c-4.876,0.772-9.384,1.549-13.328,2.267
					C924.059,1208.586,923.921,1208.601,923.785,1208.601z M1017.902,1205.378c-0.272,0-0.549-0.049-0.818-0.151
					c-3.357-1.287-7.614-2.257-12.649-2.869c-1.253-0.155-2.143-1.291-1.99-2.544c0.153-1.252,1.296-2.165,2.541-1.985
					c5.406,0.66,10.027,1.714,13.734,3.136c1.177,0.451,1.765,1.772,1.313,2.951
					C1019.683,1204.819,1018.819,1205.378,1017.902,1205.378z M964.083,1202.868c-1.163,0-2.156-0.879-2.267-2.064
					c-0.121-1.257,0.796-2.369,2.051-2.49c4.547-0.432,9.122-0.791,13.629-1.024c1.267-0.078,2.33,0.893,2.399,2.155
					c0.068,1.257-0.901,2.33-2.158,2.398c-4.442,0.238-8.954,0.583-13.435,1.015
					C964.229,1202.863,964.156,1202.868,964.083,1202.868z"/>
			</g>
		</g>
		<path style="fill:#39C1F0;" d="M904.1,1214.538c52.068-2.131,89.466-5.466,141.464,1.995c-0.233-3.86-0.704-10.656-1.33-14.826
			c-0.048-0.301-0.208-0.583-0.383-0.865c-0.014-5.879-4.782-10.646-10.671-10.646c-3.86,0-7.209,2.073-9.083,5.141
			c-0.289-0.029-0.583-0.053-0.876-0.082c-1.311-4.413-5.347-7.646-10.182-7.646c-4.34,0-8.059,2.602-9.727,6.321
			c-1.366-4.32-5.357-7.471-10.129-7.471c-4.427,0-8.221,2.694-9.838,6.534c-1.471-4.131-5.376-7.112-10.017-7.112
			c-4.306,0-7.991,2.568-9.68,6.238c-1.5-4.078-5.384-7.005-9.981-7.005c-4.672,0-8.598,3.019-10.044,7.194
			c-1.748-3.51-5.335-5.947-9.525-5.947c-5.204,0-9.523,3.723-10.467,8.651c-1.388-4.282-5.362-7.403-10.107-7.403
			c-4.985,0-9.139,3.432-10.311,8.054c-1.735-3.539-5.34-5.99-9.544-5.99c-5.68,0-10.277,4.447-10.607,10.044
			c-0.17-0.005-0.255-0.01-0.255-0.01c0,4.995,0.216,11.608,0.493,18.705C883.531,1216.456,901.58,1214.64,904.1,1214.538z"/>
		<g>
			<path style="fill:none;stroke:#DBECF3;stroke-width:2.4856;stroke-linecap:round;stroke-miterlimit:10;" d="M902.854,1391.343
				c8.991,12.132,13.484,26.065,14.831,39.099"/>
			<path style="fill:none;stroke:#DBECF3;stroke-width:2.4856;stroke-linecap:round;stroke-miterlimit:10;" d="M917.236,1385.95
				c8.991,12.136,13.484,26.064,14.831,39.099"/>
			<path style="fill:none;stroke:#DBECF3;stroke-width:2.4856;stroke-linecap:round;stroke-miterlimit:10;" d="M896.114,1407.524
				c14.054-4.311,28.084-9.214,40.745-16.806"/>
			<path style="fill:none;stroke:#DBECF3;stroke-width:2.4856;stroke-linecap:round;stroke-miterlimit:10;" d="M901.056,1421.005
				c14.302-3.476,28.696-8.826,40.954-17.103"/>
		</g>
	</g>
	<g>
		<g>
			<g>
				<path style="fill:#89D5F2;" d="M1382.212,325.128c-9.054-30.191-96.592-63.392-123.759-75.47
					c-72.44-27.161-51.318,9.049-105.636,33.201c-9.335,4.15-18.957,6.131-28.504,6.374c-9.547-0.243-19.168-2.224-28.504-6.374
					c-54.318-24.152-33.196-60.362-105.636-33.201c-27.166,12.078-114.705,45.279-123.759,75.47
					c-5.257,26.365,46.651,114.268,68.29,128.958c14.846,10.078,37.468,0.194,48.668,14.471c9.68,12.34,0.313,38.507-1.777,51.911
					c-7.972,51.163-18.613,102.67-18.744,154.649c-0.059,22.613,3.65,33.88,24.307,44.769
					c39.616,20.875,87.985,27.725,137.155,26.788c49.17,0.937,97.536-5.913,137.155-26.788
					c20.654-10.889,24.365-22.156,24.307-44.769c-0.131-51.979-10.773-103.486-18.744-154.649
					c-2.092-13.404-11.457-39.57-1.777-51.911c11.2-14.277,33.822-4.393,48.667-14.471
					C1335.559,439.396,1387.467,351.494,1382.212,325.128z"/>
			</g>
			<g>
				<path style="fill:#6FCFF1;" d="M1088.803,721.92c-29.419-3.286-64.53-14.302-82.077-40.133
					c-22.86-33.657-17.236-75.455-11.098-113.525c4.527-28.06,9.602-56.576,7.229-85.136c-1.029-12.37-5.505-23.03-15.772-30.341
					c-9.418-6.704-20.397-6.573-29.045-14.219c-21.287-18.816-32.722-48.473-34.696-76.261c-2.068-29.181,7.534-60.44,27.638-82.271
					c18.399-19.981,58.328-32.924,84.354-39.638c-9.493-1.432-22.901,0.913-45.163,9.262
					c-27.166,12.078-114.705,45.279-123.759,75.47c-5.257,26.365,46.651,114.268,68.29,128.958
					c14.846,10.078,37.468,0.194,48.668,14.471c9.68,12.34,0.313,38.507-1.777,51.911c-7.972,51.163-18.613,102.67-18.744,154.649
					c-0.059,22.613,3.65,33.88,24.307,44.769c39.616,20.875,87.985,27.725,137.155,26.788c49.17,0.937,97.536-5.913,137.155-26.788
					c20.322-10.719,24.232-21.816,24.297-43.711C1226.696,711.434,1160.094,729.887,1088.803,721.92z"/>
			</g>
			<path style="fill:#FECE93;" d="M1123.373,422.585c10.061,0,32.788,66.44,32.788,66.44s69.261,3.345,73.324,10.656
				c4.063,7.311-53.056,51.716-53.056,51.716s17.737,68.207,12.525,73.028c-5.212,4.816-65.581-34.477-65.581-34.477
				s-58.721,39.468-65.581,34.477c-6.865-4.99,12.522-73.028,12.522-73.028s-52.767-43.182-53.056-51.716
				c-0.289-8.534,73.322-10.656,73.322-10.656S1113.31,422.585,1123.373,422.585z"/>
			<path style="fill:#FFEFC8;" d="M1125.635,433.036c0,0,4.53,45.279,20.375,55.843
				C1161.861,499.443,1125.635,416.434,1125.635,433.036z"/>
		</g>
		<g>
			<path style="fill:#D4EEF6;" d="M1131.675,310.03c48.294-2.01,78.883-40.784,91.374-69.839
				c-31.424-2.67-27.589,23.71-70.232,42.668c-9.335,4.15-18.957,6.131-28.504,6.374c-9.547-0.243-19.168-2.224-28.504-6.374
				c-42.691-18.982-38.803-45.396-70.345-42.653C1050.389,282.485,1079.483,312.205,1131.675,310.03z"/>
		</g>
		<g>
			<path style="fill:#D4EEF6;" d="M1382.212,325.128c-1.158-3.869-7.119-11.938-10.564-15.85
				c-18.942,55.323-45.026,108.986-85.099,150.595c9.401-0.704,19.484-0.432,27.373-5.787
				C1335.559,439.396,1387.467,351.494,1382.212,325.128z"/>
		</g>
		<g>
			<path style="fill:#D4EEF6;" d="M878.458,308.375c-6.073,5.588-10.387,11.219-12.045,16.753
				c-5.257,26.365,46.651,114.268,68.29,128.958c3.607,2.447,13.969,6.874,24.159,5.364
				C925.188,416.696,891.351,360.242,878.458,308.375z"/>
		</g>
		
			<path style="fill:#84C6D6;stroke:#FFFFFF;stroke-width:2.4856;stroke-linecap:round;stroke-miterlimit:10;stroke-dasharray:9.9423,14.9134;" d="
			M1231.286,249.658c0,0,82.504,26.162,131.807,61.377"/>
		
			<path style="fill:#84C6D6;stroke:#FFFFFF;stroke-width:2.4856;stroke-linecap:round;stroke-miterlimit:10;stroke-dasharray:9.9423,14.9134;" d="
			M1018.98,246.639c0,0-61.377,18.113-129.798,67.416"/>
		
			<path style="fill:none;stroke:#FFFFFF;stroke-width:2.4856;stroke-linecap:round;stroke-miterlimit:10;stroke-dasharray:9.9423,14.9134;" d="
			M1358.065,313.05c-14.088,65.401-76.47,135.832-76.47,135.832c-29.181,2.015-27.166,26.162-27.166,26.162
			s15.093,115.71,21.127,168.033c6.039,52.323-9.054,60.372-9.054,60.372c-120.744,67.416-261.606,15.093-283.746-7.044
			c-22.134-22.137,10.062-199.224,10.062-199.224s12.078-48.299-28.171-48.299c0,0-46.284-48.293-72.446-122.754"/>
	</g>
	<g>
		<g>
			<g>
				<path style="fill:#89D5F2;" d="M902.313,967.433c-0.655-6.2-0.845-12.637-0.485-19.486c0.403-7.69,0.083-15.545,0-23.249
					c-0.289-27.428-18.594-44.279-45.512-43.958c-12.02,0.146-25.2,7.029-34.852,13.632
					c-47.835,32.729-30.181,104.714,0.059,141.968c8.811,10.855,22.817,22.899,35.07,29.657c16.646,9.185,44.167,9.869,55.646-6.301
					c9.221-12.991,10.512-29.089,4.369-43.395C909.377,999.469,904.1,984.342,902.313,967.433z"/>
			</g>
			<path style="fill:#89D5F2;" d="M912.173,859.228c-4.748,14.904-18.057,23.977-29.725,20.258
				c-11.663-3.718-17.27-18.816-12.52-33.72c4.75-14.908,18.059-23.977,29.725-20.263
				C911.318,829.222,916.923,844.32,912.173,859.228z"/>
			<path style="fill:#89D5F2;" d="M857.5,856.583c-0.151,10.947-7.214,19.734-15.782,19.618
				c-8.571-0.112-15.399-9.083-15.256-20.035c0.148-10.947,7.212-19.734,15.782-19.617
				C850.815,836.659,857.646,845.631,857.5,856.583z"/>
			<path style="fill:#89D5F2;" d="M819.367,865.112c4.274,8.826,2.141,18.695-4.77,22.04c-6.908,3.345-15.974-1.097-20.248-9.928
				c-4.275-8.826-2.138-18.695,4.769-22.04C806.027,851.84,815.093,856.281,819.367,865.112z"/>
			<path style="fill:#89D5F2;" d="M791.604,887.934c7.287,5.471,9.719,14.525,5.439,20.225c-4.279,5.699-13.653,5.889-20.935,0.417
				c-7.287-5.466-9.719-14.52-5.437-20.224C774.947,882.652,784.322,882.467,791.604,887.934z"/>
			<path style="fill:#89D5F2;" d="M778.617,917.712c7.554,2.277,12.234,8.908,10.457,14.821c-1.782,5.908-9.345,8.859-16.899,6.588
				c-7.551-2.272-12.233-8.908-10.452-14.821C763.5,918.392,771.064,915.44,778.617,917.712z"/>
		</g>
		<g>
			<g>
				<path style="fill:#89D5F2;" d="M980.167,967.433c0.655-6.2,0.84-12.637,0.485-19.486c-0.403-7.69-0.083-15.545,0-23.249
					c0.286-27.428,18.593-44.279,45.512-43.958c12.015,0.146,25.2,7.029,34.849,13.632c47.835,32.729,30.184,104.714-0.058,141.968
					c-8.809,10.855-22.814,22.899-35.067,29.657c-16.646,9.185-44.167,9.869-55.648-6.301c-9.219-12.991-10.513-29.089-4.369-43.395
					C973.101,999.469,978.38,984.342,980.167,967.433z"/>
			</g>
			<path style="fill:#89D5F2;" d="M970.307,859.228c4.747,14.904,18.054,23.977,29.72,20.258
				c11.665-3.718,17.273-18.816,12.522-33.72c-4.75-14.908-18.057-23.977-29.722-20.263
				C971.161,829.222,965.554,844.32,970.307,859.228z"/>
			<path style="fill:#89D5F2;" d="M1024.98,856.583c0.146,10.947,7.214,19.734,15.782,19.618
				c8.571-0.112,15.399-9.083,15.254-20.035c-0.146-10.947-7.214-19.734-15.782-19.617
				C1031.664,836.659,1024.834,845.631,1024.98,856.583z"/>
			<path style="fill:#89D5F2;" d="M1063.113,865.112c-4.277,8.826-2.141,18.695,4.767,22.04c6.908,3.345,15.977-1.097,20.251-9.928
				c4.275-8.826,2.139-18.695-4.77-22.04C1076.451,851.84,1067.387,856.281,1063.113,865.112z"/>
			<path style="fill:#89D5F2;" d="M1090.871,887.934c-7.282,5.471-9.714,14.525-5.437,20.225c4.282,5.699,13.656,5.889,20.938,0.417
				c7.282-5.466,9.719-14.52,5.438-20.224C1107.53,882.652,1098.156,882.467,1090.871,887.934z"/>
			<path style="fill:#89D5F2;" d="M1103.86,917.712c-7.552,2.277-12.234,8.908-10.455,14.821c1.777,5.908,9.345,8.859,16.897,6.588
				c7.551-2.272,12.236-8.908,10.454-14.821C1118.98,918.392,1111.411,915.44,1103.86,917.712z"/>
		</g>
	</g>
	<g>
		<path style="fill:#5ABBE6;" d="M1421.168,1789.917c0-4.865-2.377-9.141-5.996-11.841c4.959-2.393,8.406-7.422,8.406-13.297
			c0-8.175-6.629-14.807-14.807-14.807c-8.175,0-14.807,6.631-14.807,14.807c0,4.864,2.376,9.141,5.998,11.836
			c-4.959,2.393-8.408,7.427-8.408,13.302c0,5.534,3.071,10.301,7.566,12.84c-6.503,1.563-11.355,7.379-11.355,14.365
			c0,4.588,2.136,8.641,5.418,11.36c-6.103,1.825-10.583,7.422-10.583,14.117c0,4.292,1.849,8.122,4.762,10.821
			c-7.493,0.733-13.37,6.981-13.37,14.666c0,2.646,0.75,5.088,1.966,7.238c-8.131,0.058-14.71,6.656-14.71,14.797
			c0,0.728,0.117,1.427,0.216,2.126c-1.07-0.248-2.167-0.403-3.313-0.403c-8.177,0-14.807,6.626-14.807,14.807
			c0,0.17,0.044,0.325,0.048,0.49c-2.369-1.612-5.228-2.558-8.313-2.558c-6.974,0-12.785,4.84-14.353,11.335
			c-2.716-3.121-6.67-5.136-11.129-5.136c-5.314,0-9.94,2.826-12.552,7.03c-2.524-2-5.67-3.243-9.141-3.243
			c-5.578,0-10.374,3.121-12.899,7.67c-2.403-4.932-7.418-8.359-13.272-8.359c-4.462,0-8.413,2.015-11.127,5.136
			c-1.57-6.491-7.379-11.331-14.355-11.331c-3.083,0-5.942,0.942-8.314,2.554c0.007-0.165,0.051-0.321,0.051-0.491
			c0-8.175-6.632-14.807-14.807-14.807c-1.146,0-2.245,0.16-3.316,0.403c0.102-0.699,0.214-1.398,0.214-2.127
			c0-8.141-6.576-14.738-14.705-14.792c1.214-2.151,1.967-4.598,1.967-7.243c0-7.685-5.879-13.928-13.37-14.661
			c2.91-2.704,4.76-6.535,4.76-10.821c0-6.699-4.478-12.292-10.581-14.122c3.282-2.714,5.416-6.767,5.416-11.36
			c0-6.986-4.852-12.802-11.355-14.36c4.495-2.544,7.568-7.311,7.568-12.845c0-5.874-3.449-10.903-8.408-13.297
			c3.62-2.699,5.998-6.976,5.998-11.84c0-8.175-6.631-14.807-14.807-14.807c-8.18,0-14.809,6.631-14.809,14.807
			c0,5.874,3.449,10.908,8.408,13.297c-3.62,2.699-5.998,6.981-5.998,11.84c0,6.986,4.852,12.802,11.355,14.365
			c-4.495,2.539-7.569,7.306-7.569,12.84c0,6.699,4.479,12.292,10.583,14.122c-3.281,2.714-5.417,6.767-5.417,11.359
			c0,7.685,5.879,13.928,13.372,14.661c-2.91,2.704-4.76,6.534-4.76,10.821c0,8.146,6.576,14.743,14.705,14.797
			c-1.213,2.146-1.966,4.597-1.966,7.238c0,8.18,6.632,14.811,14.807,14.811c1.143,0,2.245-0.16,3.316-0.403
			c-0.102,0.699-0.213,1.393-0.213,2.121c0,8.18,6.626,14.807,14.807,14.807c3.083,0,5.942-0.947,8.313-2.558
			c-0.007,0.17-0.051,0.325-0.051,0.495c0,8.175,6.632,14.807,14.807,14.807c4.462,0,8.413-2.014,11.127-5.136
			c1.573,6.496,7.379,11.336,14.355,11.336c5.576,0,10.372-3.121,12.899-7.671c2.403,4.927,7.418,8.355,13.272,8.355
			c5.316,0,9.937-2.821,12.549-7.03c2.525,2,5.675,3.243,9.144,3.243c6.976,0,12.785-4.84,14.355-11.331
			c2.714,3.121,6.668,5.136,11.127,5.136c8.177,0,14.809-6.631,14.809-14.812c0-0.17-0.046-0.325-0.051-0.49
			c2.372,1.612,5.231,2.558,8.314,2.558c8.177,0,14.807-6.632,14.807-14.807c0-0.728-0.112-1.427-0.214-2.126
			c1.068,0.248,2.17,0.403,3.313,0.403c8.178,0,14.807-6.631,14.807-14.807c0-2.646-0.75-5.093-1.967-7.243
			c8.132-0.054,14.707-6.651,14.707-14.792c0-4.286-1.849-8.117-4.757-10.821c7.49-0.733,13.365-6.981,13.365-14.666
			c0-4.592-2.131-8.646-5.416-11.36c6.105-1.825,10.581-7.423,10.581-14.118c0-5.539-3.068-10.301-7.566-12.845
			C1416.315,1802.714,1421.168,1796.903,1421.168,1789.917z"/>
		<g>
			<g>
				<path style="fill:#5ABBE6;" d="M1179.609,1739.492c9.428-80.237,109.566-67.528,155.855-112.394
					c15.552-15.068,14.217-47.478-12.663-47.478c-28.875,0-37.789,48.327-44.352,68.794c-2.037,6.365,7.937,9.064,9.962,2.748
					c4.442-13.86,8.046-27.536,14.425-40.697c3.444-7.107,7.566-13.932,14.044-18.811c12.63-3.666,18.676,1.301,18.14,14.889
					c-1.308,4.932-3.593,9.35-6.86,13.248c-15.918,20.171-53.134,27.142-76.434,35.701c-41.08,15.093-76.948,37.192-82.449,84
					C1168.504,1746.099,1178.842,1746.026,1179.609,1739.492L1179.609,1739.492z"/>
			</g>
		</g>
		<g>
			<g>
				<path style="fill:#5ABBE6;" d="M1399.582,1736.91c-5.069-43.134-35.492-65.11-73.397-80.528
					c-21.846-8.884-44.408-16.773-66.705-24.439c-10.115-3.476-18.504-8.301-24.659-17.175
					c-12.972-18.691,11.136-36.599,25.591-16.793c9.76,13.375,18.12,33.06,19.853,49.231c0.704,6.553,11.042,6.621,10.33,0
					c-2.432-22.671-16.51-66.324-43.162-69.985c-28.482-3.913-29.904,30.696-18.647,46.92c8.802,12.685,26.113,17.151,39.842,21.836
					c15.35,5.238,30.533,11.301,45.765,16.894c35.921,13.2,69.969,32.424,74.858,74.038
					C1390.02,1743.443,1400.358,1743.517,1399.582,1736.91L1399.582,1736.91z"/>
			</g>
		</g>
		<g>
			<path style="fill:#89D5F2;" d="M1376.755,1744.657c-25.361,34.375-29.912,51.915-91.194,52.313
				c-61.282-0.398-65.833-17.938-91.194-52.313c-5.204-7.058-29.094-25.482-27.026,6.884c2,31.342,2.612,79.927,14.976,108.986
				c19.113,44.905,45.469,64.61,102.481,64.207c0.117,0.01,0.231,0.01,0.349,0.015c0.141,0,0.272-0.005,0.413-0.005
				c0.144,0,0.269,0.005,0.413,0.005c0.116-0.005,0.233-0.005,0.349-0.015c57.012,0.403,83.368-19.302,102.478-64.207
				c12.367-29.06,12.979-77.645,14.979-108.986C1405.846,1719.176,1381.959,1737.599,1376.755,1744.657z"/>
		</g>
		<g>
			<path style="fill:#86C9E8;" d="M1267.936,1912.181c-33.319-8.549-54.925-30.443-68.181-61.465
				c-11.918-27.889-7.265-75.533-32.198-95.519c1.842,31.361,2.861,77.363,14.76,105.331c19.113,44.905,45.469,64.61,102.481,64.207
				c0.117,0.01,0.231,0.01,0.349,0.015c0.141,0,0.272-0.005,0.413-0.005c0.144,0,0.269,0.005,0.413,0.005
				c0.116-0.005,0.233-0.005,0.349-0.015c49.983,0.354,76.407-14.758,95.036-48.75
				C1352.788,1903.088,1305.567,1921.837,1267.936,1912.181z"/>
		</g>
		<g>
			<g>
				<g>
					<path style="fill:#3EBDEE;" d="M1288.998,1899.005l-40.08-37.215c-10.068-9.35-10.649-25.089-1.304-35.152
						c9.348-10.069,25.086-10.651,35.152-1.301l5.738,5.326l5.314-5.083c9.932-9.491,25.676-9.136,35.167,0.796
						c9.493,9.928,9.139,25.676-0.791,35.167L1288.998,1899.005z"/>
				</g>
			</g>
			<g>
				<g>
					<path style="fill:#BAD7E7;" d="M1288.763,1882.48l-23.586-21.904c-5.923-5.495-6.265-14.758-0.765-20.68
						c5.498-5.928,14.76-6.272,20.683-0.767l3.376,3.136l3.129-2.99c5.845-5.588,15.108-5.379,20.693,0.466
						c5.585,5.845,5.376,15.108-0.469,20.69L1288.763,1882.48z"/>
				</g>
			</g>
		</g>
		<g>
			<path style="fill:#FFFFFF;" d="M1285.923,1913.904l-0.289-0.01l-0.286-1.029l0.019,1.034l-1.957-0.005
				c-0.573,0-1.087-0.456-1.087-1.029s0.413-1.034,0.983-1.034v1.034l0.022-1.034l1.556-0.005l0.316,1.044v-1.03l2.818-0.009
				c1.194,0,2.374-0.01,3.539-0.024c0.005,0,0.01,0,0.014,0c0.563,0,1.025,0.451,1.034,1.015c0.005,0.573-0.451,1.044-1.019,1.048
				c-1.175,0.019-2.364,0.024-3.568,0.024l-1.815-0.005L1285.923,1913.904z M1270.927,1913.477c-0.027,0-0.049,0-0.075-0.005
				c-2.864-0.204-5.646-0.481-8.277-0.821c-0.565-0.073-0.966-0.592-0.891-1.155c0.073-0.568,0.59-0.976,1.158-0.893
				c2.59,0.335,5.335,0.607,8.156,0.811c0.57,0.039,1,0.534,0.958,1.102C1271.917,1913.059,1271.463,1913.477,1270.927,1913.477z
				 M1303.946,1913.307c-0.534,0-0.988-0.413-1.029-0.952c-0.046-0.568,0.378-1.068,0.947-1.111
				c2.821-0.223,5.563-0.515,8.153-0.869c0.575-0.049,1.085,0.321,1.163,0.883c0.078,0.568-0.318,1.088-0.883,1.165
				c-2.629,0.354-5.408,0.656-8.267,0.879C1303.999,1913.307,1303.97,1913.307,1303.946,1913.307z M1250.537,1910.394
				c-0.083,0-0.167-0.009-0.25-0.034c-2.774-0.689-5.466-1.495-8-2.394c-0.539-0.189-0.821-0.777-0.631-1.315
				c0.189-0.539,0.78-0.811,1.316-0.626c2.476,0.869,5.104,1.655,7.816,2.335c0.554,0.136,0.888,0.699,0.753,1.248
				C1251.421,1910.078,1251.001,1910.394,1250.537,1910.394z M1324.325,1910.141c-0.464,0-0.883-0.315-1-0.786
				c-0.141-0.553,0.197-1.112,0.75-1.252c2.721-0.679,5.355-1.461,7.821-2.33c0.541-0.16,1.129,0.102,1.318,0.631
				c0.189,0.544-0.095,1.131-0.631,1.32c-2.529,0.883-5.224,1.69-8.005,2.384
				C1324.495,1910.132,1324.408,1910.141,1324.325,1910.141z M1231.35,1902.942c-0.17,0-0.345-0.044-0.505-0.131
				c-2.437-1.369-4.809-2.898-7.039-4.539c-0.461-0.34-0.558-0.985-0.219-1.447c0.335-0.456,0.983-0.558,1.442-0.218
				c2.165,1.597,4.461,3.078,6.828,4.403c0.498,0.282,0.678,0.908,0.396,1.403
				C1232.063,1902.753,1231.711,1902.942,1231.35,1902.942z M1343.537,1902.748c-0.361,0-0.716-0.194-0.905-0.534
				c-0.276-0.5-0.097-1.126,0.403-1.403c2.384-1.32,4.685-2.791,6.842-4.374c0.461-0.33,1.109-0.238,1.445,0.228
				c0.337,0.461,0.238,1.107-0.224,1.447c-2.228,1.626-4.604,3.146-7.061,4.505
				C1343.877,1902.704,1343.707,1902.748,1343.537,1902.748z M1215.174,1890.262c-0.272,0-0.549-0.111-0.753-0.325
				c-1.867-1.985-3.682-4.131-5.398-6.389c-0.345-0.451-0.258-1.097,0.194-1.447c0.456-0.349,1.102-0.252,1.447,0.199
				c1.675,2.195,3.447,4.287,5.262,6.219c0.391,0.413,0.374,1.073-0.044,1.461
				C1215.684,1890.17,1215.429,1890.262,1215.174,1890.262z M1359.737,1890.102c-0.252,0-0.505-0.097-0.706-0.282
				c-0.417-0.388-0.436-1.043-0.048-1.461c1.81-1.927,3.57-4.025,5.231-6.238c0.345-0.456,0.993-0.544,1.449-0.204
				c0.454,0.34,0.546,0.99,0.204,1.447c-1.706,2.272-3.515,4.427-5.374,6.408C1360.288,1889.99,1360.014,1890.102,1359.737,1890.102
				z M1203.008,1873.635c-0.354,0-0.699-0.184-0.893-0.515c-1.34-2.311-2.66-4.782-3.927-7.34c-0.257-0.51-0.049-1.126,0.466-1.379
				c0.51-0.257,1.129-0.049,1.384,0.461c1.248,2.52,2.549,4.947,3.865,7.224c0.286,0.49,0.119,1.126-0.374,1.412
				C1203.363,1873.591,1203.183,1873.635,1203.008,1873.635z M1371.769,1873.387c-0.169,0-0.344-0.044-0.504-0.131
				c-0.495-0.277-0.675-0.908-0.396-1.403c1.284-2.287,2.546-4.734,3.75-7.282c0.245-0.51,0.861-0.743,1.378-0.49
				c0.515,0.243,0.733,0.864,0.491,1.379c-1.228,2.587-2.51,5.077-3.816,7.398
				C1372.483,1873.198,1372.134,1873.387,1371.769,1873.387z M1194.044,1855.046c-0.41,0-0.799-0.243-0.959-0.646
				c-0.985-2.456-1.959-5.083-2.893-7.801c-0.184-0.544,0.102-1.126,0.641-1.311c0.544-0.189,1.128,0.102,1.315,0.641
				c0.918,2.685,1.881,5.277,2.854,7.704c0.214,0.529-0.043,1.126-0.575,1.34
				C1194.304,1855.022,1194.173,1855.046,1194.044,1855.046z M1380.323,1854.609c-0.114,0-0.233-0.019-0.347-0.063
				c-0.536-0.189-0.818-0.781-0.624-1.315c0.859-2.413,1.714-5.039,2.534-7.811c0.165-0.544,0.74-0.879,1.286-0.694
				c0.544,0.16,0.859,0.733,0.694,1.286c-0.832,2.801-1.697,5.467-2.571,7.913
				C1381.149,1854.347,1380.748,1854.609,1380.323,1854.609z M1187.503,1835.453c-0.452,0-0.865-0.301-0.993-0.752
				c-0.736-2.636-1.44-5.316-2.105-8.035c-0.136-0.553,0.201-1.112,0.753-1.247c0.563-0.136,1.116,0.204,1.252,0.757
				c0.663,2.689,1.36,5.355,2.088,7.966c0.155,0.549-0.165,1.117-0.716,1.277C1187.69,1835.439,1187.595,1835.453,1187.503,1835.453
				z M1386.037,1834.754c-0.078,0-0.156-0.005-0.233-0.029c-0.558-0.126-0.903-0.684-0.772-1.243
				c0.619-2.636,1.209-5.326,1.765-8.044c0.114-0.563,0.658-0.903,1.221-0.806c0.558,0.116,0.918,0.66,0.803,1.218
				c-0.561,2.743-1.153,5.452-1.779,8.107C1386.93,1834.434,1386.508,1834.754,1386.037,1834.754z M1182.692,1815.35
				c-0.483,0-0.913-0.335-1.012-0.825c-0.556-2.709-1.075-5.432-1.566-8.146c-0.097-0.563,0.274-1.097,0.835-1.199
				c0.563-0.107,1.1,0.272,1.199,0.835c0.486,2.699,1.005,5.404,1.553,8.098c0.116,0.558-0.243,1.107-0.801,1.219
				C1182.828,1815.345,1182.76,1815.35,1182.692,1815.35z M1390.076,1814.486c-0.054,0-0.114-0.004-0.17-0.014
				c-0.563-0.097-0.942-0.626-0.85-1.194c0.459-2.709,0.888-5.432,1.296-8.151c0.085-0.568,0.612-0.961,1.175-0.869
				c0.563,0.083,0.951,0.607,0.869,1.175c-0.408,2.728-0.843,5.466-1.301,8.194
				C1391.008,1814.132,1390.571,1814.486,1390.076,1814.486z M1287.047,1806.986c-2.488-0.019-4.884-0.068-7.204-0.146
				c-0.573-0.024-1.017-0.5-0.995-1.073c0.019-0.563,0.515-1.029,1.068-0.995c2.299,0.083,4.677,0.131,7.139,0.146l1.071-0.009
				c0.005,0,0.007,0,0.012,0c0.566,0,1.027,0.456,1.031,1.024c0.007,0.573-0.451,1.034-1.019,1.044L1287.047,1806.986z
				 M1300.509,1806.471c-0.534,0-0.986-0.413-1.029-0.956c-0.042-0.568,0.383-1.063,0.953-1.107
				c2.864-0.218,5.605-0.495,8.154-0.835c0.568-0.039,1.087,0.33,1.16,0.888c0.075,0.568-0.323,1.088-0.888,1.16
				c-2.583,0.34-5.369,0.626-8.27,0.845C1300.562,1806.471,1300.535,1806.471,1300.509,1806.471z M1267.521,1806.039
				c-0.031,0-0.068,0-0.102-0.004c-2.859-0.282-5.636-0.636-8.248-1.049c-0.563-0.088-0.947-0.616-0.859-1.18
				c0.09-0.563,0.626-0.918,1.182-0.864c2.571,0.408,5.309,0.757,8.129,1.034c0.568,0.058,0.981,0.563,0.928,1.131
				C1268.497,1805.641,1268.046,1806.039,1267.521,1806.039z M1320.874,1803.301c-0.461,0-0.879-0.311-1-0.771
				c-0.141-0.554,0.192-1.116,0.743-1.258c2.699-0.694,5.309-1.524,7.753-2.451c0.539-0.219,1.131,0.063,1.335,0.597
				c0.204,0.534-0.066,1.131-0.599,1.33c-2.517,0.961-5.199,1.811-7.971,2.524
				C1321.046,1803.292,1320.961,1803.301,1320.874,1803.301z M1247.239,1802.369c-0.093,0-0.189-0.014-0.282-0.043
				c-2.767-0.786-5.427-1.69-7.913-2.685c-0.529-0.213-0.786-0.815-0.573-1.345c0.211-0.529,0.811-0.786,1.345-0.578
				c2.417,0.971,5.01,1.854,7.709,2.621c0.548,0.161,0.864,0.728,0.709,1.277C1248.103,1802.073,1247.69,1802.369,1247.239,1802.369
				z M1339.797,1795.31c-0.34,0-0.675-0.17-0.874-0.481c-0.306-0.485-0.16-1.121,0.321-1.422c2.252-1.432,4.391-2.995,6.534-4.801
				c0.435-0.369,1.088-0.316,1.454,0.126c0.366,0.437,0.311,1.087-0.126,1.456c-2.214,1.859-4.422,3.485-6.758,4.961
				C1340.176,1795.257,1339.986,1795.31,1339.797,1795.31z M1179.14,1794.985c-0.502,0-0.944-0.369-1.022-0.883
				c-0.403-2.767-0.77-5.51-1.102-8.214c-0.073-0.568,0.33-1.083,0.898-1.15c0.554-0.049,1.08,0.33,1.151,0.898
				c0.33,2.69,0.699,5.418,1.1,8.171c0.083,0.563-0.308,1.087-0.874,1.17C1179.242,1794.98,1179.192,1794.985,1179.14,1794.985z
				 M1228.42,1794.092c-0.187,0-0.381-0.053-0.551-0.16c-2.33-1.485-4.547-3.088-6.777-4.913c-0.442-0.359-0.507-1.015-0.146-1.452
				c0.364-0.442,1.015-0.51,1.452-0.146c2.167,1.772,4.318,3.326,6.578,4.762c0.481,0.311,0.624,0.947,0.318,1.427
				C1229.097,1793.922,1228.762,1794.092,1228.42,1794.092z M1393.042,1794.024c-0.041,0-0.083-0.005-0.126-0.01
				c-0.568-0.068-0.971-0.588-0.898-1.151c0.34-2.777,0.65-5.515,0.937-8.194c0.063-0.573,0.568-1.024,1.141-0.922
				c0.565,0.068,0.978,0.573,0.915,1.14c-0.289,2.694-0.602,5.442-0.944,8.229
				C1394.004,1793.641,1393.557,1794.024,1393.042,1794.024z M1355.225,1781.718c-0.243,0-0.485-0.083-0.685-0.257
				c-0.427-0.374-0.468-1.029-0.092-1.457c1.631-1.859,3.335-3.932,5.211-6.325c0.352-0.452,1-0.529,1.449-0.18
				c0.451,0.349,0.529,1,0.179,1.452c-1.898,2.427-3.631,4.525-5.286,6.418C1355.798,1781.601,1355.511,1781.718,1355.225,1781.718z
				 M1212.786,1780.723c-0.279,0-0.553-0.112-0.757-0.331c-1.753-1.903-3.535-3.956-5.445-6.292
				c-0.361-0.441-0.298-1.092,0.143-1.452c0.439-0.369,1.093-0.301,1.452,0.146c1.889,2.296,3.641,4.33,5.367,6.195
				c0.386,0.418,0.362,1.068-0.056,1.456C1213.291,1780.635,1213.038,1780.723,1212.786,1780.723z M1176.733,1774.465
				c-0.532,0-0.981-0.403-1.027-0.942c-0.226-2.549-0.415-5.039-0.57-7.452l-0.051-0.825c-0.029-0.573,0.408-1.058,0.981-1.088
				c0.546-0.048,1.053,0.408,1.085,0.976l0.046,0.801c0.156,2.403,0.345,4.879,0.568,7.408c0.048,0.568-0.371,1.073-0.942,1.122
				C1176.793,1774.465,1176.762,1774.465,1176.733,1774.465z M1395.159,1773.455c-0.024,0-0.058,0-0.085-0.004
				c-0.57-0.049-0.993-0.544-0.944-1.112c0.238-2.869,0.444-5.621,0.619-8.233c0.039-0.568,0.546-1.039,1.1-0.961
				c0.57,0.039,1,0.529,0.961,1.097c-0.175,2.622-0.381,5.394-0.621,8.263C1396.145,1773.047,1395.693,1773.455,1395.159,1773.455z
				 M1367.903,1765.435c-0.211,0-0.424-0.063-0.609-0.194c-0.461-0.34-0.561-0.985-0.224-1.447l0.804-1.097
				c1.323-1.811,2.677-3.665,4.085-5.568c1.233-1.675,3.287-3.768,5.488-5.588c0.439-0.374,1.09-0.306,1.454,0.136
				c0.364,0.437,0.301,1.087-0.136,1.452c-2.449,2.029-4.263,4.029-5.144,5.224c-1.406,1.907-2.76,3.757-4.08,5.563l-0.803,1.097
				C1368.536,1765.29,1368.221,1765.435,1367.903,1765.435z M1199.78,1764.697c-0.313,0-0.624-0.146-0.828-0.418
				c-0.859-1.145-1.731-2.321-2.612-3.515c-0.624-0.849-1.493-1.859-2.449-2.845c-0.396-0.413-0.383-1.068,0.027-1.461
				c0.41-0.393,1.065-0.384,1.458,0.024c1.032,1.068,1.937,2.121,2.627,3.053l2.604,3.51c0.342,0.456,0.25,1.107-0.209,1.447
				C1200.212,1764.63,1199.996,1764.697,1199.78,1764.697z M1177.614,1754.046c-0.153,0-0.311-0.039-0.461-0.111
				c-0.509-0.257-0.713-0.874-0.459-1.388c1.615-3.209,4.498-4.408,8.139-3.33c0.546,0.16,0.859,0.733,0.694,1.282
				c-0.163,0.544-0.728,0.869-1.284,0.694c-2.653-0.786-4.522-0.068-5.702,2.282
				C1178.359,1753.833,1177.993,1754.046,1177.614,1754.046z M1394.979,1752.925c-0.429,0-0.83-0.272-0.976-0.704
				c-0.942-2.806-2.539-4.165-4.879-4.165c-0.573,0-1.056-0.461-1.056-1.034c0-0.568,0.439-1.034,1.012-1.034
				c2.306,0,5.33,0.966,6.879,5.573c0.182,0.539-0.107,1.126-0.651,1.311C1395.203,1752.906,1395.091,1752.925,1394.979,1752.925z"
				/>
		</g>
	</g>
	<g>
		<path style="fill:#3BB7E5;" d="M626.712,1793.592c0,0,25.37,116.161,190.092,146.604c117.264,21.671-44.034-186.47-44.034-186.47
			L626.712,1793.592z"/>
		<path style="fill:#3BB7E5;" d="M1086.774,1793.592c0,0-25.371,116.161-190.095,146.604
			c-117.263,21.671,44.036-186.47,44.036-186.47L1086.774,1793.592z"/>
		<g>
			<path style="fill:#89D5F2;" d="M1023.043,1622.53c0,0-26.305,11.549-98.583,18.122c-34.951,3.175-100.428,3.175-135.381,0
				c-72.276-6.573-98.581-18.122-98.581-18.122c-11.236-5.801-67.414,157.654-63.787,171.062
				c3.624,13.414,78.285,17.399,113.079,46.396c31.895,28.992,28.992,81.184,60.886,95.68c7.525,5.015,39.953,8.933,56.093,8.029
				c16.139,0.903,48.568-3.015,56.093-8.029c31.895-14.496,28.994-66.688,60.886-95.68c34.794-28.997,109.455-32.982,113.079-46.396
				C1090.454,1780.184,1034.276,1616.729,1023.043,1622.53z"/>
		</g>
		<g>
			<path style="fill:#B4E3F4;" d="M1041.437,1652.051c-46.017,64.552-120.147,105.131-191.893,135.026
				c-41.216,17.176-83.541,31.268-126.662,41.997c6.219,3.204,11.972,6.802,16.909,10.913c1.119,1.02,2.102,2.127,3.141,3.199
				c1.017-0.519,2.017-1.063,3.044-1.568c41.536-20.467,86.131-32.594,130.05-46.692c45.308-14.549,94.039-30.332,132.594-59.13
				c19.797-14.787,34.837-32.443,45.39-52.58C1049.719,1671.882,1045.434,1661.221,1041.437,1652.051z"/>
		</g>
		<g>
			<g>
				<path style="fill:#DBB486;" d="M1033.538,1746.556c-3.189,0.981-6.248,0.583-9.093-1.189
					c-11.306-7.04-15.654-33.526-15.836-34.648l1.563-0.248c0.039,0.267,4.413,26.895,15.11,33.555
					c2.474,1.539,5.022,1.874,7.789,1.019c2.068-0.636,3.535-1.957,4.481-4.044c4.959-10.894-6.724-37.424-6.843-37.691l1.445-0.646
					c0.495,1.116,12.088,27.453,6.84,38.993C1037.864,1744.143,1036.029,1745.788,1033.538,1746.556z"/>
			</g>
			<g>
				<path style="fill:#DBAB6E;" d="M1013.646,1709.423c-0.039-1.272,0.893-7.302,5.889-8.836c4.335-1.335,7.416,2.447,8.604,4.238
					l6.275-1.792c-1.104-4.355-6.255-20.923-19.921-16.598c-13.554,4.286-8.092,22.637-7.335,24.981L1013.646,1709.423z"/>
				<path style="fill:#CE9E5B;" d="M1017.867,1696.368c-3.98,2.923-2.242,9.568-7.964,11.001c-4.682,1.17-3.755-7.36-3.456-9.617
					c0.34-2.553,0.93-4.922,1.874-7.107c-5.313,6.996-1.765,18.914-1.163,20.773l6.488-1.995c-0.039-1.272,0.893-7.302,5.889-8.836
					c4.335-1.335,7.416,2.447,8.604,4.238l1.437-0.408C1027.465,1699.374,1023.052,1692.563,1017.867,1696.368z"/>
				<path style="fill:#DBB486;" d="M1016.479,1687.062c0,0,10.057-2.679,14.676,10.093c0.67,1.864-1.617-0.151-2.02-0.525
					c-1.214-1.121-2.223-2.432-3.35-3.636c-2.514-2.694-5.481-4.724-9.318-3.723c-0.563,0.146-3.051,1.029-3.34,0.068
					C1012.814,1688.29,1015.799,1687.246,1016.479,1687.062z"/>
			</g>
			<g>
				<path style="fill:#DBB486;" d="M1033.021,1746.439c-5.309,1.636-10.954-1.355-12.586-6.665
					c-1.636-5.306,1.355-10.952,6.663-12.588c5.308-1.631,10.954,1.36,12.59,6.665
					C1041.32,1739.162,1038.33,1744.808,1033.021,1746.439z M1027.562,1728.695c-4.474,1.379-6.995,6.136-5.619,10.617
					c1.376,4.471,6.138,6.995,10.612,5.617c4.476-1.374,6.998-6.136,5.619-10.612
					C1036.801,1729.841,1032.038,1727.322,1027.562,1728.695z"/>
			</g>
		</g>
		<g>
			<path style="fill:#FECE93;" d="M702.516,1689.591c2.427,0.738,3.027,18.443,3.027,18.443s16.464,5.898,16.906,7.961
				c0.441,2.064-16.603,8.578-16.603,8.578s-0.738,17.763-2.349,18.54c-1.612,0.782-13.29-13.141-13.29-13.141
				s-17.071,5.204-18.357,3.495c-1.292-1.709,8.393-16.695,8.393-16.695s-9.558-14.302-9-16.384
				c0.558-2.078,18.474,2.821,18.474,2.821S700.089,1688.849,702.516,1689.591z"/>
			<path style="fill:#FFEFC8;" d="M702.293,1692.281c0,0-2.238,11.258,0.811,14.972
				C706.148,1710.966,703.517,1688.276,702.293,1692.281z"/>
		</g>
		
			<path style="fill:none;stroke:#FFFFFF;stroke-width:2.4856;stroke-linecap:round;stroke-miterlimit:10;stroke-dasharray:9.9423,14.9134;" d="
			M1027.193,1642.827c0,0-50.537,15.447-112.443,20.952c-29.939,2.661-86.024,2.661-115.96,0
			c-61.908-5.505-102.129-18.782-102.129-18.782c-9.627-4.854-60.731,131.206-57.629,142.439
			c3.105,11.229,87.737,19.026,117.54,43.313c27.317,24.288,24.834,68.004,52.153,80.15c6.442,4.199,34.22,7.481,48.044,6.723
			c13.824,0.758,41.602-2.524,48.046-6.723c27.317-12.146,24.834-55.862,52.151-80.15c29.802-24.287,113.88-35.346,116.982-46.575
			C1077.055,1772.94,1036.82,1637.968,1027.193,1642.827z"/>
		<g>
			<path style="fill:#3BB7E5;" d="M1049.86,1671.994c1.078-0.321,2.151-0.738,3.214-1.262c9.073-4.462,14.136-9.166,11.646-19.394
				c-3.636-14.957-22.018-24.919-36.036-28.263c-5.544-1.325-10.03,1.17-15.593,2.83c-28.633,8.534-58.989,12.054-88.631,14.748
				c-34.951,3.175-100.428,3.175-135.381,0c-17.492-1.592-34.958-3.616-52.265-6.621c-16.016-2.787-30.433-8.894-45.871-14.054
				c-11.404-3.811-32.303,12.088-37.25,21.744c-6.687,13.054,7.204,22.036,17.186,26.526c14.374,6.471,25.652,1.98,39.91-2.447
				c15.447-4.792,28.485,9.646,41.645,14.943c16.736,6.728,35.024,0.849,51.33-4.393c22.404-7.205,47.08-6.777,68.853,2.179
				c13.926,5.724,27.904,8.2,43.131,7.423c15.044-0.767,24.193-9.578,36.567-16.685c24.521-14.079,48.202-4.898,73.795,0.757
				C1034.58,1671.897,1042.367,1674.227,1049.86,1671.994z"/>
		</g>
	</g>
	<g>
		<path style="fill:none;stroke:#008FB8;stroke-width:3.7283;stroke-miterlimit:10;stroke-dasharray:19.8845,14.9134;" d="
			M1508.252,1616.695c-16.608-42.556-13.491-70.582-1.039-112.103c12.457-42.556,6.229-93.412-5.189-134.934"/>
		<g>
			<path style="fill:#FECE93;" d="M1553.429,1658.789c-28.698-5.583-47.437-33.371-41.856-62.071
				c1.743-8.952,5.646-16.933,11.059-23.506c-21.861,2.961-40.405,19.458-44.852,42.313c-5.578,28.7,13.161,56.488,41.857,62.066
				c19.748,3.84,39.06-3.835,51.007-18.346C1565.061,1660.003,1559.269,1659.92,1553.429,1658.789z"/>
			<path style="fill:#FFEFC8;" d="M1490.926,1599.577c0,0-14.831,43.643,16.841,65.659c0,0,2.291,9.967-12.85-4.612
				c-15.141-14.574-21.348-37.05-7.047-61.639C1494.224,1588.057,1490.926,1599.577,1490.926,1599.577z"/>
		</g>
		<path style="fill:none;stroke:#008FB8;stroke-width:3.7283;stroke-miterlimit:10;stroke-dasharray:19.8845,14.9134;" d="
			M1588.174,1395.61c-25.638,47.998-5.85,104.229,2.879,153.406c4.437,24.982,6.99,50.901,4.413,76.237
			c-2.772,27.283-11.603,52.988-22.598,77.951c-10.777,24.472-22.632,47.716-21.02,75.412"/>
		<g>
			<path style="fill:#FECE93;" d="M1561.328,1713.209c5.189,0,16.913,34.274,16.913,34.274s35.721,1.723,37.817,5.495
				c2.097,3.767-27.365,26.671-27.365,26.671s9.146,35.182,6.461,37.667c-2.687,2.486-33.827-17.783-33.827-17.783
				s-30.286,20.36-33.827,17.783c-3.539-2.573,6.461-37.667,6.461-37.667s-27.215-22.273-27.366-26.671
				c-0.151-4.403,37.817-5.495,37.817-5.495S1556.138,1713.209,1561.328,1713.209z"/>
			<path style="fill:#FFEFC8;" d="M1562.497,1718.603c0,0,2.333,23.355,10.508,28.802
				C1581.178,1752.857,1562.497,1710.039,1562.497,1718.603z"/>
		</g>
		<path style="fill:none;stroke:#008FB8;stroke-width:3.7283;stroke-miterlimit:10;stroke-dasharray:19.8845,14.9134;" d="
			M1673.287,1855.42c17.42-39.774,41.849-88.218,32.227-133.691c-5.272-24.899-19.664-48.138-26.001-73.043
			c-8.51-33.448-16.26-70.091-16.627-104.709c-0.374-35.409,2.534-71.683,1.058-106.85"/>
		<path style="fill:none;stroke:#008FB8;stroke-width:3.7283;stroke-miterlimit:10;stroke-dasharray:19.8845,14.9134;" d="
			M1745.944,1360.317c-9.442,35.667-21.715,70.14-12.399,106.986c4.612,18.234,10.404,35.099,12.341,53.896
			c3.276,31.798,4.743,66.266-3.059,97.568"/>
		<g>
			<path style="fill:#FECE93;" d="M1747.624,1584.843c2.942,0,9.593,19.438,9.593,19.438s20.263,0.976,21.452,3.116
				c1.189,2.136-15.523,15.132-15.523,15.132s5.187,19.953,3.663,21.365c-1.524,1.408-19.185-10.088-19.185-10.088
				s-17.181,11.544-19.188,10.088c-2.007-1.461,3.665-21.365,3.665-21.365s-15.438-12.637-15.523-15.132
				c-0.087-2.5,21.453-3.116,21.453-3.116S1744.682,1584.843,1747.624,1584.843z"/>
			<path style="fill:#FFEFC8;" d="M1748.284,1587.897c0,0,1.325,13.248,5.961,16.341
				C1758.884,1607.33,1748.284,1583.042,1748.284,1587.897z"/>
		</g>
		<g>
			<path style="fill:#FECE93;" d="M1703.898,1712.413c1.951,0,6.364,12.894,6.364,12.894s13.438,0.646,14.227,2.068
				c0.788,1.418-10.294,10.035-10.294,10.035s3.441,13.239,2.429,14.171c-1.012,0.937-12.726-6.69-12.726-6.69
				s-11.396,7.661-12.729,6.69c-1.33-0.966,2.432-14.171,2.432-14.171s-10.241-8.38-10.297-10.035
				c-0.058-1.66,14.229-2.068,14.229-2.068S1701.944,1712.413,1703.898,1712.413z"/>
			<path style="fill:#FFEFC8;" d="M1704.337,1714.442c0,0,0.876,8.787,3.955,10.835
				C1711.364,1727.326,1704.337,1711.219,1704.337,1714.442z"/>
		</g>
		<g>
			<path style="fill:#FECE93;" d="M1748.243,1823.385l-4.537-2.491c-9.078,23.254-17.586,17.025-17.586,17.025
				c-9.36-2.908-2.551-24.914-2.551-24.914l-7.093-1.66c-2.835,31.555-17.302,23.253-17.302,23.253
				c-9.714-5.835-11.336-37.618-11.583-45.259h-5.758c-0.253,7.641-1.869,39.424-11.588,45.259c0,0-14.462,8.302-17.299-23.253
				l-7.09,1.66c0,0,6.806,22.006-2.554,24.914c0,0-8.51,6.228-17.583-17.025l-4.539,2.491c0,0,9.088,21.792,7.743,54.396
				l54.085,0.393v0.024l1.704-0.015l1.699,0.015v-0.024l54.088-0.393C1739.157,1845.177,1748.243,1823.385,1748.243,1823.385z"/>
			<g>
				<path style="fill:#FDC891;" d="M1631.559,1821.933c0,4.243-3.437,7.68-7.68,7.68c-4.243,0-7.682-3.437-7.682-7.68
					c0-4.243,3.439-7.68,7.682-7.68C1628.122,1814.253,1631.559,1817.69,1631.559,1821.933z"/>
				<path style="fill:#FEEAE5;" d="M1628.239,1818.38c0,1.073-0.975,1.942-2.179,1.942s-2.18-0.869-2.18-1.942
					c0-1.078,0.976-1.947,2.18-1.947S1628.239,1817.302,1628.239,1818.38z"/>
			</g>
			<g>
				<path style="fill:#FDC891;" d="M1656.162,1811.578c0,4.243-3.437,7.68-7.68,7.68s-7.68-3.437-7.68-7.68
					c0-4.243,3.437-7.685,7.68-7.685S1656.162,1807.335,1656.162,1811.578z"/>
				<path style="fill:#FEEAE5;" d="M1652.842,1808.02c0,1.078-0.976,1.951-2.18,1.951c-1.204,0-2.18-0.874-2.18-1.951
					c0-1.073,0.976-1.942,2.18-1.942C1651.866,1806.078,1652.842,1806.947,1652.842,1808.02z"/>
			</g>
			<g>
				<path style="fill:#FDC891;" d="M1728.414,1811.991c0,4.243-3.437,7.685-7.68,7.685c-4.243,0-7.682-3.442-7.682-7.685
					c0-4.238,3.439-7.68,7.682-7.68C1724.977,1804.311,1728.414,1807.753,1728.414,1811.991z"/>
				<path style="fill:#FEEAE5;" d="M1725.093,1808.438c0,1.077-0.976,1.947-2.179,1.947c-1.204,0-2.18-0.87-2.18-1.947
					c0-1.073,0.976-1.947,2.18-1.947C1724.117,1806.49,1725.093,1807.364,1725.093,1808.438z"/>
			</g>
			<g>
				<path style="fill:#FDC891;" d="M1754.158,1821.958c0,4.243-3.437,7.685-7.68,7.685c-4.243,0-7.68-3.442-7.68-7.685
					c0-4.243,3.437-7.68,7.68-7.68C1750.721,1814.278,1754.158,1817.715,1754.158,1821.958z"/>
				<path style="fill:#FEEAE5;" d="M1750.837,1818.404c0,1.073-0.975,1.947-2.179,1.947s-2.18-0.873-2.18-1.947
					c0-1.073,0.976-1.947,2.18-1.947S1750.837,1817.331,1750.837,1818.404z"/>
			</g>
			<g>
				<path style="fill:#FDC891;" d="M1692.291,1788.325c0,4.243-3.442,7.68-7.685,7.68c-4.24,0-7.68-3.437-7.68-7.68
					c0-4.243,3.439-7.68,7.68-7.68C1688.849,1780.645,1692.291,1784.082,1692.291,1788.325z"/>
				<path style="fill:#FEEAE5;" d="M1688.967,1784.771c0,1.073-0.978,1.947-2.179,1.947c-1.207,0-2.182-0.874-2.182-1.947
					c0-1.078,0.976-1.947,2.182-1.947C1687.99,1782.824,1688.967,1783.693,1688.967,1784.771z"/>
			</g>
			<path style="fill:#FED7B4;" d="M1739.47,1845.031c0,0-1.92,6.384-2.335,25.899c0,0-3.738,6.646-4.566-1.247
				c-0.832-7.889-1.507-15.933,4.722-27.142C1743.519,1831.327,1739.47,1845.031,1739.47,1845.031z"/>
		</g>
		<path style="fill:none;stroke:#008FB8;stroke-width:3.7283;stroke-miterlimit:10;stroke-dasharray:19.8845,14.9134;" d="
			M1817.564,1355.128c-16.763,46.692-26.686,95.806-20.618,145.488c7.472,61.158,35.196,120.185,27.096,182.791
			c-2.929,22.623-3.063,53.236-11.668,74.446"/>
		<g>
			<g>
				<path style="fill:#FECE93;" d="M1812.562,1799.762l-49.435-45.905c-12.413-11.53-13.134-30.939-1.604-43.357
					c11.527-12.413,30.938-13.132,43.354-1.602l7.075,6.568l6.554-6.267c12.248-11.705,31.667-11.268,43.376,0.98
					c11.704,12.248,11.268,31.667-0.978,43.371L1812.562,1799.762z"/>
			</g>
			<path style="fill:#FFEFC8;" d="M1836.878,1706.408c-3.794,5.631,3.075,5.709,7.682,8.122c4.755,2.49,8.738,6.83,11.855,11.195
				c3.294,4.612,2.583,12.646,6.37,11.418c4.524-1.471,3.908-7.117,2.631-10.758c-4.607-13.171-9.258-17.69-18.22-20.855
				C1843.464,1704.213,1838.495,1704.015,1836.878,1706.408z"/>
		</g>
		<g>
			<g>
				<path style="fill:#FECE93;" d="M1595.198,1623.306l-19.392-18.005c-4.869-4.52-5.153-12.136-0.629-17.006
					c4.52-4.874,12.136-5.156,17.006-0.631l2.777,2.578l2.573-2.457c4.801-4.592,12.42-4.422,17.011,0.384
					c4.595,4.801,4.422,12.423-0.384,17.015L1595.198,1623.306z"/>
			</g>
			<path style="fill:#FFEFC8;" d="M1604.738,1586.688c-1.488,2.209,1.207,2.238,3.015,3.185c1.864,0.98,3.428,2.679,4.651,4.393
				c1.292,1.811,1.015,4.962,2.495,4.476c1.777-0.578,1.534-2.791,1.035-4.219c-1.806-5.166-3.631-6.937-7.146-8.18
				C1607.32,1585.829,1605.373,1585.746,1604.738,1586.688z"/>
		</g>
		<g>
			<g>
				<path style="fill:#FECE93;" d="M1804.864,1559.993l-19.392-18.006c-4.869-4.524-5.153-12.137-0.628-17.01
					c4.522-4.869,12.136-5.151,17.006-0.626l2.777,2.578l2.573-2.461c4.804-4.587,12.421-4.417,17.013,0.384
					c4.592,4.806,4.42,12.423-0.386,17.015L1804.864,1559.993z"/>
			</g>
			<path style="fill:#FFEFC8;" d="M1814.404,1523.374c-1.488,2.209,1.206,2.238,3.015,3.184c1.867,0.976,3.427,2.68,4.651,4.394
				c1.291,1.806,1.015,4.962,2.495,4.476c1.777-0.578,1.534-2.791,1.034-4.219c-1.806-5.166-3.631-6.942-7.146-8.18
				C1816.986,1522.51,1815.04,1522.432,1814.404,1523.374z"/>
		</g>
		<g>
			<g>
				<path style="fill:#89D5F2;" d="M1961.474,1313.97c0-34.225-25.375-63.231-60.591-73.659c0.624-4.374,1.054-8.806,1.054-13.351
					c0-51.847-42.029-93.878-93.879-93.878c-13.04,0-25.453,2.665-36.74,7.471c-15.62-36.463-55.804-62.425-102.933-62.425
					c-38.434,0-72.241,17.273-91.883,43.42c-11.277-4.365-23.525-6.782-36.341-6.782c-50.488,0-92.296,37.133-99.612,85.582
					c-4.122-0.51-8.301-0.864-12.586-0.864c-49.32,0-89.3,34.856-89.3,77.849c0,31.7,21.766,58.925,52.949,71.067
					c-0.124,1.874-0.284,3.738-0.284,5.641c0,46.158,37.417,83.577,83.575,83.577c17.013,0,32.825-5.112,46.027-13.845
					c17.615,32.541,55.481,55.061,99.372,55.061c35.162,0,66.445-14.466,86.562-36.948c18.472,21.225,45.663,34.657,76.009,34.657
					c50.379,0,92.117-36.978,99.563-85.271C1926.915,1386.824,1961.474,1353.938,1961.474,1313.97z"/>
			</g>
			<g>
				<path style="fill:#6FCFF1;" d="M1863.838,1382.843c-50.76,39.687-132.327,36.958-177.592-10.04
					c-21.792,21.574-73.601,29.41-101.607,18.205c-16.865-6.748-62.909-29.239-69.882-67.343
					c-4.602-25.138-32.98-20.496-50.891-39.585c-23.14-24.666-23.647-59.086-21.916-91.009c-0.546,2.398-1.026,4.82-1.4,7.277
					c-4.122-0.51-8.301-0.864-12.586-0.864c-49.32,0-89.3,34.856-89.3,77.853c0,31.696,21.766,58.921,52.949,71.062
					c-0.124,1.874-0.284,3.738-0.284,5.641c0,46.158,37.417,83.577,83.575,83.577c17.013,0,32.825-5.112,46.027-13.845
					c17.615,32.541,55.481,55.061,99.372,55.061c35.162,0,66.445-14.466,86.562-36.948c18.472,21.225,45.663,34.657,76.009,34.657
					c47.614,0,87.49-33.036,98.015-77.431C1874.756,1394.343,1869.043,1388.916,1863.838,1382.843z"/>
			</g>
			<g>
				<path style="fill:#FFFFFF;" d="M1615.044,1460.162c-0.061,0-0.121-0.005-0.18-0.005c-2.146-0.121-4.267-0.301-6.374-0.534
					c-1.707-0.189-2.937-1.729-2.748-3.437c0.189-1.714,1.724-2.937,3.438-2.753c1.995,0.223,4.007,0.393,6.036,0.51
					c1.719,0.097,3.032,1.563,2.932,3.282C1618.054,1458.881,1616.68,1460.162,1615.044,1460.162z M1633.693,1459.701
					c-1.573,0-2.925-1.185-3.095-2.782c-0.182-1.708,1.056-3.243,2.767-3.427c2.024-0.214,4.025-0.486,6.005-0.806
					c1.697-0.291,3.296,0.878,3.571,2.578c0.271,1.699-0.881,3.296-2.58,3.573c-2.087,0.335-4.202,0.621-6.335,0.849
					C1633.914,1459.696,1633.802,1459.701,1633.693,1459.701z M1767.261,1458.303c-0.782,0-1.573-0.01-2.359-0.029
					c-1.719-0.053-3.073-1.485-3.02-3.209c0.049-1.719,1.473-3.02,3.199-3.02c0.811,0.024,1.631,0.039,2.432,0.034
					c1.209,0,2.398-0.024,3.578-0.073c1.738-0.185,3.17,1.267,3.238,2.985c0.068,1.719-1.269,3.17-2.988,3.238
					C1769.986,1458.284,1768.62,1458.313,1767.261,1458.303z M1590.533,1456.026c-0.282,0-0.573-0.039-0.859-0.121
					c-2.068-0.587-4.102-1.238-6.107-1.947c-1.622-0.568-2.476-2.344-1.906-3.966c0.571-1.626,2.35-2.49,3.971-1.908
					c1.889,0.665,3.809,1.277,5.756,1.84c1.653,0.466,2.611,2.194,2.138,3.845
					C1593.132,1455.137,1591.887,1456.026,1590.533,1456.026z M1746.502,1455.861c-0.236,0-0.478-0.024-0.719-0.083
					c-2.092-0.495-4.182-1.068-6.209-1.699c-1.641-0.515-2.558-2.257-2.049-3.898c0.512-1.641,2.257-2.559,3.898-2.049
					c1.893,0.592,3.84,1.121,5.796,1.587c1.67,0.398,2.706,2.073,2.311,3.748C1749.192,1454.9,1747.915,1455.861,1746.502,1455.861z
					 M1789.674,1455.589c-1.398,0-2.668-0.947-3.02-2.36c-0.417-1.67,0.597-3.359,2.267-3.776c1.917-0.476,3.864-1.039,5.777-1.655
					c1.636-0.525,3.388,0.364,3.923,2c0.529,1.636-0.364,3.389-2,3.923c-2.049,0.665-4.131,1.262-6.192,1.777
					C1790.174,1455.56,1789.922,1455.589,1789.674,1455.589z M1657.966,1454.307c-1.291,0-2.497-0.806-2.944-2.097
					c-0.563-1.622,0.301-3.398,1.923-3.962c1.917-0.665,3.806-1.378,5.658-2.146c1.595-0.646,3.411,0.102,4.066,1.694
					c0.658,1.587-0.102,3.408-1.689,4.068c-1.966,0.806-3.961,1.564-5.993,2.272
					C1658.648,1454.249,1658.303,1454.307,1657.966,1454.307z M1723.358,1446.865c-0.512,0-1.031-0.126-1.512-0.393
					c-1.867-1.039-3.721-2.161-5.512-3.326c-1.442-0.942-1.847-2.869-0.91-4.311c0.939-1.432,2.869-1.84,4.311-0.908
					c1.67,1.093,3.403,2.136,5.146,3.107c1.5,0.835,2.039,2.733,1.204,4.238C1725.511,1446.292,1724.452,1446.865,1723.358,1446.865
					z M1567.612,1446.409c-0.521,0-1.046-0.131-1.532-0.403c-1.874-1.063-3.702-2.18-5.486-3.345
					c-1.439-0.947-1.842-2.874-0.9-4.316c0.944-1.442,2.871-1.84,4.311-0.898c1.672,1.093,3.391,2.146,5.143,3.136
					c1.498,0.849,2.024,2.753,1.175,4.248C1569.75,1445.841,1568.697,1446.409,1567.612,1446.409z M1812.709,1446.307
					c-1.08,0-2.129-0.558-2.704-1.563c-0.857-1.49-0.343-3.393,1.148-4.248c1.745-1,3.464-2.068,5.115-3.175
					c1.427-0.956,3.359-0.573,4.315,0.859c0.957,1.427,0.573,3.365-0.854,4.316c-1.764,1.18-3.607,2.325-5.471,3.398
					C1813.768,1446.176,1813.234,1446.307,1812.709,1446.307z M1680.331,1443.448c-1.022,0-2.022-0.505-2.619-1.423
					c-0.932-1.447-0.52-3.374,0.925-4.306c1.697-1.097,3.352-2.247,4.962-3.437c1.381-1.024,3.333-0.728,4.354,0.656
					c1.022,1.383,0.731,3.33-0.65,4.354c-1.714,1.267-3.473,2.485-5.284,3.656
					C1681.496,1443.287,1680.911,1443.448,1680.331,1443.448z M1703.534,1431.923c-0.796,0-1.587-0.301-2.194-0.908
					c-1.515-1.505-3-3.088-4.41-4.694c-1.131-1.297-1-3.262,0.294-4.398c1.296-1.136,3.262-1,4.396,0.296
					c1.313,1.5,2.697,2.976,4.109,4.384c1.221,1.209,1.228,3.185,0.015,4.403
					C1705.134,1431.617,1704.335,1431.923,1703.534,1431.923z M1547.745,1431.505c-0.786,0-1.573-0.296-2.18-0.888
					c-1.539-1.51-3.034-3.078-4.445-4.666c-1.143-1.281-1.026-3.248,0.26-4.393c1.281-1.146,3.253-1.03,4.393,0.257
					c1.315,1.481,2.714,2.942,4.15,4.35c1.228,1.204,1.248,3.18,0.044,4.408C1549.359,1431.194,1548.55,1431.505,1547.745,1431.505z
					 M1832.349,1431.117c-0.784,0-1.57-0.291-2.177-0.883c-1.228-1.204-1.252-3.175-0.048-4.408
					c1.403-1.428,2.767-2.922,4.059-4.437c1.114-1.306,3.08-1.471,4.388-0.345c1.311,1.112,1.464,3.078,0.349,4.389
					c-1.383,1.616-2.845,3.218-4.345,4.752C1833.963,1430.806,1833.157,1431.117,1832.349,1431.117z M1485.593,1423.388
					c-0.075,0-0.148-0.005-0.226-0.009c-2.163-0.156-4.328-0.398-6.437-0.723c-1.699-0.263-2.864-1.85-2.602-3.549
					c0.26-1.699,1.85-2.864,3.549-2.607c1.944,0.301,3.94,0.524,5.935,0.665c1.714,0.126,3.007,1.612,2.883,3.33
					C1488.576,1422.136,1487.21,1423.388,1485.593,1423.388z M1504.196,1422.412c-1.483,0-2.794-1.063-3.061-2.568
					c-0.301-1.694,0.825-3.311,2.519-3.611c1.935-0.34,3.896-0.772,5.831-1.286c1.665-0.428,3.366,0.558,3.806,2.219
					c0.437,1.665-0.553,3.364-2.219,3.806c-2.097,0.553-4.228,1.024-6.33,1.393
					C1504.56,1422.398,1504.378,1422.412,1504.196,1422.412z M1461.485,1417.597c-0.408,0-0.823-0.078-1.221-0.248
					c-1.98-0.845-3.947-1.781-5.85-2.782c-1.519-0.801-2.102-2.684-1.303-4.204c0.804-1.52,2.687-2.102,4.207-1.306
					c1.748,0.923,3.563,1.782,5.389,2.563c1.583,0.67,2.318,2.5,1.646,4.083C1463.847,1416.888,1462.697,1417.597,1461.485,1417.597
					z M1527.564,1414.097c-1.092,0-2.151-0.573-2.724-1.592c-0.835-1.505-0.296-3.403,1.204-4.238
					c1.554-0.864,3.076-1.791,4.559-2.762c0.726-0.481,1.622-0.631,2.466-0.418c0.845,0.213,1.561,0.772,1.976,1.539l0.315,0.578
					c0.83,1.505,0.282,3.398-1.228,4.228c-0.578,0.316-1.209,0.408-1.821,0.369c-1.061,0.66-2.141,1.296-3.236,1.903
					C1528.598,1413.97,1528.076,1414.097,1527.564,1414.097z M1847.121,1411.169c-0.503,0-1.015-0.121-1.488-0.379
					c-1.51-0.82-2.068-2.714-1.243-4.224c0.956-1.752,1.859-3.558,2.687-5.364c0.716-1.568,2.563-2.257,4.129-1.539
					c1.563,0.718,2.25,2.563,1.534,4.126c-0.888,1.937-1.857,3.874-2.884,5.758
					C1849.294,1410.582,1848.226,1411.169,1847.121,1411.169z M1440.589,1404.271c-0.743,0-1.485-0.262-2.083-0.801
					c-1.595-1.437-3.155-2.961-4.631-4.534c-1.18-1.253-1.119-3.219,0.134-4.403c1.25-1.18,3.221-1.117,4.4,0.136
					c1.36,1.447,2.796,2.854,4.265,4.175c1.28,1.151,1.381,3.121,0.231,4.398C1442.29,1403.926,1441.443,1404.271,1440.589,1404.271
					z M1855.857,1387.935c-0.226,0-0.454-0.024-0.68-0.073c-1.68-0.378-2.738-2.039-2.364-3.718c0.406-1.815,0.753-3.651,1.039-5.51
					c0.221-1.413,1.379-2.5,2.804-2.626c1.728-0.136,3.432,1.097,3.583,2.811c0.066,0.733-0.09,1.427-0.43,1.99
					c-0.267,1.578-0.573,3.141-0.917,4.689C1858.568,1386.949,1857.282,1387.935,1855.857,1387.935z M1425.166,1384.867
					c-1.102,0-2.165-0.578-2.734-1.607c-1.046-1.903-2.019-3.855-2.896-5.811c-0.701-1.568,0-3.413,1.57-4.112
					c1.568-0.69,3.413,0,4.112,1.573c0.806,1.791,1.704,3.592,2.667,5.34c0.83,1.505,0.284,3.398-1.221,4.233
					C1426.187,1384.741,1425.67,1384.867,1425.166,1384.867z M1875.594,1378.362c-1.318,0-2.539-0.84-2.964-2.16
					c-0.524-1.641,0.376-3.388,2.015-3.918c1.913-0.611,3.811-1.301,5.641-2.039c1.597-0.646,3.408,0.126,4.054,1.724
					c0.646,1.592-0.126,3.408-1.724,4.053c-1.971,0.791-4.012,1.534-6.068,2.194
					C1876.23,1378.313,1875.909,1378.362,1875.594,1378.362z M1897.874,1367.424c-0.986,0-1.954-0.466-2.559-1.34
					c-0.983-1.413-0.633-3.35,0.777-4.335c1.631-1.131,3.238-2.345,4.772-3.602c1.33-1.092,3.291-0.898,4.384,0.437
					c1.087,1.325,0.893,3.291-0.437,4.379c-1.66,1.365-3.398,2.675-5.163,3.903
					C1899.107,1367.24,1898.486,1367.424,1897.874,1367.424z M1416.966,1361.463c-1.49,0-2.808-1.073-3.063-2.593
					c-0.359-2.122-0.633-4.287-0.815-6.432c-0.141-1.714,1.131-3.224,2.844-3.365c1.719-0.146,3.219,1.126,3.365,2.84
					c0.165,1.976,0.415,3.966,0.745,5.918c0.289,1.694-0.855,3.306-2.551,3.593
					C1417.316,1361.449,1417.141,1361.463,1416.966,1361.463z M1915.656,1350.147c-0.636,0-1.277-0.194-1.83-0.597
					c-1.391-1.01-1.699-2.956-0.69-4.35c1.172-1.607,2.269-3.277,3.267-4.952c0.874-1.485,2.787-1.971,4.265-1.092
					c1.478,0.878,1.969,2.786,1.09,4.262c-1.093,1.85-2.301,3.68-3.583,5.447
					C1917.569,1349.705,1916.618,1350.147,1915.656,1350.147z M1409.446,1341.035c-0.456,0-0.922-0.102-1.364-0.32
					c-1.932-0.942-3.85-1.971-5.694-3.054c-1.483-0.869-1.98-2.777-1.112-4.257c0.869-1.486,2.777-1.99,4.262-1.112
					c1.709,1,3.486,1.957,5.279,2.831c1.547,0.757,2.185,2.621,1.43,4.165C1411.708,1340.394,1410.599,1341.035,1409.446,1341.035z
					 M1926.157,1327.743c-0.245,0-0.495-0.029-0.743-0.088c-1.67-0.413-2.692-2.097-2.282-3.767c0.466-1.908,0.84-3.86,1.107-5.801
					c0.238-1.699,1.811-2.913,3.515-2.656c1.704,0.233,2.893,1.806,2.656,3.515c-0.299,2.146-0.714,4.306-1.231,6.422
					C1928.832,1326.791,1927.56,1327.743,1926.157,1327.743z M1389.09,1326.864c-0.781,0-1.563-0.296-2.165-0.878
					c-1.57-1.52-3.073-3.098-4.469-4.699c-1.133-1.292-0.997-3.263,0.299-4.389c1.292-1.136,3.263-1,4.391,0.291
					c1.284,1.471,2.663,2.922,4.11,4.321c1.235,1.199,1.267,3.17,0.07,4.403C1390.717,1326.549,1389.901,1326.864,1389.09,1326.864z
					 M1927.902,1313.256c-1.719,0-3.115-1.393-3.115-3.112c0-1.966-0.102-3.952-0.301-5.893c-0.175-1.714,1.07-3.243,2.782-3.418
					c1.706-0.136,3.238,1.068,3.415,2.777c0.221,2.16,0.333,4.355,0.333,6.534
					C1931.017,1311.863,1929.623,1313.256,1927.902,1313.256z M1374.568,1306.8c-1.167,0-2.284-0.66-2.816-1.782
					c-0.93-1.966-1.769-4-2.497-6.039c-0.578-1.617,0.267-3.403,1.889-3.976c1.619-0.578,3.398,0.267,3.976,1.884
					c0.66,1.849,1.42,3.685,2.262,5.466c0.736,1.558,0.073,3.413-1.483,4.146C1375.469,1306.703,1375.015,1306.8,1374.568,1306.8z
					 M1922.885,1289.042c-1.204,0-2.354-0.704-2.862-1.879c-0.769-1.796-1.648-3.583-2.602-5.321
					c-0.83-1.51-0.279-3.398,1.226-4.228c1.505-0.825,3.398-0.281,4.229,1.223c1.053,1.913,2.019,3.884,2.869,5.859
					c0.68,1.583-0.048,3.413-1.628,4.092C1923.715,1288.964,1923.297,1289.042,1922.885,1289.042z M1368.677,1282.78
					c-1.668,0-3.049-1.321-3.109-3.001c-0.027-0.771-0.041-1.544-0.041-2.32c0-1.437,0.048-2.845,0.146-4.233
					c0.119-1.714,1.612-2.976,3.323-2.889c1.717,0.121,3.01,1.607,2.891,3.326c-0.088,1.243-0.131,2.514-0.131,3.796
					c0,0.699,0.01,1.398,0.036,2.092c0.061,1.719-1.279,3.166-2.998,3.224C1368.755,1282.78,1368.716,1282.78,1368.677,1282.78z
					 M1909.01,1268.531c-0.811,0-1.617-0.316-2.228-0.942c-1.366-1.398-2.828-2.777-4.345-4.092
					c-1.299-1.126-1.437-3.093-0.308-4.389c1.124-1.301,3.09-1.447,4.391-0.311c1.646,1.423,3.233,2.923,4.719,4.442
					c1.199,1.233,1.177,3.204-0.054,4.403C1910.578,1268.235,1909.794,1268.531,1909.01,1268.531z M1373.318,1258.565
					c-0.434,0-0.879-0.092-1.301-0.286c-1.563-0.719-2.243-2.568-1.524-4.132c0.915-1.985,1.971-3.942,3.136-5.816
					c0.908-1.457,2.828-1.899,4.287-1c1.461,0.913,1.908,2.83,1.002,4.292c-1.029,1.655-1.961,3.379-2.769,5.131
					C1375.624,1257.895,1374.498,1258.565,1373.318,1258.565z M1889.048,1253.797c-0.486,0-0.978-0.112-1.44-0.354
					c-1.764-0.923-3.585-1.792-5.41-2.578c-1.58-0.68-2.311-2.509-1.627-4.087c0.68-1.583,2.512-2.306,4.09-1.631
					c1.969,0.845,3.93,1.786,5.83,2.776c1.527,0.796,2.117,2.68,1.318,4.2C1891.255,1253.19,1890.17,1253.797,1889.048,1253.797z
					 M1874.334,1239.471c-0.058,0-0.116-0.004-0.174-0.004c-1.719-0.097-3.034-1.568-2.938-3.282
					c0.071-1.214,0.107-2.437,0.107-3.67c0-0.776-0.005-1.553-0.022-2.32c-0.031-1.723,1.333-3.141,3.054-3.175
					c1.721-0.015,3.138,1.335,3.173,3.053c0.019,0.811,0.024,1.621,0.024,2.442c0,1.35-0.041,2.69-0.117,4.015
					C1877.349,1238.189,1875.975,1239.471,1874.334,1239.471z M1388.658,1239.238c-0.908,0-1.806-0.398-2.422-1.155
					c-1.083-1.335-0.874-3.296,0.461-4.379c1.665-1.35,3.432-2.646,5.253-3.859c1.435-0.952,3.367-0.558,4.316,0.874
					c0.954,1.432,0.563,3.365-0.869,4.316c-1.66,1.102-3.267,2.286-4.782,3.51
					C1390.042,1239.01,1389.348,1239.238,1388.658,1239.238z M1410.335,1227.194c-1.267,0-2.457-0.776-2.923-2.034
					c-0.598-1.612,0.228-3.403,1.84-3.995c1.99-0.738,4.042-1.422,6.102-2.034c1.641-0.5,3.379,0.446,3.871,2.097
					c0.488,1.646-0.449,3.379-2.097,3.869c-1.947,0.583-3.852,1.214-5.716,1.903
					C1411.058,1227.136,1410.691,1227.194,1410.335,1227.194z M1434.518,1221.475c-1.551,0-2.896-1.16-3.088-2.738
					c-0.209-1.704,1.007-3.258,2.714-3.466c2.095-0.257,4.211-0.456,6.357-0.612c1.709-0.141,3.204,1.17,3.326,2.884
					c0.121,1.714-1.17,3.204-2.884,3.326c-2.037,0.15-4.053,0.344-6.044,0.582
					C1434.77,1221.471,1434.644,1221.475,1434.518,1221.475z M1461.395,1221.325c-0.126,0-0.252-0.01-0.383-0.024
					c-0.648-0.083-1.301-0.156-1.957-0.223c-1.709-0.18-2.951-1.709-2.777-3.423c0.146-1.393,1.195-2.481,2.505-2.733
					c0.088-0.481,0.18-0.966,0.272-1.452c0.33-1.685,1.981-2.791,3.656-2.457c1.687,0.335,2.789,1.966,2.456,3.656
					c-0.262,1.33-0.493,2.67-0.694,4.005C1464.238,1220.213,1462.915,1221.325,1461.395,1221.325z M1872.513,1214.683
					c-1.461,0-2.767-1.034-3.053-2.524c-0.384-1.995-0.83-3.952-1.33-5.874c-0.437-1.665,0.558-3.365,2.223-3.802
					c1.663-0.427,3.365,0.568,3.801,2.229c0.534,2.044,1.012,4.155,1.42,6.267c0.326,1.689-0.779,3.321-2.468,3.651
					C1872.907,1214.669,1872.708,1214.683,1872.513,1214.683z M1467.323,1199.26c-0.371,0-0.752-0.068-1.122-0.209
					c-1.604-0.621-2.401-2.422-1.782-4.03c0.772-1.99,1.602-3.961,2.486-5.908c0.709-1.568,2.559-2.262,4.122-1.549
					c1.566,0.709,2.26,2.554,1.549,4.122c-0.835,1.845-1.617,3.704-2.347,5.588C1469.75,1198.503,1468.573,1199.26,1467.323,1199.26
					z M1864.489,1191.207c-1.121,0-2.204-0.607-2.762-1.67c-0.927-1.777-1.932-3.51-2.981-5.156c-0.925-1.447-0.5-3.369,0.947-4.296
					c1.452-0.928,3.376-0.505,4.301,0.946c1.146,1.796,2.243,3.685,3.253,5.617c0.796,1.524,0.209,3.408-1.315,4.204
					C1865.469,1191.095,1864.974,1191.207,1864.489,1191.207z M1478.828,1177.211c-0.597,0-1.199-0.169-1.734-0.529
					c-1.427-0.956-1.808-2.889-0.849-4.316c1.19-1.782,2.43-3.515,3.716-5.219c1.039-1.373,2.993-1.645,4.362-0.606
					c1.374,1.038,1.643,2.995,0.607,4.364c-1.218,1.607-2.389,3.253-3.515,4.927
					C1480.814,1176.73,1479.83,1177.211,1478.828,1177.211z M1849.279,1171.677c-0.728,0-1.462-0.253-2.051-0.772
					c-1.473-1.287-3.032-2.524-4.634-3.67c-1.401-1-1.724-2.942-0.724-4.34c1-1.403,2.947-1.724,4.34-0.724
					c1.772,1.263,3.49,2.622,5.117,4.044c1.296,1.136,1.427,3.102,0.296,4.393
					C1851.007,1171.317,1850.143,1171.677,1849.279,1171.677z M1773.504,1163.234c-1.216,0-2.369-0.713-2.871-1.903
					c-0.668-1.587,0.075-3.413,1.663-4.078c1.898-0.796,3.862-1.602,5.854-2.379c1.604-0.607,3.408,0.174,4.029,1.777
					c0.624,1.602-0.169,3.408-1.774,4.029c-1.939,0.753-3.85,1.534-5.694,2.311
					C1774.314,1163.157,1773.907,1163.234,1773.504,1163.234z M1759.595,1161.895c-1.112,0-2.19-0.597-2.75-1.646
					c-0.922-1.724-1.939-3.476-3.019-5.199c-0.913-1.456-0.473-3.379,0.983-4.292c1.461-0.912,3.381-0.471,4.292,0.986
					c1.158,1.845,2.248,3.718,3.238,5.568c0.811,1.52,0.238,3.403-1.277,4.219
					C1760.593,1161.778,1760.09,1161.895,1759.595,1161.895z M1827.841,1159.346c-0.335,0-0.675-0.058-1.01-0.17
					c-1.85-0.636-3.768-1.199-5.704-1.68c-1.67-0.413-2.687-2.107-2.272-3.772c0.415-1.67,2.107-2.675,3.772-2.272
					c2.112,0.524,4.208,1.141,6.226,1.83c1.629,0.558,2.493,2.33,1.935,3.957C1830.344,1158.53,1829.137,1159.346,1827.841,1159.346
					z M1494.96,1158.302c-0.838,0-1.672-0.335-2.287-1c-1.167-1.263-1.092-3.229,0.17-4.399c1.566-1.451,3.199-2.869,4.855-4.214
					c1.335-1.078,3.296-0.878,4.379,0.456c1.088,1.335,0.881,3.296-0.454,4.379c-1.554,1.262-3.071,2.578-4.546,3.947
					C1496.475,1158.026,1495.717,1158.302,1494.96,1158.302z M1797.179,1155.637c-1.517,0-2.847-1.112-3.078-2.656
					c-0.253-1.704,0.92-3.286,2.621-3.539c2-0.301,3.828-0.418,5.561-0.418c0.386,0,0.774,0,1.163,0.01
					c1.723,0.029,3.089,1.452,3.058,3.17c-0.032,1.719-1.374,3.068-3.173,3.053c-0.464-0.01-0.934-0.01-1.403-0.01
					c-1.297,0-2.736,0.121-4.289,0.349C1797.485,1155.622,1797.33,1155.637,1797.179,1155.637z M1515.255,1144.01
					c-1.128,0-2.221-0.616-2.772-1.694c-0.784-1.529-0.182-3.408,1.347-4.19c1.922-0.985,3.893-1.903,5.864-2.728
					c1.587-0.665,3.413,0.083,4.073,1.67c0.665,1.588-0.083,3.413-1.67,4.078c-1.821,0.757-3.646,1.607-5.423,2.519
					C1516.221,1143.899,1515.733,1144.01,1515.255,1144.01z M1745.162,1141.656c-0.85,0-1.697-0.349-2.313-1.029
					c-1.345-1.49-2.741-2.957-4.182-4.393c-1.218-1.219-1.218-3.185-0.005-4.404c1.217-1.218,3.187-1.218,4.403-0.004
					c1.519,1.514,2.99,3.063,4.408,4.631c1.15,1.276,1.051,3.243-0.226,4.393
					C1746.653,1141.389,1745.905,1141.656,1745.162,1141.656z M1569.745,1137.782c-0.228,0-0.461-0.019-0.694-0.078
					c-1.961-0.447-3.947-0.825-5.901-1.126c-1.697-0.267-2.864-1.854-2.6-3.553c0.263-1.699,1.855-2.874,3.554-2.602
					c2.097,0.326,4.228,0.733,6.33,1.214c1.677,0.378,2.724,2.049,2.345,3.728
					C1572.45,1136.806,1571.166,1137.782,1569.745,1137.782z M1585.751,1137.194c-0.719,0-1.445-0.248-2.034-0.757
					c-1.298-1.126-1.442-3.093-0.316-4.393c1.389-1.612,2.864-3.199,4.374-4.724c1.214-1.223,3.184-1.228,4.403-0.019
					c1.223,1.214,1.228,3.185,0.019,4.403c-1.412,1.427-2.789,2.913-4.087,4.413
					C1587.496,1136.83,1586.625,1137.194,1585.751,1137.194z M1538.819,1136.33c-1.514,0-2.842-1.107-3.075-2.646
					c-0.257-1.704,0.913-3.292,2.617-3.549c2.141-0.32,4.311-0.553,6.452-0.685c1.729-0.049,3.194,1.194,3.304,2.913
					c0.109,1.714-1.197,3.194-2.913,3.301c-1.964,0.126-3.954,0.335-5.915,0.631C1539.13,1136.32,1538.972,1136.33,1538.819,1136.33
					z M1726.705,1124.98c-0.643,0-1.292-0.199-1.85-0.607c-1.622-1.199-3.282-2.364-4.971-3.485
					c-1.432-0.957-1.821-2.889-0.866-4.321c0.949-1.437,2.881-1.825,4.315-0.869c1.775,1.185,3.518,2.403,5.221,3.66
					c1.384,1.024,1.68,2.971,0.656,4.355C1728.601,1124.543,1727.659,1124.98,1726.705,1124.98z M1604.383,1120.756
					c-1,0-1.985-0.486-2.585-1.379c-0.961-1.427-0.58-3.359,0.845-4.32c1.77-1.185,3.58-2.33,5.435-3.418
					c1.485-0.869,3.393-0.369,4.262,1.111c0.871,1.486,0.374,3.394-1.112,4.263c-1.745,1.024-3.449,2.092-5.11,3.213
					C1605.587,1120.586,1604.98,1120.756,1604.383,1120.756z M1705.316,1112.285c-0.435,0-0.878-0.092-1.301-0.286
					c-1.835-0.845-3.695-1.646-5.568-2.389c-1.602-0.636-2.381-2.442-1.748-4.044c0.636-1.597,2.449-2.379,4.044-1.747
					c1.98,0.791,3.942,1.631,5.881,2.524c1.561,0.718,2.243,2.568,1.522,4.131
					C1707.622,1111.61,1706.495,1112.285,1705.316,1112.285z M1626.542,1109.503c-1.269,0-2.464-0.781-2.924-2.044
					c-0.593-1.617,0.24-3.403,1.854-3.995c1.998-0.728,4.025-1.403,6.083-2.02c1.643-0.495,3.381,0.437,3.879,2.083
					c0.495,1.641-0.437,3.379-2.085,3.879c-1.944,0.583-3.857,1.223-5.738,1.908
					C1627.258,1109.445,1626.896,1109.503,1626.542,1109.503z M1681.703,1104.537c-0.199,0-0.4-0.019-0.602-0.058
					c-1.99-0.393-3.985-0.719-5.937-0.966c-1.709-0.218-2.915-1.777-2.699-3.481c0.219-1.704,1.775-2.883,3.483-2.699
					c2.09,0.272,4.231,0.616,6.355,1.034c1.687,0.33,2.784,1.966,2.454,3.655
					C1684.465,1103.508,1683.162,1104.537,1681.703,1104.537z M1650.706,1103.697c-1.549,0-2.891-1.155-3.083-2.733
					c-0.214-1.704,1-3.257,2.706-3.466c2.102-0.263,4.226-0.466,6.367-0.612c1.714-0.073,3.202,1.18,3.321,2.894
					c0.117,1.714-1.18,3.204-2.893,3.32c-2.029,0.136-4.042,0.33-6.03,0.573C1650.963,1103.693,1650.834,1103.697,1650.706,1103.697
					z"/>
			</g>
		</g>
	</g>
	<g>
		<rect x="1670.799" y="615.235" style="fill:#78C3D6;" width="26.958" height="227.643"/>
		<rect x="1670.799" y="615.235" style="fill:#16B4D4;" width="9.736" height="227.643"/>
		<path style="fill:#89D5F2;" d="M1718.724,601.754c0,19.025-15.418,34.448-34.443,34.448l0,0
			c-19.026,0-34.448-15.423-34.448-34.448v-11.981c0-19.021,15.423-34.444,34.448-34.444l0,0c19.025,0,34.443,15.423,34.443,34.444
			V601.754z"/>
		<path style="fill:#61CBF0;" d="M1684.281,555.329c-19.026,0-34.448,15.419-34.448,34.444v11.981c0,1.252,0.078,2.485,0.204,3.704
			c0.153,0.092,0.281,0.223,0.418,0.335c-0.093-2.903,1.67-5.651,5.369-5.209c19.035,2.282,38.778,7.918,52.117,22.628
			c0.565,0.621,1.051,1.281,1.59,1.917c5.689-6.141,9.195-14.336,9.195-23.375v-11.981
			C1718.724,570.748,1703.306,555.329,1684.281,555.329z"/>
		<g>
			<path style="fill:#89D5F2;" d="M1878.477,396.074c0,107.253-86.943,194.199-194.197,194.199
				c-107.253,0-194.2-86.946-194.2-194.199c0-107.248,86.947-194.195,194.2-194.195
				C1791.534,201.879,1878.477,288.826,1878.477,396.074z"/>
			<path style="fill:#6FCFF1;" d="M1514.605,301.627c-15.6,27.958-24.524,60.154-24.524,94.447
				c0,107.253,86.947,194.199,194.2,194.199c52.347,0,99.821-20.748,134.747-54.425
				C1678.46,553.329,1488.343,447.26,1514.605,301.627z"/>
			<path style="fill:#F5EBD5;" d="M1878.274,404.161c0.109-2.684,0.204-5.374,0.204-8.087c0-27.982-5.966-54.561-16.622-78.596
				c-111.897,35.138-243.571,27.274-354.907-0.544c-10.809,24.181-16.868,50.945-16.868,79.14c0,4,0.161,7.961,0.398,11.903
				C1613.728,446.241,1758.598,455.067,1878.274,404.161z"/>
			<path style="fill:#D4EEF6;" d="M1800.073,252.173c-14.013-10.539-29.108-20.812-45.575-27.108
				c-10.52-4.03-34.099-7.311-29.793,12.37c2.573,11.753,10.561,18.602,20.831,24.224c23.65,12.962,47.541,28.807,67.195,48.231
				c11.489,11.355,30.376,49.298,49.544,44.521c1.627-30.482-19.426-61.63-40.177-83.64
				C1818.836,267.31,1810.576,260.076,1800.073,252.173z"/>
		</g>
		<path style="fill:#FECE93;" d="M1684.281,835.892c-41.357,0-74.885,33.526-74.885,74.883c0,41.356,33.528,74.882,74.885,74.882
			c41.356,0,74.883-33.526,74.883-74.882C1759.163,869.418,1725.637,835.892,1684.281,835.892z M1684.281,962.695
			c-28.676,0-51.92-23.249-51.92-51.92c0-28.677,23.244-51.921,51.92-51.921c28.673,0,51.92,23.244,51.92,51.921
			C1736.201,939.446,1712.954,962.695,1684.281,962.695z"/>
		<g>
			<path style="fill:#FAB389;" d="M1683.533,840.757c41.356,0,74.883,33.526,74.883,74.887c0,3.496-0.323,6.908-0.789,10.277
				c1.007-4.889,1.537-9.957,1.537-15.146c0-41.357-33.526-74.883-74.883-74.883c-37.861,0-69.076,28.123-74.096,64.6
				C1617.19,866.399,1647.364,840.757,1683.533,840.757z"/>
			<path style="fill:#FAB389;" d="M1631.613,915.644c0,28.672,23.243,51.916,51.92,51.916c26.761,0,48.779-20.253,51.595-46.264
				c-4.862,23.627-25.778,41.4-50.847,41.4c-28.676,0-51.92-23.249-51.92-51.92c0-1.913,0.119-3.792,0.321-5.656
				C1631.982,908.522,1631.613,912.042,1631.613,915.644z"/>
		</g>
		<g>
			<path style="fill:#FECE93;" d="M1681.635,350.188c3.903,0,12.729,25.793,12.729,25.793s26.88,1.296,28.458,4.136
				c1.578,2.835-20.593,20.074-20.593,20.074s6.884,26.477,4.862,28.346c-2.022,1.869-25.455-13.384-25.455-13.384
				s-22.795,15.321-25.458,13.384c-2.666-1.937,4.862-28.346,4.862-28.346s-20.481-16.763-20.596-20.074
				c-0.111-3.316,28.463-4.136,28.463-4.136S1677.727,350.188,1681.635,350.188z"/>
		</g>
		<g>
			<path style="fill:#FECE93;" d="M1795.961,339.891c3.811-0.84,18.001,22.433,18.001,22.433s26.528-4.544,28.681-2.112
				c2.153,2.427-15.77,24.05-15.77,24.05s12.445,24.361,10.872,26.627c-1.57,2.262-27.747-7.568-27.747-7.568
				s-18.943,19.884-21.962,18.569c-3.02-1.315-1.382-28.73-1.382-28.73s-23.617-11.937-24.443-15.146
				c-0.825-3.214,26.895-10.19,26.895-10.19S1792.148,340.736,1795.961,339.891z"/>
		</g>
		<g>
			<path style="fill:#FECE93;" d="M1564.935,337.648c-3.811-0.845-18.001,22.429-18.001,22.429s-26.528-4.544-28.681-2.112
				c-2.156,2.427,15.768,24.049,15.768,24.049s-12.442,24.361-10.872,26.628c1.57,2.262,27.746-7.569,27.746-7.569
				s18.943,19.884,21.965,18.569c3.017-1.316,1.377-28.725,1.377-28.725s23.622-11.943,24.448-15.152
				c0.828-3.209-26.894-10.19-26.894-10.19S1568.748,338.493,1564.935,337.648z"/>
		</g>
	</g>
	<g>
		<g>
			<path style="fill:#84C6D6;" d="M187.403,1750.842c-5.524,77.387-14.738,154.775,68.179,193.471
				c49.75,27.637,117.977,17.078,167.671,14.738c156.617-7.369,109.986-197.335,92.128-318.764
				c-18.424-125.293-27.638-198.996-49.75-326.133c-16.581-71.863-22.994-68.178-125.293-68.178
				c-84.298,0-101.34-14.738-113.778,76.47C226.56,1322.447,198.459,1568.43,187.403,1750.842z"/>
		</g>
		<g>
			<path style="fill:#89D5F2;" d="M187.403,1750.842c-5.524,77.387-14.738,154.775,68.179,193.471
				c49.75,27.637,117.977,17.078,167.671,14.738c156.617-7.369,109.986-197.335,92.128-318.764
				c-18.424-125.293-27.638-198.996-49.75-326.133c-16.581-71.863-22.994-68.178-125.293-68.178
				c-84.298,0-101.34-14.738-113.778,76.47C226.56,1322.447,198.459,1568.43,187.403,1750.842z"/>
		</g>
		<g>
			<path style="fill:#6FCFF1;" d="M294.501,1928.963c-32.856-20.759-60.17-45.935-67.453-85.873
				c-8.445-46.323-4.362-95.301-4.374-142.153c-0.017-60.154,0.051-120.337,2.012-180.466c1.738-53.09-0.223-111.122,10.809-163.261
				c6.557-30.977,42.995-16.981,65.627-13.413c55.835,8.801,112.797-0.442,167.169-14.195c-0.874-5.107-1.74-10.165-2.66-15.447
				c-16.581-71.863-22.994-68.178-125.293-68.178c-84.298,0-101.34-14.738-113.778,76.47c0,0-28.099,245.983-39.158,428.396
				c-5.524,77.387-14.738,154.775,68.179,193.471c31.518,17.51,70.447,19.676,107.389,18.326
				C338.459,1953.644,315.205,1942.041,294.501,1928.963z"/>
		</g>
		<path style="fill:#00B4EC;" d="M227.48,1315.533c0,0,111.013,27.638,238.151-1.379c0,0,8.755-2.306,6.913-22.113
			c-1.544-16.569-8.753-77.387-8.753-77.387s1.495-29.021-38.235-33.511c-24.501-2.772-43.808-4.044-78.768-4.146
			c-49.585-0.146-84.642,5.18-95.699,8.636c-11.057,3.456-22.688,7.831-26.834,31.322c-4.146,23.496-4.605,76.47-4.605,76.47
			S216.424,1310.927,227.48,1315.533z"/>
		<path style="fill:#4DBFEE;" d="M463.791,1214.655c0,0,1.495-29.021-38.235-33.511c-24.499-2.767-43.808-4.044-78.768-4.146
			c-49.585-0.151-84.642,5.18-95.699,8.636c-11.057,3.456-22.686,7.831-26.832,31.322c-0.328,1.854,2.304,18.428,123.451,17.967
			C456.019,1234.51,463.791,1214.655,463.791,1214.655z"/>
		<g>
			<path style="fill:#F3C090;" d="M434.522,1209.761c31.392-11.025-61.159-32.929-62.207-68.474
				c-1.044-18.817,5.791-47.517,4.015-65.688c-2.039-20.88-10.389-42.362-39.565-38.366c-12.472,1.709-29.972,9.991-24.778,53.153
				c3.185,26.463,10.132,54.27-13.061,72.912c-14.746,11.85-36.089,21.487-48.245,35.924c-3.544,4.209-7.539,9.263,0.367,12.107
				C251.047,1211.329,346.702,1240.602,434.522,1209.761z"/>
		</g>
		<g>
			<path style="fill:#F1AD75;" d="M437.085,1198.43c-5.163,5.748-10.544,11.044-16.268,15.617c4.578-1.286,9.151-2.684,13.7-4.287
				C442.969,1206.795,442.396,1203.033,437.085,1198.43z"/>
		</g>
		<g>
			<path style="fill:#F1B88A;" d="M283.218,1204.518c-2.859-9.962,11.049-16.549,19.346-23.492
				c25.336-21.19,35.786-42.386,28.308-67.595c-7.957-26.812-14.722-49.328-2.16-74.052c-10.632,4.447-20.855,16.68-16.724,51.007
				c3.185,26.463,10.132,54.27-13.064,72.912c-14.743,11.85-36.087,21.487-48.24,35.924c-3.546,4.209-7.542,9.263,0.362,12.112
				c0,0,37.681,11.52,87.449,12.481C328.783,1219.509,286.141,1214.708,283.218,1204.518z"/>
		</g>
		<g>
			<g>
				<path style="fill:#F1A770;" d="M438.314,1199.542c-1.039,1.02-2.699,1.903-5.175,2.85
					c-106.389,40.589-183.475,1.568-183.475,1.568c-0.823-0.296-1.534-0.612-2.146-0.952c-2.486,3.51-1.903,6.365,3.527,8.326
					c0,0,95.658,29.269,183.473-1.573C442.285,1207.037,442.45,1203.639,438.314,1199.542z"/>
			</g>
		</g>
		<path style="fill:#F6E0BB;" d="M369.905,1060.443c2.714,9.646,0.597,18.676-4.73,20.176c-5.326,1.5-11.843-5.102-14.559-14.743
			c-2.714-9.642-0.598-18.676,4.728-20.176C360.671,1044.199,367.188,1050.801,369.905,1060.443z"/>
		<g>
			<path style="fill:#D4EEF6;" d="M445.833,1428.724c-1.019-0.175-2.092-0.287-3.235-0.33c-40.675-1.51-8.093,141.551-4.547,159.717
				c6.09,31.181,10.316,62.634,17.724,93.573c2.452,10.239,21.475,49.92,38.417,23.093c11.054-17.501,1.026-73.737-5.527-122.53
				c-8.292-61.726-7.34-88.757-24.37-133.216C460.371,1438.797,456.009,1430.5,445.833,1428.724z"/>
		</g>
		
			<line style="fill:none;stroke:#A7D5F2;stroke-width:14.9134;stroke-linecap:round;stroke-miterlimit:10;" x1="232.09" y1="1426.088" x2="269.397" y2="1430.234"/>
		
			<line style="fill:none;stroke:#A7D5F2;stroke-width:14.9134;stroke-linecap:round;stroke-miterlimit:10;" x1="219.649" y1="1509.694" x2="256.96" y2="1512.461"/>
		
			<line style="fill:none;stroke:#A7D5F2;stroke-width:14.9134;stroke-linecap:round;stroke-miterlimit:10;" x1="214.122" y1="1578.794" x2="251.435" y2="1581.557"/>
		
			<line style="fill:none;stroke:#A7D5F2;stroke-width:14.9134;stroke-linecap:round;stroke-miterlimit:10;" x1="208.593" y1="1663.09" x2="245.906" y2="1665.852"/>
		
			<line style="fill:none;stroke:#A7D5F2;stroke-width:14.9134;stroke-linecap:round;stroke-miterlimit:10;" x1="202.374" y1="1759.134" x2="239.687" y2="1761.896"/>
	</g>
	<g>
		<path style="fill:#42C6EF;" d="M512.863,469.451c-0.869-1.617-86.278-163.256-18.763-298.287c1.328-2.66,0.61-5.884-1.716-7.734
			c-2.33-1.849-5.636-1.805-7.923,0.092c-0.551,0.456-56.137,45.76-143.804,47.774c-3.121,0.073-5.716,2.423-6.093,5.525
			c-0.092,0.743-9.971,74.557-92.849,114.491c-2.354,1.141-3.76,3.617-3.529,6.219c0.061,0.68,5.544,68.906-33.545,130.123
			c-1.233,1.932-1.32,4.379-0.223,6.393c1.095,2.005,3.199,3.263,5.488,3.277l297.396,1.393c0.01,0,0.019,0,0.019,0
			c2.216,0,4.262-1.156,5.398-3.049C513.861,473.767,513.915,471.408,512.863,469.451z"/>
		<path style="fill:#98DAF3;" d="M487.36,444.799c-0.728-1.35-72.014-136.255-15.661-248.955c1.107-2.218,0.51-4.913-1.437-6.456
			c-1.942-1.544-4.702-1.51-6.61,0.077c-0.459,0.384-46.852,38.192-120.023,39.871c-2.602,0.063-4.772,2.024-5.086,4.612
			c-0.075,0.621-8.318,62.227-77.489,95.558c-1.966,0.952-3.138,3.02-2.949,5.195c0.051,0.563,4.626,57.508-27.997,108.598
			c-1.029,1.612-1.1,3.655-0.184,5.335c0.913,1.675,2.668,2.724,4.578,2.738l248.212,1.16h0.024c1.845,0,3.548-0.966,4.5-2.544
			C488.19,448.401,488.233,446.431,487.36,444.799z"/>
		
			<path style="fill:none;stroke:#FFFFFF;stroke-width:4.9711;stroke-linecap:round;stroke-linejoin:round;stroke-miterlimit:10;stroke-dasharray:2.4856,29.8268;" d="
			M496.54,453.674c-0.779-1.442-77.149-145.974-16.777-266.717c1.19-2.374,0.546-5.258-1.534-6.913
			c-2.082-1.65-5.039-1.617-7.083,0.083c-0.493,0.408-50.196,40.915-128.584,42.716c-2.791,0.068-5.112,2.17-5.447,4.942
			c-0.083,0.665-8.918,66.663-83.021,102.374c-2.104,1.02-3.361,3.233-3.158,5.563c0.053,0.607,4.957,61.61-29.997,116.346
			c-1.102,1.729-1.177,3.918-0.199,5.719c0.98,1.792,2.859,2.918,4.908,2.927l265.919,1.248h0.026c1.974,0,3.801-1.034,4.816-2.724
			C497.433,457.533,497.479,455.426,496.54,453.674z"/>
		<path style="fill:#D4EEF6;" d="M359.96,436.614c24.045,11.365,48.993,19.157,74.63,25.438
			c-30.388-14.719-58.673-33.929-86.213-53.464c-34.361-24.365-63.95-53.386-89.895-86.412c-5.238,3.19-10.79,6.263-16.766,9.136
			c-1.961,0.952-3.199,2.84-3.447,4.947C270.184,377.524,312.747,414.293,359.96,436.614z"/>
		<path style="fill:#D4EEF6;" d="M333.398,230.245c23.008,34.652,39.135,74.562,66.2,106.428
			c14.872,17.515,30.724,34.37,47.818,49.789c-48.255-46.609-75.873-108.938-86.111-176.49c-6.67,0.685-13.539,1.16-20.647,1.325
			c-3.121,0.073-5.716,2.423-6.093,5.525c-0.024,0.179-0.643,4.733-2.753,12.063C332.4,229.176,332.959,229.58,333.398,230.245z"/>
		<path style="fill:#42C6EF;" d="M340.969,211.282c-0.104,0.005-0.204,0.01-0.311,0.015c-3.121,0.073-5.716,2.423-6.093,5.525
			c-0.024,0.179-0.636,4.728-2.748,12.073c21.982,56.489,57.35,103.5,100.986,145.944c19.448,18.914,40.725,38.653,63.476,56.576
			c-0.434-1.15-0.876-2.354-1.316-3.548C425.507,369.363,363.65,297.952,340.969,211.282z"/>
		<path style="fill:#42C6EF;" d="M238.444,350.732c21.52,39.483,72.734,64.828,110.831,82.359
			c46.279,21.287,95.127,34.676,144.643,45.565l6.345,0.029c-33.048-5.607-65.455-15.054-96.064-28.089
			c-60.314-25.685-122.108-66.008-161.425-119.302c-0.107-0.141-0.112-0.276-0.194-0.418c-0.294,0.146-0.568,0.296-0.864,0.437
			c-2.354,1.141-3.76,3.617-3.529,6.219C238.202,337.711,238.587,342.585,238.444,350.732z"/>
		<path style="fill:#98DAF3;" d="M203.651,471.038c0.578,86.053,36.492,163.678,93.898,219.215
			c16.87-12.884,37.937-20.55,60.799-20.55c55.391,0,100.289,44.9,100.289,100.287c0,0.758-0.041,1.5-0.056,2.248
			c17.207,2.986,34.875,4.631,52.939,4.631c1.665,0,3.301-0.102,4.957-0.126c-0.148-2.233-0.248-4.481-0.248-6.753
			c0-55.386,44.898-100.287,100.287-100.287c34.24,0,64.457,17.171,82.553,43.362c72.63-55.901,119.661-143.434,120.322-242.027
			H203.651z"/>
		<path style="fill:#E7ABBA;" d="M688.361,700.084c3.913,4.02,7.51,8.35,10.709,12.982c9.452-7.277,18.459-15.103,27.001-23.404
			C713.673,693.72,701.08,697.182,688.361,700.084z"/>
		<path style="fill:#68CDF0;" d="M538.659,706.798c-13.661-1.903-27.249-4.471-40.691-7.806
			c-109.36-27.152-228.949-107.277-234.036-227.954h-60.28c0.578,86.053,36.492,163.678,93.898,219.215
			c16.87-12.884,37.937-20.55,60.799-20.55c55.391,0,100.289,44.9,100.289,100.287c0,0.758-0.041,1.5-0.056,2.248
			c17.207,2.986,34.875,4.631,52.939,4.631c1.665,0,3.301-0.102,4.957-0.126c-0.148-2.233-0.248-4.481-0.248-6.753
			C516.23,746.033,524.643,724.047,538.659,706.798z"/>
		<g>
			<path style="fill:none;" d="M813.027,498.53c-5.287,0-9.632-3.699-10.782-8.636h-0.556c-1.15,4.937-5.498,8.636-10.784,8.636
				c-5.289,0-9.634-3.699-10.784-8.636h-0.556c-1.15,4.937-5.495,8.636-10.787,8.636c-5.287,0-9.632-3.699-10.782-8.636h-0.558
				c-1.148,4.937-5.496,8.636-10.782,8.636c-5.291,0-9.634-3.699-10.784-8.636h-0.558c-1.151,4.937-5.496,8.636-10.785,8.636
				c-5.286,0-9.632-3.699-10.782-8.636h-0.558c-1.15,4.937-5.496,8.636-10.784,8.636c-5.289,0-9.634-3.699-10.785-8.636h-0.556
				c-1.153,4.937-5.498,8.636-10.784,8.636c-5.289,0-9.634-3.699-10.785-8.636h-0.556c-1.15,4.937-5.498,8.636-10.784,8.636
				c-5.289,0-9.634-3.699-10.784-8.636h-0.558c-1.151,4.937-5.496,8.636-10.782,8.636c-5.291,0-9.636-3.699-10.784-8.636h-0.558
				c-1.148,4.937-5.496,8.636-10.785,8.636c-5.286,0-9.632-3.699-10.782-8.636h-0.558c-1.151,4.937-5.496,8.636-10.784,8.636
				c-5.289,0-9.634-3.699-10.785-8.636h-0.558c-1.148,4.937-5.495,8.636-10.782,8.636c-5.289,0-9.634-3.699-10.782-8.636h-0.561
				c-1.148,4.937-5.493,8.636-10.782,8.636c-5.289,0-9.634-3.699-10.784-8.636h-0.558c-1.151,4.937-5.496,8.636-10.782,8.636
				c-5.291,0-9.636-3.699-10.782-8.636h-0.563c-1.148,4.937-5.491,8.636-10.782,8.636c-5.286,0-9.634-3.699-10.782-8.636h-0.558
				c-1.151,4.937-5.496,8.636-10.784,8.636c-5.289,0-9.634-3.699-10.785-8.636h-0.558c-1.15,4.937-5.493,8.636-10.782,8.636
				c-5.287,0-9.637-3.699-10.785-8.636h-0.556c-1.15,4.937-5.496,8.636-10.784,8.636c-5.289,0-9.634-3.699-10.784-8.636h-0.559
				c-1.15,4.937-5.495,8.636-10.784,8.636c-5.289,0-9.634-3.699-10.782-8.636h-0.558c-1.151,4.937-5.496,8.636-10.785,8.636
				c-5.286,0-9.632-3.699-10.782-8.636h-0.558c-1.151,4.937-5.496,8.636-10.785,8.636c-5.289,0-9.633-3.699-10.784-8.636h-0.558
				c-1.15,4.937-5.496,8.636-10.782,8.636c-5.287,0-9.632-3.699-10.785-8.636h-0.556c-1.15,4.937-5.496,8.636-10.787,8.636
				c-5.287,0-9.632-3.699-10.782-8.636h-0.558c-1.15,4.937-5.495,8.636-10.782,8.636c-5.289,0-9.634-3.699-10.787-8.636h-0.556
				c-1.151,4.937-5.496,8.636-10.785,8.636c-5.287,0-9.632-3.699-10.782-8.636h-0.558c-1.151,4.937-5.496,8.636-10.785,8.636
				c-5.289,0-9.634-3.699-10.784-8.636h-0.558c-1.148,4.937-5.496,8.636-10.782,8.636c-5.289,0-9.634-3.699-10.785-8.636h-0.556
				c-1.15,4.937-5.498,8.636-10.787,8.636c-5.296,0-9.707-3.694-10.855-8.636h-0.311c-0.189-2.646-0.34-5.301-0.476-7.957
				c6.821,164.018,141.823,294.933,307.52,294.933c160.489,0,292.175-122.812,306.502-279.563
				C816.515,498.064,814.833,498.53,813.027,498.53z"/>
			<path style="fill:#F5EBD5;" d="M204.787,489.894c1.148,4.942,5.559,8.636,10.855,8.636c5.289,0,9.637-3.699,10.787-8.636h0.556
				c1.151,4.937,5.496,8.636,10.785,8.636c5.286,0,9.634-3.699,10.782-8.636h0.558c1.151,4.937,5.496,8.636,10.784,8.636
				c5.289,0,9.634-3.699,10.785-8.636h0.558c1.15,4.937,5.495,8.636,10.782,8.636c5.289,0,9.634-3.699,10.785-8.636h0.556
				c1.153,4.937,5.497,8.636,10.787,8.636c5.287,0,9.632-3.699,10.782-8.636h0.558c1.151,4.937,5.496,8.636,10.782,8.636
				c5.291,0,9.637-3.699,10.787-8.636h0.556c1.153,4.937,5.498,8.636,10.785,8.636c5.286,0,9.632-3.699,10.782-8.636h0.558
				c1.151,4.937,5.496,8.636,10.784,8.636c5.289,0,9.634-3.699,10.785-8.636h0.558c1.15,4.937,5.496,8.636,10.782,8.636
				c5.289,0,9.634-3.699,10.785-8.636h0.558c1.148,4.937,5.493,8.636,10.782,8.636c5.289,0,9.634-3.699,10.784-8.636h0.559
				c1.15,4.937,5.495,8.636,10.784,8.636c5.289,0,9.634-3.699,10.784-8.636h0.556c1.148,4.937,5.498,8.636,10.785,8.636
				c5.289,0,9.632-3.699,10.782-8.636h0.558c1.151,4.937,5.496,8.636,10.785,8.636c5.289,0,9.634-3.699,10.784-8.636h0.558
				c1.148,4.937,5.495,8.636,10.782,8.636c5.292,0,9.634-3.699,10.782-8.636h0.563c1.145,4.937,5.491,8.636,10.782,8.636
				c5.287,0,9.632-3.699,10.782-8.636h0.558c1.15,4.937,5.495,8.636,10.784,8.636c5.289,0,9.634-3.699,10.782-8.636h0.561
				c1.148,4.937,5.493,8.636,10.782,8.636c5.287,0,9.634-3.699,10.782-8.636h0.558c1.151,4.937,5.496,8.636,10.785,8.636
				c5.289,0,9.634-3.699,10.784-8.636h0.558c1.15,4.937,5.495,8.636,10.782,8.636c5.289,0,9.637-3.699,10.785-8.636h0.558
				c1.148,4.937,5.493,8.636,10.784,8.636c5.287,0,9.632-3.699,10.782-8.636h0.558c1.15,4.937,5.495,8.636,10.784,8.636
				c5.287,0,9.634-3.699,10.784-8.636h0.556c1.151,4.937,5.496,8.636,10.785,8.636c5.287,0,9.632-3.699,10.784-8.636h0.556
				c1.151,4.937,5.496,8.636,10.785,8.636c5.289,0,9.634-3.699,10.784-8.636h0.558c1.15,4.937,5.496,8.636,10.782,8.636
				c5.289,0,9.634-3.699,10.785-8.636h0.558c1.15,4.937,5.493,8.636,10.784,8.636c5.287,0,9.634-3.699,10.782-8.636h0.558
				c1.15,4.937,5.495,8.636,10.782,8.636c5.292,0,9.637-3.699,10.787-8.636h0.556c1.15,4.937,5.495,8.636,10.784,8.636
				c5.287,0,9.634-3.699,10.784-8.636h0.556c1.151,4.937,5.496,8.636,10.782,8.636c1.806,0,3.488-0.466,4.996-1.223
				c0.791-8.665,1.31-17.408,1.369-26.268h-615.74c0.024,3.656,0.199,7.272,0.349,10.899c0.136,2.656,0.286,5.311,0.476,7.957
				H204.787z"/>
		</g>
		
			<path style="fill:none;stroke:#516174;stroke-width:29.8268;stroke-linecap:round;stroke-linejoin:round;stroke-miterlimit:10;" d="
			M705.633,708.439c12.629-8.418,23.739-15.36,23.739-15.36s64.935-48.177,106.831,2.092"/>
		
			<path style="fill:none;stroke:#516174;stroke-width:29.8268;stroke-linecap:round;stroke-linejoin:round;stroke-miterlimit:10;" d="
			M467.534,775.297c19.899,1.049,26.802,0.359,42.417,0.524"/>
		
			<path style="fill:none;stroke:#516174;stroke-width:29.8268;stroke-linecap:round;stroke-linejoin:round;stroke-miterlimit:10;" d="
			M156.12,621.857l75.407-0.699c0,0,19.176,29.773,58.479,65.115"/>
		<g>
			
				<path style="fill:none;stroke:#516174;stroke-width:14.9134;stroke-linecap:round;stroke-linejoin:round;stroke-miterlimit:10;" d="
				M458.637,769.991c0,55.391-44.898,100.292-100.289,100.292c-55.386,0-100.286-44.9-100.286-100.292
				c0-55.386,44.9-100.287,100.286-100.287C413.74,669.704,458.637,714.604,458.637,769.991z"/>
			
				<path style="fill:#516174;stroke:#516174;stroke-width:14.9134;stroke-linecap:round;stroke-linejoin:round;stroke-miterlimit:10;" d="
				M375.912,769.991c0,9.705-7.864,17.569-17.564,17.569c-9.7,0-17.564-7.864-17.564-17.569c0-9.699,7.864-17.564,17.564-17.564
				C368.048,752.427,375.912,760.291,375.912,769.991z"/>
			
				<line style="fill:#516174;stroke:#516174;stroke-width:4.9711;stroke-linecap:round;stroke-linejoin:round;stroke-miterlimit:10;" x1="358.608" y1="670.733" x2="358.608" y2="872.525"/>
			
				<line style="fill:#516174;stroke:#516174;stroke-width:4.9711;stroke-linecap:round;stroke-linejoin:round;stroke-miterlimit:10;" x1="459.504" y1="771.632" x2="257.712" y2="771.632"/>
			
				<line style="fill:#516174;stroke:#516174;stroke-width:4.9711;stroke-linecap:round;stroke-linejoin:round;stroke-miterlimit:10;" x1="287.265" y1="700.288" x2="429.951" y2="842.975"/>
			
				<line style="fill:#516174;stroke:#516174;stroke-width:4.9711;stroke-linecap:round;stroke-linejoin:round;stroke-miterlimit:10;" x1="429.951" y1="700.288" x2="287.265" y2="842.975"/>
			
				<line style="fill:#516174;stroke:#516174;stroke-width:4.9711;stroke-linecap:round;stroke-linejoin:round;stroke-miterlimit:10;" x1="265.475" y1="732.819" x2="451.739" y2="810.444"/>
			
				<line style="fill:#516174;stroke:#516174;stroke-width:4.9711;stroke-linecap:round;stroke-linejoin:round;stroke-miterlimit:10;" x1="397.418" y1="678.496" x2="319.795" y2="864.763"/>
			
				<line style="fill:#516174;stroke:#516174;stroke-width:4.9711;stroke-linecap:round;stroke-linejoin:round;stroke-miterlimit:10;" x1="318.764" y1="678.937" x2="398.452" y2="864.326"/>
			
				<line style="fill:#516174;stroke:#516174;stroke-width:4.9711;stroke-linecap:round;stroke-linejoin:round;stroke-miterlimit:10;" x1="451.302" y1="731.785" x2="265.912" y2="811.474"/>
		</g>
		<g>
			
				<path style="fill:none;stroke:#516174;stroke-width:14.9134;stroke-linecap:round;stroke-linejoin:round;stroke-miterlimit:10;" d="
				M717.682,769.297c0,55.386-44.9,100.287-100.287,100.287s-100.287-44.9-100.287-100.287c0-55.391,44.901-100.291,100.287-100.291
				S717.682,713.905,717.682,769.297z"/>
			
				<path style="fill:#516174;stroke:#516174;stroke-width:14.9134;stroke-linecap:round;stroke-linejoin:round;stroke-miterlimit:10;" d="
				M634.96,769.297c0,9.7-7.865,17.564-17.564,17.564c-9.7,0-17.564-7.864-17.564-17.564c0-9.705,7.864-17.569,17.564-17.569
				C627.095,751.728,634.96,759.592,634.96,769.297z"/>
			
				<line style="fill:#516174;stroke:#516174;stroke-width:4.9711;stroke-linecap:round;stroke-linejoin:round;stroke-miterlimit:10;" x1="617.653" y1="670.039" x2="617.653" y2="871.826"/>
			
				<line style="fill:#516174;stroke:#516174;stroke-width:4.9711;stroke-linecap:round;stroke-linejoin:round;stroke-miterlimit:10;" x1="718.549" y1="770.933" x2="516.759" y2="770.933"/>
			
				<line style="fill:#516174;stroke:#516174;stroke-width:4.9711;stroke-linecap:round;stroke-linejoin:round;stroke-miterlimit:10;" x1="546.31" y1="699.589" x2="688.996" y2="842.276"/>
			
				<line style="fill:#516174;stroke:#516174;stroke-width:4.9711;stroke-linecap:round;stroke-linejoin:round;stroke-miterlimit:10;" x1="688.996" y1="699.589" x2="546.31" y2="842.276"/>
			
				<line style="fill:#516174;stroke:#516174;stroke-width:4.9711;stroke-linecap:round;stroke-linejoin:round;stroke-miterlimit:10;" x1="524.522" y1="732.12" x2="710.784" y2="809.745"/>
			
				<line style="fill:#516174;stroke:#516174;stroke-width:4.9711;stroke-linecap:round;stroke-linejoin:round;stroke-miterlimit:10;" x1="656.465" y1="677.802" x2="578.84" y2="864.064"/>
			
				<line style="fill:#516174;stroke:#516174;stroke-width:4.9711;stroke-linecap:round;stroke-linejoin:round;stroke-miterlimit:10;" x1="577.811" y1="678.239" x2="657.499" y2="863.627"/>
			
				<line style="fill:#516174;stroke:#516174;stroke-width:4.9711;stroke-linecap:round;stroke-linejoin:round;stroke-miterlimit:10;" x1="710.347" y1="731.086" x2="524.959" y2="810.774"/>
		</g>
		
			<path style="fill:none;stroke:#FFFFFF;stroke-width:4.9711;stroke-linecap:round;stroke-linejoin:round;stroke-miterlimit:10;stroke-dasharray:2.4856,29.8268;" d="
			M221.405,513.982c0,0,12.568,76.456,85.883,155.008"/>
		
			<path style="fill:none;stroke:#FFFFFF;stroke-width:4.9711;stroke-linecap:round;stroke-linejoin:round;stroke-miterlimit:10;stroke-dasharray:2.4856,29.8268;" d="
			M806.876,509.793c0,0-24.089,106.831-100.544,172.81"/>
		
			<path style="fill:none;stroke:#FFFFFF;stroke-width:4.9711;stroke-linecap:round;stroke-linejoin:round;stroke-miterlimit:10;stroke-dasharray:2.4856,29.8268;" d="
			M466.485,750.684"/>
		
			<line style="fill:none;stroke:#FFFFFF;stroke-width:4.9711;stroke-linecap:round;stroke-linejoin:round;stroke-miterlimit:10;stroke-dasharray:2.4856,29.8268;" x1="505.237" y1="751.733" x2="472.769" y2="751.733"/>
	</g>
</g>
</svg>
